<svg
    xmlns="http://www.w3.org/2000/svg"
    viewBox="0 0 100 100"
    id="vector">
    <defs>
        <clipPath id="clip_path_8">
            <path d="M 50 50 M 5 50 C 5 61.93 9.744 73.384 18.18 81.82 C 26.616 90.256 38.07 95 50 95 C 61.93 95 73.384 90.256 81.82 81.82 C 90.256 73.384 95 61.93 95 50 C 95 38.07 90.256 26.616 81.82 18.18 C 73.384 9.744 61.93 5 50 5 C 38.07 5 26.616 9.744 18.18 18.18 C 9.744 26.616 5 38.07 5 50 Z"/>
        </clipPath>
        <clipPath id="clip_path_13">
            <path d="M 50 50 M 5 50 C 5 61.93 9.744 73.384 18.18 81.82 C 26.616 90.256 38.07 95 50 95 C 61.93 95 73.384 90.256 81.82 81.82 C 90.256 73.384 95 61.93 95 50 C 95 38.07 90.256 26.616 81.82 18.18 C 73.384 9.744 61.93 5 50 5 C 38.07 5 26.616 9.744 18.18 18.18 C 9.744 26.616 5 38.07 5 50 Z"/>
        </clipPath>
        <clipPath id="clip_group_4">
            <path d="M 50 50 M 5 50 C 5 61.93 9.744 73.384 18.18 81.82 C 26.616 90.256 38.07 95 50 95 C 61.93 95 73.384 90.256 81.82 81.82 C 90.256 73.384 95 61.93 95 50 C 95 38.07 90.256 26.616 81.82 18.18 C 73.384 9.744 61.93 5 50 5 C 38.07 5 26.616 9.744 18.18 18.18 C 9.744 26.616 5 38.07 5 50 Z"/>
        </clipPath>
        <clipPath id="clip_group_7">
            <path d="M 50 50 M 5 50 C 5 61.93 9.744 73.384 18.18 81.82 C 26.616 90.256 38.07 95 50 95 C 61.93 95 73.384 90.256 81.82 81.82 C 90.256 73.384 95 61.93 95 50 C 95 38.07 90.256 26.616 81.82 18.18 C 73.384 9.744 61.93 5 50 5 C 38.07 5 26.616 9.744 18.18 18.18 C 9.744 26.616 5 38.07 5 50 Z"/>
        </clipPath>
    </defs>
    <g id="group">
        <path
            id="path"
            d="M 50 50 M 0 50 C 0 63.256 5.271 75.982 14.645 85.355 C 24.018 94.729 36.744 100 50 100 C 63.256 100 75.982 94.729 85.355 85.355 C 94.729 75.982 100 63.256 100 50 C 100 36.744 94.729 24.018 85.355 14.645 C 75.982 5.271 63.256 0 50 0 C 36.744 0 24.018 5.271 14.645 14.645 C 5.271 24.018 0 36.744 0 50 Z"
            fill="#bfbfbf"/>
        <path
            id="path_1"
            d="M 50 50 M 50 2 C 58.473 1.631 66.888 3.612 74.348 7.73 C 81.809 11.848 88.041 17.953 92.38 25.394 C 96.72 32.835 99.008 41.339 99 50 C 99 62.991 93.834 75.462 84.648 84.648 C 75.462 93.834 62.991 99 50 99 C 41.489 98.789 33.193 96.22 26 91.569 Z"
            fill="#9f9f9f"/>
        <path
            id="path_2"
            d="M 50 50 M 0 50 C 0 36.744 5.271 24.018 14.645 14.645 C 24.018 5.271 36.744 0 50 0 C 63.256 0 75.982 5.271 85.355 14.645 C 75.987 5.562 63.479 0.529 50.509 0.622 C 37.54 0.715 25.104 5.927 15.863 15.143 C 6.623 24.359 1.288 36.87 1 50 C 1.251 63.173 6.496 75.747 15.628 85.065 C 24.76 94.383 37.086 99.739 50 100 C 36.744 100 24.018 94.729 14.645 85.355 C 5.271 75.982 0 63.256 0 50 Z"
            fill="#dfdfdf"/>
    </g>
    <path
        id="path_3"
        d="M 50 50 M 2 50 C 2 62.726 7.061 74.943 16.059 83.941 C 25.057 92.939 37.274 98 50 98 C 62.726 98 74.943 92.939 83.941 83.941 C 92.939 74.943 98 62.726 98 50 C 98 37.274 92.939 25.057 83.941 16.059 C 74.943 7.061 62.726 2 50 2 C 37.274 2 25.057 7.061 16.059 16.059 C 7.061 25.057 2 37.274 2 50 Z"
        fill="#0f0f0f"/>
    <path
        id="path_4"
        d="M 50 50 M 5 50 C 5 61.93 9.744 73.384 18.18 81.82 C 26.616 90.256 38.07 95 50 95 C 61.93 95 73.384 90.256 81.82 81.82 C 90.256 73.384 95 61.93 95 50 C 95 38.07 90.256 26.616 81.82 18.18 C 73.384 9.744 61.93 5 50 5 C 38.07 5 26.616 9.744 18.18 18.18 C 9.744 26.616 5 38.07 5 50 Z"
        fill="#171717"/>
    <g id="group_1">
        <path
            id="path_5"
            d="M 50 50 M 46 50 C 46 51.06 46.422 52.079 47.172 52.828 C 47.921 53.578 48.94 54 50 54 C 51.06 54 52.079 53.578 52.828 52.828 C 53.578 52.079 54 51.06 54 50 C 54 48.94 53.578 47.921 52.828 47.172 C 52.079 46.422 51.06 46 50 46 C 48.94 46 47.921 46.422 47.172 47.172 C 46.422 47.921 46 48.94 46 50 Z"
            fill="#cfcfcf"/>
        <path
            id="path_6"
            d="M 50 50 M 46.536 52 C 46.185 51.392 46 50.702 46 50 C 46 49.06 46.331 48.149 46.936 47.429 C 47.54 46.709 48.38 46.224 49.305 46.061 C 50.231 45.898 51.186 46.066 52 46.536 C 50.821 46.41 49.634 46.704 48.697 47.352 C 47.761 48.001 47.151 48.953 47 50 L 53 50 C 52.566 51.095 51.946 51.982 51.209 52.565 C 50.472 53.148 49.646 53.403 48.821 53.304 C 47.997 53.204 47.206 52.753 46.536 52 Z"
            fill="#dfdfdf"/>
        <path
            id="path_7"
            d="M 50 50 M 47 50 C 47.003 50.794 47.32 51.555 47.882 52.115 C 48.444 52.676 49.206 52.991 50 52.991 C 50.794 52.991 51.556 52.676 52.118 52.115 C 52.68 51.555 52.997 50.794 53 50 C 52.997 49.206 52.68 48.445 52.118 47.885 C 51.556 47.324 50.794 47.009 50 47.009 C 49.206 47.009 48.444 47.324 47.882 47.885 C 47.32 48.445 47.003 49.206 47 50 Z"
            fill="#9f9f9f"/>
    </g>
    <g id="group_2">
        <path
            id="path_8"
            clip-path="url(#clip_path_8)"
            d="M 50 50 M 50 5 L 54 11 L 46 11 L 50 5 Z"
            fill="#ff0000"
            stroke="#ff0000"
            stroke-width="0.375"
            stroke-linejoin="round"/>
    </g>
    <g id="group_3">
        <path
            id="path_9"
            d="M 50 50 M 47.25 25.5 L 47.25 17.5 L 52.75 25.5 L 52.75 17.5"
            fill="none"
            stroke="#ffffff"
            stroke-width="1"
            stroke-linecap="round"
            stroke-linejoin="round"/>
        <path
            id="path_10"
            d="M 50 50 M 82 47.5 L 82 52.5 L 82 47.5 L 78 47.5 L 78 51.5 L 78 47.5 L 74 47.5 L 74 52.5 L 74 47.5"
            fill="none"
            stroke="#ffffff"
            stroke-width="1"
            stroke-linecap="round"
            stroke-linejoin="round"/>
        <path
            id="path_11"
            d="M 50 50 M 48.25 80.75 C 48.25 83 51.75 83 51.75 80.75 C 51.75 79.75 51 79.25 50 78.75 C 49 78.25 48 77.5 48 76.5 C 48 74 52 74 52 76.5"
            fill="none"
            stroke="#ffffff"
            stroke-width="1"
            stroke-linecap="round"
            stroke-linejoin="round"/>
        <path
            id="path_12"
            d="M 50 50 M 17.5 46 L 25.5 48 L 18.5 50 L 25.5 52 L 17.5 54"
            fill="none"
            stroke="#ffffff"
            stroke-width="1"
            stroke-linecap="round"
            stroke-linejoin="round"/>
    </g>
    <g id="group_8">
        <path
            id="path_13"
            clip-path="url(#clip_path_13)"
            d="M 50 50 M 50 88 L 50 95 M 88 50 L 95 50 M 12 50 L 5 50"
            fill="none"
            stroke="#ff0000"
            stroke-width="0.75"
            stroke-linecap="round"/>
        <g clip-path="url(#clip_group_4)">
            <g
                id="group_4"
                transform="rotate(45 50 50)">
                <path
                    id="path_14"
                    d="M 50 50 M 50 10 L 50 5 M 50 90 L 50 95 M 90 50 L 95 50 M 10 50 L 5 50"
                    fill="none"
                    stroke="#ffffff"
                    stroke-width="0.5"
                    stroke-linecap="round"/>
            </g>
        </g>
        <g
            id="group_7"
            clip-path="url(#clip_group_7)">
            <g
                id="group_5"
                transform="rotate(22.5 50 50)">
                <path
                    id="path_15"
                    d="M 50 50 M 50 7.5 L 50 5 M 50 92.5 L 50 95 M 92.5 50 L 95 50 M 7.5 50 L 5 50"
                    fill="none"
                    stroke="#ffffff"
                    stroke-width="0.5"
                    stroke-linecap="round"/>
            </g>
            <g
                id="group_6"
                transform="rotate(67.5 50 50)">
                <path
                    id="path_16"
                    d="M 50 50 M 50 7.5 L 50 5 M 50 92.5 L 50 95 M 92.5 50 L 95 50 M 7.5 50 L 5 50"
                    fill="none"
                    stroke="#ffffff"
                    stroke-width="0.5"
                    stroke-linecap="round"/>
            </g>
        </g>
    </g>
</svg>
