<svg
    xmlns="http://www.w3.org/2000/svg"
    viewBox="0 0 100 100"
    id="vector">
    <path
        id="path_12"
        d="M 50 50 M 46 46 L 49.5 11 C 49.75 8.5 50.25 8.5 50.5 11 L 54 46 C 54.333 49.333 54.333 50.666 54 54 L 50.5 89 C 50.25 91.5 49.75 91.5 49.5 89 L 46 54 C 45.667 50.667 45.667 49.334 46 46 Z"
        fill="#bfbfbf"/>
    <g id="group_7">
        <path
            id="path_13"
            d="M 50 50 M 46 50 C 46 51.06 46.422 52.079 47.172 52.828 C 47.921 53.578 48.94 54 50 54 C 51.06 54 52.079 53.578 52.828 52.828 C 53.578 52.079 54 51.06 54 50 C 54 48.94 53.578 47.921 52.828 47.172 C 52.079 46.422 51.06 46 50 46 C 48.94 46 47.921 46.422 47.172 47.172 C 46.422 47.921 46 48.94 46 50 Z"
            fill="#cfcfcf"/>
        <path
            id="path_14"
            d="M 50 50 M 46.536 52 C 46.185 51.392 46 50.702 46 50 C 46 49.06 46.331 48.149 46.936 47.429 C 47.54 46.709 48.38 46.224 49.305 46.061 C 50.231 45.898 51.186 46.066 52 46.536 C 50.821 46.41 49.634 46.704 48.697 47.352 C 47.761 48.001 47.151 48.953 47 50 L 53 50 C 52.566 51.095 51.946 51.982 51.209 52.565 C 50.472 53.148 49.646 53.403 48.821 53.304 C 47.997 53.204 47.206 52.753 46.536 52 Z"
            fill="#dfdfdf"/>
        <path
            id="path_15"
            d="M 50 50 M 47 50 C 47.003 50.794 47.32 51.555 47.882 52.115 C 48.444 52.676 49.206 52.991 50 52.991 C 50.794 52.991 51.556 52.676 52.118 52.115 C 52.68 51.555 52.997 50.794 53 50 C 52.997 49.206 52.68 48.445 52.118 47.885 C 51.556 47.324 50.794 47.009 50 47.009 C 49.206 47.009 48.444 47.324 47.882 47.885 C 47.32 48.445 47.003 49.206 47 50 Z"
            fill="#9f9f9f"/>
    </g>
    <path
        id="path_16"
        d="M 50 50 M 46.75 38.5 L 49.5 11 C 49.75 8.5 50.25 8.5 50.5 11 L 53.25 38.5 L 59.75 38.5 Z"
        fill="#ff0000"/>
    <path
        id="path_17"
        d="M 50 50 M 53.5 38.5 L 50.75 11 C 50.5 8.5 49.5 8.5 49.25 11 L 49.75 11 C 50 9 50 9 50.25 11 L 53 38.5 Z"
        fill="#cf0000"/>
    <path
        id="path_18"
        d="M 50 50 M 46.75 38.5 L 46.75 38 L 53.25 38 L 53.25 38.5 L 46.75 38.5 Z"
        fill="#cf0000"/>
    <path
        id="path_19"
        d="M 50 50 M 46.5 38.5 L 49.25 11 C 49.5 8.5 50.5 8.5 50.75 11 C 50.5 9 50 9 49.75 11 L 47 38.5 L 46.5 38.5 Z"
        fill="#ff2f2f"/>
</svg>