<svg
    xmlns="http://www.w3.org/2000/svg"
    viewBox="0 0 100 100"
    id="vector">
    <defs>
        <clipPath id="clip_path_8">
            <path d="M 50 50 M 2 50 C 2 62.726 7.061 74.943 16.059 83.941 C 25.057 92.939 37.274 98 50 98 C 62.726 98 74.943 92.939 83.941 83.941 C 92.939 74.943 98 62.726 98 50 C 98 37.274 92.939 25.057 83.941 16.059 C 74.943 7.061 62.726 2 50 2 C 37.274 2 25.057 7.061 16.059 16.059 C 7.061 25.057 2 37.274 2 50 Z"/>
        </clipPath>
        <clipPath id="clip_group_2">
            <path d="M 50 50 M 2 50 C 2 62.726 7.061 74.943 16.059 83.941 C 25.057 92.939 37.274 98 50 98 C 62.726 98 74.943 92.939 83.941 83.941 C 92.939 74.943 98 62.726 98 50 C 98 37.274 92.939 25.057 83.941 16.059 C 74.943 7.061 62.726 2 50 2 C 37.274 2 25.057 7.061 16.059 16.059 C 7.061 25.057 2 37.274 2 50 Z"/>
        </clipPath>
        <clipPath id="clip_group_5">
            <path d="M 50 50 M 2 50 C 2 62.726 7.061 74.943 16.059 83.941 C 25.057 92.939 37.274 98 50 98 C 62.726 98 74.943 92.939 83.941 83.941 C 92.939 74.943 98 62.726 98 50 C 98 37.274 92.939 25.057 83.941 16.059 C 74.943 7.061 62.726 2 50 2 C 37.274 2 25.057 7.061 16.059 16.059 C 7.061 25.057 2 37.274 2 50 Z"/>
        </clipPath>
    </defs>
    <g id="group">
        <path
            id="path"
            d="M 50 50 M 0 50 C 0 63.256 5.271 75.982 14.645 85.355 C 24.018 94.729 36.744 100 50 100 C 63.256 100 75.982 94.729 85.355 85.355 C 94.729 75.982 100 63.256 100 50 C 100 36.744 94.729 24.018 85.355 14.645 C 75.982 5.271 63.256 0 50 0 C 36.744 0 24.018 5.271 14.645 14.645 C 5.271 24.018 0 36.744 0 50 Z"
            fill="#bfbfbf"/>
        <path
            id="path_1"
            d="M 50 50 M 50 2 C 58.473 1.631 66.888 3.612 74.348 7.73 C 81.809 11.848 88.041 17.953 92.38 25.394 C 96.72 32.835 99.008 41.339 99 50 C 99 62.991 93.834 75.462 84.648 84.648 C 75.462 93.834 62.991 99 50 99 C 41.489 98.789 33.193 96.22 26 91.569 Z"
            fill="#9f9f9f"/>
        <path
            id="path_2"
            d="M 50 50 M 0 50 C 0 36.744 5.271 24.018 14.645 14.645 C 24.018 5.271 36.744 0 50 0 C 63.256 0 75.982 5.271 85.355 14.645 C 75.987 5.562 63.479 0.529 50.509 0.622 C 37.54 0.715 25.104 5.927 15.863 15.143 C 6.623 24.359 1.288 36.87 1 50 C 1.251 63.173 6.496 75.747 15.628 85.065 C 24.76 94.383 37.086 99.739 50 100 C 36.744 100 24.018 94.729 14.645 85.355 C 5.271 75.982 0 63.256 0 50 Z"
            fill="#dfdfdf"/>
        
    </g>
    <path
        id="path_3"
        d="M 50 50 M 2 50 C 2 62.726 7.061 74.943 16.059 83.941 C 25.057 92.939 37.274 98 50 98 C 62.726 98 74.943 92.939 83.941 83.941 C 92.939 74.943 98 62.726 98 50 C 98 37.274 92.939 25.057 83.941 16.059 C 74.943 7.061 62.726 2 50 2 C 37.274 2 25.057 7.061 16.059 16.059 C 7.061 25.057 2 37.274 2 50 Z"
        fill="#171717"/>
    <g id="group_1">
        <g id="group_6">
            <path
                id="path_8"
                clip-path="url(#clip_path_8)"
                d="M 50 50 M 50 7 L 50 2 M 50 93 L 50 98 M 93 50 L 98 50 M 7 50 L 2 50"
                fill="none"
                stroke="#ffffff"
                stroke-width="0.75"
                stroke-linecap="round"/>
            <g clip-path="url(#clip_group_2)">
                <g
                    id="group_2"
                    transform="rotate(45 50 50)">
                    <path
                        id="path_9"
                        d="M 50 50 M 50 6 L 50 2 M 50 94 L 50 98 M 94 50 L 98 50 M 6 50 L 2 50"
                        fill="none"
                        stroke="#ffffff"
                        stroke-width="0.5"
                        stroke-linecap="round"/>
                </g>
            </g>
            <g
                id="group_5"
                clip-path="url(#clip_group_5)">
                <g
                    id="group_3"
                    transform="rotate(22.5 50 50)">
                    <path
                        id="path_10"
                        d="M 50 50 M 50 4 L 50 2 M 50 96 L 50 98 M 96 50 L 98 50 M 4 50 L 2 50"
                        fill="none"
                        stroke="#ffffff"
                        stroke-width="0.5"
                        stroke-linecap="round"/>
                </g>
                <g
                    id="group_4"
                    transform="rotate(67.5 50 50)">
                    <path
                        id="path_11"
                        d="M 50 50 M 50 4 L 50 2 M 50 96 L 50 98 M 96 50 L 98 50 M 4 50 L 2 50"
                        fill="none"
                        stroke="#ffffff"
                        stroke-width="0.5"
                        stroke-linecap="round"/>
                </g>
            </g>
        </g>
        <path
            id="path_4"
            d="M 50 50 M 47.25 20.5 L 47.25 12.5 L 52.75 20.5 L 52.75 12.5"
            fill="none"
            stroke="#ffffff"
            stroke-width="1"
            stroke-linecap="round"
            stroke-linejoin="round"/>
        <path
            id="path_5"
            d="M 50 50 M 87 47.5 L 87 52.5 L 87 47.5 L 83 47.5 L 83 51.5 L 83 47.5 L 79 47.5 L 79 52.5 L 79 47.5"
            fill="none"
            stroke="#ffffff"
            stroke-width="1"
            stroke-linecap="round"
            stroke-linejoin="round"/>
        <path
            id="path_6"
            d="M 50 50 M 48.25 85.75 C 48.25 88 51.75 88 51.75 85.75 C 51.75 84.75 51 84.25 50 83.75 C 49 83.25 48 82.5 48 81.5 C 48 79 52 79 52 81.5"
            fill="none"
            stroke="#ffffff"
            stroke-width="1"
            stroke-linecap="round"
            stroke-linejoin="round"/>
        <path
            id="path_7"
            d="M 50 50 M 12.5 46 L 20.5 48 L 13.5 50 L 20.5 52 L 12.5 54"
            fill="none"
            stroke="#ffffff"
            stroke-width="1"
            stroke-linecap="round"
            stroke-linejoin="round"/>
    </g>
</svg>
