<?xml version="1.0" encoding="utf-8"?>
<!-- Generator: Adobe Illustrator 21.0.0, SVG Export Plug-In . SVG Version: 6.00 Build 0)  -->
<svg version="1.1" id="Layer_1" xmlns="http://www.w3.org/2000/svg" xmlns:xlink="http://www.w3.org/1999/xlink" x="0px" y="0px"
	 viewBox="0 0 17 17" style="enable-background:new 0 0 17 17;" xml:space="preserve">
<style type="text/css">
	.st0{fill:#444444;}
</style>
<title>rail-11.svg</title>
<path class="st0" d="M12,13.5c0,0.3-0.2,0.5-0.5,0.5c-0.2,0-0.3-0.1-0.4-0.3l0,0L10.7,13H6.3l-0.4,0.7l0,0C5.9,13.9,5.7,14,5.5,14
	C5.2,14,5,13.8,5,13.5c0-0.1,0-0.2,0.1-0.2l0,0l1-2l0,0C6.2,11.1,6.3,11,6.5,11C6.8,11,7,11.2,7,11.5c0,0.1,0,0.2,0,0.2L6.8,12h3.4
	L10,11.7c-0.1-0.3,0-0.5,0.3-0.6c0.2-0.1,0.5,0,0.6,0.2l0,0l1,2l0,0C12,13.3,12,13.4,12,13.5z M11,3H6C5.4,3,5,3.4,5,4v5
	c0,0.6,0.4,1,1,1h5c0.6,0,1-0.4,1-1V4C12,3.4,11.6,3,11,3z M6.5,9C6.2,9,6,8.8,6,8.5S6.2,8,6.5,8S7,8.2,7,8.5S6.8,9,6.5,9z M6.5,7
	C6.2,7,6,6.8,6,6.5v-2C6,4.2,6.2,4,6.5,4h1.8v3H6.5z M10.5,9C10.2,9,10,8.8,10,8.5S10.2,8,10.5,8S11,8.2,11,8.5S10.8,9,10.5,9z
	 M11,6.5C11,6.8,10.8,7,10.5,7H8.7V4h1.8C10.8,4,11,4.2,11,4.5V6.5z"/>
</svg>
