<svg height="512" viewBox="0 0 51 59" width="512" xmlns="http://www.w3.org/2000/svg"><g id="Page-1" fill="none" fill-rule="evenodd"><g id="012---Change-Lane-Arrow" fill="rgb(0,0,0)" fill-rule="nonzero" transform="translate(0 -1)"><path id="Shape" d="m1 20h6v15.52c.00169502 1.8096834 1.21388983 3.3945462 2.96 3.87l9.04 2.42 9.0522 2.4214c-.0291077.0834172-.0466705.1704234-.0522.2586v1.78c0 .3572656.1905989.6873926.5.8660255.3094011.1786328.6905989.1786328 1 0 .3094011-.1786329.5-.5087599.5-.8660255v-1.5175l8.2584 2.2091c.4373764.1169913.7415828.5132472.7416.966v10.0724c0 .5522847.4477153 1 1 1h10c.5522847 0 1-.4477153 1-1v-17.7382c-.0000177-1.3577475-.911934-2.5462244-2.2234-2.8977l-2.7766-.7441-7-1.88-9.0515-2.4251c.0285949-.0822522.045919-.1679981.0515-.2549v-3.61c0-.5522847-.4477153-1-1-1s-1 .4477153-1 1v3.3427l-8.26-2.2127c-.4388835-.1169325-.7431875-.5158174-.74-.97v-8.61h6c.3708398.002689.7118642-.2028062.8827573-.5319337s.1427857-.7262873-.0727573-1.0280663l-11.97-17.03c-.1884555-.25917327-.4895531-.41251592-.81-.41251592s-.6215445.15334265-.81.41251592l-12.03 17.03c-.215543.301779-.2436504.6989388-.07275728 1.0280663.17089311.3291275.51191752.5346227.88275728.5319337z"/><path id="Shape" d="m30 3c0-.55228475-.4477153-1-1-1s-1 .44771525-1 1v5.0908c0 .55228475.4477153 1 1 1s1-.44771525 1-1z"/><path id="Shape" d="m29 14.7271c-.5522847 0-1 .4477153-1 1v5.0913c0 .5522847.4477153 1 1 1s1-.4477153 1-1v-5.0913c0-.5522847-.4477153-1-1-1z"/><path id="Shape" d="m30 59v-5.0908c0-.5522847-.4477153-1-1-1s-1 .4477153-1 1v5.0908c0 .5522847.4477153 1 1 1s1-.4477153 1-1z"/></g></g></svg>