<?xml version="1.0" encoding="UTF-8" standalone="no"?>
<svg
   xmlns:dc="http://purl.org/dc/elements/1.1/"
   xmlns:cc="http://creativecommons.org/ns#"
   xmlns:rdf="http://www.w3.org/1999/02/22-rdf-syntax-ns#"
   xmlns:svg="http://www.w3.org/2000/svg"
   xmlns="http://www.w3.org/2000/svg"
   xmlns:sodipodi="http://sodipodi.sourceforge.net/DTD/sodipodi-0.dtd"
   xmlns:inkscape="http://www.inkscape.org/namespaces/inkscape"
   height="512"
   viewBox="0 0 51 59"
   width="512"
   version="1.1"
   id="svg842"
   sodipodi:docname="change_right.svg"
   inkscape:version="1.0.1 (c497b03c, 2020-09-10)">
  <metadata
     id="metadata848">
    <rdf:RDF>
      <cc:Work
         rdf:about="">
        <dc:format>image/svg+xml</dc:format>
        <dc:type
           rdf:resource="http://purl.org/dc/dcmitype/StillImage" />
        <dc:title></dc:title>
      </cc:Work>
    </rdf:RDF>
  </metadata>
  <defs
     id="defs846" />
  <sodipodi:namedview
     pagecolor="#ffffff"
     bordercolor="#666666"
     borderopacity="1"
     objecttolerance="10"
     gridtolerance="10"
     guidetolerance="10"
     inkscape:pageopacity="0"
     inkscape:pageshadow="2"
     inkscape:window-width="1131"
     inkscape:window-height="964"
     id="namedview844"
     showgrid="false"
     inkscape:zoom="1.390625"
     inkscape:cx="256"
     inkscape:cy="256"
     inkscape:window-x="0"
     inkscape:window-y="23"
     inkscape:window-maximized="0"
     inkscape:current-layer="svg842" />
  <g
     id="Page-1"
     fill="none"
     fill-rule="evenodd"
     transform="matrix(-1,0,0,1,51.006243,0)">
    <g
       id="012---Change-Lane-Arrow"
       fill="#000000"
       fill-rule="nonzero"
       transform="translate(0,-1)">
      <path
         id="Shape"
         d="m 1,20 h 6 v 15.52 c 0.00169,1.809683 1.2138898,3.394546 2.96,3.87 l 9.04,2.42 9.0522,2.4214 C 28.023092,44.314817 28.005529,44.401823 28,44.49 v 1.78 c 0,0.357266 0.190599,0.687393 0.5,0.866025 0.309401,0.178633 0.690599,0.178633 1,0 C 29.809401,46.957393 30,46.627266 30,46.27 v -1.5175 l 8.2584,2.2091 c 0.437376,0.116991 0.741583,0.513247 0.7416,0.966 V 58 c 0,0.552285 0.447715,1 1,1 h 10 c 0.552285,0 1,-0.447715 1,-1 V 40.2618 c -1.8e-5,-1.357748 -0.911934,-2.546224 -2.2234,-2.8977 L 46,36.62 39,34.74 29.9485,32.3149 C 29.977095,32.232648 29.994419,32.146902 30,32.06 v -3.61 c 0,-0.552285 -0.447715,-1 -1,-1 -0.552285,0 -1,0.447715 -1,1 v 3.3427 L 19.74,29.58 C 19.301117,29.463067 18.996812,29.064183 19,28.61 V 20 h 6 c 0.37084,0.0027 0.711864,-0.202806 0.882757,-0.531934 C 26.05365,19.138939 26.025543,18.741779 25.81,18.44 L 13.84,1.41 C 13.651545,1.1508267 13.350447,0.99748408 13.03,0.99748408 12.709553,0.99748408 12.408456,1.1508267 12.22,1.41 L 0.19,18.44 c -0.215543,0.301779 -0.2436504,0.698939 -0.0727573,1.028066 C 0.28813583,19.797194 0.62916024,20.002689 1,20 Z" />
      <path
         id="path834"
         d="M 30,3 C 30,2.4477153 29.552285,2 29,2 28.447715,2 28,2.4477153 28,3 v 5.0908 c 0,0.5522848 0.447715,1 1,1 0.552285,0 1,-0.4477152 1,-1 z" />
      <path
         id="path836"
         d="m 29,14.7271 c -0.552285,0 -1,0.447715 -1,1 v 5.0913 c 0,0.552285 0.447715,1 1,1 0.552285,0 1,-0.447715 1,-1 v -5.0913 c 0,-0.552285 -0.447715,-1 -1,-1 z" />
      <path
         id="path838"
         d="m 30,59 v -5.0908 c 0,-0.552285 -0.447715,-1 -1,-1 -0.552285,0 -1,0.447715 -1,1 V 59 c 0,0.552285 0.447715,1 1,1 0.552285,0 1,-0.447715 1,-1 z" />
    </g>
  </g>
</svg>
