<svg xmlns="http://www.w3.org/2000/svg" width="1em" height="1em" viewBox="0 0 24 24" fill="none" class="tw-fill-current css-4odaq7"><path fill-rule="evenodd" clip-rule="evenodd" d="M8.88 21.43h1.551v1.553H8.88V21.43zm6.482-.206h1.552v-1.552h-1.552v1.552zm3.328.155h1.551v-1.551H18.69v1.551zm3.361-1.81h1.552v-1.552h-1.552v1.552zM2.965 23.724h1.552v-1.552H2.965v1.552zM13.16.004a1.517 1.517 0 10.232 3.026A1.517 1.517 0 0013.16.004zM5.724 18.172A3.728 3.728 0 012 14.448a3.728 3.728 0 013.724-3.724 3.729 3.729 0 013.724 3.724 3.729 3.729 0 01-3.724 3.724zm0-5.793a2.07 2.07 0 00-2.069 2.07 2.07 2.07 0 002.07 2.068c1.14 0 2.068-.927 2.068-2.069a2.071 2.071 0 00-2.069-2.069zm11.796 2.725a3.728 3.728 0 01-3.724-3.724 3.728 3.728 0 013.724-3.725 3.729 3.729 0 013.725 3.725 3.729 3.729 0 01-3.725 3.724zm0-5.793a2.07 2.07 0 00-2.068 2.069 2.07 2.07 0 002.068 2.069c1.14 0 2.07-.928 2.07-2.07a2.071 2.071 0 00-2.07-2.068zm-.83-3.414l-.414 1.241c-.929-.11-2.965-.587-2.965-.587s-1.008-.631-1.49-.986L8.65 7.566l3.136 1.904.09.303 1.054 4.09-1.425.446-1.11-3.709s-2.12-.876-3.085-1.428C6.42 8.664 6.24 8.517 5.828 8c-.327-.408-.276-1.552.345-2.103l3.962-2.85a.949.949 0 011.338-.072s1.858 1.545 2.648 2.137c.846.172 1.726.588 2.569.785zM2.433 21.843l-.867-1.41 2.107-1.296 2.286.672 2.71-1.609 2.962-.895 1.553 1.462 3.078-2.116 2.981.823 2.813-2.102.99 1.326-3.462 2.587-3.019-.833-3.543 2.436-1.963-1.848-1.729.76-3.014 1.84-2.403-.707-1.48.91z" fill="#000"/></svg>