<svg xmlns="http://www.w3.org/2000/svg" width="1em" height="1em" viewBox="0 0 24 24" fill="none" class="tw-fill-current tw-flex-shrink-0 tw-mr-3 tw-text-white css-4odaq7"><path d="M13.53 4.4a1.7 1.7 0 100-3.4 1.7 1.7 0 000 3.4zM15.134 11.197l.19.284.377.094 3.682.378.378-1.51-3.21-.567s-1.7-2.267-2.172-2.928c-1.227-1.7-2.077-1.7-2.077-1.7-.567 0-.944.473-1.039 1.04-1.039 4.06-4.06 16.145-4.06 16.145L8.997 23l2.644-8.309h.094l2.455 2.455.85 5.854 1.888-.283-.85-6.138v-.283l-.188-.283-2.739-3.21.945-3.305 1.038 1.7zM9.941 6.004l-1.416 6.138s-.378.283-1.133 0c-4.816-.567-1.228-6.327.944-6.61 2.172-.283 1.605.472 1.605.472z" fill="#000"/></svg>