<svg height="512" viewBox="0 0 58 58" width="512" xmlns="http://www.w3.org/2000/svg"><g id="Page-1" fill="none" fill-rule="evenodd"><g id="008---Left-Turn-Arrow" fill="rgb(0,0,0)" fill-rule="nonzero" transform="translate(-1)"><path id="Shape" d="m52 7h-32v-6c.002689-.37083976-.2028062-.71186417-.5319337-.88275728-.3291275-.17089312-.7262873-.14278572-1.0280663.07275728l-17.03 11.97c-.25917327.1884555-.41251592.4895531-.41251592.81s.15334265.6215445.41251592.81l4.42 3.12 9.81 6.93 2.8 1.98c.301779.215543.6989388.2436504 1.0280663.0727573s.5346227-.5119175.5319337-.8827573v-6h26c.5522847 0 1 .4477153 1 1v37c.0015928.5516236.4483764.9984072 1 1h10c.5516236-.0015928.9984072-.4483764 1-1v-43c0-1.8565154-.7374979-3.6369928-2.0502525-4.94974747-1.3127547-1.31275465-3.0932321-2.05025253-4.9497475-2.05025253z"/></g></g></svg>