<svg height="512" viewBox="0 0 50 58" width="512" xmlns="http://www.w3.org/2000/svg"><g id="Page-1" fill="none" fill-rule="evenodd"><g id="001---Left-Arrow" fill="rgb(0,0,0)" fill-rule="nonzero"><path id="Shape" d="m12.3 24.05c.2057435.3066583.5631572.4757.9307292.4401959.3675719-.0355041.6860242-.2698284.8292708-.6101959l2.49-5.97c8.52 4.73 21.45 15.39 21.45 36.09v3c.0015928.5516236.4483764.9984072 1 1h10c.5516236-.0015928.9984072-.4483764 1-1v-3c.1725295-12.2638133-4.0887223-24.1775633-12-33.55-4.6661593-5.6105755-10.3702534-10.2689191-16.8-13.72l2.19-5.25c.1440841-.33893982.0884896-.7298102-.1443851-1.0151342-.2328748-.28532401-.6046781-.41811219-.9656149-.3448658l-21.47 4.19c-.32730274.0669429-.60012167.29180635-.72832885.60030489-.12820719.30849855-.09512079.66049148.08832885.93969511z"/><path id="Shape" d="m50 38.87v-37.87c-.0015928-.55162365-.4483764-.99840721-1-1h-10c-.5516236.00159279-.9984072.44837635-1 1v16.41c.52.58 1.03 1.16 1.53 1.76 4.8742245 5.7317993 8.4464368 12.4531538 10.47 19.7z"/></g></g></svg>