<svg height="512" viewBox="0 0 46 58" width="512" xmlns="http://www.w3.org/2000/svg"><g id="Page-1" fill="none" fill-rule="evenodd"><g id="014---Left-Turn-Arrow" fill="rgb(0,0,0)" fill-rule="nonzero"><path id="Shape" d="m1.894 6.45 4.06 11.3 1.15 3.23c.12396679.3506652.43338092.6027454.80186441.6532803.3684835.0505349.73433905-.1089369.94813559-.4132803l3.44-4.92 19.8571 13.9028c.5345684.3742831.8529192.9858272.8529 1.6384v25.1588c0 .5522847.4477153 1 1 1h10c.5522847 0 1-.4477153 1-1v-28.8079c-.0000775-2.282705-1.1131806-4.4219904-2.9825-5.7321l-9.0175-6.32-13.83-9.68 3.44-4.9c.2157806-.30173088.2440161-.69901712.0730774-1.02823247-.1709388-.32921535-.5121403-.53467854-.8830774-.53176753l-20.82.03c-.31934015.00999453-.61524156.17008639-.79832863.43192058-.18308707.26183419-.23189121.59470836-.13167137.89807942z"/></g></g></svg>