<?xml version="1.0" encoding="UTF-8" ?>
<!DOCTYPE svg PUBLIC "-//W3C//DTD SVG 1.1//EN" "http://www.w3.org/Graphics/SVG/1.1/DTD/svg11.dtd">
<svg width="150pt" height="152pt" viewBox="0 0 150 152" version="1.1" xmlns="http://www.w3.org/2000/svg">
<g id="#000000ff">
<path fill="#000000" opacity="1.00" d=" M 0.00 0.00 L 0.27 0.00 C 0.21 0.06 0.07 0.19 0.00 0.26 L 0.00 0.00 Z" />
<path fill="#000000" opacity="1.00" d=" M 71.58 20.49 C 77.30 17.65 84.83 22.80 83.72 29.23 C 83.26 35.66 74.78 39.16 69.81 35.16 C 64.55 31.65 65.84 22.79 71.58 20.49 Z" />
<path fill="#000000" opacity="1.00" d=" M 119.29 25.52 C 122.32 24.85 125.36 24.17 128.40 23.50 C 130.34 32.77 132.27 42.05 134.22 51.33 C 128.66 56.47 123.11 61.62 117.53 66.75 C 117.02 69.53 116.50 72.32 115.99 75.11 C 118.36 79.59 120.73 84.07 123.09 88.55 C 120.88 96.39 118.70 104.24 116.50 112.08 C 112.31 115.37 108.13 118.66 103.98 122.00 C 102.85 122.95 101.52 123.68 100.02 123.79 C 93.97 124.66 87.92 125.62 81.86 126.47 C 75.60 126.90 72.45 133.64 66.93 135.76 C 62.30 136.63 57.69 137.70 53.01 138.23 C 47.16 136.43 41.55 133.88 35.78 131.81 C 36.70 128.60 37.63 125.40 38.56 122.19 C 43.75 124.08 48.76 126.50 54.04 128.10 C 57.01 127.86 59.96 127.24 62.87 126.58 C 68.30 124.28 71.50 117.61 77.83 117.33 C 83.24 116.62 88.63 115.72 94.04 115.00 C 100.00 114.91 103.74 109.63 108.43 106.72 C 109.83 100.99 111.29 95.26 112.71 89.53 C 110.25 85.16 107.82 80.77 105.37 76.40 C 106.46 71.42 107.56 66.45 108.65 61.47 C 113.63 56.99 118.61 52.52 123.59 48.04 C 122.15 40.54 120.73 33.03 119.29 25.52 Z" />
<path fill="#000000" opacity="1.00" d=" M 59.38 44.19 C 59.84 41.55 62.67 40.28 65.02 39.83 C 67.47 39.47 69.53 41.09 71.43 42.38 C 76.29 46.03 80.86 50.06 85.14 54.36 C 90.62 53.87 96.10 53.36 101.57 52.85 C 101.90 55.47 102.25 58.08 102.59 60.70 C 95.80 61.95 88.99 63.07 82.23 64.46 C 79.19 62.07 76.21 59.62 73.23 57.15 C 71.96 61.54 70.70 65.93 69.44 70.31 C 74.60 73.29 79.91 76.03 84.99 79.15 C 86.82 80.12 86.98 82.39 87.31 84.20 C 88.20 92.47 89.04 100.75 89.93 109.03 C 86.73 109.37 83.52 109.70 80.31 110.04 C 79.56 102.20 78.79 94.36 78.04 86.51 C 72.73 84.55 67.75 81.59 62.15 80.48 C 58.35 93.12 54.52 105.75 50.71 118.40 C 47.59 117.38 44.47 116.37 41.34 115.36 C 45.42 100.51 49.51 85.68 53.57 70.83 C 55.73 62.00 57.29 53.03 59.38 44.19 Z" />
<path fill="#000000" opacity="1.00" d=" M 40.01 42.02 C 43.79 40.59 48.25 39.87 52.07 41.58 C 49.10 52.54 46.93 63.71 44.38 74.78 C 39.79 75.45 34.95 74.20 30.92 71.99 C 25.73 68.79 25.76 61.63 27.60 56.50 C 29.96 50.53 34.27 45.05 40.01 42.02 Z" />
<path fill="#000000" opacity="1.00" d=" M 0.00 151.72 C 0.06 151.79 0.19 151.93 0.26 152.00 L 0.00 152.00 L 0.00 151.72 Z" />
</g>
</svg>
