<?xml version="1.0" encoding="UTF-8" standalone="no"?>
<svg
   width="21.48"
   height="21.84473"
   viewBox="0 0 21.48 21.84473"
   fill="none"
   class="tw-fill-current css-4odaq7"
   version="1.1"
   id="svg134"
   sodipodi:docname="mountain-biking.svg"
   inkscape:version="1.2 (dc2aeda, 2022-05-15)"
   xmlns:inkscape="http://www.inkscape.org/namespaces/inkscape"
   xmlns:sodipodi="http://sodipodi.sourceforge.net/DTD/sodipodi-0.dtd"
   xmlns="http://www.w3.org/2000/svg"
   xmlns:svg="http://www.w3.org/2000/svg">
  <defs
     id="defs138" />
  <sodipodi:namedview
     id="namedview136"
     pagecolor="#ffffff"
     bordercolor="#666666"
     borderopacity="1.0"
     inkscape:showpageshadow="2"
     inkscape:pageopacity="0.0"
     inkscape:pagecheckerboard="0"
     inkscape:deskcolor="#d1d1d1"
     showgrid="false"
     inkscape:zoom="9.8333333"
     inkscape:cx="7.8813559"
     inkscape:cy="12"
     inkscape:window-width="1792"
     inkscape:window-height="980"
     inkscape:window-x="0"
     inkscape:window-y="25"
     inkscape:window-maximized="1"
     inkscape:current-layer="svg134" />
  <path
     fill-rule="evenodd"
     clip-rule="evenodd"
     d="M 11.594,0.00573089 C 9.576668,0.16039746 9.808668,3.1863975 11.826,3.0317309 13.843332,2.8770643 13.611332,-0.14893574 11.594,0.00573089 Z M 4.158,18.173731 c -2.0557945,-0.0022 -3.7217954,-1.668205 -3.724,-3.724 0.0022,-2.055795 1.6682055,-3.721795 3.724,-3.724 2.0555664,0.0028 3.7212457,1.668434 3.724,3.724 -0.00275,2.055566 -1.6684336,3.721246 -3.724,3.724 z m 0,-5.793 c -1.1428389,5.52e-4 -2.0690001,0.927161 -2.069,2.07 0.0011,1.142448 0.9275512,2.068001 2.07,2.068 1.14,0 2.068,-0.927 2.068,-2.069 -0.0011,-1.14222 -0.9267798,-2.067897 -2.069,-2.069 z m 11.796,2.725 c -2.055795,-0.0022 -3.721795,-1.668205 -3.724,-3.724 0.0017,-2.0561852 1.667815,-3.7227946 3.724,-3.7250001 2.056347,0.0022 3.722795,1.6686532 3.725,3.7250001 -0.0028,2.055956 -1.669043,3.721796 -3.725,3.724 z m 0,-5.7930001 c -1.142058,0.0011 -2.067449,0.9269421 -2.068,2.0690001 5.51e-4,1.142058 0.925942,2.067897 2.068,2.069 1.14,0 2.07,-0.928 2.07,-2.07 -0.0017,-1.14222 -0.927779,-2.0674498 -2.07,-2.0680001 z m -0.83,-3.414 -0.414,1.241 c -0.929,-0.11 -2.965,-0.587 -2.965,-0.587 0,0 -1.008,-0.631 -1.49,-0.986 l -3.171,2.001 3.136,1.904 0.09,0.303 1.054,4.0900001 -1.425,0.446 -1.11,-3.709 c 0,0 -2.12,-0.8760001 -3.085,-1.4280001 -0.89,-0.508 -1.07,-0.655 -1.482,-1.172 -0.327,-0.408 -0.276,-1.552 0.345,-2.103 l 3.962,-2.85 c 0.349988,-0.3885422 0.948338,-0.4207404 1.338,-0.072 0,0 1.858,1.545 2.648,2.137 0.846,0.172 1.726,0.588 2.569,0.785 z M 0.867,21.844731 0,20.434731 l 2.107,-1.296 2.286,0.672 2.71,-1.609 2.962,-0.895 1.553,1.462 3.078,-2.116 2.981,0.823 2.813,-2.102 0.99,1.326 -3.462,2.587 -3.019,-0.833 -3.543,2.436 -1.963,-1.848 -1.729,0.76 -3.014,1.84 -2.403,-0.707 z"
     fill="#000000"
     id="path132"
     sodipodi:nodetypes="ssscccccccscccccccccccccccccccccccccccccccccccccccccccccccc" />
</svg>
