<?xml version="1.0" encoding="UTF-8" standalone="no"?>
<svg
   xmlns:dc="http://purl.org/dc/elements/1.1/"
   xmlns:cc="http://creativecommons.org/ns#"
   xmlns:rdf="http://www.w3.org/1999/02/22-rdf-syntax-ns#"
   xmlns:svg="http://www.w3.org/2000/svg"
   xmlns="http://www.w3.org/2000/svg"
   xmlns:sodipodi="http://sodipodi.sourceforge.net/DTD/sodipodi-0.dtd"
   xmlns:inkscape="http://www.inkscape.org/namespaces/inkscape"
   height="512"
   viewBox="0 0 46 58"
   width="512"
   version="1.1"
   id="svg836"
   sodipodi:docname="right-turn (1).svg"
   inkscape:version="1.0.1 (c497b03c, 2020-09-10)">
  <metadata
     id="metadata842">
    <rdf:RDF>
      <cc:Work
         rdf:about="">
        <dc:format>image/svg+xml</dc:format>
        <dc:type
           rdf:resource="http://purl.org/dc/dcmitype/StillImage" />
        <dc:title></dc:title>
      </cc:Work>
    </rdf:RDF>
  </metadata>
  <defs
     id="defs840" />
  <sodipodi:namedview
     pagecolor="#ffffff"
     bordercolor="#666666"
     borderopacity="1"
     objecttolerance="10"
     gridtolerance="10"
     guidetolerance="10"
     inkscape:pageopacity="0"
     inkscape:pageshadow="2"
     inkscape:window-width="776"
     inkscape:window-height="480"
     id="namedview838"
     showgrid="false"
     inkscape:zoom="1.390625"
     inkscape:cx="256"
     inkscape:cy="256"
     inkscape:window-x="0"
     inkscape:window-y="23"
     inkscape:window-maximized="0"
     inkscape:current-layer="svg836" />
  <g
     id="Page-1"
     fill="none"
     fill-rule="evenodd"
     transform="matrix(-1,0,0,1,45.006876,0)">
    <g
       id="014---Left-Turn-Arrow"
       fill="#000000"
       fill-rule="nonzero">
      <path
         id="Shape"
         d="m 1.894,6.45 4.06,11.3 1.15,3.23 c 0.1239668,0.350665 0.4333809,0.602745 0.8018644,0.65328 C 8.2743479,21.683815 8.6402035,21.524343 8.854,21.22 l 3.44,-4.92 19.8571,13.9028 c 0.534568,0.374283 0.852919,0.985827 0.8529,1.6384 V 57 c 0,0.552285 0.447715,1 1,1 h 10 c 0.552285,0 1,-0.447715 1,-1 V 28.1921 C 45.003922,25.909395 43.890819,23.77011 42.0215,22.46 L 33.004,16.14 19.174,6.46 22.614,1.56 C 22.829781,1.2582691 22.858016,0.86098288 22.687077,0.53176753 22.516139,0.20255218 22.174937,-0.00291101 21.804,0 L 0.984,0.03 C 0.66465985,0.03999453 0.36875844,0.20008639 0.18567137,0.46192058 0.0025843,0.72375477 -0.04621984,1.0566289 0.054,1.36 Z" />
    </g>
  </g>
</svg>
