<?xml version="1.0" encoding="UTF-8" standalone="no"?>
<svg
   xmlns:dc="http://purl.org/dc/elements/1.1/"
   xmlns:cc="http://creativecommons.org/ns#"
   xmlns:rdf="http://www.w3.org/1999/02/22-rdf-syntax-ns#"
   xmlns:svg="http://www.w3.org/2000/svg"
   xmlns="http://www.w3.org/2000/svg"
   xmlns:sodipodi="http://sodipodi.sourceforge.net/DTD/sodipodi-0.dtd"
   xmlns:inkscape="http://www.inkscape.org/namespaces/inkscape"
   height="512"
   viewBox="0 0 50 58"
   width="512"
   version="1.1"
   id="svg838"
   sodipodi:docname="right-arrow.svg"
   inkscape:version="1.0.1 (c497b03c, 2020-09-10)">
  <metadata
     id="metadata844">
    <rdf:RDF>
      <cc:Work
         rdf:about="">
        <dc:format>image/svg+xml</dc:format>
        <dc:type
           rdf:resource="http://purl.org/dc/dcmitype/StillImage" />
        <dc:title></dc:title>
      </cc:Work>
    </rdf:RDF>
  </metadata>
  <defs
     id="defs842" />
  <sodipodi:namedview
     pagecolor="#ffffff"
     bordercolor="#666666"
     borderopacity="1"
     objecttolerance="10"
     gridtolerance="10"
     guidetolerance="10"
     inkscape:pageopacity="0"
     inkscape:pageshadow="2"
     inkscape:window-width="1130"
     inkscape:window-height="721"
     id="namedview840"
     showgrid="false"
     inkscape:zoom="1.390625"
     inkscape:cx="256"
     inkscape:cy="256"
     inkscape:window-x="0"
     inkscape:window-y="23"
     inkscape:window-maximized="0"
     inkscape:current-layer="svg838" />
  <g
     id="Page-1"
     fill="none"
     fill-rule="evenodd"
     transform="matrix(-1,0,0,1,50.009581,0)">
    <g
       id="001---Left-Arrow"
       fill="#000000"
       fill-rule="nonzero">
      <path
         id="Shape"
         d="m 12.3,24.05 c 0.205744,0.306658 0.563157,0.4757 0.930729,0.440196 C 13.598301,24.454692 13.916753,24.220367 14.06,23.88 l 2.49,-5.97 C 25.07,22.64 38,33.3 38,54 v 3 c 0.0016,0.551624 0.448376,0.998407 1,1 h 10 c 0.551624,-0.0016 0.998407,-0.448376 1,-1 V 54 C 50.17253,41.736187 45.911278,29.822437 38,20.45 33.333841,14.839425 27.629747,10.181081 21.2,6.73 L 23.39,1.48 C 23.534084,1.1410602 23.47849,0.7501898 23.245615,0.4648658 23.01274,0.17954179 22.640937,0.04675361 22.28,0.12 L 0.81,4.31 C 0.48269726,4.3769429 0.20987833,4.6018064 0.08167115,4.9103049 -0.04653604,5.2188034 -0.01344964,5.5707964 0.17,5.85 Z" />
      <path
         id="path834"
         d="M 50,38.87 V 1 C 49.998407,0.44837635 49.551624,0.00159279 49,0 H 39 c -0.551624,0.00159279 -0.998407,0.44837635 -1,1 v 16.41 c 0.52,0.58 1.03,1.16 1.53,1.76 4.874224,5.731799 8.446437,12.453154 10.47,19.7 z" />
    </g>
  </g>
</svg>
