<?xml version="1.0" encoding="UTF-8" standalone="no"?>
<svg
   xmlns:dc="http://purl.org/dc/elements/1.1/"
   xmlns:cc="http://creativecommons.org/ns#"
   xmlns:rdf="http://www.w3.org/1999/02/22-rdf-syntax-ns#"
   xmlns:svg="http://www.w3.org/2000/svg"
   xmlns="http://www.w3.org/2000/svg"
   xmlns:sodipodi="http://sodipodi.sourceforge.net/DTD/sodipodi-0.dtd"
   xmlns:inkscape="http://www.inkscape.org/namespaces/inkscape"
   height="512"
   viewBox="0 0 58 58"
   width="512"
   version="1.1"
   id="svg836"
   sodipodi:docname="right-turn.svg"
   inkscape:version="1.0.1 (c497b03c, 2020-09-10)">
  <metadata
     id="metadata842">
    <rdf:RDF>
      <cc:Work
         rdf:about="">
        <dc:format>image/svg+xml</dc:format>
        <dc:type
           rdf:resource="http://purl.org/dc/dcmitype/StillImage" />
        <dc:title></dc:title>
      </cc:Work>
    </rdf:RDF>
  </metadata>
  <defs
     id="defs840" />
  <sodipodi:namedview
     pagecolor="#ffffff"
     bordercolor="#666666"
     borderopacity="1"
     objecttolerance="10"
     gridtolerance="10"
     guidetolerance="10"
     inkscape:pageopacity="0"
     inkscape:pageshadow="2"
     inkscape:window-width="776"
     inkscape:window-height="480"
     id="namedview838"
     showgrid="false"
     inkscape:zoom="1.390625"
     inkscape:cx="256"
     inkscape:cy="256"
     inkscape:window-x="0"
     inkscape:window-y="23"
     inkscape:window-maximized="0"
     inkscape:current-layer="svg836" />
  <g
     id="Page-1"
     fill="none"
     fill-rule="evenodd"
     transform="matrix(-1,0,0,1,57.997484,0)">
    <g
       id="008---Left-Turn-Arrow"
       fill="#000000"
       fill-rule="nonzero"
       transform="translate(-1)">
      <path
         id="Shape"
         d="M 52,7 H 20 V 1 C 20.002689,0.62916024 19.797194,0.28813583 19.468066,0.11724272 19.138939,-0.0536504 18.741779,-0.025543 18.44,0.19 L 1.41,12.16 c -0.2591733,0.188456 -0.41251592,0.489553 -0.41251592,0.81 0,0.320447 0.15334262,0.621545 0.41251592,0.81 l 4.42,3.12 9.81,6.93 2.8,1.98 c 0.301779,0.215543 0.698939,0.24365 1.028066,0.07276 C 19.797194,25.711864 20.002689,25.37084 20,25 v -6 h 26 c 0.552285,0 1,0.447715 1,1 v 37 c 0.0016,0.551624 0.448376,0.998407 1,1 h 10 c 0.551624,-0.0016 0.998407,-0.448376 1,-1 V 14 C 59,12.143485 58.262502,10.363007 56.949747,9.0502525 55.636993,7.7374979 53.856515,7 52,7 Z" />
    </g>
  </g>
</svg>
