<svg height="512" viewBox="0 0 56 58" width="512" xmlns="http://www.w3.org/2000/svg"><g id="Page-1" fill="none" fill-rule="evenodd"><g id="007---Right-Rountabout-Arrow" fill="rgb(0,0,0)" fill-rule="nonzero" transform="translate(-1 -1)"><path id="Shape" d="m20 49.37v8.63c.0015928.5516236.4483764.9984072 1 1h10c.5516236-.0015928.9984072-.4483764 1-1v-8.88c10.6337699-2.9225029 18.0025206-12.5919413 18-23.62v-5.5h6c.3708398.002689.7118642-.2028062.8827573-.5319337s.1427857-.7262873-.0727573-1.0280663l-11.97-17.03c-.1884555-.25917327-.4895531-.41251592-.81-.41251592s-.6215445.15334265-.81.41251592l-3.12 4.42-6.93 9.81-1.98 2.8c-.215543.301779-.2436504.6989388-.0727573 1.0280663s.5119175.5346227.8827573.5319337h6v5.5c0 6.9035594-5.5964406 12.5-12.5 12.5s-12.5-5.5964406-12.5-12.5 5.5964406-12.5 12.5-12.5c2.0962467-.0031562 4.1583924.5304541 5.99 1.55l6.96-9.85c-8.2547845-5.14086186-18.7687352-4.91261915-26.7926467.58162973-8.02391162 5.49424887-12.03854349 15.21422747-10.23046591 24.76937187 1.80807758 9.5551443 9.09652471 17.1362914 18.57311261 19.3189984z"/></g></g></svg>