<svg xmlns="http://www.w3.org/2000/svg" width="1em" height="1em" viewBox="0 0 24 24" fill="none" class="tw-fill-current css-4odaq7"><path fill-rule="evenodd" clip-rule="evenodd" d="M13.138 1.4a1.727 1.727 0 100 3.454 1.727 1.727 0 000-3.454zm2.495 14.122l.289.212 2.435 6.118-1.6.548-2.528-5.275-1.957-1.141-1.183 3.517-.582.086-5.723.863-.303-1.51 4.934-1.235.631-2.976a.688.688 0 00-.013-.009c-.086-.055-.474-.303-.492-.784l.386-5.803c-.257.102-.564.18-.87.258-.274.07-.547.14-.782.225-.019.51-.01 1.033 0 1.558.013.751.027 1.507-.044 2.236H6.662c-.142-1.483-.174-5.06-.174-5.06s2.862-1.336 4.038-1.746c.977-.172 2.274-.041 2.88.59.252.264 1.586 3.076 1.586 3.076l2.853-.94.487 1.3-4.169 1.995-.392-.96-.698-1.483.043 2.312s-.038 2.007-.056 2.128l.005.001-.005.017v.003l-.001.001 2.574 1.878z" fill="#000"/></svg>