<svg xmlns="http://www.w3.org/2000/svg" width="1em" height="1em" viewBox="0 0 24 24" fill="none" class="tw-fill-current css-4odaq7"><path fill-rule="evenodd" clip-rule="evenodd" d="M5.4 21.979a4.405 4.405 0 01-4.4-4.4c0-2.426 1.974-4.4 4.4-4.4s4.4 1.974 4.4 4.4-1.974 4.4-4.4 4.4zm0-7.083a2.686 2.686 0 00-2.683 2.683A2.686 2.686 0 005.4 20.262a2.686 2.686 0 002.683-2.683A2.686 2.686 0 005.4 14.896zm13.2 7.083a4.405 4.405 0 01-4.4-4.4c0-2.426 1.974-4.4 4.4-4.4s4.4 1.974 4.4 4.4-1.974 4.4-4.4 4.4zm0-7.083a2.686 2.686 0 00-2.683 2.683 2.686 2.686 0 002.683 2.683 2.686 2.686 0 002.683-2.683 2.686 2.686 0 00-2.683-2.683zm-5.008-9.748a1.574 1.574 0 100-3.148 1.574 1.574 0 000 3.148zm1.212 4.401l-1.648-2.632c-.112-.311-.995-1.09-.995-1.09-.508-.189-1.073-.16-1.557.338 0 0-2.586 2.998-3.226 4.144-.189.339-.23 1.052-.066 1.345.519.93 3.633 2.657 3.633 2.657l.692 4.829 1.692-.296-.56-5.343-2.535-2.35 2.12-2.298 1.227 1.973.24.377 3.653.152.103-1.55-2.773-.256z" fill="#000"/></svg>