<svg height="512" viewBox="0 0 47 58" width="512" xmlns="http://www.w3.org/2000/svg"><g id="Page-1" fill="none" fill-rule="evenodd"><g id="004---Uturn-Arrow" fill="rgb(0,0,0)" fill-rule="nonzero" transform="translate(0 -1)"><path id="Shape" d="m1 59h10c.5516236-.0015928.9984072-.4483764 1-1v-37c-.0027814-2.2216744.9194667-4.3442205 2.5454001-5.8582169 1.6259335-1.5139964 3.8087634-2.2827597 6.0245999-2.1217831 4.2582486.4055245 7.4914206 4.0129264 7.43 8.29v11.69h-6c-.3708398-.002689-.7118642.2028062-.8827573.5319337s-.1427857.7262873.0727573 1.0280663l12.03 17.03c.1884555.2591733.4895531.4125159.81.4125159s.6215445-.1533426.81-.4125159l11.97-17.03c.215543-.301779.2436504-.6989388.0727573-1.0280663s-.5119175-.5346227-.8827573-.5319337h-6v-12c-.0022556-5.3488488-2.1459068-10.4741438-5.9524606-14.23184744-3.8065537-3.75770363-8.9591076-5.83498024-14.3075394-5.76815256-11.03.14-19.74 9.49-19.74 20.52v36.48c.00159279.5516236.44837635.9984072 1 1z"/></g></g></svg>