<svg height="512" viewBox="0 0 58 58" width="512" xmlns="http://www.w3.org/2000/svg"><g id="Page-1" fill="none" fill-rule="evenodd"><g id="005---No-Uturn-Arrow" fill="rgb(0,0,0)" fill-rule="nonzero" transform="translate(0 -1)"><path id="Shape" d="m18 21c-.0027814-2.2216744.9194667-4.3442205 2.5454001-5.8582169 1.6259335-1.5139964 3.8087634-2.2827597 6.0245999-2.1217831 2.2028509.1675273 4.2327157 1.2569002 5.59 3l8.55-8.55c-.18-.21-.37-.41-.57-.61-3.8096893-3.82081738-9.0049324-5.93499271-14.4-5.86-11.03.14-19.74 9.49-19.74 20.52v20.66l12-12z"/><path id="Shape" d="m18 58v-6.18l-7.18 7.18h6.18c.5516236-.0015928.9984072-.4483764 1-1z"/><path id="Shape" d="m52 33h-6v-9.17l-15.47 15.46 8.69 12.3c.1884555.2591733.4895531.4125159.81.4125159s.6215445-.1533426.81-.4125159l11.97-17.03c.215543-.301779.2436504-.6989388.0727573-1.0280663s-.5119175-.5346227-.8827573-.5319337z"/><path id="Shape" d="m6 57 1.29 1.29c.39300794.3899779 1.02699206.3899779 1.42 0l37.29-37.29 11.29-11.29c.3899779-.39300794.3899779-1.02699206 0-1.42l-6.58-6.58c-.3930079-.38997787-1.0269921-.38997787-1.42 0l-7.29 7.29-8.77 8.77-15.23 15.23-17.29 17.29c-.38997787.3930079-.38997787 1.0269921 0 1.42z"/></g></g></svg>