<svg height="512" viewBox="0 0 26 58" width="512" xmlns="http://www.w3.org/2000/svg"><g id="Page-1" fill="none" fill-rule="evenodd"><g id="011---Straight-On-Arrow" fill="rgb(0,0,0)" fill-rule="nonzero"><path id="Shape" d="m7.9973 58 10-.0031c.5522847 0 1-.4477153 1-1v-37.9944h6c.3708398.002689.7118642-.2028062.8827573-.5319337s.1427857-.7262873-.0727573-1.0280663l-11.97-17.03c-.1884555-.25917327-.4895531-.41251592-.81-.41251592s-.6215445.15334265-.81.41251592l-12.03 17.03c-.215543.301779-.2436504.6989388-.07275728 1.0280663.17089311.3291275.51191752.5346227.88275728.5319337h6v37.9975c0 .2652165.10535684.5195704.29289322.7071068s.44189029.2928932.70710678.2928932z"/></g></g></svg>