<?xml version="1.0" encoding="UTF-8" ?>
<!DOCTYPE svg PUBLIC "-//W3C//DTD SVG 1.1//EN" "http://www.w3.org/Graphics/SVG/1.1/DTD/svg11.dtd">
<svg width="706pt" height="526pt" viewBox="0 0 706 526" version="1.1" xmlns="http://www.w3.org/2000/svg">
<g id="#ffffffff">
<path fill="#ffffff" opacity="1.00" d=" M 429.37 0.00 L 430.62 0.00 C 462.29 60.79 493.92 121.60 525.74 182.31 C 526.33 183.92 527.85 185.58 527.24 187.38 C 524.69 193.52 520.88 199.03 518.00 205.00 C 462.05 309.39 406.08 413.77 350.16 518.17 C 348.67 520.76 347.34 523.44 345.78 526.00 L 151.90 526.00 C 154.73 521.64 157.01 516.97 159.34 512.33 C 222.23 393.23 284.95 274.03 347.84 154.92 C 374.94 103.24 402.40 51.75 429.37 0.00 Z" />
<path fill="#ffffff" opacity="1.00" d=" M 221.58 114.00 C 230.02 128.65 237.35 143.94 245.06 159.00 C 252.00 171.86 258.51 184.94 265.05 198.01 C 254.38 219.19 242.90 239.94 232.00 261.00 C 185.20 349.29 138.69 437.74 91.83 526.00 L 0.00 526.00 L 0.00 524.47 C 3.73 518.84 6.54 512.69 9.84 506.83 C 60.18 413.53 110.50 320.22 160.84 226.93 C 181.02 189.25 201.61 151.79 221.58 114.00 Z" />
<path fill="#ffffff" opacity="1.00" d=" M 544.53 262.64 C 548.71 255.23 551.86 247.27 556.45 240.09 C 592.59 309.64 629.37 378.86 665.66 448.33 C 679.25 473.64 692.13 499.33 706.00 524.49 L 706.00 526.00 L 407.53 526.00 C 412.74 516.30 417.78 506.51 422.75 496.68 C 428.47 486.62 433.21 476.04 438.85 465.94 C 443.05 458.34 446.59 450.39 450.83 442.81 C 455.53 434.40 459.48 425.60 464.16 417.17 C 468.73 408.97 472.60 400.39 477.16 392.17 C 481.98 383.53 486.02 374.47 490.85 365.83 C 495.33 357.88 498.99 349.49 503.48 341.54 C 508.22 333.12 512.11 324.25 516.84 315.82 C 521.33 307.84 525.05 299.45 529.48 291.43 C 534.76 281.98 539.22 272.09 544.53 262.64 Z" />
</g>
</svg>
