<?xml version="1.0" standalone="no"?>
<!DOCTYPE svg PUBLIC "-//W3C//DTD SVG 1.1//EN" "http://www.w3.org/Graphics/SVG/1.1/DTD/svg11.dtd" >
<svg xmlns="http://www.w3.org/2000/svg">
<metadata>Generated by IcoMoon</metadata>
<defs>
<font id="osm" horiz-adv-x="512">
<font-face units-per-em="512" ascent="480" descent="-32" />
<missing-glyph horiz-adv-x="512" />
<glyph unicode="&#x20;" horiz-adv-x="256" d="" />
<glyph unicode="&#xe900;" glyph-name="alcohol" d="M109.715 480c-36.572 0-36.572-17.079-36.572-36.572v-73.143c0-36.572-73.143-36.572-73.143-109.714v-256c0-20.7 17.079-36.572 36.572-36.572h146.286c21.943 0 36.572 14.628 36.572 36.572v256c0 73.143-73.143 73.143-73.143 109.714v73.143c0 20.7 0 36.571-36.572 36.571zM256 297.143c0-109.715 17.225-182.857 109.714-182.857v-73.143c0-24.393-36.572-36.572-54.857-36.572-36.572 0-54.857 0-54.857-36.572h256c0 36.572-18.286 36.572-54.857 36.572-18.286 0-54.857 13.385-54.857 36.572v73.143c90.368 0 109.715 73.143 109.715 182.857h-256z" />
<glyph unicode="&#xe901;" glyph-name="alpinehut" d="M256 480l-256-128v-73.143l54.857 23.772v-334.629h54.857v358.4l146.286 62.172 146.286-62.172v-358.4h54.857v334.628l54.857-23.772v73.143l-256 128zM255.012 295.351c-0.011 0-0.024 0-0.036 0-14.22 0-25.746-11.527-25.746-25.746 0-14.207 11.506-25.726 25.708-25.747h0.002c0.011 0 0.024 0 0.036 0 14.219 0 25.747 11.527 25.747 25.747 0 14.207-11.506 25.726-25.708 25.746h-0.002zM184.649 253.732c-0.531 0.139-1.142 0.219-1.77 0.219-3.422 0-6.292-2.362-7.070-5.544l-0.011-0.050-18.029-74.642c-0.131-0.519-0.207-1.113-0.207-1.726 0-3.452 2.391-6.344 5.606-7.113l0.050-0.010 21.431-5.12c0.542-0.145 1.163-0.228 1.805-0.228 3.405 0 6.262 2.351 7.035 5.519l0.010 0.050 17.993 74.569c0.131 0.523 0.207 1.123 0.207 1.741 0 3.433-2.33 6.321-5.494 7.171l-0.052 0.012-21.504 5.12zM247.516 239.945c-20.992 0.512-26.332-21.504-26.332-21.504l-54.381-228.718c-0.343-1.317-0.541-2.83-0.541-4.389 0-9.993 8.101-18.095 18.095-18.095 8.435 0 15.522 5.772 17.527 13.581l0.028 0.125 31.159 128.695 29.587-127.927c2.092-7.834 9.124-13.509 17.482-13.509 9.918 0 17.97 7.993 18.065 17.888v0.009c0.001 0.082 0.002 0.178 0.002 0.276 0 1.31-0.107 2.596-0.313 3.848l0.019-0.137-40.704 169.984 3.438 14.921 2.633-11.776c1.264-4.366 4.889-7.637 9.368-8.366l0.067-0.009 41.875-10.716c0.709-0.117 1.527-0.184 2.36-0.184 0.070 0 0.14 0 0.211 0.002h-0.010c0.033-0 0.071-0 0.11-0 6.767 0 12.252 5.485 12.252 12.252 0 0 0 0 0 0v0c0 0.027 0 0.060 0 0.093 0 5.829-4.011 10.721-9.423 12.067l-0.086 0.018-36.279 9.070-9.947 40.485c-4.755 22.565-26.258 22.016-26.258 22.016zM359.497 213.796c-2.999 0-5.229-2.267-5.851-5.12l-43.3-234.679c0-3.291 2.67-5.925 5.925-5.925 2.999 0 5.522 2.304 5.961 5.12l43.118 234.349v0.365c0 3.231-2.62 5.851-5.851 5.851v0z" />
<glyph unicode="&#xe902;" glyph-name="amusement_arcade" d="M0 444.060h146.246v-73.123h-146.246zM365.754 444.060h146.246v-73.123h-146.246zM292.63 370.799h73.123v-73.123h-73.123zM146.246 370.799h73.123v-73.123h-73.123zM73.261 297.538v-73.262h-73.261v-255.724h73.261v73.123h72.985v-73.262h73.261v73.262h73.123v-73.262h73.123v73.262h73.123v-73.262h73.261v256.138h-73.262v72.985zM146.246 224.276h73.261v-72.985h-73.262zM292.63 224.276h73.123v-72.985h-73.262z" />
<glyph unicode="&#xe903;" glyph-name="apartment" d="M18.285 370.286c-10.13 0-18.285-8.156-18.285-18.286v-274.286h36.572v73.143h438.857v-73.143h36.571v201.143c0 10.099-8.187 18.285-18.286 18.285s-18.286-8.187-18.286-18.286v-91.428h-438.857v164.571c0 10.131-8.155 18.286-18.285 18.286zM128 333.714c-30.297 0-54.857-24.56-54.857-54.857s24.561-54.857 54.857-54.857v0c30.297 0 54.857 24.56 54.857 54.857s-24.56 54.857-54.857 54.857v0zM219.429 297.143v-73.143h219.429c0 36.572-37.888 73.143-73.143 73.143zM0 480h512v-73.143h-512zM0 41.143h512v-73.143h-512z" />
<glyph unicode="&#xe904;" glyph-name="archaeological_site" d="M109.715 480v-36.572h36.572c21.906 0 30.756-38.144 34.304-69.705-35.584 27.648-69.961 37.522-99.475 32-37.632-7.095-62.83-41.801-62.83-81.152 0-30.793 11.41-57.746 30.866-85.724 16.969-24.43 40.96-52.663 70.839-86.857 13.421-49.7 38.071-95.195 62.867-119.991v-27.428l-36.572-18.286v-18.286h219.429v18.286l-36.572 18.286v27.428c24.796 24.796 49.445 70.291 62.866 119.991 29.879 34.195 53.87 62.428 70.839 86.857 19.456 27.977 30.866 54.931 30.866 85.724 0 39.351-25.161 74.057-62.867 81.152-29.476 5.522-63.853-4.352-99.438-32 3.584 31.561 12.435 69.705 34.304 69.705h36.572v36.572h-292.572zM86.857 369.152c18.651 3.511 49.737-3.693 85.724-36.571-40.777-5.084-62.867-40.923-62.867-108.581v-3.438c-12.434 14.482-22.82 27.282-30.867 38.875-17.115 24.649-23.991 42.716-23.991 65.134 0 25.6 11.337 40.704 32 44.58zM406.857 369.152c6.875 0.988 13.129 0.951 18.286 0 20.627-3.877 32-18.98 32-44.58 0-22.418-6.875-40.485-23.991-65.134-8.046-11.593-18.395-24.393-30.866-38.875v3.438c0 67.657-22.089 103.497-62.866 108.581 26.039 23.771 49.445 33.975 67.438 36.571z" />
<glyph unicode="&#xe905;" glyph-name="art" d="M256 480c-141.385 0-256-114.615-256-256s114.615-256 256-256v0c0.048 0 0.106-0 0.163-0 23.51 0 42.569 19.059 42.569 42.569 0 11.096-4.245 21.2-11.2 28.776l0.028-0.031c-6.584 7.409-10.606 17.224-10.606 27.978 0 0.103 0 0.205 0.001 0.308v-0.015c0 23.589 19.017 42.642 42.606 42.642h50.212c78.528 0.021 142.185 63.664 142.226 142.185v0.004c0 125.732-114.615 227.584-256 227.584zM326.729 432.274c28.018-0.041 50.719-22.743 50.761-50.757v-0.004c0-0.011 0-0.024 0-0.037 0-28.049-22.717-50.792-50.757-50.834h-0.004c-28.075 0-50.834 22.76-50.834 50.834v0c0 28.075 22.76 50.835 50.834 50.835v0zM184.284 431.543c28.075 0 50.834-22.76 50.834-50.834v0c-0.021-28.060-22.772-50.798-50.834-50.798v0c-28.060 0.021-50.798 22.772-50.798 50.834v0c0 28.075 22.76 50.834 50.834 50.834v0zM98.999 317.404c28.059-0.021 50.797-22.772 50.797-50.834v0c0-28.062-22.739-50.813-50.796-50.834h-0.002c-28.059 0.021-50.797 22.772-50.797 50.834v0c0 28.062 22.739 50.814 50.796 50.834h0.002zM412.014 317.404c28.043-0.042 50.761-22.785 50.761-50.834v0c0 0 0 0 0 0 0-28.049-22.718-50.793-50.757-50.834h-0.004c-28.060 0.021-50.798 22.772-50.798 50.834v0c0 28.062 22.738 50.814 50.796 50.834h0.002z" />
<glyph unicode="&#xe906;" glyph-name="arts_centre" d="M512 479.927c-24.393-3.292-48.786-7.241-73.143-11.081v-360.851l-18.579 1.463c-48.091 3.401-98.963-20.517-121.271-57.051-8.228-13.421-9.106-34.743-1.865-46.336 11.264-18.103 38.071-33.28 67.219-38.144 66.999 1.938 115.017 25.6 147.565 74.35 0.073 145.152 0.073 291.438 0.073 437.651zM259.913 479.781c-2.017 0.058-4.389 0.090-6.769 0.090-93.214 0-174.66-50.38-218.595-125.396l-0.647-1.195c-21.314-36.284-33.903-79.919-33.903-126.494 0-93.171 50.377-174.575 125.379-218.46l1.195-0.647c6.045-3.561 13.317-5.664 21.080-5.664 15.528 0 29.090 8.415 36.375 20.933l0.108 0.2c5.486 9.509 6.948 20.115 4.755 29.988-0.55 2.531-0.864 5.437-0.864 8.417 0 7.723 2.115 14.952 5.797 21.14l-0.105-0.19c7.397 12.704 20.951 21.106 36.468 21.106 7.77 0 15.048-2.107 21.293-5.781l-0.197 0.107 9.216-5.303c26.441 34.853 65.975 53.101 108.873 61.147-7.363 8.68-11.841 20.010-11.841 32.387 0 9.214 2.481 17.847 6.812 25.269l-0.128-0.238c4.762 8.103 11.478 14.597 19.52 18.959l0.265 0.131v46.702c-6.61 1.010-12.548 3.166-17.865 6.272l0.238-0.128c-15.070 8.854-25.027 24.984-25.027 43.44 0 9.254 2.503 17.923 6.87 25.368l-0.128-0.237c7.589 12.952 20.488 22.093 35.63 24.466l0.284 0.036v66.925c-1.463 0.915-2.853 1.939-4.389 2.78-34.337 20.24-75.426 32.662-119.32 33.858l-0.342 0.007zM266.788 446.574c0.742 0.039 1.611 0.061 2.486 0.061 9.237 0 17.892-2.494 25.327-6.846l-0.238 0.129c15.137-8.839 25.146-25.005 25.146-43.508 0-9.286-2.521-17.983-6.915-25.444l0.128 0.235c-8.842-15.119-24.999-25.114-43.49-25.114-9.264 0-17.941 2.509-25.391 6.884l0.236-0.128c-15.101 8.846-25.083 24.994-25.083 43.471 0 9.242 2.496 17.9 6.852 25.337l-0.129-0.237c8.418 14.476 23.508 24.265 40.949 25.156l0.121 0.005zM137.326 390.912c0.75 0.040 1.627 0.063 2.51 0.063 9.212 0 17.845-2.481 25.267-6.811l-0.238 0.129c15.119-8.842 25.114-24.999 25.114-43.49 0-9.264-2.508-17.941-6.883-25.391l0.128 0.236c-8.839-15.132-25.003-25.137-43.503-25.137-9.228 0-17.876 2.49-25.306 6.834l0.237-0.128c-15.15 8.835-25.169 25.008-25.169 43.521 0 9.25 2.502 17.917 6.865 25.36l-0.128-0.236c8.455 14.452 23.573 24.206 41.028 25.047l0.115 0.005z" />
<glyph unicode="&#xe907;" glyph-name="artwork" d="M146.286 480l36.572-73.143h36.572l-36.572-73.143 36.572-73.143-36.572-73.143 36.572-73.143-36.572-73.143h146.286l-36.572 73.143 36.572 73.143-36.572 73.143 36.572 73.143-36.572 73.143h36.572l36.572 73.143h-219.429zM256 370.286c20.198 0 36.572-16.373 36.572-36.572v0c0-20.198-16.373-36.572-36.572-36.572v0c-20.198 0-36.572 16.373-36.572 36.572v0c0 20.198 16.374 36.572 36.572 36.572v0zM256 224c20.198 0 36.572-16.373 36.572-36.572v0c0-20.198-16.373-36.572-36.572-36.572v0c-20.198 0-36.572 16.373-36.572 36.572v0c0 20.198 16.374 36.572 36.572 36.572v0zM109.715 4.572v-36.572h292.572v36.572h-292.572z" />
<glyph unicode="&#xe908;" glyph-name="atm" d="M0 480v-109.714h36.572v73.143h438.857v-73.143h36.571v109.714h-512zM73.143 406.857v-329.143c0-21.943 14.629-36.572 36.572-36.572h292.572c19.273 0 36.572 16.421 36.572 36.572v329.143h-36.572v-256c-36.572 0-73.143-36.572-73.143-73.143h-146.286c0 36.572-36.572 73.143-73.143 73.143v256zM256 333.714c-57.417 0-109.714-34.853-109.714-73.143s52.297-73.143 109.714-73.143 109.714 34.853 109.714 73.143c0 38.29-52.297 73.143-109.714 73.143zM73.143 22.857c0-38.583 15.543-54.857 36.572-54.857h292.572c19.273 0 36.572 16.274 36.572 54.857-11.154-9.911-18.176-18.029-36.572-17.152l-292.572-2.267c-17.555 0.877-25.417 8.265-36.572 19.419z" />
<glyph unicode="&#xe909;" glyph-name="audioguide" d="M256 443.428c-100.989 0-182.857-81.868-182.857-182.857v0c-40.521 0-73.143-32.621-73.143-73.143v-73.143c0-40.521 32.621-73.143 73.143-73.143h36.572v219.428c0 80.792 65.495 146.286 146.286 146.286v0c80.791 0 146.286-65.495 146.286-146.286v0-219.428h36.572c40.521 0 73.143 32.621 73.143 73.143v73.143c0 40.521-32.621 73.143-73.143 73.143 0 100.989-81.868 182.857-182.857 182.857v0zM256 298.788c-23.006 0-41.655-18.649-41.655-41.655v0c0.021-22.99 18.662-41.619 41.655-41.619v0c22.993 0 41.634 18.629 41.655 41.616v0.002c0 23.005-18.649 41.655-41.655 41.655v0zM283.502 188.087l-82.505-27.502v-27.502h25.271l2.231-137.582h-27.501v-27.502h110.007v27.502h-27.502v192.585z" />
<glyph unicode="&#xe90a;" glyph-name="bag" d="M219.429 443.428c-36.571 0-73.143-37.339-73.143-73.143v-36.572h-27.428v-329.143h274.286v329.143h-27.428v36.572c0 36.571-36.937 73.143-73.143 73.143zM237.714 397.714h36.572c31.452 0 45.714-21.943 45.714-45.714v-18.286h-128v18.286c0 23.040 11.191 45.714 45.714 45.714zM73.143 333.714c-49.627 0-73.143-23.516-73.143-73.143v-182.857c0-49.627 27.355-73.143 73.143-73.143zM438.857 333.714v-329.143c45.788 0 73.143 27.356 73.143 73.143v182.857c0 48.091-22.748 73.143-73.143 73.143z" />
<glyph unicode="&#xe90b;" glyph-name="bakery" d="M246.857 370.286l54.857-146.286h-54.857l-54.857 146.286h-64l54.857-146.286h-54.857l-48.384 125.221c-32.439-25.161-79.616-95.891-79.616-161.792v-73.143c0-21.687 15.507-36.572 36.572-36.572h438.857c0.332-0.011 0.723-0.017 1.115-0.017 19.592 0 35.474 15.882 35.474 35.474 0 0.392-0.006 0.783-0.019 1.171l0.001-0.057v73.143c0 90.112-63.159 161.463-146.286 182.857l54.857-146.285h-54.857l-54.857 146.285h-64z" />
<glyph unicode="&#xe90c;" glyph-name="bank" d="M0 406.857v-256c0-22.93 15.507-36.572 36.572-36.572h438.857c0.332-0.011 0.723-0.017 1.115-0.017 19.592 0 35.474 15.882 35.474 35.474 0 0.392-0.006 0.783-0.019 1.171l0.001-0.057v256h-512zM109.715 370.286h292.572c0-36.572 36.572-73.143 73.143-73.143v-73.143c-36.572 0-73.143-36.572-73.143-73.143h-292.572c0 36.572-36.572 73.143-73.143 73.143v73.143c36.572 0 73.143 36.571 73.143 73.143zM256 333.714c-60.599 0-109.714-32.731-109.714-73.143s49.115-73.143 109.714-73.143 109.714 32.731 109.714 73.143-49.115 73.143-109.714 73.143zM0 96c0-41.216 16.421-54.857 36.572-54.857h438.857c20.151 0 36.571 16.274 36.571 54.857-10.533-9.911-20.48-18.286-36.572-18.286h-438.857c-16.091 0-26.66 8.997-36.572 18.286z" />
<glyph unicode="&#xe90d;" glyph-name="bar" d="M36.572 443.428l201.143-219.428v-146.286s-164.571-36.572-164.571-73.143h365.714c0 36.572-164.572 73.143-164.572 73.143v146.286l201.143 219.429z" />
<glyph unicode="&#xe90e;" glyph-name="bbq" d="M146.286 480c-36.572-18.286-73.143-18.286-73.143-54.857s54.857-54.857 54.857-73.143-24.393-36.572-36.572-54.857c54.857 18.285 73.143 18.285 73.143 54.857s-36.572 54.857-54.857 73.143c0 18.285 30.464 30.464 36.571 54.857zM283.428 480c-36.572-18.286-73.143-18.286-73.143-54.857s54.857-54.857 54.857-73.143-24.393-36.572-36.572-54.857c54.857 18.285 73.143 18.285 73.143 54.857s-36.572 54.857-54.857 73.143c0 18.285 30.464 30.464 36.571 54.857zM420.572 480c-36.572-18.286-73.143-18.286-73.143-54.857s54.857-54.857 54.857-73.143-24.393-36.572-36.572-54.857c54.857 18.285 73.143 18.285 73.143 54.857s-36.572 54.857-54.857 73.143c0 18.285 30.464 30.464 36.572 54.857zM36.572 260.572v-292.572h36.572v73.143h365.714v-73.143h36.572v292.572h-438.857zM73.143 224h365.714v-146.286h-365.714zM146.286 187.428c-20.198 0-36.572-16.373-36.572-36.572s16.373-36.572 36.572-36.572v0c20.198 0 36.572 16.373 36.572 36.572s-16.374 36.572-36.572 36.572v0zM256 187.428c-20.198 0-36.572-16.373-36.572-36.572s16.374-36.572 36.572-36.572v0c20.198 0 36.572 16.373 36.572 36.572s-16.373 36.572-36.572 36.572v0zM365.714 187.428c-20.198 0-36.572-16.373-36.572-36.572s16.373-36.572 36.572-36.572v0c20.198 0 36.572 16.373 36.572 36.572s-16.373 36.572-36.572 36.572v0z" />
<glyph unicode="&#xe90f;" glyph-name="beach_resort" d="M150.748-18.359c-7.972 2.195-15.287 5.376-39.46 17.298-23.772 11.703-31.891 14.812-41.326 15.689-8.887 0.805-19.017-2.56-42.057-13.861-9.874-4.827-17.993-8.668-18.067-8.521-0.073 0.183 0 15.872 0.22 34.853l0.329 34.56 13.897 6.765c42.167 20.48 43.739 20.48 89.197-1.463 32.329-15.652 36.681-17.262 46.811-17.298 10.276-0.036 12.581 0.768 45.458 16.274 41.179 19.383 45.934 20.517 62.829 14.848 5.705-1.901 21.101-8.631 34.267-14.921 29.988-14.373 38.473-17.335 47.397-16.603 9.692 0.805 17.957 3.95 46.519 17.737 14.153 6.839 29.367 13.531 33.792 14.848 14.263 4.279 24.027 2.012 54.601-12.654l16.64-7.973-0.512-22.857c-0.659-28.781-1.353-45.349-1.938-45.971-0.219-0.219-8.521 3.548-18.396 8.411-19.639 9.618-32.439 14.226-39.789 14.226-7.827 0-18.432-3.95-45.495-16.969-14.153-6.803-29.916-13.678-35.036-15.324-14.995-4.755-19.529-3.767-52.005 11.703-45.568 21.76-51.785 23.296-69.376 17.408-5.668-1.901-21.431-8.813-35.035-15.36-34.121-16.457-40.74-18.286-53.468-14.848zM220.050 259.693c-3.072 3.145-87.040-35.181-121.49-55.479-13.275-7.827-26.807-14.226-30.025-14.226-13.605 0-20.59 17.079-20.59 50.103 0 45.385 17.225 91.648 48.42 129.975 11.703 14.336 44.398 40.375 57.564 45.861 7.315 2.999 8.009 4.242 8.009 14.153 0 21.065 18.286 28.197 31.415 12.288 6.729-8.156 7.387-8.411 18.139-6.291 20.7 4.023 59.721 2.743 80.787-2.633 52.041-13.276 97.572-46.373 123.063-89.49 10.642-17.993 11.154-21.431 4.389-30.025-4.243-5.412-8.631-6.803-32.841-10.459-46.080-6.949-126.573-26.295-129.536-31.086 27.904-86.748 46.812-141.751 78.117-227.108l-48.164 19.639c-32.656 103.38-55.522 168.017-79.568 232.077l12.276-37.297z" />
<glyph unicode="&#xe910;" glyph-name="beauty" d="M182.857 480c-36.571 0-73.143-17.152-109.715-53.724s-73.143-73.143-73.143-109.714c24.393 0 48.749-13.714 73.143-13.714 55.735 0 70.729 47.909 109.715 86.857 19.712 12.837 36.206 25.856 90.295 19.419 57.051-12.142 165.705-55.661 238.848-107.374-58.844 60.343-127.635 126.684-219.428 161.134-36.572 18.067-73.143 17.115-109.714 17.115zM451.438 291.438l-147.419-64c-122.149-20.041-262.51 26.88-258.304 21.687 1.645-1.975 2.999-3.694 4.572-5.705v-1.133l-50.285-128 94.867 73.143 14.848-146.286 72.009 116.589c6.656-1.171 13.093-2.67 20.553-3.438l53.724-113.152 40.009 113.152c12.325 2.158 23.26 6.253 34.267 10.276l72.009-86.857 1.134 133.705c2.084 2.158 3.731 4.644 5.705 6.875l102.875-67.438-68.572 119.991c2.925 6.62 5.851 13.788 8.009 20.589z" />
<glyph unicode="&#xe911;" glyph-name="bed" d="M486.437 424.009c-10.057 0-25.563-7.68-25.563-17.152v-219.428h-460.873v-109.714h51.2v58.587h409.637v-58.587h51.163v329.143c0 9.472-15.507 17.152-25.563 17.152zM18.285 311.772c-10.099 0-18.285-8.187-18.285-18.286v0-69.486h424.301v87.772h-406.016z" />
<glyph unicode="&#xe912;" glyph-name="bell_tower" d="M256 480l-146.286-109.714v-402.286h36.572v292.572c0 60.594 49.121 109.714 109.714 109.714v0c60.594 0 109.714-49.121 109.714-109.714v0-292.572h36.572v402.286l-146.286 109.714zM242.944 315.428c-53.869-40.192-37.193-59.136-55.516-129.097-3.584-3.657-22.857-15.433-22.857-26.697v-8.777h182.857v8.777c0.256 11.264-20.919 23.040-24.503 26.697-18.029 68.864-2.524 98.267-53.87 129.097h-26.112zM256 123.428c-15.149 0-27.428-12.28-27.428-27.428v0c0-15.149 12.28-27.428 27.428-27.428v0c15.149 0 27.428 12.28 27.428 27.428v0c0 15.149-12.28 27.428-27.428 27.428v0z" />
<glyph unicode="&#xe913;" glyph-name="bench" d="M36.572 297.143c-36.572 0-36.572-54.857 0-54.857h438.857c36.571 0 36.571 54.857 0 54.857h-438.857zM73.143 224v-109.714h54.857v109.714h-54.857zM384 224v-109.714h54.857v109.714h-54.857z" />
<glyph unicode="&#xe914;" glyph-name="beverages" d="M109.715 480c-36.572 0-36.572-18.359-36.572-73.143 0-36.571-73.143-182.857-73.143-219.428v-182.857c0-20.7 17.079-36.572 36.572-36.572h146.286c21.943 0 36.572 14.628 36.572 36.572v182.857c0 36.572-73.143 182.857-73.143 219.428 0 55.991 0 73.143-36.572 73.143zM397.714 443.428l-36.572-146.286h41.143l27.428 109.714h82.286v36.572zM256 260.572l36.572-256s0-36.572 36.572-36.572h73.143c36.572 0 36.572 36.572 36.572 36.572l36.572 256z" />
<glyph unicode="&#xe915;" glyph-name="bicycle_parking" d="M0 480v-365.714h73.143v128h91.429c72.265 0 128 36.572 128 118.857s-55.333 118.857-110.811 118.857zM73.143 406.857h91.429c35.255 0 54.857-19.2 54.857-45.714s-23.113-45.714-54.857-45.714h-91.428zM329.143 224v-21.724l18.286-14.848v-27.428h-109.714v9.143h18.286c17.555 0 16.676 18.286 0 18.286h-54.857c-18.285 0-18.285-16.531 0-18.286h18.285v-9.143l-20.553-46.848c-4.053 0.748-8.716 1.175-13.48 1.175-0.893 0-1.782-0.015-2.667-0.045l0.129 0.003c-37.376 0-73.143-29.038-73.143-73.143s35.767-73.143 73.143-73.143 70.876 31.305 70.876 75.447c0 5.486-0.147 11.044-1.133 15.981h30.83l66.633 73.143 13.385-28.563c-20.297-12.252-34.304-34.707-34.304-62.866 0-44.105 35.803-73.143 73.143-73.143 37.376 0 70.875 31.305 70.875 75.447 0 44.068-33.5 70.839-70.875 70.839-5.486 0-10.679-1.097-15.981-2.304l-20.589 48.019v34.743zM234.276 132.572h80.238l-43.63-45.714h-30.867c-5.004 6.827-11.072 12.534-18.019 16.992l-0.267 0.16zM182.857 77.714c23.223 0 36.571-20.115 36.571-36.572s-13.349-36.572-36.572-36.572-36.572 20.115-36.572 36.572c0 16.457 13.349 36.572 36.572 36.572zM402.286 77.714c23.26 0 36.572-20.115 36.572-36.572s-13.312-36.572-36.572-36.572c-23.223 0-36.572 20.115-36.572 36.572s13.349 36.572 36.572 36.572z" />
<glyph unicode="&#xe916;" glyph-name="bicycle_repair_station" d="M100.352 480c-25.965 0-50.103-15.067-63.781-36.572h86.674l22.747-36.572-22.784-36.571h-86.564c13.678-21.504 37.778-36.535 63.707-36.572 27.721 0 51.639 14.775 64.659 36.572h170.643c12.983-21.796 36.937-36.572 64.731-36.572 41.399 0 75.044 32.731 75.044 73.143s-33.609 73.143-75.081 73.143c-27.721 0-51.712-14.775-64.731-36.572h-170.569c-13.019 21.797-36.937 36.572-64.659 36.572zM377.49 443.428h45.714l22.784-36.572-22.784-36.571h-45.714l-22.748 36.571 22.784 36.572zM291.913 280.649l1.171-36.499 35.291-20.59v-36.498h-145.883v36.498h18.213c36.499 0 36.499 36.498 0 36.498h-72.924c-36.462 0-36.462-36.498 0-36.498h18.212v-36.498l-20.48-50.212c-1.536 0.073-3.035 0-4.572 0-46.522-0.186-84.184-37.849-84.37-84.353v-0.018c0.124-46.568 37.81-84.293 84.353-84.48h0.018c46.531 0.207 84.189 37.904 84.334 84.43v0.014c0 8.777-2.012 17.152-4.571 25.125h54.711l78.628 72.997 10.313-26.295c-23.43-15.644-38.678-41.945-38.765-71.813v-0.014c0.144-46.527 37.781-84.216 84.275-84.444h0.022c46.409 0 85.541 38.034 85.541 84.443 0 46.373-39.132 84.407-85.504 84.407-1.536 0-3.036 0.073-4.572 0l-20.48 50.212v50.213l-72.96 43.41zM176.786 150.565h113.517l-47.653-45.641h-56.722c-5.595 6.875-11.995 14.519-19.419 19.383l10.276 26.259zM120.942 95.781c24.137 0 43.264-19.163 43.264-43.337 0-24.211-19.127-43.373-43.264-43.373-24.174 0-43.3 19.163-43.3 43.373 0 24.173 19.127 43.337 43.3 43.337zM389.925 95.781c24.137 0 43.373-19.163 43.373-43.337 0-24.211-19.2-43.373-43.373-43.373-24.137 0-42.13 19.163-42.13 43.373 0 24.173 17.957 43.337 42.13 43.337z" />
<glyph unicode="&#xe917;" glyph-name="bicycle" d="M292.572 425.143v-32l45.714-28.563v-40.009h-155.429v27.428h18.285c36.572 0 36.572 36.572 0 36.572h-73.143c-36.572 0-36.572-36.572 0-36.572h18.285v-27.428l-34.304-64h-2.267c-58.953 0-109.715-50.761-109.715-109.714s50.761-109.714 109.715-109.714 109.715 50.761 109.715 109.714c-0.129 13.175-2.64 25.726-7.122 37.296l0.246-0.724h16.018c27.428 0 33.755 16.603 43.447 26.295l65.097 74.276 19.456-37.705c-37.413-17.737-64-56.466-64-99.438 0-58.953 50.761-109.714 109.714-109.714s109.715 50.761 109.715 109.714-50.761 109.714-109.714 109.714c-1.134 0-2.267 0.036-3.438 0l-33.133 64v58.295l-73.143 42.276zM174.848 288h114.286l-57.125-64h-41.143c-0.695 0-1.609-0.073-2.304 0-9.224 10.228-20.204 18.662-32.5 24.871l-0.634 0.29c-0.439 0.659-0.732 1.572-1.133 2.268l20.553 36.571zM109.715 224c36.791 0 73.143-36.352 73.143-73.143s-36.352-73.143-73.143-73.143-73.143 36.352-73.143 73.143 36.352 73.143 73.143 73.143zM402.286 224c36.791 0 73.143-36.352 73.143-73.143s-36.352-73.143-73.143-73.143-73.143 36.352-73.143 73.143 36.352 73.143 73.143 73.143z" />
<glyph unicode="&#xe918;" glyph-name="biergarten" d="M109.715 480c-36.572 0-73.143-36.572-73.143-73.143v-365.714c0-36.572-36.572-73.143-36.572-73.143h402.286s-36.572 36.572-36.572 73.143h109.714c36.572 0 36.572 36.572 36.572 36.572v219.428c0 36.572-36.572 73.143-73.143 73.143h-73.143v36.572c0 45.349-26.916 73.143-73.143 73.143zM146.286 443.428h109.714c50.505 0 73.143-12.909 73.143-36.572-109.714 0-188.16-7.241-182.857-109.714 0-73.143-73.143-73.143-73.143 0v73.143c0 54.967 18.176 73.143 73.143 73.143zM365.714 315.428h36.572c25.235 0 54.857-0.987 54.857-54.857v-164.572h-91.428zM73.143 41.143h256v-36.572h-256z" />
<glyph unicode="&#xe919;" glyph-name="bird_hide" d="M112.311 476.050v-69.742h97.28v69.742zM302.848 476.050v-69.742h97.463v69.742zM302.848 384.476v-192.548c0-9.216 7.424-16.676 16.676-16.676h16.64v-186.624c0-8.923 7.315-16.201 16.238-16.201h143.067c8.923 0 16.238 7.315 16.238 16.201v116.151l0.293 16.969-61.988 262.729zM62.135 384.183l-62.135-262.729 0.292-17.152v-116.115c0-8.923 7.314-16.238 16.238-16.238h143.067c9.070 0 16.384 7.315 16.384 16.238v186.441h16.53c9.208 0.083 16.64 7.567 16.64 16.786 0 0.013 0 0.026 0 0.039v-0.002 192.731zM230.692 384.183v-179.053h50.469v179.053z" />
<glyph unicode="&#xe91a;" glyph-name="board" d="M0 480v-512h36.572v109.714h438.857v-109.714h36.571v512h-512zM36.572 443.428h438.857v-329.143h-438.857zM146.286 370.286v-36.572h219.429v36.572zM73.143 297.143v-36.572h365.714v36.572zM73.143 224v-36.572h365.714v36.572z" />
<glyph unicode="&#xe91b;" glyph-name="boat_rental" d="M128.004 480.009c-50.497 0-91.431-40.936-91.431-91.431 0-50.497 40.934-91.433 91.431-91.433 33.841 0 63.049 18.387 78.859 45.716h49.145l36.571 36.572 36.572-36.572 36.572 36.572 36.572-36.572h18.286l54.858 45.716-54.858 45.716h-213.72c-15.809 27.328-45.018 45.715-78.859 45.715zM91.431 406.863c10.099 0 18.286-8.187 18.286-18.286s-8.187-18.286-18.286-18.286c-10.099 0-18.286 8.187-18.286 18.286s8.187 18.286 18.286 18.286zM191.362 281.429v-94.932h-191.362l53.574-92.931h404.865l53.574 92.932h-191.361v94.932h-129.289zM109.718 59.421c-19.527 0-54.576-36.572-73.145-36.572v-54.859c19.645 0 55.788 36.574 73.145 36.574 18.441 0 53.618-36.574 73.143-36.574 17.391 0 54.576 36.574 73.145 36.574 18.442 0 55.653-36.574 73.145-36.574 18.442 0 55.788 36.574 73.145 36.574s54.703-36.574 73.144-36.574v54.86c-15.187 0-53.618 37.657-73.144 36.572-17.492 0-53.589-36.572-73.145-36.572-16.27 0-54.703 36.572-73.145 36.572s-56.837-36.572-73.145-36.572c-17.389 0-53.618 36.572-73.144 36.572z" />
<glyph unicode="&#xe91c;" glyph-name="bookmaker" d="M0 480v-109.754h0.691c20.872 0 35.94-16.311 35.94-36.492 0.002-0.166 0.005-0.362 0.005-0.557 0-19.925-16.152-36.078-36.078-36.078-0.196 0-0.392 0.001-0.587 0.005l0.029-0v-109.754h73.261v36.63h-36.769v46.998c21.862 12.759 36.352 36.050 36.492 62.736v0.020c-0.141 26.707-14.63 49.997-36.148 62.569l-0.345 0.187v46.998h439.015v-46.998c-21.875-12.842-36.329-36.25-36.329-63.033s14.454-50.19 35.987-62.846l0.342-0.186v-46.445h-36.63v-36.63h73.262v109.892h-1.382c-20.735-0.138-35.248 16.311-35.248 36.493s13.823 36.493 34.695 36.493h1.797v109.754h-512zM256 370.246c-42.989 0-78.1-42.851-78.1-95.931 0-37.737 17.832-70.497 43.542-85.978 7.741-4.7-0.691-17.002-6.358-8.985-12.84 19.1-34.118 31.671-58.37 32.344l-0.1 0.002c-42.989 0-77.961-42.989-77.961-96.069 0-52.942 34.972-95.793 77.961-95.793 42.851 0 77.684 42.298 78.1 94.687 0 9.262 11.611 10.229 11.611-2.35 0-19.628-15.344-124.268-23.499-144.173 9.856 2.917 21.227 4.761 32.975 5.11l0.2 0.005c11.947-0.353 23.32-2.197 34.132-5.354l-0.957 0.24c-8.156 19.905-23.499 124.406-23.499 144.173 0 12.44 11.611 11.611 11.611 2.35 0.553-52.527 35.387-94.687 78.099-94.687 43.127 0 78.1 42.851 78.1 95.793 0 53.080-34.972 96.069-78.1 96.069-23.223 0-44.233-12.44-58.471-32.346-5.529-8.017-14.099 4.147-6.358 8.985 25.849 15.62 43.542 48.38 43.542 85.978 0 52.942-34.972 95.931-78.1 95.931z" />
<glyph unicode="&#xe91d;" glyph-name="bowling_alley" d="M402.286 480c-40.396 0-73.143-32.747-73.143-73.143v0c0.036-12.837 11.813-25.453 18.286-36.571h109.714c6.437 11.118 18.286 23.735 18.286 36.571 0 40.396-32.747 73.143-73.143 73.143v0zM347.428 333.714v-36.572h109.714v36.572h-109.714zM347.428 260.572c-10.387-21.029-23.808-46.007-34.779-73.143 10.399-21.279 16.493-46.434 16.493-73.087 0-0.019 0-0.039 0-0.058v0.003c-0.086-31.387-8.61-60.659-23.309-85.459l0.379 0.686c7.497-21.796 16.531-42.569 22.93-61.513h146.286c12.8 38.144 36.572 83.493 36.572 130.012 0 61.147-33.792 119.772-54.857 162.56h-109.714zM146.286 258.56c-80.791 0-146.286-65.495-146.286-146.286v0c0-80.791 65.495-146.285 146.286-146.285v0c80.791 0 146.286 65.495 146.286 146.286v0c0 80.791-65.495 146.286-146.286 146.286v0zM146.286 224c20.198 0 36.572-16.373 36.572-36.572v0c0-20.198-16.374-36.572-36.572-36.572v0c-20.198 0-36.572 16.373-36.572 36.572v0c0 20.198 16.373 36.572 36.572 36.572v0zM219.429 150.857c20.198 0 36.571-16.373 36.571-36.572v0c0-20.198-16.374-36.572-36.572-36.572v0c-20.198 0-36.572 16.373-36.572 36.572v0c0 20.198 16.374 36.572 36.572 36.572v0zM128 132.572c20.198 0 36.572-16.373 36.572-36.572v0c0-20.198-16.374-36.572-36.572-36.572v0c-20.198 0-36.572 16.373-36.572 36.572v0c0 20.198 16.373 36.572 36.572 36.572v0z" />
<glyph unicode="&#xe91e;" glyph-name="bureau_de_change" d="M109.715 480v-37.668c-15.36-1.060-30.025-3.145-43.228-7.315-17.701-5.632-31.195-13.971-40.411-24.868-9.216-10.825-13.787-22.455-13.787-34.925 0-11.373 3.767-21.724 11.227-30.94 7.607-9.143 19.053-16.75 34.413-22.93 10.24-4.169 28.343-8.667 51.785-13.349v-89.417c-9.049 1.264-17.126 3.181-24.895 5.768l0.978-0.282c-14.629 4.937-25.49 11.411-32.512 19.273-6.941 8.346-11.665 18.766-13.135 30.204l-0.031 0.296-40.119-2.633c0.585-16.53 6.473-31.452 17.555-44.617 11.264-13.093 26.697-22.857 46.3-29.367 13.020-4.315 28.782-6.692 45.861-8.156v-38.217h36.572v37.303c19.163 0.731 37.011 3.401 52.7 8.923 18.432 6.51 32.512 15.543 42.313 27.136 9.801 11.703 14.702 24.173 14.702 37.34 0.002 0.155 0.002 0.339 0.002 0.523 0 13.346-5.070 25.507-13.389 34.664l0.038-0.043c-8.923 10.24-22.784 18.652-41.508 25.308-10.459 3.657-29.988 7.936-54.857 12.544v78.263c14.994-1.683 27.977-4.608 36.864-10.24 12.727-8.009 20.224-19.858 22.418-35.474l40.777 2.413c-0.736 15.035-6.582 28.577-15.822 39.054l0.060-0.070c-9.801 11.483-23.881 20.115-42.167 25.966-12.507 4.205-26.88 6.363-42.131 7.643v37.888h-36.572zM387.584 480l-95.012-54.857 95.012-54.857v36.644c28.611-2.053 51.046-25.769 51.046-54.724 0-6.632-1.176-12.988-3.332-18.872l0.122 0.381h37.851c1.243 5.569 1.974 11.978 2.012 18.551v0.027c-0.039 49.153-38.859 89.226-87.512 91.276l-0.185 0.006v36.425zM109.715 413.147v-71.058c-21.395 4.535-37.705 8.997-43.922 13.349-8.338 5.741-12.508 13.092-12.508 21.98 0 10.24 5.852 18.944 17.554 26.148 8.777 5.413 22.564 8.156 38.876 9.582zM146.286 300.288c10.788-2.195 26.258-5.12 30.94-6.51 13.459-3.95 23.149-8.777 29.001-14.629 5.851-5.741 8.777-12.507 8.777-20.297 0-7.68-3.072-14.738-9.216-21.285-5.998-6.4-15.214-11.483-27.648-15.213-9.427-2.665-20.337-4.412-31.581-4.856l-0.273-0.009v82.798zM441.417 297.143c-29.147 0-55.844-6.327-80.091-19.054-39.168-20.553-57.82-45.495-72.777-90.661h-26.221l-6.327-36.572h29.587c0-12.397-0.585-24.137 0.402-36.572h-23.699l-6.291-36.572h34.487c3.474-15.616 3.767-18.067 8.594-29.075 23.844-54.418 73.655-80.64 141.604-80.64 22.675 0 43.483 4.169 62.281 12.581v44.69c-15.799-14.153-37.742-21.212-65.829-21.212-0.214-0.002-0.469-0.002-0.723-0.002-20.454 0-39.609 5.556-56.041 15.241l0.517-0.281c-24.064 13.897-39.168 25.563-45.495 58.697h134.144l6.363 36.572h-145.298c-0.11 12.178-0.476 24.393 0 36.572h151.369l6.071 36.572h-153.783c1.463 11.885 3.657 14.628 12.068 27.795 8.265 12.727 20.334 21.321 30.574 28.269 17.115 11.703 38.291 17.554 63.561 17.554 23.296 0 44.142-7.314 62.5-21.906l9.033 40.448c-19.091 11.703-42.606 17.554-70.583 17.554zM38.766 114.359c-1.243-5.57-1.974-11.978-2.011-18.551v-0.027c0.039-49.153 38.859-89.226 87.513-91.276l0.186-0.006v-36.498l94.976 54.857-95.013 54.857v-36.572c-28.611 2.053-51.046 25.769-51.046 54.724 0 6.632 1.177 12.988 3.332 18.872l-0.122-0.381h-37.852z" />
<glyph unicode="&#xe91f;" glyph-name="bus_stop, tram_stop" d="M128 437.334l-42.666-42.666v-341.334h27.99s4.309-42.666 34.688-42.666c29.44 0 33.322 42.666 33.322 42.666h149.334s4.864-42.666 33.322-42.666c34.816 0 34.688 42.666 34.688 42.666h27.99v341.334l-42.666 42.666zM170.667 394.666h170.667v-42.666h-170.667zM128 309.333h256v-128h-256zM128 138.666h42.666v-42.666h-42.666zM341.334 138.666h42.666v-42.666h-42.666z" />
<glyph unicode="&#xe920;" glyph-name="bust" d="M256 480c-40.395 0-73.143-32.747-73.143-73.143v0c0-40.395 32.747-73.143 73.143-73.143v0c40.395 0 73.143 32.747 73.143 73.143v0c0 40.396-32.747 73.143-73.143 73.143v0zM254.428 308.773c-60.964-0.11-121.417-19.566-181.285-58.003 49.481-33.024 90.039-72.595 89.088-128.256h186.661c-2.56 56.32 46.592 97.28 89.929 128.256-61.988 38.948-123.465 58.148-184.429 58.003zM182.857 77.714v-36.572h146.286v36.572h-146.286zM109.715 4.572v-36.572h292.572v36.572h-292.572z" />
<glyph unicode="&#xe921;" glyph-name="butcher" d="M242.481 482.533c-32.797-9.518-87.052-32.513-120.466-47.881-37.205-17.139-63.846-33.869-93.427-49.731 9.352-27.151 31.657-94.067 78.379-166.335 36.957-57.106 67.983-102.595 103.004-137.204l86.587 58.664c3.091-25.545 89.364-144.304 118.535-165.853 11.248-8.323 19.106-1.563 38.224 11.91s26.317 24.969 19.313 41.202c-14.296 33.373-76.846 153.051-106.223 172.209-28.264 41.077-51.841 72.095-75.161 129.077-24.103 58.918-39.495 118.716-48.766 153.942zM226.708 451.873c7.21-27.893 18.593-82.527 42.489-135.595 24.721-54.798 54.501-97.555 65.584-112.017-26.534-24.969-121.834-94.716-121.834-94.716s-42.655 49.959-87.070 122.639c-35.186 57.682-67.768 133.594-70.734 141.71 24.020 17.428 146.68 72.538 171.565 77.978zM162.163 364.807c0 13.184 11.331 23.897 25.298 23.897 14.009 0 25.298-10.712 25.298-23.897 0-13.226-11.331-23.938-25.298-23.938-14.009 0-25.298 10.712-25.298 23.897z" />
<glyph unicode="&#xe922;" glyph-name="cafe" d="M0 77.714h402.286c0-36.572-36.572-73.143-73.143-73.143h-256c-36.572 0-73.143 36.572-73.143 73.143zM365.714 361.143v-91.429h64c22.382 0 36.572 20.589 36.572 45.714s-12.142 45.714-36.572 45.714zM36.572 443.428h329.143v-36.572h73.143c36.572 0 73.143-36.571 73.143-73.143v-36.572c0-36.572-36.572-73.143-73.143-73.143h-73.143c0-73.143-73.143-109.714-164.571-109.714s-164.571 36.572-164.571 109.714z" />
<glyph unicode="&#xe923;" glyph-name="camping, campsite" d="M512-32l-219.428 402.286 36.572 109.714h-36.572l-36.572-73.143-36.572 73.143h-36.572l36.572-109.714-219.429-402.286zM256 224l109.714-219.428h-219.429z" />
<glyph unicode="&#xe924;" glyph-name="car_parts" d="M329.143 370.286v73.143h109.714v-73.143zM73.143 370.286v73.143h109.715v-73.143zM0 370.286v-365.714h512v365.714zM126.025 297.143h56.832v-73.143h73.143v-57.709h-73.143v-73.947l-57.161-1.207 0.915 76.947-75.703-0.585 1.060 56.503h73.472zM329.143 224h146.286v-58.88l-146.286 0.548z" />
<glyph unicode="&#xe925;" glyph-name="car_repair" d="M100.352 480c-25.965 0-50.103-15.067-63.781-36.572h86.674l22.747-36.572-22.784-36.571h-86.564c13.678-21.504 37.778-36.535 63.707-36.572 27.721 0 51.639 14.775 64.659 36.572h170.643c12.983-21.796 36.937-36.572 64.731-36.572 41.399 0 75.044 32.731 75.044 73.143s-33.609 73.143-75.081 73.143c-27.721 0-51.712-14.775-64.731-36.572h-170.569c-13.019 21.797-36.937 36.572-64.659 36.572zM377.49 443.428h45.714l22.784-36.572-22.784-36.571h-45.714l-22.748 36.571 22.784 36.572zM146.286 260.572l-36.572-109.715c-17.299 0-36.572-14.043-36.572-36.572v-109.714h36.572s0-36.571 36.572-36.571 36.572 36.572 36.572 36.572h146.286s0-36.572 36.572-36.572 36.572 36.572 36.572 36.572h36.572v109.714c0 19.017-16.64 36.572-36.572 36.572l-36.572 109.714h-219.429zM182.857 224h146.286l22.857-73.143h-192l22.857 73.143zM146.286 105.143c15.149 0 27.428-12.28 27.428-27.428s-12.28-27.428-27.428-27.428v0c-15.149 0-27.428 12.28-27.428 27.428s12.28 27.428 27.428 27.428v0zM365.714 105.143c15.149 0 27.428-12.28 27.428-27.428s-12.28-27.428-27.428-27.428v0c-15.149 0-27.428 12.28-27.428 27.428s12.28 27.428 27.428 27.428v0z" />
<glyph unicode="&#xe926;" glyph-name="car_wash" d="M182.857 406.857l-73.143-109.714h-36.572l73.143 109.714zM329.143 406.857l73.143-109.714h36.572l-73.143 109.714zM237.714 406.857h36.572v-109.714h-36.572zM219.429 480l-73.143-36.572h219.429l-73.143 36.572zM146.286 260.572l-36.572-109.715c-17.299 0-36.572-14.043-36.572-36.572v-109.714h36.572s0-36.571 36.572-36.571 36.572 36.572 36.572 36.572h146.286s0-36.572 36.572-36.572 36.572 36.572 36.572 36.572h36.572v109.714c0 19.017-16.64 36.572-36.572 36.572l-36.572 109.714h-219.429zM182.857 224h146.286l22.857-73.143h-192l22.857 73.143zM146.286 105.143c15.149 0 27.428-12.28 27.428-27.428s-12.28-27.428-27.428-27.428v0c-15.149 0-27.428 12.28-27.428 27.428s12.28 27.428 27.428 27.428v0zM365.714 105.143c15.149 0 27.428-12.28 27.428-27.428s-12.28-27.428-27.428-27.428v0c-15.149 0-27.428 12.28-27.428 27.428s12.28 27.428 27.428 27.428v0z" />
<glyph unicode="&#xe927;" glyph-name="car" d="M0 132.572c0-30.297 24.561-54.857 54.857-54.857v0h402.286c30.297 0 54.857 24.56 54.857 54.857v0 109.714c0 30.297-24.56 54.857-54.857 54.857v0h-402.286c-30.297 0-54.857-24.561-54.857-54.857v0zM58.514 205.714c0.104 18.099 14.8 32.731 32.914 32.731 18.178 0 32.914-14.736 32.914-32.914s-14.736-32.914-32.915-32.914c-18.114 0-32.81 14.632-32.913 32.721v0.010zM387.657 205.714c0.104 18.099 14.8 32.731 32.914 32.731 18.178 0 32.914-14.736 32.914-32.914s-14.736-32.914-32.914-32.914c-18.114 0-32.81 14.632-32.913 32.721v0.010zM36.572 114.286h73.143v-109.714h-73.143zM402.286 114.286h73.143v-109.714h-73.143zM73.143 297.143v91.428c0 30.297 24.561 54.857 54.857 54.857v0h256c30.297 0 54.857-24.56 54.857-54.857v0-91.428h-54.857v54.857c0 20.198-16.373 36.572-36.572 36.572v0h-182.857c-20.198 0-36.572-16.374-36.572-36.572v0-54.857z" />
<glyph unicode="&#xe928;" glyph-name="caravan_park" d="M73.143 406.857c-36.572 0-73.143-36.571-73.143-73.143v-146.286c0-36.572 36.572-73.143 73.143-73.143h38.876c8.521 41.692 44.947 73.143 89.124 73.143s80.603-31.452 89.161-73.143h221.696s0 36.572-36.572 36.572h-54.857v182.857c0 35.109-37.449 73.143-73.143 73.143zM104.009 333.714c0.858 0.17 1.844 0.267 2.853 0.267s1.995-0.097 2.95-0.283l-0.097 0.016h73.143s36.572 0 36.572-36.572-36.572-36.572-36.572-36.572h-73.143s-36.572 0-36.572 36.572c0 27.428 20.59 34.853 30.867 36.572zM292.572 333.714h18.286s36.572 0 36.572-36.572-36.572-36.572-36.572-36.572h-18.286s-36.572 0-36.572 36.572 36.572 36.572 36.572 36.572zM201.143 150.857c-30.297 0-54.857-24.56-54.857-54.857s24.56-54.857 54.857-54.857v0c30.297 0 54.857 24.56 54.857 54.857s-24.56 54.857-54.857 54.857v0z" />
<glyph unicode="&#xe929;" glyph-name="carpet" d="M438.857 480c-40.521 0-73.143-32.621-73.143-73.143v-365.714c0-40.521 32.621-73.143 73.143-73.143s73.143 32.621 73.143 73.143v365.714c0 40.521-32.621 73.143-73.143 73.143zM0 406.857v-36.571h36.572v-43.886h-36.572v-36.571h36.572v-43.886h-36.572v-36.571h36.572v-43.885h-36.572v-36.572h36.572v-43.885h-36.572v-36.572h36.572v-43.885h-36.572v-36.572h329.143v438.857h-329.143zM73.143 370.286l73.143-36.572 73.143 36.572 73.143-36.572v-36.572l-73.143 36.572-73.143-36.572-73.143 36.572v36.572zM73.143 272.786l73.143-36.572 73.143 36.572 73.143-36.572v-36.572l-73.143 36.572-73.143-36.572-73.143 36.572v36.572zM73.143 175.214l73.143-36.572 73.143 36.572 73.143-36.572v-36.572l-73.143 36.572-73.143-36.572-73.143 36.572v36.572zM73.143 77.714l73.143-36.572 73.143 36.572 73.143-36.572v-36.572l-73.143 36.572-73.143-36.572-73.143 36.572v36.572zM438.857 77.714c20.198 0 36.572-16.373 36.572-36.572s-16.373-36.572-36.572-36.572v0c-20.198 0-36.572 16.373-36.572 36.572s16.373 36.572 36.572 36.572v0z" />
<glyph unicode="&#xe92a;" glyph-name="casino" d="M288.899 298.229c-0.082 0-0.18 0-0.277 0-40.309 0-72.985-32.677-72.985-72.985 0-0.097 0-0.195 0-0.292v0.015-146.108c0-40.639 32.761-73.262 73.262-73.262h146.246c40.501 0 73.262 32.622 73.262 73.262v146.246c0 0.083 0 0.179 0 0.277 0 40.309-32.676 72.985-72.985 72.985-0.098 0-0.195 0-0.292-0h0.015zM435.144 270.86c0 0 0 0 0 0 25.193 0 45.615-20.423 45.615-45.616 0-0.048 0-0.097 0-0.145v0.007c0-25.193-20.423-45.615-45.615-45.615v0c-25.193 0-45.615 20.423-45.615 45.615v0c0 25.193 20.423 45.615 45.615 45.615v0zM288.899 124.475c25.193 0 45.615-20.423 45.615-45.615v0c0-0.041 0-0.089 0-0.138 0-25.193-20.423-45.615-45.615-45.615 0 0 0 0-0 0v0c-25.193 0-45.615 20.423-45.615 45.615v0c0 0.041 0 0.089 0 0.138 0 25.193 20.423 45.615 45.615 45.615 0 0 0 0 0 0v0zM141.408 441.158c-24.933-1.885-46.203-15.99-58.007-36.281l-0.188-0.349-73.261-126.894c-6.329-10.526-10.072-23.23-10.072-36.808 0-26.695 14.468-50.010 35.99-62.531l0.345-0.185 126.894-72.985c5.252-3.041 10.643-6.358 16.035-8.017v128c0 60.13 49.624 109.754 109.754 109.754h44.51c-6.158 9.346-14.122 17.001-23.448 22.625l-0.327 0.183-127.171 73.262c-10.595 6.496-23.422 10.343-37.147 10.343-1.423 0-2.837-0.042-4.239-0.123l0.194 0.009zM152.466 415.171c25.053-0.234 45.272-20.599 45.272-45.685 0-25.232-20.454-45.687-45.686-45.687-0.146 0-0.292 0-0.437 0.002h0.023c-25.023 0.274-45.203 20.622-45.203 45.684 0 25.233 20.455 45.687 45.687 45.687 0.17 0 0.34-0.001 0.51-0.003h-0.026zM75.058 280.812c25.023-0.274 45.204-20.623 45.204-45.685 0-25.233-20.455-45.687-45.687-45.687-0.17 0-0.34 0.001-0.51 0.003h0.026c-25.023 0.274-45.203 20.623-45.203 45.685 0 25.233 20.455 45.687 45.687 45.687 0.17 0 0.34-0.001 0.51-0.003h-0.026z" />
<glyph unicode="&#xe92b;" glyph-name="castle" d="M36.572 443.428l-36.572-54.857v-18.286h182.857v18.286l-36.571 54.857h-109.715zM365.714 443.428l-36.572-54.857v-18.286h182.857v18.286l-36.572 54.857h-109.714zM0 333.714v-329.143h182.857c0 36.572 0 109.714 73.143 109.714s73.143-73.143 73.143-109.714h182.857v329.143h-182.857v-73.143h-146.286v73.143h-182.857zM73.143 260.572h36.572v-36.572l-18.285-36.572-18.285 36.572v36.572zM402.286 260.572h36.572v-36.572l-18.286-36.572-18.286 36.572v36.572z" />
<glyph unicode="&#xe92c;" glyph-name="cave, cave_entrance" d="M109.715 114.286c0 36.572 73.143 146.286 145.408 146.286 74.021 0 147.163-109.714 147.163-146.286h-146.286zM256 370.286c-109.714 0-256-146.286-256-256h36.572c0 109.714 146.286 219.429 219.428 219.429s219.428-109.715 219.428-219.429h36.572c0 109.714-146.286 256-256 256z" />
<glyph unicode="&#xe92d;" glyph-name="chalet" d="M155.136 453.193l-155.136-141.165h17.92v-242.432h94.939v135.863h84.553v-100.205l-82.359-94.647c-1.393-1.596-2.242-3.697-2.242-5.998 0-5.041 4.079-9.128 9.117-9.143l380.856-0.659c0.012 0 0.027 0 0.043 0 5.050 0 9.143 4.094 9.143 9.143 0 1.267-0.257 2.474-0.724 3.571l0.022-0.060-123.428 296.521c-1.41 3.342-4.66 5.645-8.447 5.645-2.755 0-5.226-1.219-6.903-3.147l-0.010-0.011-80.091-92.087v97.645h17.92zM376.576 283.319l112.493-270.226-347.063 0.659 55.406 63.707v-7.863h94.94v116.955zM376.576 283.319l-84.224-96.768v-116.955h-94.94v7.863l-55.406-63.707 347.063-0.659z" />
<glyph unicode="&#xe92e;" glyph-name="charging_station" d="M73.143 443.428c-42.642 0-73.143-29.111-73.143-73.143v-402.286h256v288s32 4.572 32-32v-146.286c0-73.143 68.206-77.714 77.714-77.714 10.094 0 77.714 4.572 77.714 77.714v146.286s50.761-0.622 50.286 108.581h-27.428v73.143c0 20.736-27.428 20.589-27.428 1.133v-73.143h-36.572v73.143c-0.538 7.151-6.473 12.749-13.714 12.749s-13.176-5.598-13.712-12.702l-0.003-0.046v-73.143h-27.428c0.476-109.202 50.286-109.714 50.286-109.714v-146.286c0-31.964-28.050-32-32-32s-32 1.572-32 32v146.286c0 46.812-41.143 77.714-77.714 77.714v68.572c0 44.69-29.843 73.143-73.143 73.143zM108.581 370.286h100.571l-62.867-97.536h75.447l-138.35-195.036h-25.124l50.285 146.286h-62.83z" />
<glyph unicode="&#xe92f;" glyph-name="charity" d="M182.857 480c-36.571 0-36.571 0-36.571-36.572l0.365-109.714h-110.080v-329.143c0-36.572 0-36.572 36.572-36.572h365.714c36.572 0 36.572 0 36.572 36.572v329.143h-108.251l-1.463 109.714c0 36.572 0 36.572-36.572 36.572h-146.286zM182.857 443.428h146.286v-109.714h-146.286v109.714zM189.367 278.93c18.907 0.109 22.857-2.121 34.011-8.228 13.531-7.424 27.428-35.036 30.355-46.336l1.756-7.022 4.389 9.655c26.733 58.588 103.863 74.935 131.474 10.35 7.68-17.884 9.764-54.492 2.012-75.411-10.13-27.283-29.111-48.128-72.997-80.019-28.781-20.882-61.367-52.48-63.635-56.905-2.633-5.156-0.183-0.841-11.813 12.215-6.107 6.839-21.394 20.188-34.012 29.696-37.23 28.16-42.276 32.183-57.417 46.153-27.904 25.673-39.753 51.493-39.716 86.492 0 17.079 1.171 23.661 5.924 33.719 8.119 17.079 20.114 29.805 35.364 37.559 10.825 5.486 16.201 7.972 34.304 8.082z" />
<glyph unicode="&#xe930;" glyph-name="chemist" d="M494.3 4.572c0 438.857 0.841 367.469 0.841 438.857 0 36.572-1.719 36.572-56.284 36.572v-476.855c1.755-35.255 0-35.145 26.295-35.145 27.977 0 29.147 0 29.147 36.572zM91.721 54.857c72.74-23.149 114.359-23.149 186.259 2.56l-21.98 276.297c-73.143-10.276-73.143-11.154-146.286 0zM157.988 480h51.163l20.261-109.714c-36.571-11.155-56.832-11.155-93.403 0zM73.984-32l8.594 36.572h201.143l9.399-36.572zM346.844 480h71.68v-22.308h-71.68zM346.844 443.428h71.68v-22.308h-71.68zM346.844 406.857h71.68v-22.308h-71.68zM346.844 370.286h71.68v-22.309h-71.68zM346.844 333.714h71.68v-22.309h-71.68z" />
<glyph unicode="&#xe931;" glyph-name="chimney" d="M73.143 333.714v-329.289l-36.572-36.425h146.286l-36.572 36.717v328.997h-73.143zM109.715 370.286c36.572 24.393 53.76 36.571 109.715 36.571 73.143-0.804 101.011-35.693 146.286-36.571 56.978 0 73.143 36.571 109.714 109.714-36.572-36.572-36.572-36.572-109.714-36.572s-73.143 36.572-146.286 36.572c-36.572 0-73.143-28.014-109.715-109.714z" />
<glyph unicode="&#xe932;" glyph-name="cinema" d="M36.572 443.428c-20.261 0-36.572-16.311-36.572-36.572v-402.285c0-20.26 16.311-36.572 36.572-36.572h438.857c20.26 0 36.571 16.311 36.571 36.572v402.286c0 20.26-16.311 36.572-36.572 36.572h-438.857zM45.715 406.857h18.285c5.049 0 9.143-4.093 9.143-9.143v0-18.286c0-5.049-4.094-9.143-9.143-9.143v0h-18.285c-5.050 0-9.143 4.094-9.143 9.143v0 18.286c0 5.050 4.093 9.143 9.143 9.143v0zM146.286 406.857h219.429v-182.857h-219.429v182.857zM448 406.857h18.286c5.050 0 9.143-4.093 9.143-9.143v0-18.286c0-5.049-4.094-9.143-9.143-9.143v0h-18.286c-5.050 0-9.143 4.094-9.143 9.143v0 18.286c0 5.050 4.094 9.143 9.143 9.143v0zM45.715 333.714h18.285c5.049 0 9.143-4.094 9.143-9.143v0-18.286c0-5.050-4.094-9.143-9.143-9.143v0h-18.285c-5.050 0-9.143 4.093-9.143 9.143v0 18.286c0 5.049 4.093 9.143 9.143 9.143v0zM448 333.714h18.286c5.050 0 9.143-4.094 9.143-9.143v0-18.286c0-5.050-4.094-9.143-9.143-9.143v0h-18.286c-5.050 0-9.143 4.093-9.143 9.143v0 18.286c0 5.049 4.094 9.143 9.143 9.143v0zM45.715 260.572h18.285c5.049 0 9.143-4.094 9.143-9.143v0-18.286c0-5.049-4.094-9.143-9.143-9.143v0h-18.285c-5.050 0-9.143 4.094-9.143 9.143v0 18.285c0 5.049 4.093 9.143 9.143 9.143v0zM448 260.572h18.286c5.050 0 9.143-4.094 9.143-9.143v0-18.286c0-5.049-4.094-9.143-9.143-9.143v0h-18.286c-5.050 0-9.143 4.094-9.143 9.143v0 18.285c0 5.049 4.094 9.143 9.143 9.143v0zM45.715 187.428h18.285c5.049 0 9.143-4.094 9.143-9.143v0-18.286c0-5.050-4.094-9.143-9.143-9.143v0h-18.285c-5.050 0-9.143 4.094-9.143 9.143v0 18.286c0 5.050 4.093 9.143 9.143 9.143v0zM146.286 187.428h219.429v-182.857h-219.429v182.857zM448 187.428h18.286c5.050 0 9.143-4.094 9.143-9.143v0-18.286c0-5.050-4.094-9.143-9.143-9.143v0h-18.286c-5.050 0-9.143 4.094-9.143 9.143v0 18.286c0 5.050 4.094 9.143 9.143 9.143v0zM45.715 114.286h18.285c5.049 0 9.143-4.094 9.143-9.143v0-18.286c0-5.050-4.094-9.143-9.143-9.143v0h-18.285c-5.050 0-9.143 4.094-9.143 9.143v0 18.286c0 5.050 4.093 9.143 9.143 9.143v0zM448 114.286h18.286c5.050 0 9.143-4.094 9.143-9.143v0-18.286c0-5.050-4.094-9.143-9.143-9.143v0h-18.286c-5.050 0-9.143 4.094-9.143 9.143v0 18.286c0 5.050 4.094 9.143 9.143 9.143v0zM45.715 41.143h18.285c5.049 0 9.143-4.094 9.143-9.143v0-18.286c0-5.050-4.094-9.143-9.143-9.143v0h-18.285c-5.050 0-9.143 4.094-9.143 9.143v0 18.286c0 5.050 4.093 9.143 9.143 9.143v0zM448 41.143h18.286c5.050 0 9.143-4.094 9.143-9.143v0-18.286c0-5.050-4.094-9.143-9.143-9.143v0h-18.286c-5.050 0-9.143 4.094-9.143 9.143v0 18.286c0 5.050 4.094 9.143 9.143 9.143v0z" />
<glyph unicode="&#xe933;" glyph-name="city_gate, sally_port" d="M0 443.428v-109.714h512v109.714h-73.143v-73.143h-73.143v73.143h-73.143v-73.143h-73.143v73.143h-73.143v-73.143h-73.143v73.143h-73.143zM0 297.143v-292.572h91.428c0 109.714 36.133 237.714 164.572 237.714 124.489 0.988 164.572-128 164.572-237.714h91.428v292.572h-512zM256 187.428c-73.143 0-109.714-73.143-109.714-182.857h219.429c0 109.714-36.572 182.857-109.714 182.857z" />
<glyph unicode="&#xe934;" glyph-name="clothes" d="M182.857 443.428c0.66-46.927 55.469-89.256 100-66.857 25.416 12.136 45.807 37.996 46.286 66.857 24.381 0 48.762 0 73.143 0 36.572-24.381 73.143-48.762 109.714-73.143-12.19-40.838-24.381-81.676-36.572-122.514-24.381 16.457-48.762 32.915-73.143 49.372 0-97.524 0-195.048 0-292.572-97.524 0-195.048 0-292.572 0 0 97.524 0 195.048 0 292.572-24.381-16.457-48.762-32.914-73.143-49.371-12.191 40.838-24.381 81.676-36.572 122.515 36.572 24.381 73.143 48.762 109.715 73.143 24.381 0 48.762 0 73.143 0z" />
<glyph unicode="&#xe935;" glyph-name="coffee" d="M452.901 459.411s-27.611 25.856-73.143 19.639c-45.568-6.217-172.251-66.925-231.131-119.15s-139.849-135.972-145.042-191.635c-5.193-55.589-13.678-79.726 47.872-141.166 61.513-61.44 206.885-2.816 206.885-2.816s127.927 58.368 190.829 166.547c62.903 108.178 60.709 153.966 60.709 153.966s8.741 40.009-9.18 75.044c-17.957 34.999-43.557 31.707-43.557 31.707s-31.341-20.48-55.26-46.848c-23.918-26.368-23.515-27.173-35.401-37.668-11.923-10.569-30.281-14.629-43.995-27.283-13.678-12.69-47.177-95.379-108.763-146.139-61.587-50.798-93.147-63.012-108.471-79.872-15.36-16.823-18.541-34.524-30.099-31.232-11.593 3.291-6.802 64 15.251 82.908s27.977 15.214 59.794 35.986c31.817 20.809 68.462 121.161 157.916 189.221 89.454 68.023 144.823 68.791 144.823 68.791z" />
<glyph unicode="&#xe936;" glyph-name="communications_tower" d="M219.429 480v-119.625c-21.986-12.863-36.529-36.344-36.571-63.226v-0.006c0.029-26.902 14.576-50.399 36.226-63.082l0.345-0.187v-265.875h73.143v265.911c21.986 12.863 36.529 36.344 36.572 63.226v0.006c-0.029 26.901-14.575 50.399-36.226 63.082l-0.345 0.187v119.589h-73.143zM402.505 480v-46.848c43.74-25.965 71.204-69.961 71.204-125.952 0-55.954-27.428-100.644-71.204-126.647v-47.469c64.695 29.293 109.641 97.097 109.641 174.117 0 77.056-44.983 143.469-109.641 172.8zM109.715 479.853c-64.695-29.293-109.568-96.256-109.568-173.276s44.837-144.823 109.568-174.153v44.8c-43.74 25.966-71.863 75.995-71.863 132.023 0 55.954 28.087 99.62 71.863 125.623v44.983zM146.286 412.014c-42.35-15.726-73.143-56.686-73.143-105.436 0-48.786 30.793-90.185 73.143-105.875v41.875c-21.833 12.947-33.939 37.303-33.939 65.28s12.069 49.006 33.939 61.989v42.167zM365.933 411.648v-40.448c22.344-13.24 37.111-37.197 37.193-64.609v-0.012c0-27.977-15.36-47.689-37.193-60.635v-41.143c42.349 15.652 71.863 53.029 71.863 101.779 0 48.786-29.513 89.38-71.863 105.070zM146.286-32l109.714 109.714 109.714-109.714z" />
<glyph unicode="&#xe937;" glyph-name="community_centre" d="M419.62 388.572c0-30.281-24.137-54.857-53.906-54.857s-53.906 24.576-53.906 54.857 24.137 54.857 53.906 54.857 53.906-24.576 53.906-54.857zM109.715 260.572h73.143v-109.715h-73.143zM200.192 388.572c0-30.281-24.137-54.857-53.906-54.857s-53.906 24.576-53.906 54.857 24.137 54.857 53.906 54.857 53.906-24.576 53.906-54.857zM0 297.143h256v-36.572h-256zM36.572 4.572l73.143 146.286h36.572l-73.143-146.286zM256 4.572l-73.143 146.286h-36.571l73.143-146.286zM329.143 260.572h73.143v-109.715h-73.143zM256 297.143h256v-36.572h-256zM256 4.572l73.143 146.286h36.572l-73.143-146.286zM475.428 4.572l-73.143 146.286h-36.572l73.143-146.286z" />
<glyph unicode="&#xe938;" glyph-name="computer" d="M109.715 443.428c-17.737 0-36.572-18.907-36.572-36.572v-219.428c0-17.664 18.907-36.572 36.572-36.572h292.572c17.664 0 36.572 18.908 36.572 36.572v219.428c0 17.664-18.907 36.572-36.572 36.572h-292.572zM109.715 406.857h292.572v-219.428h-292.572v219.428zM73.143 114.286c-9.143 0-11.776-5.413-16.347-14.555l-39.789-114.541c-6.803-9.143 10.386-17.188 19.566-17.188h438.857c9.143 0 22.675 9.143 19.565 17.188l-40.923 115.675c-4.572 8.046-6.034 13.421-15.214 13.421h-365.714z" />
<glyph unicode="&#xe939;" glyph-name="confectionery" d="M14.665 224c-0.476 36.572 58.477 109.714 131.62 109.714 36.571-1.171 73.143-58.039 109.715-56.32 36.572-4.206 73.143 56.539 109.714 56.32 73.143 0 130.596-73.143 130.707-109.714h-38.144c-19.42 36.572-55.991 55.332-92.563 56.832-36.572-3.876-73.143-57.051-109.714-56.832-36.572-0.988-73.143 50.871-109.714 53.394-36.572 1.060-73.143-16.823-88.503-53.394h-43.154zM329.143 406.857c-0.017-40.383-32.757-73.114-73.143-73.114-40.395 0-73.143 32.747-73.143 73.143s32.747 73.143 73.143 73.143c34.081 0 62.717-23.308 70.838-54.854l0.111-0.507zM109.715 4.572l-73.143 182.857c26.331-5.267 50.724-32.805 73.143-36.572 14.811-2.487 59.575 37.888 73.143 36.572 34.231-3.291 46.665-33.536 73.143-36.572 27.721-3.182 39.132 29.513 73.143 36.572 16.457 3.401 50.395-34.633 73.143-36.572 28.087-2.413 45.788 31.086 73.143 36.572l-73.143-182.857c-36.572-36.572-73.143-36.572-146.286-36.572s-109.714 0-146.286 36.572z" />
<glyph unicode="&#xe93a;" glyph-name="convenience" d="M36.572 224h402.286v-18.286h-402.286zM73.143 150.857h347.428v-18.286h-347.428zM109.715 278.857h18.285v-201.143h-18.285zM182.857 278.857h18.285v-201.143h-18.286zM274.286 278.857h18.286v-201.143h-18.286zM347.428 278.857h18.286v-201.143h-18.286zM215.772 297.143l73.143 109.714c2.909 6.642 9.425 11.197 17.005 11.197 10.224 0 18.512-8.288 18.512-18.512 0-2.644-0.554-5.158-1.553-7.433l0.046 0.119-63.269-95.086zM73.143 41.143h329.143l73.143 256h-475.428zM45.715 260.572h384l-54.857-182.857h-274.286z" />
<glyph unicode="&#xe93b;" glyph-name="copyshop" d="M330.276 481.134l-293.705-1.134v-365.714h109.714v36.572h-73.143v292.572h219.429v-73.143h37.705v110.848zM109.715 406.857v-18.285h146.286v18.285h-146.286zM109.715 370.286v-18.286h36.572v18.286h-36.572zM109.715 333.714v-18.286h36.572v18.286h-36.572zM182.857 333.714v-365.714h292.572v245.724l-119.991 119.991h-172.581zM109.715 297.143v-18.286h36.572v18.286h-36.572zM219.429 297.143h109.715v-109.715h109.714v-182.857h-219.429v292.572zM365.714 271.981l48.019-47.981h-48.019v48.019zM109.715 260.572v-18.286h36.572v18.286h-36.572zM256 260.572v-18.286h36.572v18.286h-36.572zM109.715 224v-18.286h36.572v18.286h-36.572zM256 224v-18.286h36.572v18.286h-36.572zM256 187.428v-18.286h36.572v18.286h-36.572zM256 150.857v-18.286h146.286v18.286h-146.286zM256 114.286v-18.286h146.286v18.286h-146.286zM256 77.714v-18.286h146.286v18.286h-146.286z" />
<glyph unicode="&#xe93c;" glyph-name="courthouse" d="M256 480c-36.572 0-36.572-36.572-36.572-36.572l-137.143-36.572v-36.571l-82.285-182.857c0-36.572 28.965-73.143 91.428-73.143s91.428 36.572 91.428 73.143l-82.285 182.857h118.857v-365.714h-146.286l-36.572-36.572h438.857l-36.572 36.572h-146.286v365.714h118.857l-82.286-182.857c0-36.572 28.269-73.143 91.428-73.143s91.428 36.572 91.428 73.143l-82.286 182.857v36.572l-137.143 36.572s0 36.572-36.572 36.572zM91.428 333.714l64-146.286h-128zM420.572 333.714l64-146.286h-128z" />
<glyph unicode="&#xe93d;" glyph-name="crane" d="M36.572 480c-20.261 0-36.572-16.311-36.572-36.572v-109.714h36.572v-365.714h36.572v109.714l109.715-109.714h36.572v365.714h182.857v-182.857h-73.143v-73.143h182.857v73.143h-73.143v182.857h73.143l-36.572 73.143h-256l-36.572 73.143h-146.286zM36.572 443.428h146.286l18.286-36.572h-164.571zM73.143 333.714h109.715v-109.714zM73.143 297.143l91.429-91.429-91.428-91.428zM182.857 187.428v-182.857l-91.428 91.428z" />
<glyph unicode="&#xe93e;" glyph-name="cross" d="M256 423.111c-29.127 0-28.445-28.445-28.445-28.445v-85.334h-113.778v-56.889h113.778v-227.555h56.889v227.555h113.778v56.889h-113.778v85.334s0.683 28.445-28.445 28.445z" />
<glyph unicode="&#xe93f;" glyph-name="dairy" d="M47.433 480c-6.535-0.021-11.828-5.313-11.849-11.847v-84.994l-34.377-78.263c-0.585-1.755-1.207-2.925-1.207-4.681v-320.365c0-6.51 5.34-11.849 11.849-11.849h500.151v210.505h-237.568l0.073 121.709c-0.026 1.723-0.442 3.341-1.163 4.781l0.029-0.063-34.451 78.226v84.992c-0.020 6.523-5.292 11.808-11.809 11.849h-0.004zM59.282 455.716h155.94v-69.559h-155.977zM57.49 374.272h158.94l0.585-1.207c-11.044-24.941-22.492-50.469-32-71.643v-122.917h-59.501v-186.368h-101.522c-0.549 100.864-0.293 203.63-0.293 305.152zM223.524 358.291l26.697-61.001v-118.784h-53.468v120.284l0.073 0.22zM194.121 147.932c19.215-0.031 34.78-15.615 34.78-34.834 0-19.238-15.596-34.834-34.834-34.834-0.019 0-0.038 0-0.058 0h0.003c-19.215 0.031-34.779 15.615-34.779 34.834 0 19.238 15.596 34.834 34.834 34.834 0.019 0 0.038 0 0.058 0h-0.003zM428.837 133.010c26.272-0.021 47.561-21.323 47.561-47.597 0-26.288-21.31-47.597-47.598-47.597-0.013 0-0.026 0-0.038 0h0.002c-26.272 0.021-47.561 21.323-47.561 47.597 0 26.288 21.31 47.597 47.597 47.597 0.013 0 0.026 0 0.038 0h-0.002zM296.082 76.947c22.248 0 40.284-18.036 40.284-40.284s-18.036-40.284-40.284-40.284v0c-22.248 0-40.284 18.036-40.284 40.284s18.036 40.284 40.284 40.284v0z" />
<glyph unicode="&#xe940;" glyph-name="deli" d="M219.429 480h73.143c73.143 0 109.714 0 109.714-36.572v-36.572h-292.572v36.572c0 36.572 36.572 36.572 109.714 36.572zM146.286 370.286c0-73.143-73.948-36.572-73.728-109.714l0.585-182.857c0.109-36.572 36.572-109.714 109.715-109.714h146.286c73.143 0 109.714 73.143 109.714 109.714v182.857c0 73.143-73.143 36.571-73.143 109.714zM365.714 224v-109.714h-219.429v109.714z" />
<glyph unicode="&#xe941;" glyph-name="dentist" d="M256 187.428c73.143 0 73.143-36.572 73.143-109.714 0-36.572-36.937-109.714 0-109.714 36.572 0 64.036 41.801 73.143 109.714s0 109.714 0 146.286c0 73.143 36.572 146.286 36.572 182.857s-14.628 65.207-36.572 73.143c-73.143 0-73.143-36.572-146.286-36.572s-73.143 36.572-146.286 36.572c-21.943-7.936-36.572-36.572-36.572-73.143s36.572-109.714 36.572-182.857c0-36.572-4.462-94.099 0-146.286s36.572-109.714 73.143-109.714c36.9 0 0 73.143 0 109.714 0 73.143 0 109.714 73.143 109.714z" />
<glyph unicode="&#xe942;" glyph-name="department_store" d="M182.857 480c-36.571 0-36.571 0-36.571-36.572l0.365-109.714h-110.080v-329.143c0-36.572 0-36.572 36.572-36.572h365.714c36.572 0 36.572 0 36.572 36.572v329.143h-108.251l-1.463 109.714c0 36.572 0 36.572-36.572 36.572h-146.286zM182.857 443.428h146.286v-109.714h-146.286v109.714zM240.201 278.857c27.941 0 48.457-5.486 61.587-16.274 13.129-10.825 19.639-23.771 19.639-38.875 0-8.411-1.938-16.493-5.998-24.284-3.95-7.753-8.777-14.080-14.445-18.908-5.632-4.864-15.726-12.068-30.355-21.651 12.105-12.069 24.685-23.296 37.815-33.646 3.474 6.949 6.51 14.373 8.997 22.125l53.906-11.923c-2.816-9.875-5.522-17.884-8.119-23.844-2.633-5.961-6.253-13.056-11.008-21.139l25.929-17.737c3.145-2.012 7.315-4.462 12.288-7.277l-37.229-42.569c-8.663 4.637-15.596 8.784-22.338 13.2l1.127-0.692c-4.502 3.076-10.862 7.113-17.321 11.002l-2.172 1.213c-10.348-7.066-22.276-12.944-35.007-17.027l-0.979-0.272c-16.127-4.726-34.653-7.445-53.814-7.445-1.010 0-2.018 0.007-3.024 0.022l0.152-0.002c-33.133 0-57.783 6.912-73.984 20.627-16.165 13.751-24.284 30.428-24.284 50.029 0 14.080 4.791 27.356 14.263 39.863 9.508 12.581 25.052 23.223 46.665 31.927-9.033 10.899-15.25 20.334-18.651 28.343-3.178 7.293-5.032 15.789-5.047 24.717v0.005c0 17.554 6.656 31.964 20.114 43.337 13.495 11.373 33.939 17.152 61.293 17.152zM243.054 241.701c-0.272 0.011-0.59 0.017-0.91 0.017-6.232 0-11.918-2.337-16.23-6.182l0.024 0.021c-4.040-3.475-6.583-8.593-6.583-14.305 0-0.011 0-0.022 0-0.033v0.002c0-6.985 6.217-17.152 18.651-30.428 8.923 4.827 15.835 10.057 20.7 15.726 4.864 5.741 7.315 11.191 7.315 16.274 0.001 0.070 0.002 0.154 0.002 0.236 0 5.228-2.365 9.905-6.082 13.017l-0.026 0.022c-4.023 3.731-9.728 5.632-16.823 5.632zM213.357 130.633c-9.508-6.62-15.762-12.325-18.944-17.079-2.87-4.208-4.6-9.395-4.644-14.983v-0.012c0-8.228 3.62-15.579 10.715-21.98 7.131-6.437 16.457-9.655 27.868-9.655 12.325 0 26.185 4.864 41.581 14.445-20.765 16.444-39.2 32.56-56.832 49.505l0.256-0.244z" />
<glyph unicode="&#xe943;" glyph-name="diy" d="M329.143 480c-27.697-18.337-45.714-49.36-45.714-84.59v0c0.182-38.68 22.171-72.183 54.298-88.861l0.559-0.264v-283.428c0-32.11 19.053-54.857 45.714-54.857s45.714 22.053 45.714 54.857v283.428c32.697 16.947 54.69 50.466 54.857 89.138v0.023c0 35.219-18.249 66.56-45.714 84.553v-54.857l-54.857-54.857-54.857 54.857v54.857zM146.286 480c-20.188 0-36.572-13.897-36.572-27.428h-54.857l-45.715-64 45.715-64h54.857v-310.857c0-25.051 13.787-45.714 36.572-45.714s36.572 19.31 36.572 45.714v310.857h73.143v128h-73.143c0 13.824-13.787 27.428-36.571 27.428zM384 41.143c10.099 0 18.286-8.187 18.286-18.286s-8.187-18.286-18.286-18.286v0c-10.099 0-18.286 8.187-18.286 18.286s8.187 18.286 18.286 18.286v0z" />
<glyph unicode="&#xe944;" glyph-name="doctors" d="M256 443.428c-42.423 0-85.284-18.469-114.286-54.857-25.124-31.561-32-54.857-35.438-91.428-105.911-0.878-106.276-39.571-106.276-292.572h512c0 253.001-0.365 291.693-106.276 292.572-3.438 36.572-10.899 60.489-35.438 91.428-26.884 33.555-67.858 54.858-113.808 54.858-0.168 0-0.336-0-0.504-0.001h0.026zM256 370.286c46.848 0.183 73.143-36.572 75.447-73.143h-150.93c2.34 36.572 28.672 72.96 75.483 73.143zM219.429 260.572h73.143v-73.143h73.143v-73.143h-73.143v-73.143h-73.143v73.143h-73.143v73.143h73.143z" />
<glyph unicode="&#xe945;" glyph-name="drinking_water" d="M329.143 260.572l-54.857-292.572h-182.857l-54.857 292.572zM93.285 150.857h178.786l13.572 73.143h-205.929zM146.286 297.143c0 73.143 36.572 109.714 109.714 109.714h36.572v36.571h-36.572c-36.572 0-36.572 36.572 0 36.572h109.714c36.572 0 36.572-36.572 0-36.572h-36.572v-36.571h146.286v-54.857h-219.429c-39.68 0.329-54.857-17.627-54.857-54.857z" />
<glyph unicode="&#xe946;" glyph-name="electronics" d="M342.857 478.866c-0.678 0.086-1.462 0.134-2.257 0.134-5.406 0-10.288-2.252-13.755-5.869l-0.007-0.007-106.276-107.374-69.705 70.839c-7.753 10.423-25.124 11.483-34.304 2.267-9.143-9.216-8.046-26.441 2.304-34.304l69.705-70.839h-115.419c-36.572 0-73.143-36.572-73.143-73.143v-219.429c0-36.572 36.572-73.143 73.143-73.143h365.714c36.572 0 73.143 36.572 73.143 73.143v219.428c0 36.572-36.572 73.143-73.143 73.143h-186.295l106.313 107.447c14.153 14.153 0.036 35.84-16.019 37.668zM219.429 260.572c109.715 0 146.286 0 146.286-109.715s-36.572-109.714-146.286-109.714-146.286 0-146.286 109.714 36.572 109.714 146.286 109.714zM438.857 256c17.673 0 32-14.327 32-32s-14.327-32-32-32v0c-17.673 0-32 14.327-32 32s14.327 32 32 32v0zM438.857 146.286c17.673 0 32-14.327 32-32s-14.327-32-32-32v0c-17.673 0-32 14.327-32 32s14.327 32 32 32v0z" />
<glyph unicode="&#xe947;" glyph-name="embassy" d="M292.572 443.428c-109.714-73.143-182.857 0-182.857 0v-256s73.143-73.143 182.857 0 182.857 0 182.857 0v256s-73.143 73.143-182.857 0zM54.857 470.857c-9.143 0-18.285-9.143-18.285-27.428v-438.857c0-36.571 36.572-36.571 36.572 0v438.857c0 18.286-9.143 27.428-18.285 27.428z" />
<glyph unicode="&#xe948;" glyph-name="emergency_phone" d="M73.143 443.428c-36.572 0-73.143-36.572-73.143-73.143v-36.572h146.286l36.572 36.572h146.286l36.572-36.572h146.286v36.572c0 36.571-36.572 73.143-73.143 73.143zM0 306.286v-18.286s13.531-27.428 36.572-27.428h73.143c20.699 0.695 36.572 27.428 36.572 27.428v18.286zM365.714 306.286v-18.286s15.872-27.428 36.572-27.428h73.143c20.736 0 36.572 27.428 36.572 27.428v18.286zM54.857 187.428c-28.965 0-54.857-20.992-54.857-54.857 0-35.803 26.404-54.857 54.857-54.857h36.572s18.285 0 18.285-18.286-18.285-18.286-18.285-18.286h-73.143v-36.572h73.143c28.453 0 54.857 22.053 54.857 55.991 0 32.036-26.953 53.724-54.857 53.724h-36.572s-18.285 0-18.285 18.286 18.285 18.286 18.285 18.286h73.143v36.572zM237.714 187.428c-54.857 0-54.857-54.857-54.857-54.857v-73.143s0-54.857 54.857-54.857h36.572c54.857 0 54.857 54.857 54.857 54.857v73.143s0 54.857-54.857 54.857zM420.572 187.428c-28.964 0-54.857-20.992-54.857-54.857 0-35.803 26.404-54.857 54.857-54.857h36.572s18.286 0 18.286-18.286-18.286-18.286-18.286-18.286h-73.143v-36.572h73.143c28.452 0 54.857 22.053 54.857 55.991 0 32.036-26.953 53.724-54.857 53.724h-36.572s-18.286 0-18.286 18.286 18.286 18.286 18.286 18.286h73.143v36.572zM219.429 123.428s0 27.428 27.429 27.428h18.286c27.428 0 27.428-27.428 27.428-27.428v-54.857s0-27.428-27.428-27.428h-18.286c-27.428 0-27.428 27.428-27.428 27.428z" />
<glyph unicode="&#xe949;" glyph-name="entrance10" d="M140.8 480v-128h64v64h243.2v-384h-243.2v64h-64v-128h371.2v512zM256 352v-89.6h-204.8v-76.8h204.8v-89.6l153.6 128z" />
<glyph unicode="&#xe94a;" glyph-name="excrement_bags" d="M0 480v-109.714h36.572v73.143h438.857v-73.143h36.571v109.714h-512zM73.143 406.857v-365.714l-36.572-73.143h438.857l-36.572 73.143v365.714h-365.714zM109.715 370.286h292.572v-36.572h-292.572zM109.715 297.143h292.572v-274.286c0-10.13-8.156-18.286-18.286-18.286h-256c-0.011 0-0.023 0-0.037 0-10.079 0-18.249 8.171-18.249 18.249 0 0.013 0 0.026 0 0.038v-0.002 274.286zM256 260.572c0-36.572-9.399-57.125-36.572-73.143-20.261 0-36.572-16.311-36.572-36.572s16.311-36.572 36.572-36.572h-36.572c-20.261 0-36.572-16.311-36.572-36.572s16.311-36.572 36.572-36.572h146.286c20.26 0 36.572 16.311 36.572 36.572s-16.311 36.572-36.572 36.572h-36.572c20.26 0 36.572 16.311 36.572 36.572s-16.311 36.572-36.572 36.572c0 36.572-10.349 55.735-36.572 73.143z" />
<glyph unicode="&#xe94b;" glyph-name="fabric" d="M73.143 480v-36.572h36.572v36.572zM182.857 480v-146.286h36.571v146.286zM292.572 480v-36.572h36.572v36.572zM402.286 480v-146.286h36.572v146.286zM0 406.857v-36.571h146.286v36.571h-146.286zM256 406.857v-36.571h109.714v36.571h-109.714zM475.428 406.857v-36.571h36.572v36.571zM73.143 333.714v-146.286h36.572v146.286zM292.572 333.714v-146.286h36.572v146.286zM0 297.143v-36.572h36.572v36.572zM146.286 297.143v-36.572h109.714v36.572h-109.714zM365.714 297.143v-36.572h146.286v36.572h-146.286zM182.857 224v-36.572h36.571v36.572zM402.286 224v-36.572h36.572v36.572zM54.857 150.857c-30.391 0-54.857-24.466-54.857-54.857v-73.143c0-30.391 24.466-54.857 54.857-54.857h438.857c10.099 0 18.286 8.187 18.286 18.286s-8.187 18.286-18.286 18.286h-438.857c-0.011 0-0.023 0-0.036 0-10.078 0-18.249 8.171-18.249 18.249 0 0.013 0 0.026 0 0.038v-0.002 73.143c0 10.13 8.156 18.286 18.285 18.286h329.143c10.099 0 18.286-8.187 18.286-18.286s-8.187-18.286-18.286-18.286h-310.857v-36.572h310.857c30.391 0 54.857 24.466 54.857 54.857s-24.466 54.857-54.857 54.857z" />
<glyph unicode="&#xe94c;" glyph-name="fast_food" d="M182.857 370.286c-109.715 0-147.749-73.143-146.286-109.714v-36.572h438.857v36.572c0 36.572-36.572 109.714-146.286 109.714zM36.572 187.428c-36.572 0-36.572-36.572 0-36.572h438.857c36.571 0 36.571 36.572 0 36.572zM36.572 113.152v-22.857c0-25.015 29.843-49.152 54.857-49.152h329.143c25.015 0 54.857 24.137 54.857 49.152v22.857z" />
<glyph unicode="&#xe94d;" glyph-name="ferry" d="M256 480c-32 0-58.002-25.709-58.002-57.344 0-23.333 14.19-43.411 34.377-52.37l-0.804-36.572h-158.428v-36.572h157.696l-4.499-215.589c-0.073-4.572 0.073-50.944-62.135-18.908-62.391 32.073-27.172 68.425-23.004 69.486-36.608 11.557-69.815 43.63-96.585 76.507-26.331-58.624 20.772-121.271 23.040-130.195 5.668 6.18 14.117 5.193 19.309 4.352 63.451-98.962 146.688-87.040 169.033-114.798 22.308 27.721 105.582 15.836 169.070 114.798 5.193 0.841 13.604 1.829 19.273-4.389 2.304 8.96 49.408 71.607 23.077 130.231-26.807-32.914-59.977-64.951-96.622-76.507 4.169-1.060 39.424-37.413-22.93-69.486-62.245-32.036-62.135 14.336-62.208 18.907-1.463 71.899-2.999 143.726-4.535 215.589h157.733v36.572h-158.428l-0.805 36.572c20.343 9.074 34.284 29.083 34.377 52.358v0.012c0 31.635-25.966 57.344-58.002 57.344zM256 443.648c11.387-0.165 20.553-9.434 20.553-20.844 0-0.052 0-0.105-0-0.156v0.008c0-0.055 0.001-0.12 0.001-0.184 0-11.395-9.176-20.648-20.543-20.771h-0.012c-11.394 0.103-20.59 9.363-20.59 20.772 0 0.065 0 0.129 0.001 0.193v-0.010c-0 0.044-0 0.096-0 0.148 0 11.423 9.188 20.7 20.577 20.844h0.013z" />
<glyph unicode="&#xe94e;" glyph-name="firepit" d="M214.345 480.439c59.758-122.624-253.696-202.972 18.871-370.944l11.776 4.279c-67.84 98.231 207.543 213.357-30.647 366.665zM338.286 354.779c38.4-112.933-92.745-145.262-51.565-225.792l61.805 22.455c24.759 60.452 88.247 109.202-10.24 203.337zM53.943 150.93c-9.839-0.331-17.689-8.387-17.689-18.276 0-7.987 5.121-14.778 12.258-17.269l0.129-0.039 154.149-56.064-154.076-55.991c-7.022-2.59-11.938-9.224-11.938-17.005 0-9.986 8.096-18.082 18.081-18.082 2.204 0 4.316 0.394 6.269 1.116l-0.125-0.041 194.633 70.803 195.292-71.022c1.85-0.689 3.987-1.088 6.217-1.088 10.114 0 18.313 8.199 18.313 18.313 0 7.884-4.981 14.603-11.969 17.184l-0.127 0.041-154.149 56.064 154.076 55.991c7.147 2.517 12.176 9.211 12.176 17.079 0 9.938-8.025 18.002-17.949 18.066h-0.006c-0.062 0.001-0.135 0.001-0.207 0.001-2.264 0-4.43-0.416-6.426-1.176l0.124 0.041-194.633-70.803-195.292 71.022c-1.895 0.728-4.088 1.149-6.38 1.149-0.264 0-0.527-0.005-0.788-0.017l0.038 0.002z" />
<glyph unicode="&#xe94f;" glyph-name="firestation" d="M256 480c-130.78-45.385-182.857-182.857-182.857-292.572s63.817-192.365 146.286-219.428c-73.143 119.187-73.143 219.428 36.571 292.572-18.469-49.481 0-146.286 36.572-182.857 15.762 14.628 36.572 52.115 36.572 73.143 73.143-73.143 20.589-132.864 0-182.857 39.789 20.48 109.714 73.143 109.714 182.857s-73.143 146.286-73.143 256c-50.615-21.943-73.143-73.143-73.143-109.714-34.816 20.37-73.143 100.718-36.572 182.857z" />
<glyph unicode="&#xe950;" glyph-name="fishing" d="M0 480v-182.857c0-60.594 49.121-109.715 109.715-109.715v0c60.593 0 109.715 49.121 109.715 109.714v0 73.143l-73.143-73.143h36.572c0-40.396-32.747-73.143-73.143-73.143v0c-40.395 0-73.143 32.747-73.143 73.143v0 182.857h-36.572zM201.143 150.857c-86.199 0-172.398-45.714-201.143-91.428 28.745-45.714 114.944-91.428 201.143-91.428s172.398 45.714 201.143 91.428c-28.745 45.714-114.944 91.428-201.143 91.428zM402.286 59.428l109.714-91.428v182.857l-109.714-91.428zM109.715 114.286c20.198 0 36.572-16.373 36.572-36.572v0c0-20.198-16.374-36.572-36.572-36.572v0c-20.198 0-36.572 16.373-36.572 36.572v0c0 20.198 16.374 36.572 36.572 36.572v0z" />
<glyph unicode="&#xe951;" glyph-name="fitness" d="M312.211 433.335c0-25.45 20.762-46.080 46.373-46.080v0c25.611 0 46.373 20.63 46.373 46.080v0c0 25.45-20.762 46.080-46.373 46.080v0c-25.611 0-46.373-20.63-46.373-46.080v0zM61.623 120.32l98.048-25.197c4.023-1.024 12.873-0.11 16.238 0.731 8.595 1.646 11.081 5.668 14.446 9.837l46.446 76.471 58.332-62.647-23.552-117.101c-0.639-1.863-1.048-4.014-1.132-6.248l-0.002-0.042c0-7.497 2.413-13.971 7.315-19.383 4.173-4.996 10.403-8.152 17.371-8.156h0c12.727 0 20.589 7.315 23.589 21.943l28.599 142.153c3.365 15.031 1.901 26.112-4.462 33.207l-51.091 57.015 55.589 72.046 35.877-40.119c3.767-4.169 8.046-6.217 12.909-6.217 6.363 0 12.544 3.108 18.505 9.363l58.368 65.134c2.81 3.791 4.498 8.56 4.498 13.724 0 0.022 0 0.044 0 0.066v-0.003c0.007 0.2 0.010 0.434 0.010 0.67 0 5.796-2.243 11.068-5.91 14.996l0.012-0.013c-3.36 3.851-8.271 6.274-13.748 6.291h-0.003c-0.248 0.014-0.538 0.022-0.831 0.022-4.55 0-8.65-1.933-11.522-5.022l-0.009-0.010-48.274-53.906-58.332 65.17c-4.498 5.011-10.24 8.997-16.823 7.497l-127.049-28.269c-5.486-1.207-9.508-6.4-13.641-11.411l-28.197-48.64c-4.143-3.762-6.734-9.169-6.734-15.182 0-0.165 0.002-0.33 0.006-0.495l-0 0.024c0-5.851 1.828-10.861 5.595-15.031 3.228-3.834 8.031-6.254 13.399-6.254 0.021 0 0.042 0 0.063 0h-0.003c5.985 0.071 11.275 2.982 14.594 7.448l0.035 0.049 32.731 54.857 53.248 9.033-110.445-171.411-89.966 25.82c-7.132 0-13.605-1.463-18.468-6.437-4.864-5.010-9.801-9.472-9.801-17.408 0-7.497 3.072-14.043 7.936-19.236 4.864-5.229 9.691-8.046 16.237-9.728z" />
<glyph unicode="&#xe952;" glyph-name="florist" d="M109.715 480c34.523-103.607-28.014-235.264 118.857-253.732v-203.411c0 53.613-82.395 164.572-192 164.572 109.714-73.143 36.572-219.428 182.857-219.428h73.143c146.286 0 73.143 146.286 182.857 219.428-109.605 0-192-107.703-192-164.572v203.411c146.395 17.847 84.334 150.125 118.857 253.733-36.572 0-82.286-109.715-82.286-109.715s-27.428 73.143-64 109.715c-36.572-36.572-64-109.715-64-109.715s-45.714 109.715-82.285 109.715z" />
<glyph unicode="&#xe953;" glyph-name="ford" d="M182.857 443.428l-146.286-128 146.286-128v73.143h146.286v-73.143l146.286 128-146.286 128v-73.143h-146.286zM0 150.857c27.355 0 78.043-73.143 102.4-73.143 22.82 0 76.617 73.143 102.4 73.143s79.652-73.143 102.4-73.143c27.428 0 77.897 73.143 102.4 73.143 27.356 1.060 81.152-73.143 102.4-73.143v-109.715c-25.783 0-78.080 73.143-102.4 73.143-24.284 0-76.617-73.143-102.4-73.143-24.503 0-76.581 73.143-102.4 73.143-25.965 0-78.043-73.143-102.4-73.143-27.319 0-76.544 73.143-102.4 73.143z" />
<glyph unicode="&#xe954;" glyph-name="fort" d="M36.572 443.428v-73.143h182.857v73.143h-36.572v-36.572h-36.572v36.572h-36.572v-36.572h-36.572v36.572h-36.572zM292.572 443.428v-73.143h182.857v73.143h-36.572v-36.572h-36.572v36.572h-36.572v-36.572h-36.572v36.572h-36.572zM36.572 333.714v-219.429h438.857v219.428h-182.857v-73.143h-73.143v73.143h-182.857zM109.715 260.572h36.572v-36.572l-18.286-36.572-18.285 36.572v36.572zM365.714 260.572h36.572v-36.572l-18.286-36.572-18.286 36.572v36.572zM36.572 77.714l-36.572-109.714h512l-36.572 109.714h-438.857z" />
<glyph unicode="&#xe955;" glyph-name="fortress" d="M219.429 4.572h73.143c0 36.572 0 109.714-36.572 109.714s-36.572-73.143-36.572-109.714zM0 443.428v-73.143h182.857v73.143h-36.571v-36.572h-36.572v36.572h-36.572v-36.572h-36.572v36.572zM329.143 443.428v-73.143h182.857v73.143h-36.572v-36.572h-36.572v36.572h-36.572v-36.572h-36.572v36.572zM0 333.714v-329.143h182.857c0 36.572 0 146.286 73.143 146.286s73.143-109.714 73.143-146.286h182.857v329.143h-182.857v-73.143h-146.286v73.143zM73.143 260.572h36.572v-36.572l-18.285-36.572-18.285 36.572zM402.286 260.572h36.572v-36.572l-18.286-36.572-18.286 36.572z" />
<glyph unicode="&#xe956;" glyph-name="fountain, bassin" d="M402.286 373.065c0-36.572-36.572-22.089-36.572-2.779-36.572 73.143-73.143 43.373-82.286-56.978-0.622-3.255 0-6.547 0-9.837 14.007 6.912 29.696 11.337 45.421 11.337 53.651 0 100.572-37.779 100.572-109.715v-36.572c0-36.572-54.857-36.572-54.857 0v36.572c0 35.328-24.978 54.857-45.714 54.857-20.077 0-43.923-19.602-45.421-51.785v-4.572l-0.841-89.308c-26.588 21.724-26.588 21.139-54.309 0v92.307c-1.463 32.256-25.308 51.858-45.422 51.858-20.736 0-45.714-19.529-45.714-54.857v-36.572c0-36.572-54.857-36.572-54.857 0v36.572c0 71.936 46.921 109.714 100.571 109.714 15.806-0.269 31.343-4.147 45.422-11.337v12.8c-8.851 115.603-45.422 129.755-81.993 56.613 0-23.589-36.572-35.474-36.572 1.097s18.285 106.971 73.143 106.971c36.572 0 60.38-38.144 72.704-68.023 12.325 28.489 37.010 66.377 73.582 66.377 54.857 0 73.143-68.169 73.143-104.74zM138.936-6.752c-47.293 15.952-96.035 38.647-125.082 79.848h484.293c-14.635-27.343-41.938-45.43-69.476-59.242-53.575-25.402-113.040-39.651-172.671-41.236-39.834 0.5-79.327 8.601-117.064 20.63z" />
<glyph unicode="&#xe957;" glyph-name="fuel" d="M394.276 480l-22.857-26.295 43.447-40.009 4.572-4.572-9.143-10.24c-14.628-14.665-4.132-33.609 1.134-38.875l27.428-27.428v-218.295c0-36.572-14.336-36.572-18.286-36.572s-18.286 0-18.286 36.572v146.286c0 46.812-36.572 73.143-73.143 73.143v73.143c0 20.151-15.543 36.572-36.572 36.572h-219.429c-21.943 0-36.572-15.543-36.572-36.572v-438.857h292.572v329.143s36.572 0 36.572-36.572v-146.286c0-73.143 45.349-73.143 54.857-73.143 10.094 0 54.857 0 54.857 73.143v256c0 36.572-10.459 44.251-22.857 55.991l-58.295 53.724zM73.143 370.286h219.429v-109.714h-219.429v109.714z" />
<glyph unicode="&#xe958;" glyph-name="furniture" d="M109.715 406.857c-36.572 0-73.143-36.571-73.143-73.143 73.143 0 109.715-57.637 109.715-109.714h219.429c0 55.515 36.572 109.714 109.714 109.714 0 36.572-36.572 73.143-73.143 73.143zM36.572 297.143c-36.572 0-36.572-36.572-36.572-36.572 0-18.944 17.628-36.572 36.572-36.572v-109.714c0-23.589 15.469-36.572 36.572-36.572h18.285s0-36.572 36.572-36.572 36.572 36.572 36.572 36.572h182.857s0-36.572 36.572-36.572 36.572 36.572 36.572 36.572h18.286c18.651 0 36.572 17.7 36.572 36.572v109.714c18.103 0 36.571 14.19 36.571 36.572 0 0 0 36.572-36.572 36.572s-73.143-36.572-73.143-109.714h-292.572c0 73.143-36.572 109.714-73.143 109.714z" />
<glyph unicode="&#xe959;" glyph-name="garden_centre" d="M365.714 443.428c-73.106 2.487-164.096-50.871-146.286-182.857l27.428-109.714-117.394 73.143-1.645 73.143-29.257 36.572c-25.417 0-98.56-86.089-98.56-118.857l47.763-27.428 61.952 10.825 182.857-230.253h161.719l57.71 292.572c0 182.857-121.161 182.016-146.286 182.857zM365.714 392.265c73.143-0.695 109.714-58.551 92.563-131.693h-183.406c-18.871 73.143-2.048 131.693 90.844 131.693z" />
<glyph unicode="&#xe95a;" glyph-name="generator_wind" d="M438.857 480c-88.576-53.139-119.442-73.363-162.231-112.713 23.892-7.19 42.328-25.626 49.383-49l0.135-0.518c39.57 43.008 59.173 72.997 112.713 162.231zM136.009 346.368c-33.719-0.805-71.644-4.974-136.009-12.654 95.159-37.047 130.231-49.189 186.441-58.88-2.24 6.657-3.549 14.324-3.584 22.292v0.017c0.017 17.75 6.355 34.017 16.882 46.674l-0.096-0.119c-16.663 1.737-36.002 2.727-55.573 2.727-2.834 0-5.664-0.021-8.488-0.062l0.427 0.005zM256 333.714c-20.198 0-36.572-16.373-36.572-36.572v0c0-20.198 16.374-36.572 36.572-36.572v0c20.198 0 36.572 16.373 36.572 36.572v0c0 20.198-16.373 36.572-36.572 36.572v0zM326.217 276.7c-9.144-30.695-37.111-52.695-70.216-52.7h-0c-9.391 0.046-18.346 1.853-26.571 5.11l0.495-0.173-16.786-224.365h-66.852v-36.572h219.429v36.572h-73.143l-12.142 219.063c41.618-38.108 70.4-56.43 158.428-109.349-53.468 89.344-73.033 119.369-112.64 162.413z" />
<glyph unicode="&#xe95b;" glyph-name="gift" d="M160 461.714c-32 0-64-22.418-64-64s19.017-64 60.563-64h196.572c41.545 0 62.866 21.321 62.866 62.867 0 41.581-32 65.133-64 65.133-48.493 0-83.822-29.367-96-72.009-12.215 42.642-46.446 72.009-96 72.009zM160 429.714c51.822 0 60.563-40.96 64-64h-64c-33.645 0-32 30.611-32 32s-1.645 32 32 32zM352 429.714c32 0 32-30.611 32-32s1.646-32-32-32h-64c3.438 23.040 12.142 64 64 64zM146.286 297.143c-36.572 0-73.143-36.572-73.143-73.143v-64h155.429v137.143h-82.286zM283.428 297.143v-137.143h155.428v64c0 36.572-36.572 73.143-73.143 73.143h-82.286zM73.143 105.143v-64c0-36.572 36.572-73.143 73.143-73.143h82.286v137.143h-155.429zM283.428 105.143v-137.143h82.286c36.572 0 73.143 36.572 73.143 73.143v64h-155.428z" />
<glyph unicode="&#xe95c;" glyph-name="golf" d="M262.553 448l-17.92-26.035c-4.429-6.144-3.353-11.367 3.123-15.795 6.144-3.738 11.366-2.714 15.795 3.072l10.24 15.283 159.437-104.627-130.304-23.45c-4.769-0.983-8.788-3.665-11.483-7.37l-0.038-0.054c-1.817-2.25-2.917-5.145-2.917-8.297 0-1.482 0.243-2.907 0.692-4.238l-0.027 0.094 28.083-109.721-92.032-137.267c-1.61-2.776-2.56-6.107-2.56-9.661 0-0.006 0-0.012 0-0.017v0.001c0-5.453 1.997-10.163 5.888-14.080 3.494-3.603 8.381-5.839 13.788-5.839 0.102 0 0.205 0.001 0.307 0.002h-0.016c7.168 0 12.953 3.379 17.383 10.163l96.077 144.461 5.12-19.917-14.285-108.185c-0.137-0.874-0.214-1.882-0.214-2.908 0-9.803 7.11-17.946 16.455-19.553l0.118-0.017c5.453-1.024 10.496 0.128 15.079 3.328 4.325 2.93 7.286 7.596 7.877 12.975l0.007 0.081 14.848 110.72c0.070 0.828 0.108 1.793 0.108 2.765 0 3.185-0.423 6.271-1.215 9.206l0.057-0.247-32.717 130.099 85.427 15.36c4.519 0.665 8.341 3.2 10.716 6.778l0.036 0.057c2.029 2.74 3.249 6.188 3.249 9.92 0 0.917-0.074 1.817-0.216 2.695l0.013-0.096c-1.168 4.671-3.911 8.572-7.62 11.198l-0.060 0.041zM45.261 437.76v-428.749h28.8v307.149l142.259 57.728-142.259 52.864v11.008zM296.755 372.531c-9.216 0-16.998-3.149-23.475-9.472-6.001-5.703-9.733-13.743-9.733-22.655 0-0.207 0.002-0.414 0.006-0.62l-0 0.031c0-9.165 3.251-16.896 9.728-23.168 6.477-6.298 14.285-9.472 23.475-9.472 9.216 0 17.178 3.175 23.808 9.472 6.656 6.298 9.984 14.003 9.984 23.168 0 9.216-3.328 16.973-9.984 23.271-6.028 5.861-14.267 9.475-23.351 9.475-0.161 0-0.322-0.001-0.481-0.003l0.024 0z" />
<glyph unicode="&#xe95d;" glyph-name="greengrocer" d="M280.905 465.92c-20.992-20.956-37.924-51.017-43.191-77.349-2.889-14.373-4.169-48.494-4.571-65.134 7.607-4.462 15.214-8.009 22.857-13.714 8.083 6.071 15.945 10.204 23.991 14.848 0.659 14.446 1.389 44.69 3.438 54.857 4.56 21.478 14.971 40.034 29.474 54.489l0.003 0.003zM18.285 443.428c19.602-73.143 104.375-109.714 182.857-73.143-33.024 73.143-91.428 96.475-182.857 73.143zM73.143 288c-22.455-23.552-36.572-64-36.572-100.572 0-73.143 73.143-201.143 146.286-201.143 20.626 0 36.572 9.143 73.143 27.428 36.572-18.286 52.517-27.428 73.143-27.428 73.143 0 146.286 128 146.286 201.143 0 36.572-11.923 77.019-36.572 100.572-37.376 35.731-109.714 36.572-182.857-18.286-73.143 51.712-146.286 58.697-182.857 18.286z" />
<glyph unicode="&#xe95e;" glyph-name="guest_house" d="M347.428 460.233l-119.837-82.546h39.945v-159.239h59.918v99.524h39.945v-99.524h59.918v159.239h39.945zM18.285 260.572c-10.13 0-18.285-8.156-18.285-18.286v-274.286h36.572v73.143h438.857v-73.143h36.571v201.143c0 10.099-8.187 18.286-18.286 18.286s-18.286-8.187-18.286-18.286v-91.428h-438.857v164.571c0 10.131-8.155 18.285-18.285 18.285zM128 224c-30.297 0-54.857-24.56-54.857-54.857s24.561-54.857 54.857-54.857v0c30.297 0 54.857 24.56 54.857 54.857s-24.56 54.857-54.857 54.857v0zM219.429 187.428v-73.143h219.429c0 36.572-37.888 73.143-73.143 73.143z" />
<glyph unicode="&#xe95f;" glyph-name="guidepost" d="M256 470.857c-13.714 0-27.428-9.143-27.428-27.428v-475.428h54.857v475.428c0 18.286-13.714 27.428-27.428 27.428zM73.143 443.428l-73.143-54.857 73.143-54.857h146.286v109.714h-146.286zM292.572 333.714v-109.714h146.286l73.143 54.857-73.143 54.857h-146.286z" />
<glyph unicode="&#xe960;" glyph-name="hairdresser" d="M146.286 480v-348.563c-15.36 11.666-34.195 19.419-54.857 19.419-50.428-0.166-91.263-41.001-91.428-91.413v-0.016c0-50.286 41.143-91.429 91.428-91.429 43.849 0.208 80.386 31.251 89.056 72.548l0.105 0.596h4.571c8.772-41.88 45.291-72.916 89.1-73.143h0.025c50.286 0 91.428 41.143 91.428 91.428s-41.143 91.428-91.428 91.428c-20.663 0-39.497-7.753-54.857-19.419v348.563zM292.572 480v-73.143h146.286v-36.571h-146.286v-36.572h146.286v-36.572h-146.286v-36.572h146.286v-36.572h-146.286v-36.572h146.286v-219.429h73.143v438.857c0 36.572-36.572 73.143-73.143 73.143zM91.428 114.286c30.501 0 54.857-24.356 54.857-54.857s-24.356-54.857-54.857-54.857-54.857 24.356-54.857 54.857 24.356 54.857 54.857 54.857zM274.286 114.286c30.5 0 54.857-24.356 54.857-54.857s-24.356-54.857-54.857-54.857-54.857 24.356-54.857 54.857 24.357 54.857 54.857 54.857z" />
<glyph unicode="&#xe961;" glyph-name="hifi" d="M311.296 131.291c0-30.297-24.56-54.857-54.857-54.857v0c-30.297 0-54.857 24.56-54.857 54.857v0c0 30.297 24.56 54.857 54.857 54.857v0c30.297 0 54.857-24.56 54.857-54.857v0zM73.143 480v-512h365.714v512h-365.714zM258.56 444.563c40.396 0 73.143-32.747 73.143-73.143s-32.747-73.143-73.143-73.143v0c-40.395 0-73.143 32.747-73.143 73.143s32.747 73.143 73.143 73.143v0zM256.365 260.974c70.692 0 128-57.308 128-128v0c0-70.692-57.308-128-128-128v0c-70.692 0-128 57.308-128 128v0c0 70.692 57.308 128 128 128v0z" />
<glyph unicode="&#xe962;" glyph-name="hospital" d="M256 480c-141.385 0-256-114.615-256-256v0c0-141.385 114.615-256 256-256v0c141.385 0 256 114.615 256 256v0c0 141.385-114.615 256-256 256v0zM219.369 370.246h73.261v-109.615h109.615v-73.262h-109.615v-109.615h-73.262v109.615h-109.615v73.262h109.615v109.615z" />
<glyph unicode="&#xe963;" glyph-name="hostel" d="M128 443.428c-30.297 0-54.857-24.56-54.857-54.857s24.561-54.857 54.857-54.857v0c30.297 0 54.857 24.56 54.857 54.857s-24.56 54.857-54.857 54.857v0zM219.429 406.857v-73.143h219.429c0 36.572-37.888 73.143-73.143 73.143zM128 224c-30.297 0-54.857-24.56-54.857-54.857s24.561-54.857 54.857-54.857v0c30.297 0 54.857 24.56 54.857 54.857s-24.56 54.857-54.857 54.857v0zM219.429 187.428v-73.143l219.429-0.476c0 37.047-37.888 73.618-73.143 73.618zM0 443.428h36.572v-475.428h-36.572zM18.285 480c10.099 0 18.285-8.187 18.285-18.286v-438.857c0-10.099-8.187-18.286-18.285-18.286s-18.285 8.187-18.285 18.286v438.857c0 10.099 8.187 18.286 18.285 18.286zM475.428 333.714h36.572v-365.714h-36.572zM493.714 406.857c10.099 0 18.286-8.187 18.286-18.285v-402.286c0-10.099-8.187-18.286-18.286-18.286s-18.286 8.187-18.286 18.286v402.286c0 10.099 8.187 18.286 18.286 18.286zM475.428 297.143v-36.572h-475.428v36.572zM475.428 77.714v-36.572h-475.428v36.572z" />
<glyph unicode="&#xe964;" glyph-name="hotel" d="M18.285 370.286c-10.13 0-18.285-8.156-18.285-18.286v-274.286h36.572v73.143h438.857v-73.143h36.571v201.143c0 10.099-8.187 18.285-18.286 18.285s-18.286-8.187-18.286-18.286v-91.428h-438.857v164.571c0 10.131-8.155 18.286-18.285 18.286zM128 333.714c-30.297 0-54.857-24.56-54.857-54.857s24.561-54.857 54.857-54.857v0c30.297 0 54.857 24.56 54.857 54.857s-24.56 54.857-54.857 54.857v0zM219.429 297.143v-73.143h219.429c0 36.572-37.888 73.143-73.143 73.143h-146.286z" />
<glyph unicode="&#xe965;" glyph-name="houseware" d="M365.714 370.286h-189.184c-11.155-26.368-45.275-45.714-86.162-45.714-49.92 0-90.368 28.672-90.368 64s40.448 64 90.368 64c40.887 0 75.008-19.347 86.125-45.715h189.22v-36.572zM36.572 172.727v-131.584c0-40.396 32.747-73.143 73.143-73.143v0h146.286c40.395 0 73.143 32.747 73.143 73.143v0 131.584h-292.572zM365.714 187.428v36.572h-109.714c0 20.198-16.374 36.572-36.572 36.572v0h-73.143c-20.198 0-36.572-16.374-36.572-36.572v0h-109.715v-36.572h365.714zM438.857-32v109.714h54.857c0 147.054-18.286 292.572-91.428 365.714v-475.428h36.572z" />
<glyph unicode="&#xe966;" glyph-name="hunting_stand" d="M109.715 480v-45.714l292.572-73.143v45.714zM146.286 388.572v-164.572h219.429v109.714zM109.715 187.428v-36.572h36.572l-36.572-182.857h54.857l36.572 182.857h109.714l37.705-182.857h54.857l-37.705 182.857h36.572v36.572z" />
<glyph unicode="&#xe967;" glyph-name="ice_cream" d="M182.857 480c-60.594 0-109.715-49.121-109.715-109.714v0c0-13.020 2.707-25.015 6.876-36.572h205.678c4.169 11.556 6.875 23.552 6.875 36.572 0 60.594-49.121 109.714-109.714 109.714v0zM329.143 480c-14.775 0-28.269-3.84-41.143-9.143 25.323-25.946 40.991-61.414 41.143-100.542v-0.029c-0.286-13.138-2.351-25.684-5.962-37.555l0.257 0.984h108.58c4.132 11.556 6.839 23.552 6.839 36.572 0 60.594-49.121 109.714-109.714 109.714v0zM118.857 297.143l137.143-329.143 137.143 329.143h-274.286z" />
<glyph unicode="&#xe968;" glyph-name="information" d="M256 480c-23.564 0-42.666-19.103-42.666-42.666v0c0-23.564 19.102-42.666 42.666-42.666v0c23.564 0 42.666 19.102 42.666 42.666v0c0 23.564-19.103 42.666-42.666 42.666v0zM298.666 309.333l-128-42.666v-42.666h39.339l3.328-213.333h-42.667v-42.666h170.666v42.666h-42.666v298.666z" />
<glyph unicode="&#xe969;" glyph-name="interior_decoration" d="M47.799 480l-47.799-176.019h104.631v-294.985h-49.188v-40.996h139.483v40.996h-49.225v294.985h104.667l-48.238 176.019h-154.332zM411.319 460.142c-19.716-0.022-36.359-13.152-41.687-31.144l-0.078-0.308c-3.1 0.814-6.663 1.293-10.335 1.317h-0.015c-24.036 0-43.52-19.485-43.52-43.52v0c0.052-14.243 6.938-26.867 17.548-34.77l0.115-0.082c-10.731-8.006-17.609-20.661-17.627-34.923v-0.003c0-24.036 19.485-43.52 43.52-43.52v0c3.886 0.027 7.636 0.56 11.204 1.534l-0.305-0.071c4.286-12.588 13.819-22.396 25.922-26.964l0.3-0.099v-84.151h-83.932l38.51-195.438h122.99l38.071 195.438h-85.943v84.077c13.961 5.143 24.395 16.846 27.666 31.269l0.055 0.292c4.375-1.671 9.435-2.66 14.718-2.706h0.020c24.019 0.021 43.483 19.498 43.483 43.52v0c-0.055 12.423-5.307 23.609-13.692 31.504l-0.022 0.020c8.442 7.949 13.702 19.194 13.714 31.668v0.002c0 24.036-19.485 43.52-43.52 43.52v0c-5.159-0.059-10.078-1.006-14.637-2.695l0.301 0.097c-3.652 20.641-21.447 36.119-42.861 36.132h-0.002zM413.879 384.841c17.855 0 32.329-14.475 32.329-32.329v0c0-0.011 0-0.024 0-0.036 0-17.855-14.474-32.329-32.329-32.329-0.013 0-0.026 0-0.038 0h0.002c-17.855 0-32.329 14.474-32.329 32.329 0 0.013 0 0.025 0 0.038v-0.002c0 17.855 14.474 32.329 32.329 32.329v0z" />
<glyph unicode="&#xe96a;" glyph-name="internet_cafe" d="M283.831 126.062q-17.555-19.932-39.46-32.183-21.613-11.995-43.52-11.995-24.064 0-46.775 13.861-22.674 13.824-37.011 42.569-14.080 28.745-14.080 63.049 0 42.313 21.907 84.627 22.162 42.606 54.857 63.89 32.732 21.284 63.561 21.284 23.515 0 44.873-12.251 21.358-11.959 36.755-36.717l9.18 41.252h48.384l-38.912-178.578q-8.119-37.23-8.119-41.252 0-7.168 5.413-12.507 5.668-5.047 13.531-5.047 14.3 0 37.559 16.238 30.829 21.284 48.64 56.942 18.139 35.95 18.139 73.984 0 44.435-23.26 83.017-22.967 38.62-68.937 61.769-45.678 23.149-101.084 23.149-63.269 0-115.712-29.257-52.188-29.038-81.079-83.603-28.672-54.272-28.672-116.553 0-65.171 28.672-112.274 28.891-47.104 83.237-69.486 54.601-22.601 120.832-22.601 70.839 0 118.675 23.406 47.872 23.406 71.68 56.942h48.896q-13.788-27.94-47.324-56.942-33.5-29.001-79.726-45.751-46.226-17.043-111.397-17.043-59.977 0-110.811 15.177-50.541 15.177-86.236 45.751-35.694 30.355-53.797 69.998-22.711 50.286-22.711 108.58 0 64.914 27.063 123.721 32.951 72.119 93.513 110.445 60.819 38.327 147.31 38.327 67.036 0 120.32-27.136 53.504-26.88 84.334-80.384 26.221-46.043 26.221-100.060 0-77.166-55.149-137.033-49.188-53.76-107.593-53.76-18.651 0-30.281 5.596-11.337 5.596-16.75 15.945-3.511 6.656-5.12 22.894zM153.015 198.18q0-36.462 17.554-56.685t40.302-20.224q15.141 0 31.891 8.777 16.749 9.070 31.891 26.624 15.397 17.555 25.125 44.435 9.764 27.136 9.764 54.309 0 36.206-18.396 56.137-18.103 19.968-44.325 19.968-17.298 0-32.731-8.777-15.141-8.521-29.44-27.685-14.336-19.163-23.004-46.592-8.631-27.392-8.631-50.286z" />
<glyph unicode="&#xe96b;" glyph-name="jewelry" d="M201.143 481.134l-54.857-73.143h219.429l-54.857 73.143h-109.714zM146.286 371.419l109.714-100.571 109.714 100.572h-219.429zM141.714 293.705c-40.777-33.939-68.572-85.175-68.572-141.715 0-100.499 85.577-183.991 181.724-183.991 96.183 0 181.724 83.493 181.724 183.991 0 56.101-27.136 106.642-67.438 140.581l-41.106-37.705c33.646-24.613 57.161-64.512 57.161-102.875 0-62.574-63.341-126.866-130.304-126.866-66.925 0-129.133 64.293-129.133 126.903 0 38.583 24.21 78.263 58.258 102.839l-42.313 38.839z" />
<glyph unicode="&#xe96c;" glyph-name="laundry" d="M347.428 169.143c0-50.495-40.934-91.428-91.428-91.428s-91.428 40.934-91.428 91.428v0zM36.572 480v-512h438.857v512h-438.857zM109.715 443.428h182.857v-73.143h-182.857v73.143zM365.714 443.428h73.143v-73.143h-73.143v73.143zM256 297.143c58.697 0 110.263-40.229 124.563-97.134l3.438-30.866c0-70.692-57.308-128-128-128s-128 57.308-128 128c0 70.692 57.308 128 128 128v0z" />
<glyph unicode="&#xe96d;" glyph-name="library" d="M94.793 447.927c-7.866-0.325-15.261-1.947-22.106-4.658l0.457 0.159v-292.572s116.59 4.572 146.286-109.714v307.2c-22.674 47.762-73.838 101.668-124.635 99.584zM219.429 41.143c-75.447 58.295-182.857 73.143-182.857 73.143v277.943l-36.572 14.629v-329.143l219.429-73.143h73.143l219.428 73.143v329.143l-36.572-14.628v-292.572l-182.857-58.514c-24.393 9.325-52.809 7.68-73.143 0zM438.857 443.428c-72.887 3.913-157.001-39.863-201.143-77.531v-309.541c40.777 33.829 113.883 78.299 201.143 87.223z" />
<glyph unicode="&#xe96e;" glyph-name="lighthouse" d="M256 480l-109.714-54.857c-17.006-54.857-17.006-91.429 0-164.572h36.572l-36.572-292.572h219.429l-36.572 292.572h36.572c19.383 73.143 19.383 109.714 0 164.572l-109.714 54.857zM26.331 426.276c-6.144-3.072-8.412-13.751 0-17.115l68.535-27.428c11.191-4.535 18.029 12.617 6.876 17.115l-68.572 27.428c-2.816 1.133-4.828 1.024-6.875 0zM478.866 426.276l-68.572-27.428c-11.191-4.498-4.352-21.651 6.875-17.152l68.572 27.428c11.154 4.535 4.315 21.687-6.875 17.188zM164.571 406.857h182.857c9.509-36.571 9.509-73.143 0-109.714h-182.857c-9.472 36.572-9.472 73.143 0 109.714zM27.428 361.143c-12.069 0-12.069-18.286 0-18.286h73.143c12.069 0 12.069 18.286 0 18.286h-73.143zM411.428 361.143c-12.068 0-12.068-18.286 0-18.286h73.143c12.068 0 12.068 18.286 0 18.286h-73.143zM94.867 320l-68.572-27.428c-11.191-4.499-4.352-21.65 6.876-17.152l68.572 27.428c11.154 4.535 4.316 21.651-6.876 17.152zM410.295 320c-6.108-3.072-8.411-13.751 0-17.152l68.572-27.428c11.191-4.498 18.029 12.654 6.875 17.152l-68.572 27.428c-2.816 1.097-4.827 1.024-6.875 0z" />
<glyph unicode="&#xe96f;" glyph-name="manor" d="M329.143 224h36.572v-36.572h-36.572zM146.286 224h36.572v-36.572h-36.572zM256 226.633l-36.572-36.425v-185.637h73.143v182.857zM329.143 187.428v-182.857h182.857v182.857zM402.286 150.857h73.143v-73.143h-73.143zM0 187.428v-182.857h182.857v182.857zM36.572 150.857h73.143v-73.143h-73.143zM256 443.428l-219.429-109.714-36.572-109.714h182.857l73.143 73.143 73.143-73.143h182.857l-36.572 109.714z" />
<glyph unicode="&#xe970;" glyph-name="map" d="M163.438 443.428c-1.28-0.073-2.524-0.659-3.804-0.987-0.841-0.256-1.756-0.293-2.56-0.659-0.22-0.11-0.476-0.11-0.732-0.22l-146.469-73.216v-0.365c-5.872-3.034-9.826-9.040-9.874-15.975v-329.149c0-0.256 0.146-0.476 0.146-0.731 0-1.060 0.403-2.048 0.622-3.108 0.292-1.317 0.476-2.633 1.024-3.803 0.073-0.183 0.036-0.365 0.147-0.585 0.183-0.365 0.585-0.439 0.768-0.768 1.407-2.435 3.288-4.444 5.532-5.957l0.063-0.041c0.621-0.439 1.171-0.877 1.829-1.207 2.363-1.274 5.165-2.041 8.142-2.084h0.014c0.22 0 0.366 0.147 0.585 0.147 0.183 0 0.366-0.147 0.549-0.147 1.244 0.073 2.413 0.622 3.657 0.914 0.915 0.256 1.865 0.365 2.707 0.731 0.22 0.11 0.476 0.11 0.732 0.219l137.326 68.644 176.091-68.937c2.2-1.029 4.776-1.634 7.493-1.646h0.004l0.439 0.073c0.147 0 0.256 0.147 0.402 0.147h0.073l0.219-0.073c0.476 0 0.914 0.293 1.353 0.365 1.988 0.214 3.808 0.719 5.49 1.472l-0.115-0.046c0.11 0.036 0.256 0 0.365 0.073l146.469 73.216v0.219c5.872 3.034 9.827 9.041 9.875 15.975v329.149c0 0.256-0.147 0.476-0.147 0.731 0 1.134-0.439 2.267-0.731 3.401-0.256 1.207-0.402 2.413-0.914 3.511-0.073 0.219 0 0.439-0.147 0.658-0.219 0.439-0.731 0.622-0.988 1.061-1.331 2.138-3.029 3.918-5.024 5.301l-0.059 0.038c-0.805 0.585-1.463 1.171-2.341 1.572-2.304 1.219-5.028 1.957-7.919 2.011l-0.017 0-0.439-0.073c-0.256 0-0.439 0.146-0.731 0.146-1.572-0.109-3.182-0.731-4.755-1.28-0.476-0.183-0.988-0.183-1.463-0.365-0.256-0.11-0.548-0.073-0.841-0.219l-137.509-68.718-175.726 68.791c-2.244 1.106-4.882 1.764-7.671 1.792h-0.010l-0.585-0.073s0-0.073-0.073-0.073c-0.147 0-0.292 0.147-0.439 0.147zM182.857 398.226l146.286-57.308v-291.291l-146.286 57.344v291.255zM146.286 395.666v-288.548l-109.715-54.748v288.476l109.715 54.784zM475.428 395.666v-288.439l-109.714-54.784v288.402l109.714 54.784z" />
<glyph unicode="&#xe971;" glyph-name="marketplace" d="M0 480v-73.143c0-40.395 32.747-73.143 73.143-73.143v0c40.395 0 73.143 32.747 73.143 73.143v0h36.572c0-40.395 32.747-73.143 73.143-73.143v0c40.395 0 73.143 32.747 73.143 73.143v0h36.572c0-40.395 32.747-73.143 73.143-73.143v0c40.395 0 73.143 32.747 73.143 73.143v0 73.143h-512zM0 297.143v-329.143h73.143v109.714h365.714v-109.714h73.143v329.143h-73.143v-146.286h-365.714v146.286h-73.143z" />
<glyph unicode="&#xe972;" glyph-name="massage" d="M202.788 443.428c-30.297 0-54.857-24.56-54.857-54.857v0c0-30.297 24.56-54.857 54.857-54.857v0c30.297 0 54.857 24.56 54.857 54.857v0c0 30.297-24.56 54.857-54.857 54.857v0zM158.355 315.063c-14.263-1.865-27.063-11.666-31.927-25.783l-47.507-138.423h75.666l34.633 100.864 37.156-38.327c0.585-0.585 1.316-0.877 1.939-1.353 0.621-0.548 1.389-0.914 2.084-1.353 1.097-0.659 2.121-1.317 3.292-1.719 0.585-0.256 1.060-0.695 1.683-0.877l70.363-19.748c1.829-0.673 3.94-1.063 6.143-1.063 10.099 0 18.286 8.187 18.286 18.286 0 8.752-6.148 16.067-14.36 17.863l-0.121 0.022-66.157 18.651-60.636 62.354c-0.439 0.439-0.988 0.622-1.427 1.024-3.957 3.994-8.915 6.987-14.467 8.574l-0.234 0.058c-2.864 0.785-6.153 1.236-9.546 1.236-1.727 0-3.428-0.117-5.094-0.343l0.194 0.022zM420.572 187.428c-30.297 0-54.857-24.56-54.857-54.857v0c0-30.297 24.56-54.857 54.857-54.857v0c30.297 0 54.857 24.56 54.857 54.857v0c0 30.297-24.56 54.857-54.857 54.857v0zM36.572 114.286c-20.261 0-36.572-16.311-36.572-36.572s16.311-36.572 36.572-36.572h299.703l75.3-34.743c2.45-1.097 5.010-1.536 7.497-1.536 0.512-0.036 0.951-0.293 1.5-0.293h73.143c10.099 0 18.285 8.187 18.285 18.286s-8.187 18.286-18.286 18.286h-70.949l-154.185 71.204c-1.983 0.872-4.294 1.379-6.724 1.379-0.853 0-1.692-0.063-2.512-0.183l0.093 0.012c-1.243 0.147-2.195 0.731-3.438 0.731h-219.429z" />
<glyph unicode="&#xe973;" glyph-name="mast_communications" d="M146.286 465.152c-64.621-28.525-110.848-93.111-110.848-168.009s46.227-139.484 110.848-168.009v42.276c-43.739 25.271-73.143 71.351-73.143 125.733 0 54.418 29.404 100.462 73.143 125.733v42.24zM365.714 465.152v-42.276c43.74-25.271 73.143-71.314 73.143-125.732s-29.404-100.462-73.143-125.733v-42.276c64.621 28.526 110.848 93.111 110.848 168.009s-46.226 139.483-110.848 168.009zM182.857 400.019c-42.313-15.25-73.143-55.479-73.143-102.875 0-47.433 30.829-87.625 73.143-102.876v40.046c-21.833 12.581-36.571 35.62-36.571 62.829s14.738 50.249 36.572 62.867v40.009zM329.143 400.019v-40.009c21.833-12.617 36.572-35.657 36.572-62.866s-14.738-50.249-36.572-62.867v-39.973c42.313 15.214 73.143 55.406 73.143 102.839s-30.829 87.625-73.143 102.875zM256 333.714c-21.869 0-36.572-17.189-36.572-36.572v-146.286l-105.582-182.857h42.24l63.341 109.714v-109.714h73.143v109.714l63.341-109.714h42.24l-105.582 182.857v146.286c0 18.139-14.702 36.572-36.572 36.572z" />
<glyph unicode="&#xe974;" glyph-name="mast_lighting" d="M256 443.428c-21.869 0-36.572-17.188-36.572-36.572v-256l-105.582-182.857h42.24l63.341 109.714v-109.714h73.143v109.714l63.341-109.714h42.24l-105.582 182.857v256c0 18.139-14.702 36.572-36.572 36.572zM99.291 423.497c-6.108-3.072-8.412-13.751 0-17.152l68.572-27.429c11.191-4.498 18.029 12.654 6.839 17.189l-68.572 27.428c-2.779 1.097-4.791 0.988-6.839 0zM402.286 421.668l-68.572-27.428c-11.191-4.535-4.352-21.687 6.875-17.188l68.535 27.428c11.191 4.535 4.352 21.687-6.839 17.188zM100.425 358.327c-12.069 0-12.069-18.286 0-18.286h73.143c12.069 0 12.069 18.286 0 18.286h-73.143zM334.848 356.462c-12.069 0-12.069-18.286 0-18.286h73.143c12.068 0 12.068 18.286 0 18.286h-73.143zM167.863 317.221l-68.572-27.429c-11.191-4.498-4.388-21.651 6.839-17.152l68.572 27.428c11.191 4.499 4.352 21.65-6.839 17.152zM333.714 315.356c-6.108-3.072-8.411-13.751 0-17.152l68.572-27.392c11.191-4.499 18.029 12.654 6.875 17.152l-68.608 27.428c-2.779 1.097-4.791 1.024-6.839 0z" />
<glyph unicode="&#xe975;" glyph-name="mast" d="M256 443.428c-21.869 0-36.572-17.188-36.572-36.572v-256l-105.582-182.857h42.24l63.341 109.714v-109.714h73.143v109.714l63.341-109.714h42.24l-105.582 182.857v256c0 18.139-14.702 36.572-36.572 36.572z" />
<glyph unicode="&#xe976;" glyph-name="medical_supply" d="M505.417 480l-122.332-8.851v-0.293l-0.365 0.073-19.383-160.841h-194.56v-51.822h85.468c-32.768-17.354-58.027-45.111-71.675-78.765l-0.37-1.034h-107.52v-1.938l-22.601-75.118c-29.226-8.113-50.312-34.356-50.322-65.498v-0.002c0-37.507 30.569-67.913 68.279-67.913v0c37.709 0 68.279 30.406 68.279 67.913 0 0.013 0 0.026 0 0.038v-0.002c-0.056 24.866-13.54 46.589-33.62 58.378l-0.318 0.173 4.425 14.885h63.013c6.743-79.422 73.206-141.349 154.218-141.385h0.003c85.498 0 154.807 68.933 154.807 153.966 0 0.013 0 0.026 0 0.038v-0.002c-0.042 47.524-21.726 90.002-55.778 118.218l-0.25 0.201 22.199 183.442 63.269 4.572zM327.022 215.26c52.963-0.021 95.891-42.846 95.891-95.671v0c0-52.825-42.927-95.65-95.889-95.671h-0.002c-52.963 0.021-95.891 42.846-95.891 95.671v0c0.021 52.822 42.961 95.635 95.927 95.635v0z" />
<glyph unicode="&#xe977;" glyph-name="memorial" d="M219.429 406.857c-36.571 0-73.143-36.571-73.143-73.143v-292.572h292.572v292.572c0 36.572-36.572 73.143-73.143 73.143zM256 333.714h73.143v-36.572h-73.143zM182.857 260.572h219.429v-36.572h-219.429zM219.429 187.428h146.286v-36.572h-146.286zM109.715 4.572l-36.572-36.572v-36.572h438.857v36.572l-36.572 36.572z" />
<glyph unicode="&#xe978;" glyph-name="miniature_golf" d="M79.276 27.839l31.424 206.748 24.688 14.784 24.142-15.184c0 0 27.346-208.86 24.761-207.585-2.549 1.238-104.503-0.656-105.049 1.238zM62.636 323.068c-1.417-0.086-2.684-0.666-3.645-1.568l0.003 0.003-28.657-26.8c-1.137-1.066-1.846-2.577-1.846-4.254 0-1.78 0.798-3.373 2.055-4.441l0.009-0.007 84.403-72.169-84.403-72.241c-1.266-1.075-2.064-2.669-2.064-4.449 0-1.677 0.709-3.188 1.843-4.251l0.003-0.003 28.657-26.8c1.036-0.962 2.429-1.553 3.961-1.553 1.926 0 3.634 0.935 4.694 2.375l0.011 0.016 67.581 92.123 67.544-92.123c1.073-1.445 2.774-2.37 4.69-2.37 1.521 0 2.905 0.582 3.943 1.537l-0.004-0.004 28.656 26.8c1.137 1.066 1.845 2.577 1.845 4.254 0 1.779-0.798 3.373-2.055 4.442l-0.008 0.007-84.476 72.205 84.476 72.206c1.266 1.075 2.064 2.669 2.064 4.448 0 1.677-0.708 3.188-1.843 4.251l-0.003 0.003-28.656 26.799c-1.038 0.973-2.439 1.571-3.98 1.571-0.086 0-0.172-0.002-0.256-0.006l0.012 0c-1.806-0.122-3.373-1.049-4.357-2.422l-0.012-0.018-67.618-92.087-67.581 92.123c-1.071 1.468-2.785 2.411-4.721 2.411-0.107 0-0.214-0.003-0.319-0.009l0.014 0zM135.242 217.327l3.641-3.495-3.714-3.568-3.641 3.495zM347.598 339.818c0.003 0.163 0.005 0.354 0.005 0.546 0 8.968-3.837 17.041-9.959 22.665l-0.022 0.020c-5.993 5.857-14.201 9.47-23.252 9.47-0.159 0-0.317-0.001-0.476-0.004l0.024 0c-0.175 0.004-0.382 0.006-0.59 0.006-8.94 0-17.034-3.62-22.897-9.473l0 0c-5.976-5.684-9.692-13.694-9.692-22.573 0-0.231 0.002-0.462 0.007-0.692l-0 0.034c0-9.176 3.24-16.895 9.685-23.195 5.863-5.853 13.957-9.473 22.896-9.473 0.207 0 0.414 0.002 0.621 0.006l-0.031-0c9.176 0 17.113 3.168 23.704 9.467 6.144 5.638 9.981 13.705 9.981 22.668 0 0.185-0.002 0.369-0.005 0.553l0-0.028zM259.844 0.020c7.137 0 12.89 3.387 17.332 10.195l95.909 144.411 5.098-19.918-14.274-108.144c-0.138-0.879-0.217-1.893-0.217-2.925 0-9.795 7.109-17.929 16.449-19.524l0.117-0.017c1.14-0.241 2.45-0.38 3.793-0.38 4.227 0 8.134 1.372 11.298 3.695l-0.053-0.038c4.324 2.926 7.286 7.582 7.894 12.953l0.007 0.082 14.82 110.693c0.327 3.787 0 7.683-1.019 11.761l-32.661 130.137 85.204 15.293c4.512 0.702 8.317 3.262 10.669 6.859l0.036 0.060c2.034 2.74 3.257 6.189 3.257 9.923 0 0.905-0.072 1.794-0.21 2.661l0.012-0.095c-1.158 4.66-3.89 8.553-7.587 11.175l-0.060 0.040-195.934 129.081-17.842-25.998c-4.442-6.154-3.423-11.397 3.058-15.839 6.117-3.751 11.361-2.695 15.803 3.058l10.195 15.293 159.194-104.576-130.101-23.486c-4.748-0.978-8.75-3.649-11.433-7.338l-0.037-0.054c-1.832-2.272-2.941-5.195-2.941-8.377 0-1.47 0.236-2.885 0.674-4.207l-0.027 0.095 28.038-109.71-91.832-137.274c-1.618-2.788-2.573-6.135-2.573-9.705 0-5.483 2.252-10.44 5.883-13.996l0.004-0.003c3.489-3.618 8.379-5.864 13.793-5.864 0.092 0 0.185 0 0.276 0.002h-0.014z" />
<glyph unicode="&#xe979;" glyph-name="mobile_phone" d="M219.429 480c-17.664 0-36.571-14.19-36.571-36.572v-36.572c-40.923-2.999-73.143-33.097-73.143-73.143v-292.572c0-42.021 29.367-73.143 73.143-73.143h146.286c43.776 0 73.143 31.123 73.143 73.143v292.572c0 42.020-29.367 73.143-73.143 73.143h-73.143v36.571c0 23.26-18.907 36.572-36.571 36.572zM146.286 333.714h219.429v-256h-219.429v256zM219.429 41.143h73.143v-36.572h-73.143v36.572z" />
</font>
</defs>
</svg>
