<?xml version="1.0" encoding="UTF-8" standalone="no"?>
<svg
   xmlns:dc="http://purl.org/dc/elements/1.1/"
   xmlns:cc="http://creativecommons.org/ns#"
   xmlns:rdf="http://www.w3.org/1999/02/22-rdf-syntax-ns#"
   xmlns:svg="http://www.w3.org/2000/svg"
   xmlns="http://www.w3.org/2000/svg"
   xmlns:sodipodi="http://sodipodi.sourceforge.net/DTD/sodipodi-0.dtd"
   xmlns:inkscape="http://www.inkscape.org/namespaces/inkscape"
   height="14"
   width="14"
   version="1.1"
   id="svg850"
   sodipodi:docname="apartment.svg"
   inkscape:version="1.0.1 (c497b03c, 2020-09-10)">
  <metadata
     id="metadata856">
    <rdf:RDF>
      <cc:Work
         rdf:about="">
        <dc:format>image/svg+xml</dc:format>
        <dc:type
           rdf:resource="http://purl.org/dc/dcmitype/StillImage" />
      </cc:Work>
    </rdf:RDF>
  </metadata>
  <defs
     id="defs854" />
  <sodipodi:namedview
     pagecolor="#ffffff"
     bordercolor="#666666"
     borderopacity="1"
     objecttolerance="10"
     gridtolerance="10"
     guidetolerance="10"
     inkscape:pageopacity="0"
     inkscape:pageshadow="2"
     inkscape:window-width="1792"
     inkscape:window-height="956"
     id="namedview852"
     showgrid="false"
     inkscape:zoom="52.5"
     inkscape:cx="7"
     inkscape:cy="7"
     inkscape:window-x="0"
     inkscape:window-y="25"
     inkscape:window-maximized="1"
     inkscape:current-layer="svg850" />
  <path
     d="m.5,3c-.28,0-.5.22-.5.5V11h1V9h12v2h1V5.5a.5.5,0,10-1,0V8H1V3.5C1,3.22.78,3,.5,3zm3,1a1.5,1.5,0,100,3,1.5,1.5,0,000-3zM6,5v2h6c0-1-1.04-2-2-2z"
     id="path846"
     style="stroke:none;fill:#000000;fill-opacity:1" />
  <path
     opacity=".5"
     paint-order="markers stroke fill"
     d="m0,0h14v2H0zm0,12h14v2H0z"
     id="path848"
     style="stroke:none;fill:#000000;fill-opacity:1;opacity:1" />
</svg>
