<?xml version="1.0" encoding="UTF-8" standalone="no"?>
<svg
   xmlns:dc="http://purl.org/dc/elements/1.1/"
   xmlns:cc="http://creativecommons.org/ns#"
   xmlns:rdf="http://www.w3.org/1999/02/22-rdf-syntax-ns#"
   xmlns:svg="http://www.w3.org/2000/svg"
   xmlns="http://www.w3.org/2000/svg"
   xmlns:sodipodi="http://sodipodi.sourceforge.net/DTD/sodipodi-0.dtd"
   xmlns:inkscape="http://www.inkscape.org/namespaces/inkscape"
   version="1.1"
   id="art-gallery"
   width="15"
   height="15"
   viewBox="0 0 15 15"
   sodipodi:docname="art_gallery.svg"
   inkscape:version="1.0.1 (c497b03c, 2020-09-10)">
  <metadata
     id="metadata9818">
    <rdf:RDF>
      <cc:Work
         rdf:about="">
        <dc:format>image/svg+xml</dc:format>
        <dc:type
           rdf:resource="http://purl.org/dc/dcmitype/StillImage" />
      </cc:Work>
    </rdf:RDF>
  </metadata>
  <defs
     id="defs9816" />
  <sodipodi:namedview
     pagecolor="#ffffff"
     bordercolor="#666666"
     borderopacity="1"
     objecttolerance="10"
     gridtolerance="10"
     guidetolerance="10"
     inkscape:pageopacity="0"
     inkscape:pageshadow="2"
     inkscape:window-width="1792"
     inkscape:window-height="956"
     id="namedview9814"
     showgrid="false"
     inkscape:zoom="49"
     inkscape:cx="7.5"
     inkscape:cy="7.5"
     inkscape:window-x="0"
     inkscape:window-y="25"
     inkscape:window-maximized="1"
     inkscape:current-layer="art-gallery" />
  <path
     id="path10399"
     d="M 7.4960938 1.0019531 C 7.3681437 1.0014281 7.2406281 1.0492344 7.1425781 1.1464844 L 7.140625 1.1503906 L 4.2890625 4 L 1.5 4 C 1.2239 4 1 4.2239 1 4.5 L 1 13.5 C 1 13.7761 1.2239 14 1.5 14 L 13.5 14 C 13.7761 14 14 13.7761 14 13.5 L 14 4.5 C 14 4.2239 13.7761 4 13.5 4 L 10.710938 4 L 7.8496094 1.1503906 C 7.7523594 1.0523406 7.6240438 1.0024781 7.4960938 1.0019531 z M 7.5 2.2109375 L 9.2890625 4 L 5.7109375 4 L 7.5 2.2109375 z M 2 5 L 13 5 L 13 13 L 2 13 L 2 5 z M 5 6 C 4.4477 6 4 6.4477 4 7 C 4 7.5523 4.4477 8 5 8 C 5.5523 8 6 7.5523 6 7 C 6 6.4477 5.5523 6 5 6 z M 9.5 7 L 7.25 11.5 L 6 9 L 4.5 12 L 12 12 L 9.5 7 z " />
</svg>
