<?xml version="1.0" encoding="UTF-8" standalone="no"?>
<svg
   xmlns:dc="http://purl.org/dc/elements/1.1/"
   xmlns:cc="http://creativecommons.org/ns#"
   xmlns:rdf="http://www.w3.org/1999/02/22-rdf-syntax-ns#"
   xmlns:svg="http://www.w3.org/2000/svg"
   xmlns="http://www.w3.org/2000/svg"
   xmlns:sodipodi="http://sodipodi.sourceforge.net/DTD/sodipodi-0.dtd"
   xmlns:inkscape="http://www.inkscape.org/namespaces/inkscape"
   id="basketball"
   width="15"
   height="15"
   viewBox="0 0 15 15"
   version="1.1"
   sodipodi:docname="basketball.svg"
   inkscape:version="1.0.1 (c497b03c, 2020-09-10)">
  <metadata
     id="metadata1423">
    <rdf:RDF>
      <cc:Work
         rdf:about="">
        <dc:format>image/svg+xml</dc:format>
        <dc:type
           rdf:resource="http://purl.org/dc/dcmitype/StillImage" />
      </cc:Work>
    </rdf:RDF>
  </metadata>
  <defs
     id="defs1421" />
  <sodipodi:namedview
     pagecolor="#ffffff"
     bordercolor="#666666"
     borderopacity="1"
     objecttolerance="10"
     gridtolerance="10"
     guidetolerance="10"
     inkscape:pageopacity="0"
     inkscape:pageshadow="2"
     inkscape:window-width="1792"
     inkscape:window-height="956"
     id="namedview1419"
     showgrid="false"
     inkscape:zoom="49"
     inkscape:cx="7.5"
     inkscape:cy="7.5"
     inkscape:window-x="0"
     inkscape:window-y="25"
     inkscape:window-maximized="1"
     inkscape:current-layer="basketball"
     inkscape:document-rotation="0" />
  <path
     id="path2588"
     d="M 7.5,9.890625 6.1601562,12.050781 7.5,12.951172 8.8398438,12.050781 Z M 8.140625,9.5019531 9.6503906,11.941406 10.210938,12.492188 V 10.931641 A 0.3175,0.3175 0 0 1 10.25,10.771484 l 0.640625,-1.2695309 z m -4.0214844,0 L 4.75,10.771484 a 0.3175,0.3175 0 0 1 0.039063,0.160157 v 1.560547 L 5.3496094,11.941406 6.859375,9.5019531 Z m -2.3945312,-1.5 a 0.75,0.75 0 0 1 0.025391,0 h 11.5 A 0.749,0.749 0 0 1 14,8.75 v 0.00195 a 0.7555,0.7555 0 0 1 -0.75,0.75 h -1.529297 l -0.759765,1.5195309 v 2.38086 a 0.392,0.392 0 0 1 -0.240235,0.349609 0.5863,0.5863 0 0 1 -0.140625,0.01953 0.3274,0.3274 0 0 1 -0.259766,-0.109375 L 9.3007812,12.652344 7.7109375,13.710938 a 0.3975,0.3975 0 0 1 -0.421875,0 L 5.6992188,12.652344 4.6796875,13.662109 a 0.3709,0.3709 0 0 1 -0.4003906,0.08984 0.392,0.392 0 0 1 -0.2402344,-0.349609 v -2.38086 L 3.2792969,9.5019531 H 1.75 a 0.75010744,0.75010744 0 0 1 -0.025391,-1.5 z" />
  <path
     d="m 11.96,4.2916 a 5.3231,5.3231 0 0 1 1.01,2.71 h -1.63 a 8.7122,8.7122 0 0 1 0.62,-2.71 z"
     id="path2580" />
  <path
     d="m 7.925,2.0316 a 5.4585,5.4585 0 0 1 3.24,1.44 9.2947,9.2947 0 0 0 -0.9,3.53 h -2.34 z"
     id="path2578" />
  <path
     d="m 4.735,7.0016 a 9.2947,9.2947 0 0 0 -0.9,-3.53 5.4585,5.4585 0 0 1 3.24,-1.44 v 4.97 z"
     id="path2576" />
  <path
     d="M 3.66,7.0016 H 2.03 a 5.3231,5.3231 0 0 1 1.01,-2.71 8.7122,8.7122 0 0 1 0.62,2.71 z"
     id="icon_concepts:_sports_leisure" />
</svg>
