<svg xmlns="http://www.w3.org/2000/svg" width="14" height="14"><path d="m0,0v10h2V6.5h2.5c1.98,0,3.5-1,3.5-3.25S6.49,0,4.97,0zm2,2h2.5C5.46,2,6,2.53,6,3.25S5.37,4.5,4.5,4.5H2zm7,5v.59L9.5,8v.75h-3V8.5H7c.48,0,.46-.5,0-.5H5.5c-.5,0-.5.45,0,.5H6v.25l-.56,1.28A2.13,2.13,0,005,10c-1.02,0-2,.79-2,2s.98,2,2,2,1.94-.86,1.94-2.06c0-.15,0-.3-.03-.44h.84l1.82-2,.37.78C9.38,10.62,9,11.23,9,12c0,1.21.98,2,2,2,1.02,0,1.94-.86,1.94-2.06C12.94,10.73,12.02,10,11,10c-.15,0-.29.03-.44.06L10,8.75V7.8zM6.41,9.5H8.6l-1.19,1.25h-.84a1.83,1.83,0,00-.5-.47zM5,11c.64,0,1,.55,1,1s-.37,1-1,1-1-.55-1-1,.37-1,1-1zm6,0c.64,0,1,.55,1,1s-.36,1-1,1c-.64,0-1-.55-1-1s.37-1,1-1z"/></svg>