<svg xmlns="http://www.w3.org/2000/svg" viewBox="0,0,3.7,3.7" height="14" width="14"><path d="m0,0v.79h.01c.15,0,.26.12.26.26A.26.26,0,010,1.32v.79h.53v-.27H.26v-.34a.53.53,0,000-.91v-.34H3.44v.34a.53.53,0,000,.91v.34h-.27v.27h.53v-.8h-.01c-.15,0-.26-.12-.26-.26s.1-.26.25-.26h.01V0H0z"/><path d="m1.85.79c-.31,0-.56.31-.56.69,0,.27.13.51.32.62.06.03-.01.12-.05.07a.53.53,0,00-.42-.23c-.31,0-.56.31-.56.7,0,.38.25.69.56.69.31,0,.56-.31.56-.69,0-.07.08-.07.08.02,0,.14-.11.9-.17,1.04a.98.98,0,01.24-.04.98.98,0,01.24.04c-.06-.14-.17-.9-.17-1.04,0-.09.08-.08.08-.02,0,.38.26.69.56.69.31,0,.56-.31.56-.69,0-.38-.25-.7-.56-.7-.17,0-.32.09-.42.23-.04.06-.1-.03-.05-.07.19-.11.32-.35.32-.62,0-.38-.25-.69-.56-.69z"/></svg>