<svg xmlns="http://www.w3.org/2000/svg" width="14" height="14"><path d="m2.74,0C2.03,0,1.37.41,1,1h2.37l.62,1-.62,1H1c.37.59,1.03,1,1.74,1,.76,0,1.41-.4,1.77-1h4.67c.36.6,1.01,1,1.77,1C12.08,4,13,3.11,13,2s-.92-2-2.05-2c-.76,0-1.41.4-1.77,1H4.51c-.36-.6-1.01-1-1.77-1zm7.58,1h1.25l.62,1-.62,1h-1.25L9.7,2l.62-1zM4,6,3,9c-.47,0-1,.38-1,1v3h1s0,1,1,1l1-1h4s0,1,1,1l1-1h1v-3c0-.52-.46-1-1-1l-1-3H4zm1,1h4l.63,2h-5.25L5,7zm-1,3.25a.75.75,0,110,1.5.75.75,0,010-1.5zm6,0a.75.75,0,110,1.5.75.75,0,010-1.5z"/></svg>