<svg width="14" height="14" viewBox="0,0,3.7,3.7" xmlns="http://www.w3.org/2000/svg"><path d="m2.09,1.32a.53.53,0,00-.53.53v1.06c0,.29.24.53.53.53h1.06c.29,0,.53-.24.53-.53V1.84a.53.53,0,00-.53-.53zm1.06.2a.33.33,0,110,0zM2.09,2.57a.33.33,0,01.33.33.33.33,0,11-.33-.33z"/><path d="m1.02.28a.53.53,0,00-.42.27l-.53.92a.52.52,0,00.19.72l.92.53c.04.02.08.05.12.06v-.93c0-.44.36-.79.79-.79h.32A.53.53,0,002.24.89l-.92-.53a.52.52,0,00-.3-.07zm.08.19A.33.33,0,111.1.47zm-.56.97A.33.33,0,11.54,1.44z"/></svg>