<?xml version="1.0" encoding="UTF-8" standalone="no"?>
<svg
   xmlns:dc="http://purl.org/dc/elements/1.1/"
   xmlns:cc="http://creativecommons.org/ns#"
   xmlns:rdf="http://www.w3.org/1999/02/22-rdf-syntax-ns#"
   xmlns:svg="http://www.w3.org/2000/svg"
   xmlns="http://www.w3.org/2000/svg"
   xmlns:sodipodi="http://sodipodi.sourceforge.net/DTD/sodipodi-0.dtd"
   xmlns:inkscape="http://www.inkscape.org/namespaces/inkscape"
   width="14"
   height="14"
   version="1.1"
   id="svg8052"
   sodipodi:docname="chemist.svg"
   inkscape:version="1.0.1 (c497b03c, 2020-09-10)">
  <metadata
     id="metadata8058">
    <rdf:RDF>
      <cc:Work
         rdf:about="">
        <dc:format>image/svg+xml</dc:format>
        <dc:type
           rdf:resource="http://purl.org/dc/dcmitype/StillImage" />
      </cc:Work>
    </rdf:RDF>
  </metadata>
  <defs
     id="defs8056" />
  <sodipodi:namedview
     pagecolor="#ffffff"
     bordercolor="#666666"
     borderopacity="1"
     objecttolerance="10"
     gridtolerance="10"
     guidetolerance="10"
     inkscape:pageopacity="0"
     inkscape:pageshadow="2"
     inkscape:window-width="1792"
     inkscape:window-height="956"
     id="namedview8054"
     showgrid="false"
     inkscape:zoom="52.5"
     inkscape:cx="7"
     inkscape:cy="7"
     inkscape:window-x="0"
     inkscape:window-y="25"
     inkscape:window-maximized="1"
     inkscape:current-layer="svg8052" />
  <path
     d="m 9.48,4 v 0.61 h 1.96 V 4 Z"
     id="path8637" />
  <path
     d="m 9.48,3 v 0.61 h 1.96 V 3 Z"
     id="path8635" />
  <path
     d="m 9.48,2 v 0.61 h 1.96 V 2 Z"
     id="path8633" />
  <path
     d="m 9.48,1 v 0.61 h 1.96 V 1 Z"
     id="path8631" />
  <path
     d="m 9.48,0 v 0.61 h 1.96 V 0 Z"
     id="path8629" />
  <path
     d="m 2.02,14 h 6 L 7.76,13 h -5.5 z"
     id="path8627" />
  <path
     d="m 4.32,0 -0.6,3 c 1,0.31 1.55,0.31 2.55,0 L 5.72,0 Z"
     id="path8625" />
  <path
     d="M 2.51,11.63 C 4.5,12.26 5.64,12.26 7.6,11.56 L 7,4 C 5,4.28 5,4.31 3,4 Z"
     id="path8623" />
  <path
     d="M 13.52,13 C 13.52,1 13.54,2.95 13.54,1 13.54,0 13.49,0 12,0 V 13.04 C 12.05,14 12,14 12.72,14 c 0.77,0 0.8,0 0.8,-1 z"
     id="path8050" />
</svg>
