<?xml version="1.0" encoding="iso-8859-1"?>
<!-- Generator: Adobe Illustrator 18.0.0, SVG Export Plug-In . SVG Version: 6.00 Build 0)  -->
<!DOCTYPE svg PUBLIC "-//W3C//DTD SVG 1.1//EN" "http://www.w3.org/Graphics/SVG/1.1/DTD/svg11.dtd">
<svg version="1.1" id="Capa_1" xmlns="http://www.w3.org/2000/svg" xmlns:xlink="http://www.w3.org/1999/xlink" x="0px" y="0px"
	 viewBox="0 0 493.874 493.874" style="enable-background:new 0 0 493.874 493.874;" xml:space="preserve">
<g id="XMLID_190_">
	<path id="XMLID_195_" d="M135.313,237.575c-14.733-8.438-33.518-3.338-41.964,11.402c-8.44,14.734-3.338,33.518,11.393,41.956
		c14.734,8.448,33.524,3.347,41.957-11.393C155.145,264.807,150.045,246.023,135.313,237.575z"/>
	<path id="XMLID_191_" d="M493.325,149.26c-2.002-6.494-8.88-10.097-15.374-8.136c-151.121,46.489-310.908,46.489-462.03,0
		c-6.494-1.953-13.379,1.642-15.373,8.136c-2.002,6.494,1.65,13.379,8.135,15.373c40.69,12.515,81.991,21.683,123.579,27.663
		c-2.337,5.38-1.914,11.77,1.994,16.686l25.894,32.596l-1.592,39.162c-5.749,12.393,0.079,26.887,8.983,30.953
		c4.957,3.043,69.773,39.923,69.773,39.923c2.194,1.033,4.564,1.666,6.974,1.666c3.267,0,6.566-0.977,9.441-3.002l62.701-44.255
		l51.964,23.061c8.272,3.675,17.968-0.056,21.645-8.335c3.674-8.28-0.058-17.968-8.335-21.643l-60.468-26.832
		c-5.269-2.336-11.403-1.736-16.111,1.594l-28.736,20.282l14.653-36.616l60.988-53.382c3.427-3.002,5.292-7.11,5.549-11.329
		c42.948-5.957,85.609-15.268,127.613-28.191C491.675,162.639,495.327,155.754,493.325,149.26z M198.207,198.982l4.771,36.334
		l-10.313,13.676l0.497-12.179c0.161-3.93-1.097-7.783-3.547-10.865l-23.468-29.544C176.82,197.485,187.51,198.334,198.207,198.982z
		 M266.474,235.453c-1.945,1.705-3.459,3.844-4.419,6.246l-21.995,54.966l-29.514-16.901l24.14-32.021
		c1.642-2.178,2.363-4.908,2.01-7.605l-5.235-39.834c5.164,0.095,10.319,0.289,15.476,0.289c20.731,0,41.459-0.842,62.158-2.443
		L266.474,235.453z"/>
</g>
<g>
</g>
<g>
</g>
<g>
</g>
<g>
</g>
<g>
</g>
<g>
</g>
<g>
</g>
<g>
</g>
<g>
</g>
<g>
</g>
<g>
</g>
<g>
</g>
<g>
</g>
<g>
</g>
<g>
</g>
</svg>
