<?xml version="1.0" encoding="UTF-8" standalone="no"?>
<svg
   xmlns:dc="http://purl.org/dc/elements/1.1/"
   xmlns:cc="http://creativecommons.org/ns#"
   xmlns:rdf="http://www.w3.org/1999/02/22-rdf-syntax-ns#"
   xmlns:svg="http://www.w3.org/2000/svg"
   xmlns="http://www.w3.org/2000/svg"
   xmlns:sodipodi="http://sodipodi.sourceforge.net/DTD/sodipodi-0.dtd"
   xmlns:inkscape="http://www.inkscape.org/namespaces/inkscape"
   height="14"
   width="14"
   version="1.1"
   id="svg835"
   sodipodi:docname="community_centre.svg"
   inkscape:version="1.0.1 (c497b03c, 2020-09-10)">
  <metadata
     id="metadata841">
    <rdf:RDF>
      <cc:Work
         rdf:about="">
        <dc:format>image/svg+xml</dc:format>
        <dc:type
           rdf:resource="http://purl.org/dc/dcmitype/StillImage" />
      </cc:Work>
    </rdf:RDF>
  </metadata>
  <defs
     id="defs839" />
  <sodipodi:namedview
     pagecolor="#ffffff"
     bordercolor="#666666"
     borderopacity="1"
     objecttolerance="10"
     gridtolerance="10"
     guidetolerance="10"
     inkscape:pageopacity="0"
     inkscape:pageshadow="2"
     inkscape:window-width="1792"
     inkscape:window-height="957"
     id="namedview837"
     showgrid="false"
     inkscape:zoom="50.857143"
     inkscape:cx="7"
     inkscape:cy="7"
     inkscape:window-x="0"
     inkscape:window-y="25"
     inkscape:window-maximized="1"
     inkscape:current-layer="svg835" />
  <path
     d="M 0,5 V 6 H 3 V 9 L 1,13 H 2 L 4,9 6,13 H 7 L 5,9 V 6 h 2 2 v 3 l -2,4 h 1 l 2,-4 2,4 h 1 L 11,9 V 6 h 3 V 5 H 7 Z"
     id="path848" />
  <path
     d="M 10,1 C 9.19,1 8.5292969,1.67 8.5292969,2.5 8.5292969,3.33 9.19,4 10,4 10.81,4 11.470703,3.33 11.470703,2.5 11.470703,1.67 10.81,1 10,1 Z"
     id="path846" />
  <path
     d="M 4,1 C 3.19,1 2.5292969,1.67 2.5292969,2.5 2.5292969,3.33 3.19,4 4,4 4.81,4 5.4707031,3.33 5.4707031,2.5 5.4707031,1.67 4.81,1 4,1 Z"
     id="path833" />
</svg>
