<?xml version="1.0" encoding="UTF-8" standalone="no"?>
<svg
   xmlns:dc="http://purl.org/dc/elements/1.1/"
   xmlns:cc="http://creativecommons.org/ns#"
   xmlns:rdf="http://www.w3.org/1999/02/22-rdf-syntax-ns#"
   xmlns:svg="http://www.w3.org/2000/svg"
   xmlns="http://www.w3.org/2000/svg"
   xmlns:sodipodi="http://sodipodi.sourceforge.net/DTD/sodipodi-0.dtd"
   xmlns:inkscape="http://www.inkscape.org/namespaces/inkscape"
   width="14"
   height="14"
   version="1.1"
   id="svg1431"
   sodipodi:docname="communications_tower.svg"
   inkscape:version="1.0.1 (c497b03c, 2020-09-10)">
  <metadata
     id="metadata1437">
    <rdf:RDF>
      <cc:Work
         rdf:about="">
        <dc:format>image/svg+xml</dc:format>
        <dc:type
           rdf:resource="http://purl.org/dc/dcmitype/StillImage" />
      </cc:Work>
    </rdf:RDF>
  </metadata>
  <defs
     id="defs1435" />
  <sodipodi:namedview
     pagecolor="#ffffff"
     bordercolor="#666666"
     borderopacity="1"
     objecttolerance="10"
     gridtolerance="10"
     guidetolerance="10"
     inkscape:pageopacity="0"
     inkscape:pageshadow="2"
     inkscape:window-width="1792"
     inkscape:window-height="956"
     id="namedview1433"
     showgrid="false"
     inkscape:zoom="52.5"
     inkscape:cx="7"
     inkscape:cy="7"
     inkscape:window-x="0"
     inkscape:window-y="25"
     inkscape:window-maximized="1"
     inkscape:current-layer="svg1431" />
  <path
     id="path1427"
     d="M 3 0 C 1.23 0.81 0 2.6402344 0 4.7402344 C 0 6.8402344 1.23 8.7 3 9.5 L 3 8.2792969 C 1.8 7.5692969 1.0292969 6.1999219 1.0292969 4.6699219 C 1.0292969 3.1399219 1.8 1.9504687 3 1.2304688 L 3 0 z M 6 0 L 6 3.2695312 A 2 2 0 0 0 6 6.7304688 L 6 12 L 4 14 L 6 14 L 8 14 L 10 14 L 8 12 L 8 6.7304688 A 2 2 0 0 0 8 3.2695312 L 8 0 L 6 0 z M 11.009766 0 L 11.009766 1.2792969 C 12.209766 1.9892969 12.960938 3.1907031 12.960938 4.7207031 C 12.960938 6.2507031 12.209766 7.4696875 11.009766 8.1796875 L 11.009766 9.4804688 C 12.779766 8.6804687 14.009766 6.8207031 14.009766 4.7207031 C 14.009766 2.6107031 12.779766 0.8 11.009766 0 z M 4 1.859375 C 2.84 2.289375 2 3.4102344 2 4.7402344 C 2 6.0702344 2.84 7.210625 4 7.640625 L 4 6.4902344 C 3.4 6.1402344 3.0703125 5.4692187 3.0703125 4.6992188 C 3.0703125 3.9292187 3.4 3.36 4 3 L 4 1.859375 z M 10.009766 1.890625 L 10.009766 2.9804688 A 2.05 2.05 0 0 1 11.029297 4.75 C 11.029297 5.52 10.609766 6.0501562 10.009766 6.4101562 L 10.009766 7.5390625 C 11.169766 7.1090625 11.980469 6.0897656 11.980469 4.7597656 C 11.980469 3.4297656 11.169766 2.320625 10.009766 1.890625 z " />
</svg>
