<?xml version="1.0" encoding="UTF-8" standalone="no"?>
<svg
   xmlns:dc="http://purl.org/dc/elements/1.1/"
   xmlns:cc="http://creativecommons.org/ns#"
   xmlns:rdf="http://www.w3.org/1999/02/22-rdf-syntax-ns#"
   xmlns:svg="http://www.w3.org/2000/svg"
   xmlns="http://www.w3.org/2000/svg"
   xmlns:sodipodi="http://sodipodi.sourceforge.net/DTD/sodipodi-0.dtd"
   xmlns:inkscape="http://www.inkscape.org/namespaces/inkscape"
   height="14"
   width="14"
   version="1.1"
   id="svg2007"
   sodipodi:docname="convenience.svg"
   inkscape:version="1.0.1 (c497b03c, 2020-09-10)">
  <metadata
     id="metadata2013">
    <rdf:RDF>
      <cc:Work
         rdf:about="">
        <dc:format>image/svg+xml</dc:format>
        <dc:type
           rdf:resource="http://purl.org/dc/dcmitype/StillImage" />
      </cc:Work>
    </rdf:RDF>
  </metadata>
  <defs
     id="defs2011" />
  <sodipodi:namedview
     pagecolor="#ffffff"
     bordercolor="#666666"
     borderopacity="1"
     objecttolerance="10"
     gridtolerance="10"
     guidetolerance="10"
     inkscape:pageopacity="0"
     inkscape:pageshadow="2"
     inkscape:window-width="1251"
     inkscape:window-height="943"
     id="namedview2009"
     showgrid="false"
     inkscape:zoom="52.5"
     inkscape:cx="6.6264996"
     inkscape:cy="7"
     inkscape:window-x="0"
     inkscape:window-y="25"
     inkscape:window-maximized="0"
     inkscape:current-layer="svg2007"
     inkscape:document-rotation="0" />
  <path
     id="path2602"
     d="M 8.3496094 1.7480469 A 0.51 0.51 0 0 0 7.9003906 2 L 5.9101562 4.984375 L -0.021484375 4.984375 L -0.015625 5.0039062 L 1.9882812 12.015625 L 11.011719 12.015625 L 13.021484 4.984375 L 7.109375 4.984375 L 8.8300781 2.4003906 A 0.51 0.51 0 0 0 8.3496094 1.7480469 z M 1.2714844 6.015625 L 3 6.015625 L 3 7 L 1.5664062 7 L 1.2714844 6.015625 z M 3.5 6.015625 L 5 6.015625 L 5 7 L 3.5 7 L 3.5 6.015625 z M 5.5 6.015625 L 7.5 6.015625 L 7.5 7 L 5.5 7 L 5.5 6.015625 z M 8 6.015625 L 9.5 6.015625 L 9.5 7 L 8 7 L 8 6.015625 z M 10 6.015625 L 11.728516 6.015625 L 11.433594 7 L 10 7 L 10 6.015625 z M 1.7167969 7.5 L 3 7.5 L 3 9 L 2.1660156 9 L 1.7167969 7.5 z M 3.5 7.5 L 5 7.5 L 5 9 L 3.5 9 L 3.5 7.5 z M 5.5 7.5 L 7.5 7.5 L 7.5 9 L 5.5 9 L 5.5 7.5 z M 8 7.5 L 9.5 7.5 L 9.5 9 L 8 9 L 8 7.5 z M 10 7.5 L 11.283203 7.5 L 10.833984 9 L 10 9 L 10 7.5 z M 2.3164062 9.5 L 3 9.5 L 3 10.984375 L 2.7617188 10.984375 L 2.3164062 9.5 z M 3.5 9.5 L 5 9.5 L 5 10.984375 L 3.5 10.984375 L 3.5 9.5 z M 5.5 9.5 L 7.5 9.5 L 7.5 10.984375 L 5.5 10.984375 L 5.5 9.5 z M 8 9.5 L 9.5 9.5 L 9.5 10.984375 L 8 10.984375 L 8 9.5 z M 10 9.5 L 10.683594 9.5 L 10.238281 10.984375 L 10 10.984375 L 10 9.5 z " />
  <g
     id="g2583"
     style="opacity:1" />
</svg>
