<?xml version="1.0" encoding="UTF-8" standalone="no"?>
<svg
   xmlns:dc="http://purl.org/dc/elements/1.1/"
   xmlns:cc="http://creativecommons.org/ns#"
   xmlns:rdf="http://www.w3.org/1999/02/22-rdf-syntax-ns#"
   xmlns:svg="http://www.w3.org/2000/svg"
   xmlns="http://www.w3.org/2000/svg"
   xmlns:sodipodi="http://sodipodi.sourceforge.net/DTD/sodipodi-0.dtd"
   xmlns:inkscape="http://www.inkscape.org/namespaces/inkscape"
   height="14"
   width="14"
   version="1.1"
   id="svg2007"
   sodipodi:docname="convenience.svg"
   inkscape:version="1.0.1 (c497b03c, 2020-09-10)">
  <metadata
     id="metadata2013">
    <rdf:RDF>
      <cc:Work
         rdf:about="">
        <dc:format>image/svg+xml</dc:format>
        <dc:type
           rdf:resource="http://purl.org/dc/dcmitype/StillImage" />
      </cc:Work>
    </rdf:RDF>
  </metadata>
  <defs
     id="defs2011" />
  <sodipodi:namedview
     pagecolor="#ffffff"
     bordercolor="#666666"
     borderopacity="1"
     objecttolerance="10"
     gridtolerance="10"
     guidetolerance="10"
     inkscape:pageopacity="0"
     inkscape:pageshadow="2"
     inkscape:window-width="1792"
     inkscape:window-height="956"
     id="namedview2009"
     showgrid="false"
     inkscape:zoom="52.5"
     inkscape:cx="7"
     inkscape:cy="7"
     inkscape:window-x="0"
     inkscape:window-y="25"
     inkscape:window-maximized="1"
     inkscape:current-layer="svg2007" />
  <path
     id="path2602"
     d="M 8.3496094 1.7480469 A 0.51 0.51 0 0 0 7.9003906 2 L 5.9101562 4.984375 L -0.021484375 4.984375 L -0.015625 5.0039062 L 1.9882812 12.015625 L 11.011719 12.015625 L 13.021484 4.984375 L 7.109375 4.984375 L 8.8300781 2.4003906 A 0.51 0.51 0 0 0 8.3496094 1.7480469 z M 0.021484375 5.015625 L 12.978516 5.015625 L 10.988281 11.984375 L 2.0117188 11.984375 L 0.021484375 5.015625 z M 3 5.5 L 3 5.984375 L 1.2285156 5.984375 L 1.234375 6.0039062 L 1.5332031 7 L 1 7 L 1 7.5 L 1.6835938 7.5 L 2.1328125 9 L 2 9 L 2 9.5 L 2.2832031 9.5 L 2.7382812 11.015625 L 10.261719 11.015625 L 10.716797 9.5 L 11.5 9.5 L 11.5 9 L 10.867188 9 L 11.316406 7.5 L 12 7.5 L 12 7 L 11.466797 7 L 11.771484 5.984375 L 10 5.984375 L 10 5.5 L 9.5 5.5 L 9.5 5.984375 L 8 5.984375 L 8 5.5 L 7.5 5.5 L 7.5 5.984375 L 5.5 5.984375 L 5.5 5.5 L 5 5.5 L 5 5.984375 L 3.5 5.984375 L 3.5 5.5 L 3 5.5 z M 1.2714844 6.015625 L 3 6.015625 L 3 7 L 1.5664062 7 L 1.2714844 6.015625 z M 3.5 6.015625 L 5 6.015625 L 5 7 L 3.5 7 L 3.5 6.015625 z M 5.5 6.015625 L 7.5 6.015625 L 7.5 7 L 5.5 7 L 5.5 6.015625 z M 8 6.015625 L 9.5 6.015625 L 9.5 7 L 8 7 L 8 6.015625 z M 10 6.015625 L 11.728516 6.015625 L 11.433594 7 L 10 7 L 10 6.015625 z M 1.7167969 7.5 L 3 7.5 L 3 9 L 2.1660156 9 L 1.7167969 7.5 z M 3.5 7.5 L 5 7.5 L 5 9 L 3.5 9 L 3.5 7.5 z M 5.5 7.5 L 7.5 7.5 L 7.5 9 L 5.5 9 L 5.5 7.5 z M 8 7.5 L 9.5 7.5 L 9.5 9 L 8 9 L 8 7.5 z M 10 7.5 L 11.283203 7.5 L 10.833984 9 L 10 9 L 10 7.5 z M 2.3164062 9.5 L 3 9.5 L 3 10.984375 L 2.7617188 10.984375 L 2.3164062 9.5 z M 3.5 9.5 L 5 9.5 L 5 10.984375 L 3.5 10.984375 L 3.5 9.5 z M 5.5 9.5 L 7.5 9.5 L 7.5 10.984375 L 5.5 10.984375 L 5.5 9.5 z M 8 9.5 L 9.5 9.5 L 9.5 10.984375 L 8 10.984375 L 8 9.5 z M 10 9.5 L 10.683594 9.5 L 10.238281 10.984375 L 10 10.984375 L 10 9.5 z " />
  <g
     id="g2583"
     style="opacity:1">
    <path
       style="color:#000000;font-style:normal;font-variant:normal;font-weight:normal;font-stretch:normal;font-size:medium;line-height:normal;font-family:sans-serif;font-variant-ligatures:normal;font-variant-position:normal;font-variant-caps:normal;font-variant-numeric:normal;font-variant-alternates:normal;font-variant-east-asian:normal;font-feature-settings:normal;font-variation-settings:normal;text-indent:0;text-align:start;text-decoration:none;text-decoration-line:none;text-decoration-style:solid;text-decoration-color:#000000;letter-spacing:normal;word-spacing:normal;text-transform:none;writing-mode:lr-tb;direction:ltr;text-orientation:mixed;dominant-baseline:auto;baseline-shift:baseline;text-anchor:start;white-space:normal;shape-padding:0;shape-margin:0;inline-size:0;clip-rule:nonzero;display:inline;overflow:visible;visibility:visible;isolation:auto;mix-blend-mode:normal;color-interpolation:sRGB;color-interpolation-filters:linearRGB;solid-color:#000000;solid-opacity:1;vector-effect:none;fill:#000000;fill-opacity:1;fill-rule:evenodd;stroke:none;stroke-width:0;stroke-linecap:butt;stroke-linejoin:miter;stroke-miterlimit:4;stroke-dasharray:none;stroke-dashoffset:0;stroke-opacity:1.0;color-rendering:auto;image-rendering:auto;shape-rendering:auto;text-rendering:auto;enable-background:accumulate;stop-color:#000000;stop-opacity:1;"
       d="m 0,5 h 13 l -2,7 H 2 Z m 1.25,1 h 10.5 l -1.5,5 h -7.5 z"
       id="path2585" />
  </g>
</svg>
