<svg xmlns="http://www.w3.org/2000/svg" height="14" width="14"><path d="m1.3,0a.33.33,0,00-.32.32v2.32l-.94,2.14c-.02.05-.03.08-.03.13v8.76c0,.18.15.32.32.32H14V8.24H7.5l0-3.33a.3.3,0,00-.03-.13l-.94-2.14V.32A.33.33,0,006.21,0zm.32.66h4.26v1.9H1.62zm-.05,2.23h4.35l.02.03c-.3.68-.62,1.38-.88,1.96v3.36H3.43v5.1H.66C.64,10.58.65,7.77.65,5zm4.54.44.73,1.67v3.25H5.38V4.96l0-.01zM5.31,9.08a.95.95,0,110,1.91.95.95,0,010-1.91zm6.42.41a1.3,1.3,0,110,2.6,1.3,1.3,0,010-2.6zm-3.63,1.53a1.1,1.1,0,110,2.2,1.1,1.1,0,010-2.2z" stroke-width=".16"/></svg>