<?xml version="1.0" encoding="UTF-8" standalone="no"?>
<svg
   xmlns:dc="http://purl.org/dc/elements/1.1/"
   xmlns:cc="http://creativecommons.org/ns#"
   xmlns:rdf="http://www.w3.org/1999/02/22-rdf-syntax-ns#"
   xmlns:svg="http://www.w3.org/2000/svg"
   xmlns="http://www.w3.org/2000/svg"
   xmlns:sodipodi="http://sodipodi.sourceforge.net/DTD/sodipodi-0.dtd"
   xmlns:inkscape="http://www.inkscape.org/namespaces/inkscape"
   width="14"
   height="14"
   version="1.1"
   id="svg1423"
   sodipodi:docname="deli.svg"
   inkscape:version="1.0.1 (c497b03c, 2020-09-10)">
  <metadata
     id="metadata1429">
    <rdf:RDF>
      <cc:Work
         rdf:about="">
        <dc:format>image/svg+xml</dc:format>
        <dc:type
           rdf:resource="http://purl.org/dc/dcmitype/StillImage" />
      </cc:Work>
    </rdf:RDF>
  </metadata>
  <defs
     id="defs1427" />
  <sodipodi:namedview
     pagecolor="#ffffff"
     bordercolor="#666666"
     borderopacity="1"
     objecttolerance="10"
     gridtolerance="10"
     guidetolerance="10"
     inkscape:pageopacity="0"
     inkscape:pageshadow="2"
     inkscape:window-width="1792"
     inkscape:window-height="957"
     id="namedview1425"
     showgrid="false"
     inkscape:zoom="52.5"
     inkscape:cx="7"
     inkscape:cy="7"
     inkscape:window-x="0"
     inkscape:window-y="25"
     inkscape:window-maximized="1"
     inkscape:current-layer="svg1423" />
  <path
     id="path2607"
     style="stroke:none;stroke-width:0;stroke-miterlimit:4;stroke-dasharray:none"
     d="M 4 3 C 4 5 1.9804687 4 1.9804688 6 L 2 11 C 2 12 3 14 5 14 L 9 14 C 11 14 12 12 12 11 L 12 6 C 12 4 10 5 10 3 L 4 3 z M 4 7 L 10 7 L 10 10 L 4 10 L 4 7 z " />
  <path
     style="stroke:none;stroke-width:0;stroke-miterlimit:4;stroke-dasharray:none"
     d="M 6,0 C 4,0 3,0 3,1 v 1 h 8 V 1 C 11,0 10,0 8,0 Z"
     id="path1421"
     sodipodi:nodetypes="ssccsss" />
</svg>
