<svg xmlns="http://www.w3.org/2000/svg" viewBox="0,0,14,14" height="14.93" width="14.93"><path d="m8.54,1.28a1.27,1.26,0,001.27,1.26,1.27,1.26,0,100-2.52,1.27,1.26,0,00-1.27,1.26zM1.69,9.84l2.68.69c.11.03.35,0,.44-.02.24-.05.3-.16.4-.27l1.27-2.09L8.07,9.86l-.64,3.2a.62.62,0,00-.03.17c0,.21.07.38.2.53a.62.62,0,00.48.22c.35,0,.56-.2.65-.6l.78-3.89c.09-.41.05-.71-.12-.91L7.98,7.03l1.52-1.97.98,1.1c.1.11.22.17.35.17.17,0,.34-.09.51-.26l1.6-1.78a.63.63,0,00.12-.38.6.6,0,00-.16-.43.5.5,0,00-.38-.17.43.43,0,00-.34.14l-1.32,1.47L9.27,3.14c-.12-.14-.28-.25-.46-.21l-3.47.77c-.15.03-.26.18-.37.31l-.77,1.33a.56.56,0,00-.18.43c0,.16.05.3.15.41a.48.48,0,00.37.17.5.5,0,00.4-.21l.9-1.5,1.46-.25-3.02,4.69-2.46-.71c-.2,0-.37.04-.51.18-.13.14-.27.26-.27.48,0,.21.08.38.22.53.13.14.27.22.44.27z" fill-rule="evenodd"/></svg>