<svg xmlns="http://www.w3.org/2000/svg" width="14" height="14"><path d="m11,2.92c0,1-1,.6-1,.08C9,1,8,1.81,7.75,4.56c-.02.09,0,.18,0,.27.38-.19.81-.31,1.24-.31,1.47,0,2.75,1.03,2.75,3v1c0,1-1.5,1-1.5,0v-1c0-.97-.68-1.5-1.25-1.5-.55,0-1.2.54-1.24,1.42v.13L7.73,10C7,9.41,7,9.42,6.24,10V7.48C6.2,6.59,5.55,6.06,5,6.06c-.57,0-1.25.53-1.25,1.5v1c0,1-1.5,1-1.5,0v-1c0-1.97,1.28-3,2.75-3,.43.01.86.11,1.24.31v-.35C6,1.36,5,.97,4,2.97c0,.65-1,.97-1-.03S3.5.02,5,.02c1,0,1.65,1.04,1.99,1.86C7.33,1.1,8,.06,9,.06c1.5,0,2,1.86,2,2.86zM3.8,13.31c-1.29-.44-2.63-1.06-3.42-2.18H13.62c-.4.75-1.15,1.24-1.9,1.62A11.82,11.82,0,017,13.87c-1.09-.01-2.17-.24-3.2-.56z"/></svg>