<svg xmlns="http://www.w3.org/2000/svg" height="14" width="14"><path d="m3.5,1a1.5,1.5,0,100,3,1.5,1.5,0,000-3zM6,2v2h6c0-1-1.04-2-2-2zM3.5,7a1.5,1.5,0,100,3,1.5,1.5,0,000-3zM6,8v2l6,.01C12,9,10.96,8,10,8z"/><path paint-order="markers stroke fill" d="m0,1h1v13H0z"/><rect ry=".5" height="13" width="1" paint-order="markers stroke fill"/><path paint-order="markers stroke fill" d="m13,4h1v10h-1z"/><rect style="ry:.5;y:2;x:13;height:12;width:1;paint-order:markers stroke fill"/><path paint-order="markers stroke fill" d="m13,5v1H0V5zm0,6v1H0v-1z"/></svg>