<?xml version="1.0" encoding="UTF-8" standalone="no"?>
<svg
   xmlns:dc="http://purl.org/dc/elements/1.1/"
   xmlns:cc="http://creativecommons.org/ns#"
   xmlns:rdf="http://www.w3.org/1999/02/22-rdf-syntax-ns#"
   xmlns:svg="http://www.w3.org/2000/svg"
   xmlns="http://www.w3.org/2000/svg"
   xmlns:sodipodi="http://sodipodi.sourceforge.net/DTD/sodipodi-0.dtd"
   xmlns:inkscape="http://www.inkscape.org/namespaces/inkscape"
   height="14"
   width="14"
   version="1.1"
   id="svg6260"
   sodipodi:docname="interior_decoration.svg"
   inkscape:version="1.0.1 (c497b03c, 2020-09-10)">
  <metadata
     id="metadata6266">
    <rdf:RDF>
      <cc:Work
         rdf:about="">
        <dc:format>image/svg+xml</dc:format>
        <dc:type
           rdf:resource="http://purl.org/dc/dcmitype/StillImage" />
      </cc:Work>
    </rdf:RDF>
  </metadata>
  <defs
     id="defs6264" />
  <sodipodi:namedview
     pagecolor="#ffffff"
     bordercolor="#666666"
     borderopacity="1"
     objecttolerance="10"
     gridtolerance="10"
     guidetolerance="10"
     inkscape:pageopacity="0"
     inkscape:pageshadow="2"
     inkscape:window-width="1792"
     inkscape:window-height="956"
     id="namedview6262"
     showgrid="false"
     inkscape:zoom="52.5"
     inkscape:cx="7.2857143"
     inkscape:cy="3.2857143"
     inkscape:window-x="0"
     inkscape:window-y="25"
     inkscape:window-maximized="1"
     inkscape:current-layer="svg6260"
     inkscape:document-rotation="0" />
  <path
     d="m 11.25,0.54 h -0.01 a 1.19,1.19 0 0 1 1.17,0.99 1.19,1.19 0 0 1 0.39,-0.07 1.19,1.19 0 0 1 0.82,2.06 1.19,1.19 0 0 1 -0.81,2.05 1.19,1.19 0 0 1 -0.4,-0.07 1.19,1.19 0 0 1 -0.76,0.86 v 2.3 H 14 L 12.96,14 H 9.6 L 8.54,8.65 h 2.31 V 6.35 A 1.19,1.19 0 0 1 10.13,5.61 1.19,1.19 0 0 1 9.83,5.65 1.19,1.19 0 0 1 8.64,4.46 1.19,1.19 0 0 1 9.12,3.5 1.19,1.19 0 0 1 8.64,2.55 1.19,1.19 0 0 1 9.83,1.36 1.19,1.19 0 0 1 10.11,1.4 1.19,1.19 0 0 1 11.25,0.54 Z"
     id="path6831" />
  <path
     d="M 1.31,0 H 5.53 L 6.84,4.81 H 3.98 v 8.07 H 5.33 V 14 H 1.52 V 12.88 H 2.86 V 4.81 H 0 Z"
     id="path6258" />
</svg>
