<svg xmlns="http://www.w3.org/2000/svg" height="14" width="14"><path d="m1.31,0L0,4.81h2.86v8.07H1.52V14H5.33v-1.12H3.98V4.81h2.86L5.53,0h-4.22zm9.94.54a1.19,1.19,0,00-1.14.86,1.19,1.19,0,00-.28-.04,1.19,1.19,0,00-1.19,1.19,1.19,1.19,0,00.48.95,1.19,1.19,0,00-.48.96,1.19,1.19,0,001.19,1.19,1.19,1.19,0,00.3-.04,1.19,1.19,0,00.72.74v2.3H8.54L9.6,14h3.36L14,8.66h-2.35V6.36a1.19,1.19,0,00.76-.86,1.19,1.19,0,00.4.07,1.19,1.19,0,00.81-2.05,1.19,1.19,0,00-.82-2.06,1.19,1.19,0,00-.39.07,1.19,1.19,0,00-1.17-.99zm.07,2.06a.88.88,0,110,0z" fill-rule="evenodd" stroke-width="4.45" stroke-linecap="square" paint-order="stroke fill markers"/></svg>