<svg xmlns="http://www.w3.org/2000/svg" height="14" width="14"><path d="m7,0L4,1.5C3.54,3,3.54,4,4,6h1l-1,8h6L9,6h1c.53-2,.53-3,0-4.5L7,0zM.72,1.47c-.17.08-.23.38,0,.47l1.87.75c.31.12.49-.35.19-.47l-1.88-.75c-.08-.03-.13-.03-.19,0zm12.37,0-1.88.75c-.31.12-.12.59.19.47l1.88-.75c.31-.12.12-.59-.19-.47zM4.5,2h5c.26,1,.26,2,0,3h-5c-.26-1-.26-2,0-3zM.75,3.25c-.33,0-.33.5,0,.5h2c.33,0,.33-.5,0-.5h-2zm10.5,0c-.33,0-.33.5,0,.5h2c.33,0,.33-.5,0-.5h-2zM2.59,4.38l-1.88.75c-.31.12-.12.59.19.47l1.88-.75c.31-.12.12-.59-.19-.47zm8.63,0c-.17.08-.23.38,0,.47l1.88.75c.31.12.49-.35.19-.47l-1.88-.75c-.08-.03-.13-.03-.19,0z"/></svg>