<svg xmlns="http://www.w3.org/2000/svg" height="14" width="14"><path d="m5.55,1a1.5,1.5,0,00-1.5,1.5,1.5,1.5,0,101.5-1.5zM4.33,4.51c-.39.05-.74.32-.87.71L2.16,9h2.07l.95-2.76L6.19,7.29c.02.02.04.02.05.04.02.02.04.03.06.04.03.02.06.04.09.05.02.01.03.02.05.02l1.92.54a.5.5,0,10.27-.96l-1.81-.51L5.17,4.8c-.01-.01-.03-.02-.04-.03a.91.91,0,00-.4-.24,1.02,1.02,0,00-.4-.03zM11.5,8A1.5,1.5,0,0010,9.5,1.5,1.5,0,1011.5,8zM1,10c-.55,0-1,.45-1,1s.45,1,1,1h8.2l2.06.95c.07.03.14.04.21.04.01,0,.03.01.04.01h2a.5.5,0,100-1h-1.94l-4.22-1.95a.47.47,0,00-.25-.03C7.06,10.02,7.03,10,7,10H1z" stroke-width=".75"/></svg>