<svg xmlns="http://www.w3.org/2000/svg" height="14" width="14"><path d="m4,.41C2.23,1.19.97,2.95.97,5S2.23,8.81,4,9.59V8.44C2.8,7.75,2,6.49,2,5c0-1.49.8-2.75,2-3.44V.41zm6,0v1.16c1.2.69,2,1.95,2,3.44s-.8,2.75-2,3.44v1.16c1.77-.78,3.03-2.55,3.03-4.59S11.77,1.19,10,.41zM5,2.19C3.84,2.6,3,3.7,3,5c0,1.3.84,2.4,2,2.81V6.72C4.4,6.37,4,5.74,4,5s.4-1.37,1-1.72V2.19zm4,0v1.09c.6.35,1,.98,1,1.72s-.4,1.37-1,1.72v1.09c1.16-.42,2-1.52,2-2.81s-.84-2.4-2-2.81zM7,4c-.6,0-1,.47-1,1v4l-2.89,5h1.16L6,11v3h2v-3l1.73,3h1.16L8,9V5c0-.5-.4-1-1-1z"/></svg>