<?xml version="1.0" encoding="UTF-8" standalone="no"?>
<svg
   xmlns:dc="http://purl.org/dc/elements/1.1/"
   xmlns:cc="http://creativecommons.org/ns#"
   xmlns:rdf="http://www.w3.org/1999/02/22-rdf-syntax-ns#"
   xmlns:svg="http://www.w3.org/2000/svg"
   xmlns="http://www.w3.org/2000/svg"
   xmlns:sodipodi="http://sodipodi.sourceforge.net/DTD/sodipodi-0.dtd"
   xmlns:inkscape="http://www.inkscape.org/namespaces/inkscape"
   width="20"
   height="20"
   version="1.1"
   id="svg2614"
   sodipodi:docname="miniature_golf.svg"
   inkscape:version="1.0.1 (c497b03c, 2020-09-10)">
  <metadata
     id="metadata2620">
    <rdf:RDF>
      <cc:Work
         rdf:about="">
        <dc:format>image/svg+xml</dc:format>
        <dc:type
           rdf:resource="http://purl.org/dc/dcmitype/StillImage" />
      </cc:Work>
    </rdf:RDF>
  </metadata>
  <defs
     id="defs2618" />
  <sodipodi:namedview
     pagecolor="#ffffff"
     bordercolor="#666666"
     borderopacity="1"
     objecttolerance="10"
     gridtolerance="10"
     guidetolerance="10"
     inkscape:pageopacity="0"
     inkscape:pageshadow="2"
     inkscape:window-width="1792"
     inkscape:window-height="956"
     id="namedview2616"
     showgrid="false"
     inkscape:zoom="36.75"
     inkscape:cx="10"
     inkscape:cy="10"
     inkscape:window-x="0"
     inkscape:window-y="25"
     inkscape:window-maximized="1"
     inkscape:current-layer="svg2614" />
  <path
     id="path2608"
     d="M 2.4667969 6.1289062 A 0.23 0.23 0 0 0 2.4492188 6.1308594 A 0.23 0.23 0 0 0 2.3105469 6.1894531 L 1.1894531 7.2402344 A 0.23 0.23 0 0 0 1.1992188 7.5800781 L 4.2382812 10.177734 L 4.1601562 10.689453 L 1.1992188 13.220703 A 0.23 0.23 0 0 0 1.1894531 13.560547 L 2.3105469 14.609375 A 0.23 0.23 0 0 0 2.6503906 14.580078 L 3.8085938 12.998047 L 3.0996094 17.660156 L 3.109375 17.650391 C 3.129375 17.730391 7.1109375 17.649219 7.2109375 17.699219 C 7.2709818 17.729241 6.9549375 15.191854 6.65625 12.845703 L 7.9296875 14.580078 A 0.23 0.23 0 0 0 8.2695312 14.609375 L 9.390625 13.560547 A 0.23 0.23 0 0 0 9.3808594 13.220703 L 6.3769531 10.654297 C 6.3634164 10.550382 6.3266095 10.260405 6.3183594 10.197266 L 9.3808594 7.5800781 A 0.23 0.23 0 0 0 9.390625 7.2402344 L 8.2695312 6.1894531 A 0.23 0.23 0 0 0 8.0996094 6.1308594 A 0.23 0.23 0 0 0 7.9296875 6.2207031 L 5.6992188 9.25 L 5.3007812 9 L 4.8671875 9.2597656 L 2.640625 6.2207031 A 0.23 0.23 0 0 0 2.4667969 6.1289062 z " />
  <path
     d="m13.58,5.48a1.2,1.2,0,00-.39-.91,1.3,1.3,0,00-.93-.37,1.27,1.27,0,00-.92.37,1.22,1.22,0,00-.38.91c0,.36.13.66.38.91a1.27,1.27,0,00.92.37c.36,0,.67-.12.93-.37a1.2,1.2,0,00.39-.91zM10.15,18.75c.28,0,.5-.13.68-.4l3.75-5.64.2.78-.56,4.22a.77.77,0,00.64.88.75.75,0,00.59-.13.71.71,0,00.31-.51l.58-4.32c.01-.15,0-.3-.04-.46l-1.28-5.08,3.33-.6a.61.61,0,00.42-.27.65.65,0,00.12-.49.75.75,0,00-.3-.44L10.93,1.25,10.23,2.27c-.17.24-.13.45.12.62.24.15.44.1.62-.12l.4-.6,6.22,4.09-5.08.92a.73.73,0,00-.45.29.52.52,0,00-.09.49l1.1,4.29-3.59,5.36a.77.77,0,00.13.93.75.75,0,00.55.23z"
     stroke-width=".02"
     id="path2612" />
</svg>
