<?xml version="1.0" encoding="UTF-8" standalone="no"?>
<svg
   xmlns:dc="http://purl.org/dc/elements/1.1/"
   xmlns:cc="http://creativecommons.org/ns#"
   xmlns:rdf="http://www.w3.org/1999/02/22-rdf-syntax-ns#"
   xmlns:svg="http://www.w3.org/2000/svg"
   xmlns="http://www.w3.org/2000/svg"
   xmlns:sodipodi="http://sodipodi.sourceforge.net/DTD/sodipodi-0.dtd"
   xmlns:inkscape="http://www.inkscape.org/namespaces/inkscape"
   width="14"
   height="14"
   version="1.1"
   id="svg2005"
   sodipodi:docname="motorcycle_parking.svg"
   inkscape:version="1.0.1 (c497b03c, 2020-09-10)">
  <metadata
     id="metadata2011">
    <rdf:RDF>
      <cc:Work
         rdf:about="">
        <dc:format>image/svg+xml</dc:format>
        <dc:type
           rdf:resource="http://purl.org/dc/dcmitype/StillImage" />
      </cc:Work>
    </rdf:RDF>
  </metadata>
  <defs
     id="defs2009" />
  <sodipodi:namedview
     pagecolor="#ffffff"
     bordercolor="#666666"
     borderopacity="1"
     objecttolerance="10"
     gridtolerance="10"
     guidetolerance="10"
     inkscape:pageopacity="0"
     inkscape:pageshadow="2"
     inkscape:window-width="1792"
     inkscape:window-height="957"
     id="namedview2007"
     showgrid="false"
     inkscape:zoom="52.5"
     inkscape:cx="7"
     inkscape:cy="7"
     inkscape:window-x="0"
     inkscape:window-y="25"
     inkscape:window-maximized="1"
     inkscape:current-layer="svg2005" />
  <path
     id="path2586"
     d="M 1 0 L 1 10 L 3 10 L 3 6.5 L 5.5 6.5 C 7.48 6.5 9 5.5 9 3.25 C 9 1 7.4907031 0 5.9707031 0 L 1 0 z M 3 2 L 5.5 2 C 6.46 2 7 2.53 7 3.25 C 7 3.98 6.37 4.5 5.5 4.5 L 3 4.5 L 3 2 z " />
  <path
     id="path2582"
     d="M 10.050781 5.9902344 C 9.79375 6.0458008 10.610547 8.025 10.529297 9 C 10.389297 9.16 10.120391 9.5601563 9.9003906 9.6601562 C 9.8203906 9.7001562 9.6603906 9.7597656 9.6503906 9.7597656 A 0.64 0.64 0 0 0 9.5800781 9.5605469 C 9.5300781 9.4805469 9.1 8.6098437 9 8.5898438 C 7.28 8.5698438 6.8 8.5603125 5 8.5703125 L 4.1601562 9.4003906 A 0.44 0.44 0 0 0 4.0605469 9.5800781 A 0.48 0.48 0 0 0 4.1796875 9.9804688 L 4.1992188 10 L 4.5 10.009766 C 4.96 10.019766 5.2290625 10.050625 5.5390625 10.140625 C 6.2390625 10.340625 6.6495312 10.779219 6.7695312 11.449219 A 3.04 3.04 0 0 1 6.7792969 12.279297 C 6.7492969 12.459297 6.7490625 12.439453 6.7890625 12.439453 A 0.11 0.11 0 0 0 6.8300781 12.439453 C 6.8300781 12.439453 7.1908594 12.429688 7.6308594 12.429688 C 8.3708594 12.429688 8.5297656 12.420391 8.7597656 12.400391 C 9.2697656 12.360391 9.640625 12.259609 9.890625 12.099609 C 9.920625 12.079609 9.9795313 12.04 10.019531 12 L 10.099609 11.929688 L 10.119141 11.869141 C 10.299141 11.049141 10.669766 10.53 11.259766 10.25 C 11.529766 10.12 11.850234 10.049297 12.240234 10.029297 L 12.349609 10.019531 L 12.380859 9.9609375 A 1.83 1.83 0 0 0 12.539062 9.5390625 A 0.78 0.78 0 0 0 12.560547 9.3105469 C 12.560547 9.1705469 12.559062 9.1598437 12.539062 9.0898438 C 12.479062 8.8898438 12.339375 8.7298437 12.109375 8.5898438 L 12.099609 8.5996094 C 10.745859 6.6158594 10.205 5.9568945 10.050781 5.9902344 z M 12.029297 10.189453 A 1.79 1.79 0 0 0 10.640625 10.990234 A 1.56 1.56 0 0 0 10.470703 12.359375 A 1.72 1.72 0 0 0 11.589844 13.410156 A 1.99 1.99 0 0 0 12.310547 13.490234 C 12.920547 13.440234 13.470234 13.090078 13.740234 12.580078 C 14.070234 11.960078 13.949453 11.210938 13.439453 10.710938 A 1.83 1.83 0 0 0 12.029297 10.199219 L 12.029297 10.189453 z M 4.9003906 10.199219 L 4.890625 10.210938 C 4.730625 10.210938 4.6696094 10.210703 4.5996094 10.220703 C 4.2196094 10.280703 3.900625 10.429688 3.640625 10.679688 C 3.370625 10.929688 3.200625 11.239609 3.140625 11.599609 A 1.84 1.84 0 0 0 3.1503906 12.109375 C 3.2903906 12.819375 3.859375 13.350703 4.609375 13.470703 A 2.46 2.46 0 0 0 5.0800781 13.490234 A 1.98 1.98 0 0 0 5.6601562 13.339844 C 6.2001563 13.099844 6.5603906 12.640078 6.6503906 12.080078 C 6.6703906 11.960078 6.6703906 11.739141 6.6503906 11.619141 C 6.5503906 10.949141 6.0300781 10.410234 5.3300781 10.240234 C 5.1700781 10.210234 5.1103906 10.199219 4.9003906 10.199219 z M 12.099609 10.75 C 12.689609 10.72 13.200781 11.110156 13.300781 11.660156 C 13.320781 11.760156 13.309063 11.960547 13.289062 12.060547 C 13.179063 12.500547 12.809844 12.830391 12.339844 12.900391 C 12.249844 12.920391 12.019922 12.910625 11.919922 12.890625 C 11.839922 12.880625 11.710625 12.830781 11.640625 12.800781 C 11.560625 12.760781 11.439375 12.679375 11.359375 12.609375 C 11.049375 12.329375 10.930781 11.919297 11.050781 11.529297 A 1.28 1.28 0 0 1 11.230469 11.189453 A 1.18 1.18 0 0 1 12.099609 10.759766 L 12.099609 10.75 z M 4.9101562 10.759766 L 4.9199219 10.759766 A 1.09 1.09 0 0 1 5.3007812 10.820312 A 1.13 1.13 0 0 1 6.0195312 11.529297 C 6.2195313 12.159297 5.799375 12.780391 5.109375 12.900391 C 5.019375 12.920391 4.8207031 12.920391 4.7207031 12.900391 C 4.5307031 12.870391 4.3396875 12.789922 4.1796875 12.669922 C 3.9696875 12.509922 3.8095312 12.259766 3.7695312 12.009766 C 3.7495312 11.909766 3.7592969 11.709141 3.7792969 11.619141 C 3.8292969 11.409141 3.9200781 11.239844 4.0800781 11.089844 C 4.1700781 10.999844 4.2608594 10.940859 4.3808594 10.880859 C 4.5508594 10.790859 4.7001563 10.759766 4.9101562 10.759766 z " />
</svg>
