<svg xmlns="http://www.w3.org/2000/svg" width="14" height="14"><path d="m12.11,8.59c.23.14.37.3.43.5.02.07.02.08.02.22a.78.78,0,01-.02.23,1.83,1.83,0,01-.16.42l-.03.06-.11.01c-.39.02-.71.09-.98.22-.59.28-.96.8-1.14,1.62l-.02.06-.08.07c-.04.04-.1.08-.13.1-.25.16-.62.26-1.13.3-.23.02-.39.03-1.13.03-.44,0-.8.01-.8.01a.11.11,0,01-.04,0c-.04,0-.04.02-.01-.16a3.04,3.04,0,00-.01-.83c-.12-.67-.53-1.11-1.23-1.31-.31-.09-.58-.12-1.04-.13l-.3-.01-.02-.02a.48.48,0,01-.12-.4.44.44,0,01.1-.18L5,8.57c1.8-.01,2.28,0,4,.02.1.02.53.89.58.97a.64.64,0,01.07.2c.01,0,.17-.06.25-.1.22-.1.49-.5.63-.66.13-1.56-2.04-5.69,1.57-.4zm-.08,1.61a1.83,1.83,0,011.41.51c.51.5.63,1.25.3,1.87-.27.51-.82.86-1.43.91a1.99,1.99,0,01-.72-.08,1.72,1.72,0,01-1.12-1.05,1.56,1.56,0,01.17-1.37,1.79,1.79,0,011.39-.8zm-7.13,0c.21,0,.27.01.43.04.7.17,1.22.71,1.32,1.38.02.12.02.34,0,.46-.09.56-.45,1.02-.99,1.26a1.98,1.98,0,01-.58.15,2.46,2.46,0,01-.47-.02c-.75-.12-1.32-.65-1.46-1.36a1.84,1.84,0,01-.01-.51c.06-.36.23-.67.5-.92.26-.25.58-.4.96-.46.07-.01.13-.01.29-.01zm7.2.56a1.18,1.18,0,00-.87.43,1.28,1.28,0,00-.18.34c-.12.39,0,.8.31,1.08.08.07.2.15.28.19.07.03.2.08.28.09.1.02.33.03.42.01.47-.07.84-.4.95-.84.02-.1.03-.3.01-.4-.1-.55-.61-.94-1.2-.91zm-7.19,0c-.21,0-.36.03-.53.12-.12.06-.21.12-.3.21-.16.15-.25.32-.3.53-.02.09-.03.29-.01.39.04.25.2.5.41.66.16.12.35.2.54.23.1.02.3.02.39,0,.69-.12,1.11-.74.91-1.37a1.13,1.13,0,00-.72-.71,1.09,1.09,0,00-.38-.06zM1,0v10h2V6.5h2.5c1.98,0,3.5-1,3.5-3.25S7.49,0,5.97,0zm2,2h2.5C6.46,2,7,2.53,7,3.25,7,3.98,6.37,4.5,5.5,4.5H3z" fill="#1a1a1a" fill-rule="evenodd"/></svg>