<?xml version="1.0" encoding="UTF-8" standalone="no"?>
<svg
   xmlns:dc="http://purl.org/dc/elements/1.1/"
   xmlns:cc="http://creativecommons.org/ns#"
   xmlns:rdf="http://www.w3.org/1999/02/22-rdf-syntax-ns#"
   xmlns:svg="http://www.w3.org/2000/svg"
   xmlns="http://www.w3.org/2000/svg"
   xmlns:sodipodi="http://sodipodi.sourceforge.net/DTD/sodipodi-0.dtd"
   xmlns:inkscape="http://www.inkscape.org/namespaces/inkscape"
   height="14"
   width="14"
   version="1.1"
   id="svg9236"
   sodipodi:docname="musical_instrument.svg"
   inkscape:version="1.0.1 (c497b03c, 2020-09-10)">
  <metadata
     id="metadata9242">
    <rdf:RDF>
      <cc:Work
         rdf:about="">
        <dc:format>image/svg+xml</dc:format>
        <dc:type
           rdf:resource="http://purl.org/dc/dcmitype/StillImage" />
      </cc:Work>
    </rdf:RDF>
  </metadata>
  <defs
     id="defs9240" />
  <sodipodi:namedview
     pagecolor="#ffffff"
     bordercolor="#666666"
     borderopacity="1"
     objecttolerance="10"
     gridtolerance="10"
     guidetolerance="10"
     inkscape:pageopacity="0"
     inkscape:pageshadow="2"
     inkscape:window-width="1792"
     inkscape:window-height="956"
     id="namedview9238"
     showgrid="false"
     inkscape:zoom="52.5"
     inkscape:cx="7"
     inkscape:cy="7"
     inkscape:window-x="0"
     inkscape:window-y="25"
     inkscape:window-maximized="1"
     inkscape:current-layer="svg9236" />
  <path
     d="M 0,10 V 1 C 3,1 3,5 5,5 V 6 C 3,6 3,10 0,10 Z"
     id="path9809" />
  <path
     d="M 7,3 H 8 V 4.99 L 9,4.98 V 3 h 1 V 4.97 L 13,4.95 C 13,4 14,4 14,4 V 7 C 14,7 13,7 13,6 H 10 V 8 H 9 V 6 H 8 V 8 H 7 V 6 H 5 V 5 L 7,4.99 Z"
     id="path9807" />
  <path
     d="m 11,6 c 1,0 2,1 2,2 v 2 c 0,0.95 -1,2 -2,2 H 6 C 5,12 4,11 4,10 V 8 C 4,7 5,6 6,6 H 7 C 5,7 5,7 5,9 5,9.56 5.52,9.96 6,10 h 5 c 0.61,0 1,-0.44 1,-1 0,-2 0,-2 -2,-3.01 z"
     id="path9234" />
</svg>
