<?xml version="1.0" encoding="UTF-8" standalone="no"?>
<svg
   xmlns:dc="http://purl.org/dc/elements/1.1/"
   xmlns:cc="http://creativecommons.org/ns#"
   xmlns:rdf="http://www.w3.org/1999/02/22-rdf-syntax-ns#"
   xmlns:svg="http://www.w3.org/2000/svg"
   xmlns="http://www.w3.org/2000/svg"
   xmlns:sodipodi="http://sodipodi.sourceforge.net/DTD/sodipodi-0.dtd"
   xmlns:inkscape="http://www.inkscape.org/namespaces/inkscape"
   height="14"
   width="14"
   version="1.1"
   id="svg8641"
   sodipodi:docname="perfumery.svg"
   inkscape:version="1.0.1 (c497b03c, 2020-09-10)">
  <metadata
     id="metadata8647">
    <rdf:RDF>
      <cc:Work
         rdf:about="">
        <dc:format>image/svg+xml</dc:format>
        <dc:type
           rdf:resource="http://purl.org/dc/dcmitype/StillImage" />
      </cc:Work>
    </rdf:RDF>
  </metadata>
  <defs
     id="defs8645" />
  <sodipodi:namedview
     pagecolor="#ffffff"
     bordercolor="#666666"
     borderopacity="1"
     objecttolerance="10"
     gridtolerance="10"
     guidetolerance="10"
     inkscape:pageopacity="0"
     inkscape:pageshadow="2"
     inkscape:window-width="1792"
     inkscape:window-height="956"
     id="namedview8643"
     showgrid="false"
     inkscape:zoom="52.5"
     inkscape:cx="7"
     inkscape:cy="5.593006"
     inkscape:window-x="0"
     inkscape:window-y="25"
     inkscape:window-maximized="1"
     inkscape:current-layer="svg8641" />
  <path
     d="M 5,6 C 3,6 1.47,9 1.47,11 1.47,12 4,14 5,14 h 4 c 1,0 3.41,-2 3.41,-3 C 12.41,9 11,6 9,6 Z"
     id="path9230" />
  <path
     id="path9228"
     d="M 11.5 0.40039062 C 10.325671 0.40039062 9.3459571 1.0822946 9.078125 2 L 8 2 C 8 1 8 1 7 1 C 6.03 1.02 6 1 6 2 L 6 5.4199219 L 8 5.4003906 L 8 3 L 9.078125 3 C 9.3459571 3.9177054 10.325671 4.5996094 11.5 4.5996094 C 12.88 4.5996094 14 3.66 14 2.5 C 14 1.34 12.88 0.40039062 11.5 0.40039062 z " />
  <path
     d="M 0,2 V 3 H 1 V 2 Z"
     id="path9226" />
  <path
     d="M 2,2 V 3 H 3 V 2 Z"
     id="path9224" />
  <path
     d="M 4,2 V 3 H 5 V 2 Z"
     id="path9222" />
  <path
     d="M 3,4 V 5 H 4 V 4 Z"
     id="path9220" />
  <path
     d="M 1,4 V 5 H 2 V 4 Z"
     id="path9218" />
  <path
     d="M 1,0 V 1 H 2 V 0 Z"
     id="path9216" />
  <path
     d="M 3,0 V 1 H 4 V 0 Z"
     id="path9214" />
</svg>
