<svg xmlns="http://www.w3.org/2000/svg" width="14" height="14"><path d="m1.65,11c-.43,0-1.06.36-1.64.65L0,13.68C.61,13.39,1.26,13,1.65,13c.67,0,1.95,1,2.65,1,.63,0,1.98-1,2.65-1,.67,0,2.02,1,2.65,1,.67,0,2.02-1,2.65-1,.39,0,1.07.39,1.69.69L14,11.66c-.6-.3-1.3-.69-1.73-.66-.64,0-1.94,1-2.65,1-.59,0-1.98-1-2.65-1s-2.06,1-2.65,1c-.63,0-1.95-1-2.65-1zM4.75,4C3.94,4,3,5,3,6.5V10h1.25V6c0-.6.23-.7.5-.7V10h4.5V5.3c.27,0,.46.1.5.7v4H11V6.5C11,5,10.06,4,9.25,4zM7,.25a1.75,1.75,0,100,3.5,1.75,1.75,0,000-3.5z"/></svg>