<svg xmlns="http://www.w3.org/2000/svg" width="14" height="14"><path d="m3.5,0a2.5,2.5,0,100,5c.93,0,1.72-.5,2.16-1.25H7l1-1,1,1,1-1,1,1h.5L13,2.5,11.5,1.25H5.66A2.48,2.48,0,003.5,0zm-1,2a.5.5,0,110,1,.5.5,0,010-1zM8,5.44l.03,1L9,7v1H5V7h.5c1,0,1-1,0-1h-2c-1,0-1,1,0,1H4v1l-.56,1.38c-.04,0-.08,0-.12,0A2.32,2.32,0,001,11.69,2.32,2.32,0,003.31,14a2.32,2.32,0,002.31-2.31c0-.24-.06-.47-.13-.69H7l2.16-2,.28.72a2.37,2.37,0,00-1.06,1.97A2.32,2.32,0,0010.69,14c1.27,0,2.34-1.04,2.34-2.31,0-1.27-1.07-2.31-2.34-2.31-.04,0-.08,0-.12,0L10,8V6.63zM4.84,9h3.11L6.65,10.25H5.09c-.15-.19-.33-.4-.53-.53zm-1.53,1.5A1.18,1.18,0,014.5,11.69a1.18,1.18,0,01-1.19,1.19,1.18,1.18,0,01-1.19-1.19A1.18,1.18,0,013.31,10.5zm7.38,0a1.18,1.18,0,011.19,1.19,1.18,1.18,0,01-1.19,1.19c-.66,0-1.16-.53-1.16-1.19,0-.66.49-1.19,1.16-1.19z"/></svg>