<svg xmlns="http://www.w3.org/2000/svg" viewBox="0 0 14 14"><path d="M.83 10.095H4.2L3.755 14H1.209zM1.368.07C-2.63 2.67 4.593 3.095.15 6.18l.878-.011C5.195 2.877-2.067 2.636 2.332.043z"/><path d="M4.402.07C.404 2.67 7.627 3.097 3.184 6.181l.878-.011C8.229 2.878.967 2.637 5.366.043z"/><circle cx="10.209" cy="2.224" r="1.392" /><path  d="M10.591 12.1H14v.729h-3.409z"/><path d="M11.426 4.063a.669.669 0 00-.637.378c-.008.013-.02.022-.027.036L9.559 6.844l-2.483.85a.48.48 0 10.313.908l2.642-.903a.475.475 0 00.285-.277c.013-.018.031-.03.041-.05l.748-1.476L12.4 9.498H9.375a.629.629 0 00-.527.297l-2.49 3.01a.763.763 0 00.05 1.013.619.619 0 00.93-.047l2.474-2.988h3.39c.116.025.237.03.359-.013.02-.008.035-.024.054-.034.03-.011.053-.03.08-.047.035-.022.073-.041.102-.07a.633.633 0 00.223-.478.627.627 0 00-.09-.309L12.012 4.5a.66.66 0 00-.586-.438z" /></svg>