<?xml version="1.0" encoding="UTF-8" standalone="no"?>
<svg
   xmlns:dc="http://purl.org/dc/elements/1.1/"
   xmlns:cc="http://creativecommons.org/ns#"
   xmlns:rdf="http://www.w3.org/1999/02/22-rdf-syntax-ns#"
   xmlns:svg="http://www.w3.org/2000/svg"
   xmlns="http://www.w3.org/2000/svg"
   xmlns:sodipodi="http://sodipodi.sourceforge.net/DTD/sodipodi-0.dtd"
   xmlns:inkscape="http://www.inkscape.org/namespaces/inkscape"
   version="1.1"
   id="soccer"
   width="15"
   height="15"
   viewBox="0 0 15 15"
   sodipodi:docname="soccer.svg"
   inkscape:version="1.0.1 (c497b03c, 2020-09-10)">
  <metadata
     id="metadata851">
    <rdf:RDF>
      <cc:Work
         rdf:about="">
        <dc:format>image/svg+xml</dc:format>
        <dc:type
           rdf:resource="http://purl.org/dc/dcmitype/StillImage" />
      </cc:Work>
    </rdf:RDF>
  </metadata>
  <defs
     id="defs849" />
  <sodipodi:namedview
     pagecolor="#ffffff"
     bordercolor="#666666"
     borderopacity="1"
     objecttolerance="10"
     gridtolerance="10"
     guidetolerance="10"
     inkscape:pageopacity="0"
     inkscape:pageshadow="2"
     inkscape:window-width="1792"
     inkscape:window-height="956"
     id="namedview847"
     showgrid="false"
     inkscape:zoom="49"
     inkscape:cx="7.5"
     inkscape:cy="7.5"
     inkscape:window-x="0"
     inkscape:window-y="25"
     inkscape:window-maximized="1"
     inkscape:current-layer="soccer" />
  <path
     d="M 12.84,6.09 10.93,4.18 v 0 C 10.8399,4.0675 10.7041,4.0014 10.56,4 H 3.5 C 3.2239,4 3,4.2239 3,4.5 3,4.7761 3.2239,5 3.5,5 H 6.2 L 3,11.3 v 0 c -0.0138,0.066 -0.0138,0.134 0,0.2 -0.058,0.2761 0.1189,0.547 0.395,0.605 C 3.6711,12.163 3.942,11.9861 4,11.71 v 0 L 5,10 h 2 l -1.93,4.24 v 0 C 5.0228,14.3184 4.9986,14.4085 5,14.5 4.9448,14.7761 5.1239,15.0448 5.4,15.1 5.6761,15.1552 5.9448,14.9761 6,14.7 v 0 L 10.7,5.32 12.14,6.8 C 12.351,6.9782 12.6664,6.9516 12.8446,6.7407 13.0037,6.5523 13.0018,6.2761 12.84,6.09 Z"
     id="path1418" />
  <path
     d="m 11,11 c -0.5523,0 -1,0.4477 -1,1 0,0.5523 0.4477,1 1,1 0.5523,0 1,-0.4477 1,-1 0,-0.5523 -0.4477,-1 -1,-1 z"
     id="path1416" />
  <path
     d="M 11,1.5 C 11,0.6716 10.3284,0 9.5,0 8.6716,0 8,0.6716 8,1.5 8,2.3284 8.6716,3 9.5,3 10.3284,3 11,2.3284 11,1.5 Z"
     id="path844" />
</svg>
