<?xml version="1.0" encoding="utf-8"?>
<!-- Generator: Adobe Illustrator 24.3.0, SVG Export Plug-In . SVG Version: 6.00 Build 0)  -->
<svg version="1.1" id="Layer_1" xmlns="http://www.w3.org/2000/svg" xmlns:xlink="http://www.w3.org/1999/xlink" x="0px" y="0px"
	 viewBox="0 0 15 15" style="enable-background:new 0 0 15 15;" xml:space="preserve">
<style type="text/css">
	.st0{fill-rule:evenodd;clip-rule:evenodd;}
</style>
<g id="surface1441">
	<path class="st0" d="M9.1,2.5c0-0.5-0.5-1-1.2-1S6.7,2,6.7,2.5s0.5,1,1.2,1S9.1,3.1,9.1,2.5z"/>
	<g>
		<path class="st0" d="M4,3.2l1.4,0.3L4.6,6.4L3.2,6.2L4,3.2z"/>
		<path d="M4.6,7c0,0-0.1,0-0.1,0L3.1,6.7C3,6.7,2.8,6.6,2.7,6.5C2.7,6.3,2.6,6.2,2.7,6l0.8-2.9c0.1-0.3,0.4-0.5,0.6-0.4L5.5,3
			c0.1,0,0.3,0.1,0.4,0.2S6,3.5,5.9,3.7L5.2,6.6C5.1,6.8,4.9,7,4.6,7z M3.9,5.7l0.4,0.1l0.5-1.9L4.4,3.9L3.9,5.7z"/>
	</g>
	<path d="M10,13.4C10,13.4,10,13.4,10,13.4c-0.2,0-0.3-0.2-0.2-0.3L11.6,5c0-0.1,0.1-0.2,0.3-0.2c0.1,0,0.2,0.2,0.2,0.3l-1.9,8.1
		C10.2,13.4,10.1,13.4,10,13.4z"/>
	<path d="M10.7,7.5c0,0-0.1,0-0.1,0L8.6,7C8.5,7,8.4,6.9,8.3,6.7L7.7,4.9C7.6,4.7,7.7,4.4,8,4.3c0.2-0.1,0.5,0,0.6,0.3l0.5,1.6
		l1.7,0.4c0.2,0.1,0.4,0.3,0.3,0.6C11.1,7.3,10.9,7.5,10.7,7.5z"/>
	<path d="M4.5,13.5c-0.1,0-0.1,0-0.2,0c-0.4-0.1-0.6-0.5-0.5-0.9l1.9-6C5.9,6.2,6.2,6,6.6,6.1C7,6.2,7.2,6.6,7.1,7l-1.9,6
		C5.1,13.3,4.8,13.5,4.5,13.5z"/>
	<path d="M8.5,13.5c-0.3,0-0.6-0.2-0.7-0.5l-1.7-6C6,6.6,6.3,6.2,6.6,6.1C7,6,7.4,6.2,7.5,6.5l1.7,6c0.1,0.4-0.1,0.7-0.5,0.9
		C8.7,13.4,8.6,13.5,8.5,13.5z"/>
	<path d="M6.7,8.6c-0.1,0-0.2,0-0.3,0c-0.6-0.2-1-0.8-0.8-1.4l0.8-2.6c0.2-0.6,0.8-1,1.4-0.8c0.6,0.2,1,0.8,0.8,1.4L7.8,7.8
		C7.6,8.3,7.2,8.6,6.7,8.6z"/>
</g>
</svg>
