<?xml version="1.0" encoding="utf-8"?>
<!-- Generator: Adobe Illustrator 24.3.0, SVG Export Plug-In . SVG Version: 6.00 Build 0)  -->
<svg version="1.1" id="Layer_1" xmlns="http://www.w3.org/2000/svg" xmlns:xlink="http://www.w3.org/1999/xlink" x="0px" y="0px"
	 viewBox="0 0 15 15" style="enable-background:new 0 0 15 15;" xml:space="preserve">
<g id="surface1006">
	<polygon points="8,12.8 7,12.8 7,5.7 5.7,12.1 4.8,11.9 6.4,4.4 3.4,10 2.6,9.5 5.6,4 1.8,7.8 1.2,7.2 5.6,2.7 0.2,4.9 -0.2,4.1 
		7.3,1.1 7.5,1.5 7.7,1.1 15.2,4.1 14.8,4.9 9.4,2.7 13.8,7.2 13.2,7.8 9.4,4 12.4,9.5 11.6,10 8.6,4.4 10.2,11.9 9.3,12.1 8,5.7 	
		"/>
</g>
</svg>
