<?xml version="1.0" encoding="utf-8"?>
<!-- Generator: Adobe Illustrator 24.3.0, SVG Export Plug-In . SVG Version: 6.00 Build 0)  -->
<svg version="1.1" id="Layer_1" xmlns="http://www.w3.org/2000/svg" xmlns:xlink="http://www.w3.org/1999/xlink" x="0px" y="0px"
	 viewBox="0 0 15 15" style="enable-background:new 0 0 15 15;" xml:space="preserve">
<g id="surface511">
	<polygon points="4.1,15.2 1.1,7.7 1.5,7.5 1.1,7.3 4.1,-0.2 4.9,0.2 2.7,5.6 7.2,1.2 7.8,1.8 4,5.6 9.5,2.6 10,3.4 4.4,6.4 
		11.9,4.8 12.1,5.7 5.7,7 12.8,7 12.8,8 5.7,8 12.1,9.3 11.9,10.2 4.4,8.6 10,11.6 9.5,12.4 4,9.4 7.8,13.2 7.2,13.8 2.7,9.4 
		4.9,14.8 	"/>
</g>
</svg>
