<?xml version="1.0" encoding="UTF-8" standalone="no"?>
<svg
   xmlns:dc="http://purl.org/dc/elements/1.1/"
   xmlns:cc="http://creativecommons.org/ns#"
   xmlns:rdf="http://www.w3.org/1999/02/22-rdf-syntax-ns#"
   xmlns:svg="http://www.w3.org/2000/svg"
   xmlns="http://www.w3.org/2000/svg"
   xmlns:sodipodi="http://sodipodi.sourceforge.net/DTD/sodipodi-0.dtd"
   xmlns:inkscape="http://www.inkscape.org/namespaces/inkscape"
   id="tennis"
   width="15"
   height="15"
   viewBox="0 0 15 15"
   version="1.1"
   sodipodi:docname="tennis.svg"
   inkscape:version="1.0.1 (c497b03c, 2020-09-10)">
  <metadata
     id="metadata1427">
    <rdf:RDF>
      <cc:Work
         rdf:about="">
        <dc:format>image/svg+xml</dc:format>
        <dc:type
           rdf:resource="http://purl.org/dc/dcmitype/StillImage" />
      </cc:Work>
    </rdf:RDF>
  </metadata>
  <defs
     id="defs1425" />
  <sodipodi:namedview
     pagecolor="#ffffff"
     bordercolor="#666666"
     borderopacity="1"
     objecttolerance="10"
     gridtolerance="10"
     guidetolerance="10"
     inkscape:pageopacity="0"
     inkscape:pageshadow="2"
     inkscape:window-width="1792"
     inkscape:window-height="956"
     id="namedview1423"
     showgrid="false"
     inkscape:zoom="49"
     inkscape:cx="7.5"
     inkscape:cy="7.5"
     inkscape:window-x="0"
     inkscape:window-y="25"
     inkscape:window-maximized="1"
     inkscape:current-layer="tennis" />
  <path
     id="path2002"
     d="M 10.919922 1.0429688 C 9.5094287 1.0513584 7.9267188 1.7787344 6.8476562 2.9199219 A 6.8282 6.8282 0 0 0 4.96875 7.3203125 A 5.7275 5.7275 0 0 1 4.3984375 10.039062 A 0.6814 0.6814 0 0 0 3.7285156 10.210938 L 1.2382812 12.710938 A 0.6941 0.6941 0 0 0 1.2382812 13.689453 L 1.3085938 13.759766 A 0.7051 0.7051 0 0 0 2.2890625 13.759766 L 4.7890625 11.269531 A 0.683 0.683 0 0 0 4.96875 10.609375 A 8.5694 8.5694 0 0 1 8.0878906 10.029297 A 6.5487 6.5487 0 0 0 12.078125 8.1601562 C 14.108125 6.1301563 14.579506 3.3185406 13.128906 1.8691406 C 12.550731 1.2914156 11.766218 1.037935 10.919922 1.0429688 z M 10.927734 1.8300781 A 2.3071 2.3071 0 0 1 12.568359 2.4394531 A 2.548 2.548 0 0 1 13.068359 4.8808594 L 10.119141 1.9199219 A 3.8648 3.8648 0 0 1 10.927734 1.8300781 z M 9.7890625 2.0195312 L 12.988281 5.2207031 A 5.5656 5.5656 0 0 1 12.507812 6.3203125 L 8.6992188 2.5 A 4.1707 4.1707 0 0 1 9.7890625 2.0195312 z M 8.4277344 2.6601562 L 12.347656 6.5800781 A 5.7187 5.7187 0 0 1 11.6875 7.4101562 L 7.5878906 3.3105469 A 5.5714 5.5714 0 0 1 8.4277344 2.6601562 z M 7.3789062 3.5195312 L 11.478516 7.6191406 A 5.6869 5.6869 0 0 1 10.578125 8.3691406 L 6.6386719 4.4199219 A 5.2032 5.2032 0 0 1 7.3789062 3.5195312 z M 6.46875 4.6796875 L 10.318359 8.5292969 A 5.5093 5.5093 0 0 1 9.2382812 9.0292969 L 5.9785156 5.7597656 A 5.1623 5.1623 0 0 1 6.46875 4.6796875 z M 5.8789062 6.0898438 L 8.9179688 9.1308594 A 2.8522 2.8522 0 0 1 6.359375 8.640625 A 2.6485 2.6485 0 0 1 5.8789062 6.0898438 z " />
</svg>
