<svg xmlns="http://www.w3.org/2000/svg" height="14" width="14"><path d="m8.07.05a5.33,5.33,0,00-1.64.35l.85.85c1.39-.37,2.9-.04,4,1.05,1.09,1.09,1.43,2.6,1.05,3.98l.85.85c.73-1.86.36-4.08-1.15-5.58A5.17,5.17,0,008.63.05a5.38,5.38,0,00-.56,0zm-.02,2.35a3.19,3.19,0,00-1.38.3l.8.8a2.06,2.06,0,012,.53A2.04,2.04,0,0110,6.02l.8.8c.54-1.15.36-2.58-.6-3.52a3.08,3.08,0,00-2.16-.9zm-5.05.35a5.23,5.23,0,000,7.42,5.27,5.27,0,007.44,0L7.21,6.96,8.57,5.61l-.73-.73-1.36,1.35zm-.64,8.18-1.9,3.11h7.27v-1.43a6.26,6.26,0,01-5.37-1.68z"/></svg>