<svg xmlns="http://www.w3.org/2000/svg" width="14" height="14"><path d="m4,.41C2.23,1.19.97,2.95.97,5S2.23,8.81,4,9.59V8.44C2.8,7.75,2,6.49,2,5c0-1.49.8-2.75,2-3.44V.41zm6,0v1.16c1.2.69,2,1.95,2,3.44s-.8,2.75-2,3.44v1.16c1.77-.78,3.03-2.55,3.03-4.59S11.77,1.19,10,.41zM5,2.19C3.84,2.6,3,3.7,3,5c0,1.3.84,2.4,2,2.81V6.72C4.4,6.37,4,5.74,4,5s.4-1.37,1-1.72V2.19zm4,0v1.09c.6.35,1,.98,1,1.72s-.4,1.37-1,1.72v1.09c1.16-.42,2-1.52,2-2.81s-.84-2.4-2-2.81zM7,3l-1.8,7L2.6,14H4l.67-1h4.67L10,14h1.4l-2.6-4L7,3zm0,4,.75,3h-1.5L7,7zm-1,4h2l.67,1H5.33L6,11z"/></svg>