<?xml version="1.0" encoding="UTF-8" standalone="no"?>
<svg
   xmlns:dc="http://purl.org/dc/elements/1.1/"
   xmlns:cc="http://creativecommons.org/ns#"
   xmlns:rdf="http://www.w3.org/1999/02/22-rdf-syntax-ns#"
   xmlns:svg="http://www.w3.org/2000/svg"
   xmlns="http://www.w3.org/2000/svg"
   xmlns:sodipodi="http://sodipodi.sourceforge.net/DTD/sodipodi-0.dtd"
   xmlns:inkscape="http://www.inkscape.org/namespaces/inkscape"
   width="14"
   height="14"
   version="1.1"
   id="svg4321"
   sodipodi:docname="travel_agency.svg"
   inkscape:version="1.0.1 (c497b03c, 2020-09-10)">
  <metadata
     id="metadata4327">
    <rdf:RDF>
      <cc:Work
         rdf:about="">
        <dc:format>image/svg+xml</dc:format>
        <dc:type
           rdf:resource="http://purl.org/dc/dcmitype/StillImage" />
      </cc:Work>
    </rdf:RDF>
  </metadata>
  <defs
     id="defs4325" />
  <sodipodi:namedview
     pagecolor="#ffffff"
     bordercolor="#666666"
     borderopacity="1"
     objecttolerance="10"
     gridtolerance="10"
     guidetolerance="10"
     inkscape:pageopacity="0"
     inkscape:pageshadow="2"
     inkscape:window-width="1792"
     inkscape:window-height="957"
     id="namedview4323"
     showgrid="false"
     inkscape:zoom="52.5"
     inkscape:cx="7"
     inkscape:cy="7"
     inkscape:window-x="0"
     inkscape:window-y="25"
     inkscape:window-maximized="1"
     inkscape:current-layer="svg4321" />
  <path
     d="M 14.73,1.49 A 2,2 0 1 1 14.67,1"
     id="path4902" />
  <path
     d="M 2,8 V 6 C 2,5 2,5 3,5 H 6 C 7,5 7,5 7,6 V 8 H 6 V 6.3 H 3 V 8 Z"
     id="path4900"
     sodipodi:nodetypes="csssscccccc" />
  <path
     d="M 10.09,0 V 1 L 7,0.97 v -1 z"
     id="path4898"
     sodipodi:nodetypes="ccccc" />
  <path
     d="M 9.93,2.03 10.31,2.97 7.5,4.1 7.12,3.19 9.94,2.03 Z"
     id="path4896"
     sodipodi:nodetypes="cccccc" />
  <path
     d="M 12.06,4.25 10.4,6.69 9.59,6.16 11.22,3.69 Z"
     id="path4894"
     sodipodi:nodetypes="ccccc" />
  <path
     d="M 14,4.03 V 7 H 13 V 4.03 Z"
     id="path4892"
     sodipodi:nodetypes="ccccc" />
  <path
     d="M 0,9 C 0,8 0,8 1,8 h 7 c 1,0 1,0 1,1 v 4 c 0,1 0,1 -1,1 H 1 C 0,14 0,14 0,13 Z"
     id="path4319" />
</svg>
