<svg xmlns="http://www.w3.org/2000/svg" width="14" height="14"><path d="m4.94.13c-1.42,0-1.65,1.93-1.28,2.91.23.62.93,1.23,1.66.97.93-.46,1.2-1.65.94-2.56C6.13.83,5.64.13,4.94.13zm3.97,0c-.7,0-1.19.7-1.31,1.31-.26.92,0,2.1.94,2.56.72.26,1.43-.35,1.66-.97.36-.98.14-2.91-1.28-2.91zM.88,3.22c-.56.56-.49,2.17.53,2.84.66.34,1.33-.1,1.56-.63.39-.75.28-1.81-.41-2.34-.66-.44-1.17-.39-1.69.13zm10.56-.13c-.48.28-.8,1.6-.41,2.34.23.53.93.96,1.59.63,1.02-.67,1.07-2.27.5-2.84-.53-.45-1.16-.43-1.69-.13zM7,4.5a4.5,4.5,0,100,9,4.5,4.5,0,000-9zM6,6h2v2h2v2l-2,.03V12H6v-2H4V8h2z" fill="#1a1a1a"/></svg>