<svg xmlns="http://www.w3.org/2000/svg" viewBox="0,0,3.7,3.7" height="14" width="14"><path d="m3.7.01a1.85,1.85,0,100,3.7c0-.26-.01-.01,0-.27a1.58,1.58,0,01-1.58-1.59c0-.88.71-1.59,1.58-1.59v-.26h-.01zM0,.27v3.44h2.29V3.44H.79V2.12h.79v-.27H.79V.53h1.32V.27H0zm.27.26h.26v.27H.27V.53zm0,.53h.26v.26H.27v-.27zm3.44.26a.53.53,0,000,1.06v-.27h0a.27.27,0,01-.27-.26.27.27,0,01.28-.26v-.27zm-3.44.27h.26v.26H.27v-.26zm0,.53h.26v.26H.27v-.26zm0,.53h.26v.26H.27v-.26zm0,.53h.26v.27H.27v-.27z" stroke-width="1.73"/></svg>