<svg xmlns="http://www.w3.org/2000/svg" height="14" width="14"><path d="m8.71.54a.88.88,0,00-.38.13L4.29,2.83c-.51.24-.71,1-.38,1.46L5,6,.33,8.67.38,9.5S1,9,1.67,9c.63,0,1.9,1,2.67,1C5,10,6.33,9,7,9c.7,0,1.97,1,2.67,1h.46L6.33,4,9.13,2.54c.6-.35.79-.94.54-1.38-.23-.4-.58-.66-.96-.63zM11,4a2,2,0,100,4,2,2,0,000-4zm-9.33,7c-.43,0-1.06.36-1.65.65l-.02,2.03C.62,13.39,1.27,13,1.67,13c.67,0,1.95,1,2.67,1,.63,0,1.99-1,2.67-1,.67,0,2.03,1,2.67,1,.67,0,2.03-1,2.67-1,.4,0,1.08.39,1.7.69l.05-2.02c-.6-.3-1.31-.69-1.74-.66-.64,0-1.95,1-2.67,1C9.07,12,7.67,11,7,11s-2.07,1-2.67,1c-.63,0-1.95-1-2.67-1z"/></svg>