<?xml version="1.0" encoding="UTF-8" standalone="no"?>
<svg
   xmlns:dc="http://purl.org/dc/elements/1.1/"
   xmlns:cc="http://creativecommons.org/ns#"
   xmlns:rdf="http://www.w3.org/1999/02/22-rdf-syntax-ns#"
   xmlns:svg="http://www.w3.org/2000/svg"
   xmlns="http://www.w3.org/2000/svg"
   xmlns:sodipodi="http://sodipodi.sourceforge.net/DTD/sodipodi-0.dtd"
   xmlns:inkscape="http://www.inkscape.org/namespaces/inkscape"
   width="14"
   height="14"
   version="1.1"
   id="svg835"
   sodipodi:docname="waterfall.svg"
   inkscape:version="1.0.1 (c497b03c, 2020-09-10)">
  <metadata
     id="metadata841">
    <rdf:RDF>
      <cc:Work
         rdf:about="">
        <dc:format>image/svg+xml</dc:format>
        <dc:type
           rdf:resource="http://purl.org/dc/dcmitype/StillImage" />
      </cc:Work>
    </rdf:RDF>
  </metadata>
  <defs
     id="defs839" />
  <sodipodi:namedview
     pagecolor="#ffffff"
     bordercolor="#666666"
     borderopacity="1"
     objecttolerance="10"
     gridtolerance="10"
     guidetolerance="10"
     inkscape:pageopacity="0"
     inkscape:pageshadow="2"
     inkscape:window-width="1792"
     inkscape:window-height="956"
     id="namedview837"
     showgrid="false"
     inkscape:zoom="50.857143"
     inkscape:cx="6.2921348"
     inkscape:cy="9.7921348"
     inkscape:window-x="0"
     inkscape:window-y="25"
     inkscape:window-maximized="1"
     inkscape:current-layer="svg835" />
  <path
     d="m 1,3 c 1.09,0 2,0.3 2,1.75 v 2.5 c 0,2 1.5,3 2.5,3 0,0 -0.5,-1 -0.5,-3 V 4.75 C 5,3.84 4.35,3.44 4,3 5.09,3 6,3.3 6,4.75 v 2.5 c 0,2 1.5,3 2.5,3 0,0 -0.5,-1 -0.5,-3 L 8.1,4.75 C 8.14,3.84 7.35,3.44 7,3 8.09,3 9,3.3 9,4.75 v 2.5 c 0,2 1.5,3 2.5,3 0,0 -0.5,-1 -0.5,-3 V 4.75 C 11,1.75 8,1 7,1 H 0 v 2 z"
     id="path845" />
  <path
     d="m 1,11 v 2 c 0.61,0 1.76,1 2.4,1 0.57,0 1.79,-1 2.4,-1 0.6,0 1.83,1 2.4,1 0.6,0 1.83,-1 2.4,-1 0.57,0 1.8,1 2.4,1 V 12 C 12.5,12 11.24,10.97 10.6,11 10.03,11 8.84,12 8.2,12 7.67,12 6.4,11 5.8,11 5.2,11 3.94,12 3.4,12 2.83,12 1.64,11 1,11 Z"
     id="path833" />
</svg>
