<?xml version="1.0" encoding="iso-8859-1"?>
<!-- Generator: Adobe Illustrator 19.0.0, SVG Export Plug-In . SVG Version: 6.00 Build 0)  -->
<svg version="1.1" id="Layer_1" xmlns="http://www.w3.org/2000/svg" xmlns:xlink="http://www.w3.org/1999/xlink" x="0px" y="0px"
	 viewBox="0 0 512 512" style="enable-background:new 0 0 512 512;" xml:space="preserve">
<g>
	<g>
		<path d="M499.5,225.606L286.167,12.103c-16.125-16.138-44.208-16.138-60.333,0L12.5,225.606C4.438,233.675,0,244.392,0,255.797
			c0,11.405,4.438,22.122,12.5,30.191L225.833,499.49C233.896,507.559,244.604,512,256,512s22.104-4.441,30.167-12.51L499.5,285.987
			c8.063-8.069,12.5-18.786,12.5-30.191C512,244.392,507.563,233.675,499.5,225.606z M379.729,232.531l-85.333,64
			c-3.208,2.427-7.563,2.792-11.167,1.01c-3.604-1.813-5.896-5.5-5.896-9.542v-32h-10.667c-17.646,0-32,14.354-32,32v64
			c0,5.896-4.771,10.667-10.667,10.667h-42.667c-5.896,0-10.667-4.771-10.667-10.667v-64c0-52.937,43.063-96,96-96h10.667v-32
			c0-4.042,2.292-7.729,5.896-9.542c3.604-1.792,7.958-1.417,11.167,1.01l85.333,64c2.688,2.01,4.271,5.177,4.271,8.531
			S382.417,230.521,379.729,232.531z"/>
	</g>
</g>
<g>
</g>
<g>
</g>
<g>
</g>
<g>
</g>
<g>
</g>
<g>
</g>
<g>
</g>
<g>
</g>
<g>
</g>
<g>
</g>
<g>
</g>
<g>
</g>
<g>
</g>
<g>
</g>
<g>
</g>
</svg>
