<svg viewBox="0 0 512 512" xmlns="http://www.w3.org/2000/svg"><path d="M192.266 8.027C102.383 31.172 31.172 102.38 8.027 192.262l29.063 7.472C57.496 120.441 120.445 57.492 199.734 37.09zm0 0M474.91 199.734l29.063-7.472c-23.145-89.883-94.356-161.09-184.239-184.235l-7.468 29.063c79.293 20.402 142.238 83.351 162.644 162.644zm0 0M319.734 503.957c89.883-23.133 161.094-94.324 184.239-184.223l-29.063-7.472c-20.406 79.308-83.355 142.242-162.648 162.633zm0 0M37.09 312.262l-29.063 7.472c23.145 89.899 94.356 161.094 184.239 184.223l7.468-29.062C120.441 454.504 57.496 391.57 37.09 312.262zm0 0M256 210.996c-24.813 0-45 20.188-45 45 0 24.816 20.188 45 45 45s45-20.184 45-45c0-24.812-20.188-45-45-45zm15 60h-30v-30h30zm0 0"/><path d="M256 0l-57.613 198.387L0 255.997l198.387 57.6L256 512l57.613-198.402L512 255.996l-198.387-57.61zm0 330.996c-41.352 0-75-33.644-75-75 0-41.351 33.648-75 75-75s75 33.649 75 75c0 41.356-33.648 75-75 75zm0 0"/><path d="M369.098 183.34l40.449-80.887-80.89 40.438 9.14 31.312zm0 0M337.797 337.797l-9.137 31.305 80.887 40.441-40.45-80.883zm0 0M142.902 328.66l-40.449 80.883 80.887-40.445-9.137-31.301zm0 0M174.203 174.203l9.14-31.312-80.89-40.438 40.45 80.887zm0 0"/></svg>