<svg xmlns="http://www.w3.org/2000/svg" height="14" width="14"><path d="M4 0C3 .5 2 .5 2 1.5s1.5 1.5 1.5 2-.667 1-1 1.5c1.5-.5 2-.5 2-1.5S3.5 2 3 1.5C3 1 3.833.667 4 0zm3.75 0c-1 .5-2 .5-2 1.5s1.5 1.5 1.5 2-.667 1-1 1.5c1.5-.5 2-.5 2-1.5s-1-1.5-1.5-2c0-.5.833-.833 1-1.5zm3.75 0c-1 .5-2 .5-2 1.5S11 3 11 3.5s-.667 1-1 1.5c1.5-.5 2-.5 2-1.5s-1-1.5-1.5-2c0-.5.833-.833 1-1.5zM1 6v8h1v-2h10v2h1V6H1zm1 1h10v4H2zm2 1a1 1 0 100 2 1 1 0 000-2zm3 0a1 1 0 100 2 1 1 0 000-2zm3 0a1 1 0 100 2 1 1 0 000-2z" paint-order="markers stroke fill"/></svg>