<svg xmlns="http://www.w3.org/2000/svg" height="14" width="14"><g transform="matrix(.03373 0 0 .03378 0 5.43)" fill="#1a1a1a"><path d="M103.768-160.753c-40.936 0-74.12 33.136-74.12 74.01 0 40.876 33.184 74.012 74.12 74.012 27.434 0 51.112-14.884 63.928-37.006h39.84l29.647-29.604 29.648 29.604 29.648-29.604 29.648 29.604h14.824l44.471-37.005-44.471-37.006H167.696c-12.816-22.121-36.494-37.005-63.928-37.005zM74.12-101.544c8.187 0 14.824 6.627 14.824 14.802S82.307-71.94 74.12-71.94c-8.187 0-14.824-6.627-14.824-14.802s6.637-14.802 14.824-14.802zM155.13-.01v76.844H0l43.43 75.225h328.21l43.43-75.225H259.94V-.01H155.13zM88.944 179.698c-15.83 0-44.243 29.604-59.296 29.604v44.407c15.926 0 45.226-29.605 59.296-29.605 14.95 0 43.466 29.605 59.295 29.605 14.098 0 44.243-29.605 59.296-29.605 14.95 0 45.116 29.605 59.296 29.605 14.95 0 45.226-29.605 59.296-29.605s44.346 29.605 59.295 29.605v-44.407c-12.311 0-43.466-30.482-59.295-29.604-14.18 0-43.443 29.604-59.296 29.604-13.19 0-44.346-29.604-59.296-29.604-14.95 0-46.076 29.604-59.296 29.604-14.097 0-43.466-29.604-59.295-29.604z"/></g></svg>