<svg xmlns="http://www.w3.org/2000/svg" viewBox="0 0 3.704 3.704" height="14" width="14"><path d="M0 0v.794h.005c.151 0 .26.118.26.264A.261.261 0 010 1.323v.794h.53v-.265H.264v-.34a.527.527 0 00.264-.454.527.527 0 00-.264-.454v-.34H3.44v.34a.527.527 0 000 .912v.336h-.265v.265h.53v-.795h-.01c-.15.001-.255-.118-.255-.264 0-.146.1-.264.251-.264H3.704V0H0z"/><path d="M1.852.794c-.311 0-.565.31-.565.694 0 .273.129.51.315.622.056.034-.005.123-.046.065a.525.525 0 00-.423-.234c-.311 0-.564.311-.564.695 0 .383.253.693.564.693.31 0 .562-.306.565-.685 0-.067.084-.074.084.017 0 .142-.111.899-.17 1.043a.98.98 0 01.24-.037.98.98 0 01.24.037c-.059-.144-.17-.9-.17-1.043 0-.09.084-.084.084-.017.004.38.256.685.565.685.312 0 .565-.31.565-.693 0-.384-.253-.695-.565-.695-.168 0-.32.09-.423.234-.04.058-.102-.03-.046-.065.187-.113.315-.35.315-.622 0-.383-.253-.694-.565-.694z"/></svg>