<svg xmlns="http://www.w3.org/2000/svg" height="14" width="14" version="1.0"><path d="M7 .462c-1.205.01-2.84.35-3.521.635-.692.288-1.151.574-1.295 1.295l-.52 3.994v5.502h.895v.861c0 1.052 1.537 1.052 1.537 0v-.861h5.806v.861c0 1.052 1.54 1.052 1.54 0v-.861h.894V6.386l-.52-3.994c-.144-.72-.603-1.007-1.295-1.295C9.84.813 8.205.47 7 .462zM4.805 1.47H9.195c.432 0 .432.648 0 .648h-4.39c-.432 0-.432-.648 0-.648zM3.639 2.772h6.72c.457 0 .578.235.633.586l.403 2.897c.037.277-.043.55-.426.55H3.03c-.383 0-.463-.273-.426-.55l.403-2.897c.055-.351.174-.586.63-.586zm-.31 5.915a.738.738 0 110 1.476.738.738 0 010-1.476zm7.343 0a.738.738 0 110 1.476.738.738 0 010-1.476z" fill="#fff"/><path d="M1.568.002C.564.002 0 .519 0 1.577v10.914C0 13.481.508 14 1.51 14h10.98c1.002 0 1.51-.493 1.51-1.509V1.577C14 .544 13.492.002 12.458.002c0 0-10.894-.004-10.89 0zM7 .462c1.205.009 2.839.35 3.52.634.692.288 1.153.574 1.297 1.295l.519 3.994v5.501h-.894v.862c0 1.053-1.54 1.053-1.54 0v-.862H4.096v.862c0 1.053-1.538 1.053-1.538 0v-.862h-.894V6.385l.519-3.994c.144-.72.605-1.007 1.296-1.295C4.161.812 5.795.47 7 .46zM4.806 1.468c-.433 0-.433.649 0 .649h4.388c.433 0 .433-.649 0-.649H6.947zM3.639 2.772c-.457 0-.576.233-.631.585l-.403 2.896c-.038.278.043.552.426.552H10.97c.383 0 .464-.274.426-.552l-.403-2.896c-.055-.352-.176-.585-.632-.585H6.943zm-.31 5.913a.739.739 0 100 1.478.739.739 0 000-1.478zm7.343 0a.739.739 0 100 1.478.739.739 0 000-1.478z" fill="#0092da"/></svg>