<svg xmlns="http://www.w3.org/2000/svg" width="14" height="14"><path d="M2.744 0C2.034 0 1.374.412 1 1h2.37l.622 1-.623 1H1.002c.374.588 1.033.999 1.742 1 .758 0 1.412-.404 1.768-1h4.666c.355.596 1.01 1 1.77 1C12.08 4 13 3.105 13 2s-.919-2-2.053-2c-.758 0-1.414.404-1.77 1H4.513c-.356-.596-1.01-1-1.768-1zm7.578 1h1.25l.623 1-.623 1h-1.25L9.7 2l.623-1zM4 6L3 9c-.473 0-1 .384-1 1v3h1s0 1 1 1 1-1 1-1h4s0 1 1 1 1-1 1-1h1v-3c0-.52-.455-1-1-1l-1-3H4zm1 1h4l.625 2h-5.25L5 7zm-1 3.25a.75.75 0 110 1.5.75.75 0 010-1.5zm6 0a.75.75 0 110 1.5.75.75 0 010-1.5z"/></svg>