<svg xmlns="http://www.w3.org/2000/svg" height="14" width="14"><path d="M5 0C4 0 4 0 4 1l.01 3H1v9c0 1 0 1 1 1h10c1 0 1 0 1-1V4h-2.96L10 1c0-1 0-1-1-1H5zm0 1h4v3H5V1zm.178 4.498c.517-.003.625.058.93.225.37.203.75.958.83 1.267l.048.192.12-.264c.731-1.602 2.84-2.049 3.595-.283.21.489.267 1.49.055 2.062-.277.746-.796 1.316-1.996 2.188-.787.571-1.678 1.435-1.74 1.556-.072.141-.005.023-.323-.334-.167-.187-.585-.552-.93-.812-1.018-.77-1.156-.88-1.57-1.262-.763-.702-1.087-1.408-1.086-2.365 0-.467.032-.647.162-.922.222-.467.55-.815.967-1.027.296-.15.443-.218.938-.221z"/></svg>