<svg xmlns="http://www.w3.org/2000/svg" height="14" width="14"><path d="M1.307 0L0 4.813h2.861v8.066H1.516V14H5.33v-1.121H3.984V4.813h2.862L5.527 0h-4.22zm9.94.543a1.19 1.19 0 00-1.142.86 1.19 1.19 0 00-.283-.036 1.19 1.19 0 00-1.19 1.19 1.19 1.19 0 00.483.953 1.19 1.19 0 00-.482.955 1.19 1.19 0 001.19 1.19 1.19 1.19 0 00.298-.04 1.19 1.19 0 00.717.74v2.301H8.543L9.596 14h3.363L14 8.656h-2.35V6.357a1.19 1.19 0 00.758-.863 1.19 1.19 0 00.403.074A1.19 1.19 0 0014 4.378a1.19 1.19 0 00-.375-.862A1.19 1.19 0 0014 2.65a1.19 1.19 0 00-1.19-1.19 1.19 1.19 0 00-.392.071 1.19 1.19 0 00-1.172-.988zm.07 2.059a.884.884 0 01.884.884.884.884 0 01-.885.885.884.884 0 01-.884-.885.884.884 0 01.884-.884z" fill-rule="evenodd" stroke-width="4.454" stroke-linecap="square" paint-order="stroke fill markers"/></svg>