<svg xmlns="http://www.w3.org/2000/svg" height="14" width="14"><path d="M4.469 1c-.035.002-.069.018-.104.027-.023.007-.048.008-.07.018-.006.003-.013.003-.02.006L.27 3.053v.01A.494.494 0 000 3.5v9c0 .007.004.013.004.02 0 .029.011.056.017.085.008.036.013.072.028.104.002.005.001.01.004.016.005.01.016.012.021.021a.488.488 0 00.153.164c.017.012.032.024.05.033A.492.492 0 00.5 13c.006 0 .01-.004.016-.004.005 0 .01.004.015.004.034-.002.066-.017.1-.025.025-.007.051-.01.074-.02.006-.003.013-.003.02-.006l3.755-1.877 4.815 1.885a.499.499 0 00.205.045L9.512 13c.004 0 .007-.004.011-.004h.002l.006.002c.013 0 .025-.008.037-.01a.495.495 0 00.147-.039c.003-.001.007 0 .01-.002l4.005-2.002v-.006a.494.494 0 00.27-.437v-9c0-.007-.004-.013-.004-.02 0-.031-.012-.062-.02-.093-.007-.033-.011-.066-.025-.096-.002-.006 0-.012-.004-.018-.006-.012-.02-.017-.027-.029a.486.486 0 00-.139-.146c-.022-.016-.04-.032-.064-.043a.491.491 0 00-.217-.055l-.012.002c-.007 0-.012-.004-.02-.004-.043.003-.087.02-.13.035-.013.005-.027.005-.04.01-.007.003-.015.002-.023.006L9.515 2.93 4.749 1.064l-.002-.002-.006-.001-.031-.012A.495.495 0 004.5 1l-.016.002s0 .002-.002.002C4.478 1.004 4.474 1 4.47 1zM5 2.236l4 1.567v7.965L5 10.2V2.236zm-1 .07v7.89l-3 1.497V3.805l3-1.498zm9 0v7.887l-3 1.498V3.805l3-1.498z" paint-order="markers stroke fill"/></svg>