<svg xmlns="http://www.w3.org/2000/svg" id="svg2" height="20" width="20" version="1.0"><defs id="defs4"><style id="style6" type="text/css"></style></defs><g transform="matrix(1.42235 0 0 1.42235 -.004 .152)" id="g4489" stroke="none"><path d="M2.18 12.311l.863-5.678.678-.406.663.417s.751 5.736.68 5.701c-.07-.034-2.87.018-2.885-.034z" id="path3457" opacity=".5" fill-opacity=".667" fill-rule="evenodd" stroke-width=".024"/><path style="line-height:normal;font-variant-ligatures:normal;font-variant-position:normal;font-variant-caps:normal;font-variant-numeric:normal;font-variant-alternates:normal;font-feature-settings:normal;text-indent:0;text-align:start;text-decoration-line:none;text-decoration-style:solid;text-decoration-color:#000;text-transform:none;text-orientation:mixed;white-space:normal;shape-padding:0;isolation:auto;mix-blend-mode:normal;solid-color:#000;solid-opacity:1" d="M1.723 4.203a.16.16 0 00-.1.043l-.787.736a.16.16 0 00.006.239L3.16 7.203.842 9.187a.16.16 0 00-.006.239l.787.736a.16.16 0 00.238-.023l1.856-2.53 1.855 2.53a.16.16 0 00.237.023l.787-.736a.16.16 0 00-.006-.239L4.27 7.204 6.59 5.221a.16.16 0 00.006-.239l-.787-.736a.16.16 0 00-.116-.043.16.16 0 00-.12.067L3.716 6.799 1.86 4.269a.16.16 0 00-.138-.066zm1.994 2.904l.1.096-.102.098-.1-.096z" id="path4180" color="#000" font-style="normal" font-variant="normal" font-weight="400" font-stretch="normal" font-size="medium" font-family="sans-serif" text-decoration="none" letter-spacing="normal" word-spacing="normal" writing-mode="lr-tb" direction="ltr" dominant-baseline="auto" baseline-shift="baseline" text-anchor="start" clip-rule="nonzero" display="inline" overflow="visible" visibility="visible" opacity="1" color-interpolation="sRGB" color-interpolation-filters="linearRGB" vector-effect="none" fill="#000" fill-opacity="1" fill-rule="evenodd" stroke-width=".319" stroke-linecap="round" stroke-linejoin="round" stroke-miterlimit="4" stroke-dasharray="none" stroke-dashoffset="0" stroke-opacity="1" color-rendering="auto" image-rendering="auto" shape-rendering="auto" text-rendering="auto"/><path d="M9.549 3.743a.845.845 0 00-.274-.638.914.914 0 00-.651-.26.89.89 0 00-.645.26.855.855 0 00-.266.638c0 .252.089.464.266.637a.89.89 0 00.645.26c.252 0 .47-.087.651-.26a.844.844 0 00.274-.637zm-2.41 9.332c.196 0 .354-.093.476-.28l2.634-3.966.14.547-.392 2.97a.544.544 0 00.449.617.525.525 0 00.413-.09.496.496 0 00.217-.358l.407-3.04c.009-.104 0-.211-.028-.323l-.897-3.574 2.34-.42a.426.426 0 00.294-.19.46.46 0 00.084-.343.529.529 0 00-.21-.308L7.685.772l-.49.714c-.122.169-.094.313.084.435.168.103.312.074.434-.084l.28-.42 4.372 2.872-3.573.645a.513.513 0 00-.315.203.368.368 0 00-.063.343l.77 3.013-2.522 3.77a.538.538 0 00.091.651.526.526 0 00.386.161z" id="flowRoot2383" font-style="normal" font-weight="400" font-size="40" font-family="Bitstream Vera Sans" fill-opacity="1" stroke-width=".024"/></g></svg>