<svg xmlns="http://www.w3.org/2000/svg" height="14" width="14"><path d="M6.832 1.898a1.206.949 0 00-1.205.95 1.206.949 0 00.84.904c-1.378.111-2.568.82-3.266 1.865-.014-.006-.027-.02-.04-.025-.65-.264-1.623-.397-2.253.012C.295 6 .037 6.712.002 7.6c-.071 1.803 1.28 2.164 2.627 2.345.109.015.217.007.324.002.296.854.737 1.656 1.307 2.057h5.146c.613-.432 1.077-1.33 1.37-2.256.233.047.487.002.837-.277.61-.485 1.246-1.447 1.453-1.916.375-.812.934-3.725.934-3.725s-.881.24-1.584-.004c-.155.527-.347 1.523-.639 1.998-.25.41-.42.765-.834.83-.48-1.584-1.95-2.758-3.748-2.902a1.206.949 0 00.842-.904 1.206.949 0 00-1.205-.95zm-4.853 4.25c.322-.01.592.093.833.23a3.81 3.81 0 00-.275 1.386c0 .391.066.872.182 1.37-.774-.012-1.686-.11-1.633-1.462.03-.754.233-1.409.607-1.488.1-.022.194-.033.286-.036z" stroke-width="5"/></svg>