<svg xmlns="http://www.w3.org/2000/svg" viewBox="0 0 3.704 3.704" height="14" width="14"><path d="M3.702.005a1.849 1.849 0 10.002 3.7c.003-.262-.006-.005 0-.265a1.578 1.578 0 01-1.579-1.585c0-.877.708-1.587 1.582-1.59v-.26h-.005zM0 .265v3.44h2.292V3.44H.794V2.117h.794v-.265H.794V.53h1.323V.265H0zm.265.264h.264v.265H.265V.529zm0 .53h.264v.264H.265v-.265zm3.442.264a.529.529 0 000 1.058v-.265h-.004a.269.269 0 01-.274-.264.269.269 0 01.278-.264v-.265zm-3.442.265h.264v.264H.265v-.264zm0 .529h.264v.264H.265v-.264zm0 .529h.264v.264H.265v-.264zm0 .529h.264v.265H.265v-.265z" stroke-width="1.733"/></svg>