<svg xmlns="http://www.w3.org/2000/svg" width="14" height="14"><path d="m7,0L0,3.5v2l1.5-.65V14H3V4.2l4-1.7,4,1.7V14h1.5V4.85l1.5.65v-2L7,0zm-.03,5.05a.7.7,0,100,1.41.7.7,0,000-1.41zM5.05,6.19a.2.2,0,00-.24.15l-.49,2.04a.2.2,0,00.15.24l.59.14a.2.2,0,00.24-.15l.49-2.04a.2.2,0,00-.15-.24l-.59-.14zm1.72.38c-.57-.01-.72.59-.72.59l-1.49,6.25a.49.49,0,00.96.24l.85-3.52.81,3.5a.49.49,0,00.97-.12.64.64,0,00-.01-.11L7.03,8.75l.09-.41.07.32a.32.32,0,00.26.23l1.15.29a.42.42,0,00.07.01.34.34,0,00.34-.34.34.34,0,00-.26-.33l-.99-.25-.27-1.11c-.13-.62-.72-.6-.72-.6zm3.06.72c-.08,0-.14.06-.16.14l-1.18,6.41,0,.01c0,.09.07.16.16.16a.17.17,0,00.16-.14L9.99,7.45v-.01a.16.16,0,00-.16-.16z"/></svg>