<svg xmlns="http://www.w3.org/2000/svg" width="14" height="14"><path d="M3 0v1h1c.599 0 .841 1.043.938 1.906-.973-.756-1.913-1.026-2.72-.875C1.189 2.225.5 3.174.5 4.25c0 .842.312 1.579.844 2.344.464.668 1.12 1.44 1.937 2.375.367 1.359 1.041 2.603 1.719 3.281V13l-1 .5v.5h6v-.5L9 13v-.75c.678-.678 1.352-1.922 1.719-3.281.817-.935 1.473-1.707 1.937-2.375.532-.765.844-1.502.844-2.344 0-1.076-.688-2.025-1.719-2.219-.806-.151-1.746.119-2.719.875C9.16 2.043 9.402 1 10 1h1V0H3zm-.625 3.031c.51-.096 1.36.101 2.344 1C3.604 4.17 3 5.15 3 7v.094c-.34-.396-.624-.746-.844-1.063C1.688 5.357 1.5 4.863 1.5 4.25c0-.7.31-1.113.875-1.219zm8.75 0c.188-.027.359-.026.5 0 .564.106.875.519.875 1.219 0 .613-.188 1.107-.656 1.781-.22.317-.503.667-.844 1.063V7c0-1.85-.604-2.83-1.719-2.969.712-.65 1.352-.929 1.844-1z"/></svg>