<svg xmlns="http://www.w3.org/2000/svg" width="14" height="14"><path d="m3,0v1h1c.6,0,.84,1.04.94,1.91-.97-.76-1.91-1.03-2.72-.88C1.19,2.23.5,3.17.5,4.25c0,.84.31,1.58.84,2.34.46.67,1.12,1.44,1.94,2.38C3.65,10.33,4.32,11.57,5,12.25V13l-1,.5v.5h6v-.5L9,13v-.75c.68-.68,1.35-1.92,1.72-3.28.82-.94,1.47-1.71,1.94-2.38.53-.77.84-1.5.84-2.34,0-1.08-.69-2.03-1.72-2.22-.81-.15-1.75.12-2.72.88C9.16,2.04,9.4,1,10,1h1V0H3zm-.63,3.03c.51-.1,1.36.1,2.34,1C3.6,4.17,3,5.15,3,7v.09c-.34-.4-.62-.75-.84-1.06C1.69,5.36,1.5,4.86,1.5,4.25c0-.7.31-1.11.88-1.22zm8.75,0c.19-.03.36-.03.5,0,.56.11.88.52.88,1.22,0,.61-.19,1.11-.66,1.78-.22.32-.5.67-.84,1.06V7c0-1.85-.6-2.83-1.72-2.97.71-.65,1.35-.93,1.84-1z"/></svg>