<svg xmlns="http://www.w3.org/2000/svg" version="1.0" width="14" height="14"><path d="M7 0a7 7 0 000 14 1.164 1.164 0 00.863-1.95 1.154 1.154 0 01-.29-.773c0-.645.52-1.166 1.165-1.166h1.373A3.89 3.89 0 0014 6.223C14 2.785 10.866 0 7 0zm1.934 1.305a1.39 1.39 0 011.388 1.388 1.39 1.39 0 01-1.388 1.391 1.39 1.39 0 01-1.39-1.39 1.39 1.39 0 011.39-1.39zm-3.895.02a1.39 1.39 0 011.39 1.39 1.39 1.39 0 01-1.39 1.389 1.39 1.39 0 01-1.389-1.39 1.39 1.39 0 011.39-1.39zM2.707 4.446a1.39 1.39 0 011.389 1.39 1.39 1.39 0 01-1.389 1.39 1.39 1.39 0 01-1.389-1.39 1.39 1.39 0 011.389-1.39zm8.559 0a1.39 1.39 0 011.388 1.39 1.39 1.39 0 01-1.388 1.39 1.39 1.39 0 01-1.389-1.39 1.39 1.39 0 011.389-1.39z"/></svg>