<svg xmlns="http://www.w3.org/2000/svg" height="14" width="14"><path d="m14,0c-.67.09-1.33.2-2,.3v9.87l-.51-.04c-1.32-.09-2.71.56-3.32,1.56-.23.37-.25.95-.05,1.27.31.5,1.04.91,1.84,1.04,1.83-.05,3.15-.7,4.04-2.03C14,8,14,4,14,0zM7.11.01a6.92,6.92,0,00-6.18,3.46,6.92,6.92,0,002.53,9.45,1.15,1.15,0,001.57-.42c.15-.26.19-.55.13-.82a1.13,1.13,0,01.13-.8,1.15,1.15,0,011.57-.42l.25.14C7.85,9.64,8.93,9.14,10.1,8.92a1.37,1.37,0,01-.14-1.57,1.37,1.37,0,01.54-.52V5.55a1.37,1.37,0,01-.48-.17,1.37,1.37,0,01.48-2.55v-1.83c-.04-.03-.08-.05-.12-.08A6.89,6.89,0,007.11.01zm.19.91a1.37,1.37,0,01.75.18,1.37,1.37,0,11-.75-.18zm-3.54,1.52a1.37,1.37,0,01.75.18,1.37,1.37,0,11-.75-.18z"/></svg>