<svg xmlns="http://www.w3.org/2000/svg" height="14" width="14"><path d="M14 .002c-.667.09-1.334.198-2 .303v9.867l-.508-.04c-1.315-.093-2.706.561-3.316 1.56-.225.367-.249.95-.051 1.267.308.495 1.041.91 1.838 1.043 1.832-.053 3.145-.7 4.035-2.033C14 8 14 4 14 .002zM7.107.006a6.922 6.922 0 00-6.18 3.459 6.916 6.916 0 002.534 9.45 1.15 1.15 0 001.574-.423c.15-.26.19-.55.13-.82a1.132 1.132 0 01.132-.803 1.15 1.15 0 011.574-.422l.252.145C7.846 9.639 8.927 9.14 10.1 8.92a1.373 1.373 0 01-.141-1.57 1.373 1.373 0 01.541-.522V5.551a1.373 1.373 0 01-.482-.168 1.373 1.373 0 01-.5-1.875 1.373 1.373 0 01.982-.67v-1.83c-.04-.025-.078-.053-.12-.076A6.888 6.888 0 007.108.006zm.188.908a1.373 1.373 0 01.754.182 1.373 1.373 0 01.502 1.879 1.373 1.373 0 01-1.877.502 1.373 1.373 0 01-.502-1.875A1.373 1.373 0 017.295.914zm-3.54 1.522a1.373 1.373 0 01.753.181 1.373 1.373 0 01.502 1.877 1.373 1.373 0 01-1.875.504 1.373 1.373 0 01-.504-1.877 1.373 1.373 0 011.125-.685z"/></svg>