<svg xmlns="http://www.w3.org/2000/svg" height="14" width="14"><path d="m4.12,13.63c-.22-.06-.42-.15-1.08-.47-.65-.32-.87-.41-1.13-.43-.24-.02-.52.07-1.15.38-.27.13-.49.24-.49.23,0-.01,0-.43.01-.95l.01-.95.38-.19c1.15-.56,1.2-.56,2.44.04.88.43,1,.47,1.28.47.28,0,.34-.02,1.24-.45,1.13-.53,1.26-.56,1.72-.41.16.05.58.24.94.41.82.39,1.05.47,1.3.45.27-.02.49-.11,1.27-.49.39-.19.8-.37.92-.41.39-.12.66-.06,1.49.35l.46.22-.01.63c-.02.79-.04,1.24-.05,1.26-.01.01-.23-.1-.5-.23-.54-.26-.89-.39-1.09-.39-.21,0-.5.11-1.24.46-.39.19-.82.37-.96.42-.41.13-.53.1-1.42-.32-1.25-.6-1.42-.64-1.9-.48-.16.05-.59.24-.96.42-.93.45-1.11.5-1.46.41z"/><path d="m6.02,6.02c-.08-.09-2.38.96-3.32,1.52-.36.21-.73.39-.82.39-.37,0-.56-.47-.56-1.37,0-1.24.47-2.51,1.32-3.55.32-.39,1.21-1.1,1.57-1.25.2-.08.22-.12.22-.39,0-.58.5-.77.86-.34.18.22.2.23.5.17.57-.11,1.63-.08,2.21.07,1.42.36,2.67,1.27,3.37,2.45.29.49.31.59.12.82-.12.15-.24.19-.9.29-1.26.19-3.46.72-3.54.85.76,2.37,1.28,3.88,2.14,6.21l-1.32-.54a147.89,147.89,0,00-1.84-5.33z"/></svg>