<svg xmlns="http://www.w3.org/2000/svg" width="14" height="14"><path d="M5 0C4 0 3 .469 2 1.469s-2 2-2 3c.667 0 1.333.375 2 .375 1.524 0 1.934-1.31 3-2.375.539-.351.99-.707 2.469-.531C9.029 2.27 12 3.46 14 4.874c-1.609-1.65-3.49-3.464-6-4.406C7-.026 6 0 5 0zm7.344 5.156l-4.031 1.75c-3.34.548-7.178-.735-7.063-.593.045.054.082.101.125.156V6.5L0 10l2.594-2L3 12l1.969-3.188c.182.032.358.073.562.094L7 12l1.094-3.094c.337-.059.636-.171.937-.281L11 11l.031-3.656c.057-.059.102-.127.156-.188L14 9l-1.875-3.281c.08-.181.16-.377.219-.563z"/></svg>