<svg xmlns="http://www.w3.org/2000/svg" width="14" height="14"><path d="M0 0v10h2V6.5h2.5c1.976 0 3.5-1 3.5-3.25S6.487 0 4.97 0zm2 2h2.5C5.464 2 6 2.525 6 3.25S5.368 4.5 4.5 4.5H2zm7 5v.594L9.5 8v.75h-3V8.5H7c.48 0 .456-.5 0-.5H5.5c-.5 0-.5.452 0 .5H6v.25l-.562 1.281A2.13 2.13 0 005 10c-1.022 0-2 .794-2 2s.978 2 2 2 1.938-.856 1.938-2.063c0-.15-.004-.302-.031-.437h.843l1.822-2 .366.781C9.383 10.616 9 11.23 9 12c0 1.206.979 2 2 2 1.022 0 1.938-.856 1.938-2.063C12.938 10.732 12.022 10 11 10c-.15 0-.292.03-.437.063L10 8.75V7.8zM6.406 9.5H8.6l-1.193 1.25h-.844a1.829 1.829 0 00-.5-.469zM5 11c.635 0 1 .55 1 1 0 .45-.365 1-1 1s-1-.55-1-1c0-.45.365-1 1-1zm6 0c.636 0 1 .55 1 1 0 .45-.364 1-1 1-.635 0-1-.55-1-1 0-.45.365-1 1-1z"/></svg>