<svg xmlns="http://www.w3.org/2000/svg" width="14" height="14"><path d="M2.744 0C2.034 0 1.374.412 1 1h2.37l.622 1-.623 1H1.002c.374.588 1.033.999 1.742 1 .758 0 1.412-.404 1.768-1h4.666c.355.596 1.01 1 1.77 1C12.08 4 13 3.105 13 2s-.919-2-2.053-2c-.758 0-1.414.404-1.77 1H4.513c-.356-.596-1.01-1-1.768-1zm7.578 1h1.25l.623 1-.623 1h-1.25L9.7 2l.623-1zm-2.34 4.451l.032.998.965.563v.998H4.99v-.998h.498c.998 0 .998-.998 0-.998H3.494c-.997 0-.997.998 0 .998h.498v.998l-.56 1.373c-.042-.002-.083 0-.125 0A2.316 2.316 0 001 11.69 2.316 2.316 0 003.307 14a2.316 2.316 0 002.306-2.309c0-.24-.055-.469-.125-.687h1.496l2.15-1.996.282.719a2.362 2.362 0 00-1.06 1.964A2.316 2.316 0 0010.661 14C11.93 14 13 12.96 13 11.691c0-1.268-1.07-2.308-2.338-2.308-.042 0-.083-.002-.125 0l-.56-1.373V6.637L7.982 5.45zM4.834 9.008h3.104l-1.303 1.248H5.084c-.153-.188-.328-.397-.531-.53l.281-.718zm-1.527 1.498c.66 0 1.183.524 1.183 1.185 0 .662-.523 1.186-1.183 1.186-.661 0-1.184-.524-1.184-1.186 0-.661.523-1.185 1.184-1.185zm7.355 0c.66 0 1.186.524 1.186 1.185 0 .662-.525 1.186-1.186 1.186-.66 0-1.152-.524-1.152-1.186 0-.661.491-1.185 1.152-1.185z"/></svg>