<svg xmlns="http://www.w3.org/2000/svg" width="14" height="14"><path d="m8,1.5v.88l1.25.78V4.25H5V3.5h.5c1,0,1-1,0-1h-2c-1,0-1,1,0,1H4v.75L3.06,6H3C1.39,6,0,7.39,0,9s1.39,3,3,3,3-1.39,3-3a2.9,2.9,0,00-.19-1h.44c.75,0,.92-.45,1.19-.72l1.78-2.03.53,1.03C8.73,6.77,8,7.83,8,9c0,1.61,1.39,3,3,3s3-1.39,3-3-1.39-3-3-3c-.03,0-.06,0-.09,0L10,4.25V2.66L8,1.5zM4.78,5.25h3.13L6.34,7H5.22c-.02,0-.04,0-.06,0a3.03,3.03,0,00-.91-.69c-.01-.02-.02-.04-.03-.06l.56-1zM3,7c1.01,0,2,.99,2,2s-.99,2-2,2-2-.99-2-2,.99-2,2-2zm8,0c1.01,0,2,.99,2,2s-.99,2-2,2-2-.99-2-2,.99-2,2-2z"/></svg>