<svg xmlns="http://www.w3.org/2000/svg" width="14" height="14"><path d="m2.74,0C2.03,0,1.37.41,1,1h2.37l.62,1-.62,1H1c.37.59,1.03,1,1.74,1,.76,0,1.41-.4,1.77-1h4.67c.36.6,1.01,1,1.77,1C12.08,4,13,3.11,13,2s-.92-2-2.05-2c-.76,0-1.41.4-1.77,1H4.51c-.36-.6-1.01-1-1.77-1zm7.58,1h1.25l.62,1-.62,1h-1.25L9.7,2l.62-1zm-2.34,4.45.03,1,.97.56v1H4.99v-1h.5c1,0,1-1,0-1H3.49c-1,0-1,1,0,1h.5v1l-.56,1.37c-.04,0-.08,0-.13,0A2.32,2.32,0,001,11.69,2.32,2.32,0,003.31,14a2.32,2.32,0,002.31-2.31c0-.24-.06-.47-.13-.69h1.5l2.15-2,.28.72a2.36,2.36,0,00-1.06,1.96A2.32,2.32,0,0010.66,14C11.93,14,13,12.96,13,11.69c0-1.27-1.07-2.31-2.34-2.31-.04,0-.08,0-.13,0l-.56-1.37V6.64L7.98,5.45zM4.83,9.01h3.1l-1.3,1.25H5.08c-.15-.19-.33-.4-.53-.53l.28-.72zm-1.53,1.5c.66,0,1.18.52,1.18,1.19,0,.66-.52,1.19-1.18,1.19-.66,0-1.18-.52-1.18-1.19,0-.66.52-1.19,1.18-1.19zM10.66,10.51c.66,0,1.19.52,1.19,1.19,0,.66-.53,1.19-1.19,1.19-.66,0-1.15-.52-1.15-1.19,0-.66.49-1.19,1.15-1.19z"/></svg>