<svg xmlns="http://www.w3.org/2000/svg" width="14" height="14"><path d="M8 1.5v.875l1.25.781V4.25H5V3.5h.5c1 0 1-1 0-1h-2c-1 0-1 1 0 1H4v.75L3.062 6H3C1.388 6 0 7.388 0 9s1.388 3 3 3 3-1.388 3-3a2.9 2.9 0 00-.188-1h.438c.75 0 .923-.454 1.188-.719l1.78-2.031.532 1.031C8.727 6.766 8 7.825 8 9c0 1.612 1.388 3 3 3s3-1.388 3-3-1.388-3-3-3c-.031 0-.062-.001-.094 0L10 4.25V2.656L8 1.5zM4.781 5.25h3.125L6.344 7H5.219c-.019 0-.044.002-.063 0a3.028 3.028 0 00-.906-.688c-.012-.018-.02-.043-.031-.062l.562-1zM3 7c1.006 0 2 .994 2 2s-.994 2-2 2-2-.994-2-2 .994-2 2-2zm8 0c1.006 0 2 .994 2 2s-.994 2-2 2-2-.994-2-2 .994-2 2-2z"/></svg>