<svg xmlns="http://www.w3.org/2000/svg" height="14" width="14"><path d="M3.5 0a2.5 2.5 0 100 5c.925 0 1.724-.503 2.156-1.25H7l1-1 1 1 1-1 1 1h.5L13 2.5l-1.5-1.25H5.656A2.484 2.484 0 003.5 0zm-1 2a.5.5 0 110 1 .5.5 0 010-1zm2.733 3.43v2.595H0l1.465 2.542h11.07L14 8.025H8.768V5.43H5.233zM3 11.5c-.534 0-1.492 1-2 1V14c.537 0 1.526-1 2-1 .504 0 1.466 1 2 1 .476 0 1.492-1 2-1 .504 0 1.522 1 2 1 .504 0 1.526-1 2-1s1.496 1 2 1v-1.5c-.415 0-1.466-1.03-2-1-.478 0-1.465 1-2 1-.445 0-1.496-1-2-1s-1.554 1-2 1c-.475 0-1.466-1-2-1z"/></svg>