<svg xmlns="http://www.w3.org/2000/svg" width="14" height="14"><path d="M11 0a2 2 0 00-2 2c.001.351.323.696.5 1h3c.176-.304.5-.649.5-1a2 2 0 00-2-2zM9.5 4v1h3V4h-3zm0 2c-.284.575-.651 1.258-.951 2A4.222 4.444 0 019 10a4.222 4.444 0 01-.627 2.318c.205.596.452 1.164.627 1.682h4c.35-1.043 1-2.283 1-3.555C14 8.773 13.076 7.17 12.5 6h-3zM4 6.055a4 4 0 00-4 4 4 4 0 004 4 4 4 0 004-4 4 4 0 00-4-4zM4 7a1 1 0 011 1 1 1 0 01-1 1 1 1 0 01-1-1 1 1 0 011-1zm2 2a1 1 0 011 1 1 1 0 01-1 1 1 1 0 01-1-1 1 1 0 011-1zm-2.5.5a1 1 0 011 1 1 1 0 01-1 1 1 1 0 01-1-1 1 1 0 011-1z" paint-order="markers stroke fill"/></svg>