<svg xmlns="http://www.w3.org/2000/svg" height="14" width="14"><g style="line-height:1.25"><path d="M3 0v1.03c-.42.029-.821.086-1.182.2-.484.154-.853.382-1.105.68-.252.296-.377.614-.377.955 0 .311.103.594.307.846.208.25.521.458.941.627.28.114.775.237 1.416.365v2.445a3.786 3.786 0 01-.654-.15c-.4-.135-.697-.312-.889-.527a1.624 1.624 0 01-.36-.834L0 5.709c.016.452.177.86.48 1.22.308.358.73.625 1.266.803.356.118.787.183 1.254.223V9h1V7.98c.524-.02 1.012-.093 1.441-.244.504-.178.889-.425 1.157-.742.268-.32.402-.661.402-1.021a1.41 1.41 0 00-.365-.961c-.244-.28-.623-.51-1.135-.692-.286-.1-.82-.217-1.5-.343v-2.14c.41.046.765.126 1.008.28.348.219.553.543.613.97l1.115-.066a1.74 1.74 0 00-.431-1.066c-.268-.314-.653-.55-1.153-.71C4.81 1.13 4.417 1.071 4 1.036V0H3zm7.598 0L8 1.5 10.598 3V1.998A1.5 1.5 0 0111.906 4h1.035a2.5 2.5 0 00.055-.508A2.5 2.5 0 0010.598.996V0zM3 1.828v1.943c-.585-.124-1.031-.246-1.201-.365-.228-.157-.342-.358-.342-.601 0-.28.16-.518.48-.715.24-.148.617-.223 1.063-.262zm1 3.086c.295.06.718.14.846.178.368.108.633.24.793.4.16.157.24.342.24.555 0 .21-.084.403-.252.582-.164.175-.416.314-.756.416A3.896 3.896 0 014 7.178V4.914zM12.07 5c-.797 0-1.527.173-2.19.521C8.809 6.083 8.299 6.765 7.89 8h-.717L7 9h.809c0 .339-.016.66.011 1h-.648L7 11h.943c.095.427.103.494.235.795C8.83 13.283 10.192 14 12.05 14c.62 0 1.189-.114 1.703-.344v-1.222c-.432.387-1.032.58-1.8.58a3.022 3.022 0 01-1.538-.409c-.658-.38-1.071-.699-1.244-1.605h3.668l.174-1H9.04c-.003-.333-.013-.667 0-1h4.139l.166-1H9.14c.04-.325.1-.4.33-.76.226-.348.556-.583.836-.773.468-.32 1.047-.48 1.738-.48.637 0 1.207.2 1.709.599L14 5.48c-.522-.32-1.165-.48-1.93-.48zM1.06 9.998a2.5 2.5 0 00-.055.508 2.5 2.5 0 002.398 2.496V14L6 12.5 3.402 11v1a1.5 1.5 0 01-1.308-2.002H1.059z" style="-inkscape-font-specification:Arial" font-size="12.392" font-family="Arial" aria-label="€" font-weight="400" letter-spacing="0" word-spacing="0" stroke-width="1.549"/></g></svg>