<svg xmlns="http://www.w3.org/2000/svg" height="14" width="14"><path d="m3,0v1.03c-.42.03-.82.09-1.18.2-.48.15-.85.38-1.11.68-.25.3-.38.61-.38.96,0,.31.1.59.31.85.21.25.52.46.94.63.28.11.78.24,1.42.37v2.44a3.79,3.79,0,01-.65-.15c-.4-.14-.7-.31-.89-.53a1.62,1.62,0,01-.36-.83L0,5.71c.02.45.18.86.48,1.22.31.36.73.63,1.27.8.36.12.79.18,1.25.22V9h1V7.98c.52-.02,1.01-.09,1.44-.24.5-.18.89-.43,1.16-.74.27-.32.4-.66.4-1.02a1.41,1.41,0,00-.37-.96c-.24-.28-.62-.51-1.14-.69-.29-.1-.82-.22-1.5-.34v-2.14c.41.05.77.13,1.01.28.35.22.55.54.61.97l1.12-.07a1.74,1.74,0,00-.43-1.07c-.27-.31-.65-.55-1.15-.71C4.81,1.13,4.42,1.07,4,1.04V0H3zm7.6,0L8,1.5,10.6,3V2A1.5,1.5,0,0111.91,4h1.03a2.5,2.5,0,00.06-.51A2.5,2.5,0,0010.6,1V0zM3,1.83v1.94c-.59-.12-1.03-.25-1.2-.37-.23-.16-.34-.36-.34-.6,0-.28.16-.52.48-.72.24-.15.62-.22,1.06-.26zm1,3.09c.3.06.72.14.85.18.37.11.63.24.79.4.16.16.24.34.24.56,0,.21-.08.4-.25.58-.16.18-.42.31-.76.42A3.9,3.9,0,014,7.18V4.91zM12.07,5c-.8,0-1.53.17-2.19.52C8.81,6.08,8.3,6.77,7.89,8h-.72L7,9h.81c0,.34-.02.66.01,1h-.65L7,11h.94c.1.43.1.49.24.8C8.83,13.28,10.19,14,12.05,14c.62,0,1.19-.11,1.7-.34v-1.22c-.43.39-1.03.58-1.8.58a3.02,3.02,0,01-1.54-.41c-.66-.38-1.07-.7-1.24-1.61h3.67l.17-1H9.04c0-.33-.01-.67,0-1h4.14l.17-1H9.14c.04-.33.1-.4.33-.76.23-.35.56-.58.84-.77.47-.32,1.05-.48,1.74-.48.64,0,1.21.2,1.71.6L14,5.48c-.52-.32-1.17-.48-1.93-.48zM1.06,10a2.5,2.5,0,00-.06.51,2.5,2.5,0,002.4,2.5V14L6,12.5,3.4,11v1a1.5,1.5,0,01-1.31-2H1.06z"/></svg>