<?xml version="1.0" encoding="UTF-8" standalone="no"?>
<svg
   xmlns:dc="http://purl.org/dc/elements/1.1/"
   xmlns:cc="http://creativecommons.org/ns#"
   xmlns:rdf="http://www.w3.org/1999/02/22-rdf-syntax-ns#"
   xmlns:svg="http://www.w3.org/2000/svg"
   xmlns="http://www.w3.org/2000/svg"
   xmlns:sodipodi="http://sodipodi.sourceforge.net/DTD/sodipodi-0.dtd"
   xmlns:inkscape="http://www.inkscape.org/namespaces/inkscape"
   inkscape:version="1.0beta1 (32d4812, 2019-09-19)"
   sodipodi:docname="butcher.svg"
   id="svg2"
   height="14"
   width="14"
   version="1.0">
  <metadata
     id="metadata850">
    <rdf:RDF>
      <cc:Work
         rdf:about="">
        <dc:format>image/svg+xml</dc:format>
        <dc:type
           rdf:resource="http://purl.org/dc/dcmitype/StillImage" />
      </cc:Work>
    </rdf:RDF>
  </metadata>
  <sodipodi:namedview
     inkscape:current-layer="svg2"
     inkscape:window-maximized="0"
     inkscape:window-y="23"
     inkscape:window-x="0"
     inkscape:cy="13.391411"
     inkscape:cx="17.802418"
     inkscape:zoom="22.4"
     showgrid="false"
     id="namedview848"
     inkscape:window-height="907"
     inkscape:window-width="1600"
     inkscape:pageshadow="2"
     inkscape:pageopacity="0"
     guidetolerance="10"
     gridtolerance="10"
     objecttolerance="10"
     borderopacity="1"
     inkscape:document-rotation="0"
     bordercolor="#666666"
     pagecolor="#ffffff" />
  <defs
     id="defs4">
    <clipPath
       clipPathUnits="userSpaceOnUse"
       id="clipoutline2">
      <path
         id="outline2"
         d="M55.8 12l.76.16c8.84-2.94 28.68 8.64 24.26 18.96-1.12 1.62-.93 4.5.42 6.31L56.43 62.25c-1.39-1.39-4.48-1.36-5.9 0L9.5 101.63c-3.74 3.59-.8 6.64.78 8.25l7.36 7.36c1.61 1.6 5.86 3.76 8.88.56l38.72-40.81c1.35-1.42 1.36-4.47 0-5.87 0 0 .01-.02 0-.02l24.91-24.9c2.63 2.37 5.114 2.575 7.47 1.93 4.55-1.245 7.087 3.207 9.81 6.46l-1.23 1.21c-1.82 1.84-1.65 4.94.39 6.98s5.15 2.21 6.97.39l8.14-8.13c1.82-1.84 1.65-4.94-.4-6.97-1.84-1.85-4.51-2.09-6.37-.77-5.58-6.26-2.65-7.2-10.01-15.35L91.13 17.86C81.2 8.12 68.3 8.13 55.8 12z" />
    </clipPath>
    <clipPath
       clipPathUnits="userSpaceOnUse"
       id="clipoutline1">
      <path
         id="outline1"
         d="M22.42 17.2l12.96 12.95-2.5 8.78-8.78 2.5-12.96-12.96-5.86 5.86 14.89 21.46 17.56-3.34 61.63 65.62c9.44 9.51 22.17-4.75 13.34-12.87L46.85 42.92l4.01-17.76-22.14-14.27zm81.06 91.97a4.297 4.297 0 016.08 0 4.297 4.297 0 010 6.08 4.316 4.316 0 01-6.08 0 4.297 4.297 0 010-6.08z" />
    </clipPath>
    <marker
       id="ArrowStart"
       markerHeight="3"
       markerUnits="strokeWidth"
       markerWidth="4"
       orient="auto"
       refX="10"
       refY="5"
       viewBox="0 0 10 10">
      <path
         d="M10 0L0 5l10 5z"
         id="path2295" />
    </marker>
    <marker
       id="ArrowEnd"
       markerHeight="3"
       markerUnits="strokeWidth"
       markerWidth="4"
       orient="auto"
       refX="0"
       refY="5"
       viewBox="0 0 10 10">
      <path
         d="M0 0l10 5-10 5z"
         id="path2292" />
    </marker>
    <style
       id="style6"
       type="text/css" />
  </defs>
  <path
     inkscape:connector-curvature="0"
     d="m 6.6718754,0.72516738 c -0.796,0.231 -2.112828,0.78910942 -2.923828,1.16210942 -0.903,0.416 -1.549579,0.8220312 -2.267579,1.2070313 0.227,0.6589999 0.768344,2.2831093 1.902344,4.0371093 0.897,1.386 1.65,2.4900779 2.5,3.3300776 l 2.101563,-1.4238277 c 0.075,0.62 2.1689526,3.5023907 2.8769526,4.0253907 0.273,0.202 0.463734,0.03794 0.927734,-0.289063 0.464001,-0.327 0.63875,-0.606 0.46875,-1 -0.346999,-0.81 -1.865125,-3.7146869 -2.5781246,-4.1796869 -0.686,-0.997 -1.258219,-1.7498126 -1.824219,-3.1328126 -0.585,-1.43 -0.958593,-2.8813281 -1.183593,-3.73632812 z M 6.2890624,1.4693081 c 0.175001,0.677 0.45125,2.0030156 1.03125,3.2910156 0.6,1.33 1.322797,2.36775 1.591797,2.71875 -0.644,0.6060003 -2.957031,2.2988286 -2.957031,2.2988286 0,0 -1.035281,-1.2125627 -2.113281,-2.976563 -0.854,-1.4 -1.644797,-3.2424531 -1.716797,-3.4394531 0.583,-0.423 3.560062,-1.7605782 4.164062,-1.8925781 z"
     style="fill:#000000"
     id="path4036" />
  <path
     style="fill:#000000"
     stroke-opacity="1"
     stroke-dasharray="none"
     stroke-miterlimit="4"
     stroke-width=".241"
     stroke="none"
     fill-rule="evenodd"
     fill-opacity="1"
     id="path4036-9-7"
     d="m 4.7224954,3.5825004 c 0,-0.32 0.275,-0.58 0.614,-0.58 0.34,0 0.614,0.26 0.614,0.58 0,0.321 -0.275,0.581 -0.614,0.581 -0.34,0 -0.614,-0.26 -0.614,-0.58 z"
     inkscape:connector-curvature="0"
     sodipodi:nodetypes="ssssss" />
</svg>
