<svg xmlns="http://www.w3.org/2000/svg" height="14" width="14"><path d="m6.67.73c-.8.23-2.11.79-2.92,1.16-.9.42-1.55.82-2.27,1.21.23.66.77,2.28,1.9,4.04.9,1.39,1.65,2.49,2.5,3.33l2.1-1.42c.08.62,2.17,3.5,2.88,4.03.27.2.46.04.93-.29s.64-.61.47-1c-.35-.81-1.87-3.72-2.58-4.18-.69-1-1.26-1.75-1.83-3.13-.59-1.43-.96-2.88-1.18-3.74zm-.38.74c.18.68.45,2,1.03,3.29.6,1.33,1.32,2.37,1.59,2.72-.64.61-2.96,2.3-2.96,2.3S4.92,8.57,3.84,6.8c-.85-1.4-1.65-3.24-1.72-3.44.58-.42,3.56-1.76,4.16-1.89z"/><path stroke-width=".24" fill-rule="evenodd" d="m4.72,3.58c0-.32.28-.58.61-.58.34,0,.61.26.61.58s-.28.58-.61.58c-.34,0-.61-.26-.61-.58z"/></svg>