<svg xmlns="http://www.w3.org/2000/svg" id="prefix__prefix__prefix__svg2" height="14" width="14" version="1.0"><defs id="prefix__prefix__prefix__defs4"><clipPath clipPathUnits="userSpaceOnUse" id="prefix__prefix__prefix__clipoutline2"><path id="prefix__prefix__prefix__outline2" d="M55.8 12l.76.16c8.84-2.94 28.68 8.64 24.26 18.96-1.12 1.62-.93 4.5.42 6.31L56.43 62.25c-1.39-1.39-4.48-1.36-5.9 0L9.5 101.63c-3.74 3.59-.8 6.64.78 8.25l7.36 7.36c1.61 1.6 5.86 3.76 8.88.56l38.72-40.81c1.35-1.42 1.36-4.47 0-5.87 0 0 .01-.02 0-.02l24.91-24.9c2.63 2.37 5.114 2.575 7.47 1.93 4.55-1.245 7.087 3.207 9.81 6.46l-1.23 1.21c-1.82 1.84-1.65 4.94.39 6.98s5.15 2.21 6.97.39l8.14-8.13c1.82-1.84 1.65-4.94-.4-6.97-1.84-1.85-4.51-2.09-6.37-.77-5.58-6.26-2.65-7.2-10.01-15.35L91.13 17.86C81.2 8.12 68.3 8.13 55.8 12z"/></clipPath><clipPath clipPathUnits="userSpaceOnUse" id="prefix__prefix__prefix__clipoutline1"><path id="prefix__prefix__prefix__outline1" d="M22.42 17.2l12.96 12.95-2.5 8.78-8.78 2.5-12.96-12.96-5.86 5.86 14.89 21.46 17.56-3.34 61.63 65.62c9.44 9.51 22.17-4.75 13.34-12.87L46.85 42.92l4.01-17.76-22.14-14.27zm81.06 91.97a4.297 4.297 0 016.08 0 4.297 4.297 0 010 6.08 4.316 4.316 0 01-6.08 0 4.297 4.297 0 010-6.08z"/></clipPath><marker id="prefix__prefix__prefix__ArrowStart" markerHeight="3" markerUnits="strokeWidth" markerWidth="4" orient="auto" refX="10" refY="5" viewBox="0 0 10 10"><path d="M10 0L0 5l10 5z" id="prefix__prefix__prefix__path2295"/></marker><marker id="prefix__prefix__prefix__ArrowEnd" markerHeight="3" markerUnits="strokeWidth" markerWidth="4" orient="auto" refX="0" refY="5" viewBox="0 0 10 10"><path d="M0 0l10 5-10 5z" id="prefix__prefix__prefix__path2292"/></marker><style id="style6" type="text/css"/></defs><path d="M6.672.725c-.796.231-2.113.79-2.924 1.162-.903.416-1.55.822-2.268 1.207.227.66.769 2.283 1.903 4.037.897 1.386 1.65 2.49 2.5 3.33l2.101-1.423c.075.62 2.17 3.502 2.877 4.025.273.202.464.038.928-.289.464-.327.639-.606.469-1-.347-.81-1.865-3.715-2.578-4.18-.686-.997-1.259-1.75-1.825-3.133-.585-1.43-.958-2.88-1.183-3.736zm-.383.744c.175.677.451 2.003 1.031 3.291.6 1.33 1.323 2.368 1.592 2.72-.644.605-2.957 2.298-2.957 2.298S4.92 8.565 3.842 6.8c-.854-1.4-1.645-3.242-1.717-3.44.583-.422 3.56-1.76 4.164-1.892z" id="prefix__prefix__prefix__path4036" fill="#000"/><path stroke-opacity="1" stroke-dasharray="none" stroke-miterlimit="4" stroke-width=".241" stroke="none" fill-rule="evenodd" fill-opacity="1" id="prefix__prefix__prefix__path4036-9-7" d="M4.722 3.583c0-.32.275-.58.614-.58.34 0 .614.26.614.58 0 .32-.275.58-.614.58-.34 0-.614-.26-.614-.58z" fill="#000"/></svg>