<?xml version="1.0" encoding="UTF-8" standalone="no"?>
<svg
   xmlns:dc="http://purl.org/dc/elements/1.1/"
   xmlns:cc="http://creativecommons.org/ns#"
   xmlns:rdf="http://www.w3.org/1999/02/22-rdf-syntax-ns#"
   xmlns:svg="http://www.w3.org/2000/svg"
   xmlns="http://www.w3.org/2000/svg"
   xmlns:sodipodi="http://sodipodi.sourceforge.net/DTD/sodipodi-0.dtd"
   xmlns:inkscape="http://www.inkscape.org/namespaces/inkscape"
   width="14"
   height="14"
   version="1.1"
   id="svg12"
   sodipodi:docname="cafe.svg"
   inkscape:version="1.0beta1 (32d4812, 2019-09-19)">
  <metadata
     id="metadata18">
    <rdf:RDF>
      <cc:Work
         rdf:about="">
        <dc:format>image/svg+xml</dc:format>
        <dc:type
           rdf:resource="http://purl.org/dc/dcmitype/StillImage" />
      </cc:Work>
    </rdf:RDF>
  </metadata>
  <defs
     id="defs16" />
  <sodipodi:namedview
     pagecolor="#ffffff"
     bordercolor="#666666"
     inkscape:document-rotation="0"
     borderopacity="1"
     objecttolerance="10"
     gridtolerance="10"
     guidetolerance="10"
     inkscape:pageopacity="0"
     inkscape:pageshadow="2"
     inkscape:window-width="1600"
     inkscape:window-height="907"
     id="namedview14"
     showgrid="false"
     inkscape:zoom="15.839192"
     inkscape:cx="15.585839"
     inkscape:cy="9.9012897"
     inkscape:window-x="0"
     inkscape:window-y="23"
     inkscape:window-maximized="0"
     inkscape:current-layer="svg12" />
  <path
     d="m 0,11 h 11 c 0,1 -1,2 -2,2 H 2 C 1,13 0,12 0,11 Z"
     id="path24" />
  <path
     sodipodi:nodetypes="ccsssccccsssscssc"
     inkscape:connector-curvature="0"
     id="path10"
     d="m 10,3.25 v 2.5 h 1.75 c 0.612,0 1,-0.563 1,-1.25 0,-0.687 -0.332,-1.25 -1,-1.25 z M 1,1 h 9 v 1 h 2 c 1,0 2,1 2,2 v 1 c 0,1 -1,2 -2,2 H 10 C 10,9 8,10 5.5,10 3,10 1,9 1,7 Z" />
</svg>
