<?xml version="1.0" encoding="UTF-8" standalone="no"?>
<svg
   viewBox="0,1,14,14"
   height="14"
   width="14"
   version="1.1"
   id="svg6"
   sodipodi:docname="car_filtered.svg"
   inkscape:version="1.1.2 (0a00cf5339, 2022-02-04)"
   xmlns:inkscape="http://www.inkscape.org/namespaces/inkscape"
   xmlns:sodipodi="http://sodipodi.sourceforge.net/DTD/sodipodi-0.dtd"
   xmlns="http://www.w3.org/2000/svg"
   xmlns:svg="http://www.w3.org/2000/svg">
  <defs
     id="defs10" />
  <sodipodi:namedview
     id="namedview8"
     pagecolor="#ffffff"
     bordercolor="#666666"
     borderopacity="1.0"
     inkscape:pageshadow="2"
     inkscape:pageopacity="0.0"
     inkscape:pagecheckerboard="0"
     showgrid="false"
     inkscape:zoom="58.571429"
     inkscape:cx="7.0085366"
     inkscape:cy="5.7109756"
     inkscape:window-width="1920"
     inkscape:window-height="995"
     inkscape:window-x="0"
     inkscape:window-y="0"
     inkscape:window-maximized="1"
     inkscape:current-layer="svg6" />
  <path
     id="path829"
     d="m 1.6,8.5 a 0.9,0.9 0 1 1 0,0.01 z m 9,0 a 0.9,0.9 0 1 1 0,0.01 z M 3.5,2 A 1.5,1.5 0 0 0 2,3.5 V 6 H 1.5 A 1.5,1.5 0 0 0 0,7.5 v 3 a 1.5,1.5 0 0 0 1,1.402344 V 14 h 2 v -2 h 8 v 2 h 2 V 11.902344 A 1.5,1.5 0 0 0 14,10.5 v -3 A 1.5,1.5 0 0 0 12.5,6 H 12 V 3.5 A 1.5,1.5 0 0 0 10.5,2 Z m 1,1.5 h 5 a 1,1 0 0 1 1,1 V 6 h -7 V 4.5 a 1,1 0 0 1 1,-1 z" />
</svg>
