<?xml version="1.0" encoding="UTF-8" standalone="no"?>
<svg
   height="14"
   width="14"
   version="1.1"
   id="svg4"
   sodipodi:docname="car_wash_filtered.svg"
   inkscape:version="1.1.2 (0a00cf5339, 2022-02-04)"
   xmlns:inkscape="http://www.inkscape.org/namespaces/inkscape"
   xmlns:sodipodi="http://sodipodi.sourceforge.net/DTD/sodipodi-0.dtd"
   xmlns="http://www.w3.org/2000/svg"
   xmlns:svg="http://www.w3.org/2000/svg">
  <defs
     id="defs8" />
  <sodipodi:namedview
     id="namedview6"
     pagecolor="#ffffff"
     bordercolor="#666666"
     borderopacity="1.0"
     inkscape:pageshadow="2"
     inkscape:pageopacity="0.0"
     inkscape:pagecheckerboard="0"
     showgrid="false"
     inkscape:zoom="29.285714"
     inkscape:cx="0.63170732"
     inkscape:cy="11.763415"
     inkscape:window-width="1920"
     inkscape:window-height="995"
     inkscape:window-x="0"
     inkscape:window-y="0"
     inkscape:window-maximized="1"
     inkscape:current-layer="svg4" />
  <path
     d="M 6,0 4,1 h 6 L 8,0 Z"
     id="path831" />
  <path
     d="m 6.5,2 h 1 v 3 h -1 z"
     id="path829" />
  <path
     d="m 9,2 2,3 h 1 L 10,2 Z"
     id="path827" />
  <path
     d="M 5,2 3,5 H 2 L 4,2 Z"
     id="path2" />
  <path
     id="path829-6"
     d="m 2.8324262,10.599392 c 0.00578,-1.0440525 1.3534042,-0.7529146 1.3534042,0.0038 0,0.756665 -1.3476224,1.047802 -1.3534042,0.0038 z m 6.7716699,0 c 0.00578,-1.0440525 1.3534039,-0.7529146 1.3534039,0.0038 0,0.756665 -1.3476221,1.047802 -1.3534039,0.0038 z M 4.2620007,5.708741 c -0.6233147,0 -1.1286112,0.5052963 -1.1286115,1.128611 v 1.88102 H 2.7571854 c -0.6233148,0 -1.1286114,0.5052965 -1.1286115,1.1286113 v 2.2572237 c 0.00376,0.475005 0.3045491,0.89681 0.7524077,1.055135 v 0.844742 l 1.5048153,-0.0046 v -0.766652 h 6.0192622 v 0.762039 l 1.5048149,0.0046 v -0.840128 c 0.447858,-0.158325 0.748643,-0.58013 0.752407,-1.055135 V 9.8469833 c 0,-0.6233143 -0.505296,-1.1286105 -1.12861,-1.1286113 h -0.376204 v -1.88102 c 0,-0.6233149 -0.505297,-1.1286112 -1.1286119,-1.128611 z m 0.7524076,1.128611 h 3.7620398 c 0.4155432,4e-7 0.7524072,0.3368648 0.752407,0.752408 V 8.718372 H 4.2620007 V 7.58976 c -2e-7,-0.4155434 0.3368642,-0.752408 0.7524076,-0.752408 z"
     style="stroke-width:0.752408"
     sodipodi:nodetypes="cscccsccsscssccccccccccsscsssscsccss" />
</svg>
