<?xml version="1.0" encoding="UTF-8" standalone="no"?>
<svg
   width="14"
   height="14"
   version="1.1"
   id="svg4"
   sodipodi:docname="car_repair_filtered.svg"
   inkscape:version="1.1.2 (0a00cf5339, 2022-02-04)"
   xmlns:inkscape="http://www.inkscape.org/namespaces/inkscape"
   xmlns:sodipodi="http://sodipodi.sourceforge.net/DTD/sodipodi-0.dtd"
   xmlns="http://www.w3.org/2000/svg"
   xmlns:svg="http://www.w3.org/2000/svg">
  <defs
     id="defs8" />
  <sodipodi:namedview
     id="namedview6"
     pagecolor="#ffffff"
     bordercolor="#666666"
     borderopacity="1.0"
     inkscape:pageshadow="2"
     inkscape:pageopacity="0.0"
     inkscape:pagecheckerboard="0"
     showgrid="false"
     inkscape:zoom="58.571429"
     inkscape:cx="7.0085366"
     inkscape:cy="4.1914634"
     inkscape:window-width="1920"
     inkscape:window-height="995"
     inkscape:window-x="0"
     inkscape:window-y="0"
     inkscape:window-maximized="1"
     inkscape:current-layer="svg4" />
  <path
     id="path2"
     d="M 2.74,0 C 2.03,0 1.37,0.41 1,1 H 3.37 L 3.99,2 3.37,3 H 1 C 1.37,3.59 2.03,4 2.74,4 3.5,4 4.15,3.6 4.51,3 H 9.18 C 9.54,3.6 10.19,4 10.95,4 12.08,4 13,3.11 13,2 13,0.89 12.08,0 10.95,0 10.19,0 9.54,0.4 9.18,1 H 4.51 C 4.15,0.4 3.5,0 2.74,0 Z m 7.58,1 h 1.25 l 0.62,1 -0.62,1 H 10.32 L 9.7,2 Z" />
  <path
     id="path829"
     d="m 2.9569034,9.8590864 a 0.67716688,0.67716688 0 1 1 0,0.0075 z m 6.77167,0 a 0.67716688,0.67716688 0 1 1 0,0.0075 z m -5.3420955,-4.89065 a 1.1286115,1.1286115 0 0 0 -1.1286115,1.128611 v 1.88102 H 2.8816626 a 1.1286115,1.1286115 0 0 0 -1.1286115,1.128611 v 2.2572236 a 1.1286115,1.1286115 0 0 0 0.7524077,1.055135 v 1.578292 h 1.5048153 v -1.504815 h 6.0192619 v 1.504815 h 1.504815 v -1.578292 a 1.1286115,1.1286115 0 0 0 0.752407,-1.055135 V 9.1066784 a 1.1286115,1.1286115 0 0 0 -1.12861,-1.128611 h -0.376204 v -1.88102 A 1.1286115,1.1286115 0 0 0 9.6533324,4.9684364 Z m 0.7524076,1.128611 h 3.7620399 a 0.75240764,0.75240764 0 0 1 0.752407,0.752408 v 1.128612 H 4.3864779 v -1.128612 a 0.75240764,0.75240764 0 0 1 0.7524076,-0.752408 z"
     style="stroke-width:0.752408" />
</svg>
