<svg width="14" height="14" viewBox="0 0 3.704 3.704" xmlns="http://www.w3.org/2000/svg"><path d="M2.09 1.315a.528.528 0 00-.53.53v1.057c0 .294.237.53.53.53h1.058c.293 0 .53-.236.53-.53V1.844a.528.528 0 00-.53-.53zm1.058.198a.33.33 0 01.33.331.33.33 0 01-.33.33.33.33 0 01-.33-.33.33.33 0 01.33-.33zM2.09 2.572a.33.33 0 01.33.33.33.33 0 01-.33.331.33.33 0 01-.33-.33.33.33 0 01.33-.331z"/><path d="M1.023.281a.53.53 0 00-.421.265l-.53.918a.523.523 0 00.19.72l.918.528c.038.022.077.046.116.058v-.926c0-.435.359-.794.794-.794h.322A.527.527 0 002.24.885L1.32.355a.52.52 0 00-.298-.074zm.08.188a.33.33 0 11-.006.661.33.33 0 01.007-.661zm-.56.972a.33.33 0 11-.007.661.33.33 0 01.007-.661z"/></svg>