<?xml version="1.0" encoding="UTF-8" standalone="no"?>
<svg
   xmlns:dc="http://purl.org/dc/elements/1.1/"
   xmlns:cc="http://creativecommons.org/ns#"
   xmlns:rdf="http://www.w3.org/1999/02/22-rdf-syntax-ns#"
   xmlns:svg="http://www.w3.org/2000/svg"
   xmlns="http://www.w3.org/2000/svg"
   xmlns:sodipodi="http://sodipodi.sourceforge.net/DTD/sodipodi-0.dtd"
   xmlns:inkscape="http://www.inkscape.org/namespaces/inkscape"
   inkscape:version="1.0beta1 (32d4812, 2019-09-19)"
   sodipodi:docname="chalet.svg"
   id="svg837"
   version="1.1"
   height="14"
   width="14">
  <metadata
     id="metadata843">
    <rdf:RDF>
      <cc:Work
         rdf:about="">
        <dc:format>image/svg+xml</dc:format>
        <dc:type
           rdf:resource="http://purl.org/dc/dcmitype/StillImage" />
      </cc:Work>
    </rdf:RDF>
  </metadata>
  <defs
     id="defs841" />
  <sodipodi:namedview
     inkscape:current-layer="svg837"
     inkscape:window-maximized="0"
     inkscape:window-y="23"
     inkscape:window-x="0"
     inkscape:cy="18.016173"
     inkscape:cx="16.382202"
     inkscape:zoom="15.839192"
     showgrid="false"
     id="namedview839"
     inkscape:window-height="907"
     inkscape:window-width="1600"
     inkscape:pageshadow="2"
     inkscape:pageopacity="0"
     guidetolerance="10"
     gridtolerance="10"
     objecttolerance="10"
     borderopacity="1"
     inkscape:document-rotation="0"
     bordercolor="#666666"
     pagecolor="#ffffff" />
  <path
     id="path833"
     d="M4.242.733L0 4.593h.49v6.629h2.596V7.507h2.312v2.74l-2.252 2.588a.25.25 0 00.188.414l10.414.018a.25.25 0 00.232-.346l-3.375-8.108a.25.25 0 00-.42-.068l-2.19 2.518v-2.67h.49zm6.055 4.645l3.076 7.389-9.49-.018 1.515-1.742v.215h2.596V8.024z" />
  <path
     style="fill:#000000;fill-opacity:1"
     id="path835"
     fill-opacity=".2"
     d="M10.297 5.378L7.994 8.024v3.198H5.398v-.215l-1.515 1.742 9.49.018z" />
</svg>
