<?xml version="1.0" encoding="UTF-8" standalone="no"?>
<svg
   xmlns:dc="http://purl.org/dc/elements/1.1/"
   xmlns:cc="http://creativecommons.org/ns#"
   xmlns:rdf="http://www.w3.org/1999/02/22-rdf-syntax-ns#"
   xmlns:svg="http://www.w3.org/2000/svg"
   xmlns="http://www.w3.org/2000/svg"
   xmlns:sodipodi="http://sodipodi.sourceforge.net/DTD/sodipodi-0.dtd"
   xmlns:inkscape="http://www.inkscape.org/namespaces/inkscape"
   inkscape:version="1.0beta1 (32d4812, 2019-09-19)"
   sodipodi:docname="clothes.svg"
   id="svg74"
   version="1.1"
   height="14"
   width="14">
  <metadata
     id="metadata80">
    <rdf:RDF>
      <cc:Work
         rdf:about="">
        <dc:format>image/svg+xml</dc:format>
        <dc:type
           rdf:resource="http://purl.org/dc/dcmitype/StillImage" />
      </cc:Work>
    </rdf:RDF>
  </metadata>
  <defs
     id="defs78" />
  <sodipodi:namedview
     inkscape:current-layer="svg74"
     inkscape:window-maximized="0"
     inkscape:window-y="23"
     inkscape:window-x="0"
     inkscape:cy="6.7934089"
     inkscape:cx="7"
     inkscape:zoom="19.428571"
     showgrid="false"
     id="namedview76"
     inkscape:window-height="716"
     inkscape:window-width="807"
     inkscape:pageshadow="2"
     inkscape:pageopacity="0"
     guidetolerance="10"
     gridtolerance="10"
     objecttolerance="10"
     borderopacity="1"
     inkscape:document-rotation="0"
     bordercolor="#666666"
     pagecolor="#ffffff" />
  <path
     inkscape:connector-curvature="0"
     d="M 5,1 C 5.0180444,2.2831613 6.5167194,3.440608 7.734375,2.828125 8.4293479,2.4962841 8.9868971,1.7891547 9,1 c 0.6666667,0 1.333333,0 2,0 1,0.6666667 2,1.3333333 3,2 C 13.666667,4.1166667 13.333333,5.2333333 13,6.35 12.333333,5.9 11.666667,5.45 11,5 c 0,2.6666667 0,5.333333 0,8 C 8.3333333,13 5.6666667,13 3,13 3,10.333333 3,7.6666667 3,5 2.3333333,5.45 1.6666667,5.9 1,6.35 0.66666667,5.2333333 0.33333333,4.1166667 0,3 1,2.3333333 2,1.6666667 3,1 3.6666667,1 4.3333333,1 5,1 Z"
     id="path72" />
</svg>
