<svg xmlns="http://www.w3.org/2000/svg" width="14" height="14"><path d="m6,0v3.27A2,2,0,006,6.73V14h2V6.73A2,2,0,008,3.27V0H6zm5.01,0v1.28c1.2.71,1.95,1.91,1.95,3.44,0,1.53-.75,2.75-1.95,3.46v1.3c1.77-.8,3-2.66,3-4.76,0-2.11-1.23-3.92-3-4.72zM3,0C1.23.81,0,2.64,0,4.74S1.23,8.7,3,9.5V8.28c-1.2-.71-1.97-2.08-1.97-3.61,0-1.53.77-2.72,1.97-3.44V0zm1,1.86c-1.16.43-2,1.55-2,2.88,0,1.33.84,2.47,2,2.9V6.49c-.6-.35-.93-1.02-.93-1.79s.33-1.34.93-1.7V1.86zm6.01.01v1.11a2.05,2.05,0,011.02,1.77c0,.77-.42,1.3-1.02,1.66v1.13c1.16-.43,1.97-1.45,1.97-2.78,0-1.33-.81-2.44-1.97-2.87z"/><path d="m4,14,3-3,3,3z" fill-rule="evenodd"/></svg>