<svg xmlns="http://www.w3.org/2000/svg" width="14" height="14"><path d="M6 0v3.271A2 2 0 005 5a2 2 0 001 1.73V14h2V6.729A2 2 0 009 5a2 2 0 00-1-1.73V0H6zm5.006 0v1.281c1.196.71 1.947 1.913 1.947 3.444 0 1.53-.75 2.752-1.947 3.463v1.298c1.769-.801 2.998-2.655 2.998-4.761 0-2.107-1.23-3.923-2.998-4.725zM3 .004C1.231.805.004 2.636.004 4.742.004 6.848 1.23 8.702 3 9.504V8.279c-1.196-.71-1.965-2.078-1.965-3.61 0-1.53.768-2.724 1.965-3.435V.004zm1 1.855c-1.158.43-2 1.55-2 2.883 0 1.334.842 2.466 2 2.895V6.492c-.597-.354-.928-1.02-.928-1.785 0-.765.33-1.34.928-1.695V1.859zm6.006.01v1.106a2.054 2.054 0 011.017 1.767c0 .765-.42 1.304-1.017 1.658v1.125c1.158-.428 1.965-1.45 1.965-2.783 0-1.334-.807-2.444-1.965-2.873z"/><path d="M4 14l3-3 3 3z" fill-rule="evenodd"/></svg>