<svg xmlns="http://www.w3.org/2000/svg" height="14" width="14"><path d="M1.297 0a.325.325 0 00-.324.324v2.324l-.94 2.14c-.016.048-.033.08-.033.128v8.76c0 .178.146.324.324.324H14V8.244H7.504l.002-3.328a.302.302 0 00-.031-.129l-.942-2.139V.324A.325.325 0 006.21 0zm.324.664h4.264v1.902H1.62zm-.049 2.227h4.346l.016.033c-.302.682-.615 1.38-.875 1.959v3.361H3.432v5.096H.656C.641 10.582.648 7.772.648 4.996zm4.54.437l.73 1.668v3.248H5.38V4.955l.002-.006zM5.308 9.08a.952.952 0 11-.003 1.905.952.952 0 01.003-1.905zm6.418.408a1.301 1.301 0 11-.002 2.603 1.301 1.301 0 01.002-2.603zm-3.63 1.533a1.101 1.101 0 110 2.203 1.101 1.101 0 010-2.203z" stroke-width=".162"/></svg>