<svg xmlns="http://www.w3.org/2000/svg" height="14" width="14"><path d="m5,0C4,0,4,0,4,1l.01,3H1v9c0,1,0,1,1,1h10c1,0,1,0,1-1V4h-2.96L10,1c0-1,0-1-1-1H5zm0,1h4v3H5V1zm1.57,4.5c.76,0,1.33.15,1.68.45.36.3.54.65.54,1.06,0,.23-.05.45-.16.66-.11.21-.24.39-.4.52-.15.13-.43.33-.83.59.33.33.68.64,1.03.92.1-.19.18-.39.25-.61l1.47.33c-.08.27-.15.49-.22.65-.07.16-.17.36-.3.58l.71.49c.09.06.2.12.34.2L9.66,12.5a8.08,8.08,0,01-.58-.34,13.18,13.18,0,00-.53-.33,3.78,3.78,0,01-.98.47,5.42,5.42,0,01-1.55.2c-.91,0-1.58-.19-2.02-.56-.44-.38-.66-.83-.66-1.37,0-.39.13-.75.39-1.09.26-.34.69-.64,1.28-.87-.25-.3-.42-.56-.51-.78a1.74,1.74,0,01-.14-.68c0-.48.18-.87.55-1.19.37-.31.93-.47,1.68-.47zm.08,1.02a.67.67,0,00-.47.17.52.52,0,00-.18.39c0,.19.17.47.51.83.24-.13.43-.28.57-.43.13-.16.2-.31.2-.45a.46.46,0,00-.17-.36c-.11-.1-.27-.15-.46-.15zm-.81,3.04c-.26.18-.43.34-.52.47a.74.74,0,00-.13.41c0,.23.1.43.29.6.2.18.45.26.76.26.34,0,.72-.13,1.14-.4a21.13,21.13,0,01-1.55-1.35z"/></svg>