<svg xmlns="http://www.w3.org/2000/svg" height="14" width="14"><path d="M5 0C4 0 4 0 4 1l.01 3H1v9c0 1 0 1 1 1h10c1 0 1 0 1-1V4h-2.96L10 1c0-1 0-1-1-1H5zm0 1h4v3H5V1zm1.568 4.5c.764 0 1.325.15 1.684.445.359.296.537.65.537 1.063 0 .23-.053.451-.164.664-.108.212-.24.385-.395.517-.154.133-.43.33-.83.592.331.33.675.637 1.034.92.095-.19.178-.393.246-.605l1.474.326c-.077.27-.151.489-.222.652-.072.163-.171.357-.301.578l.709.485c.086.055.2.122.336.199L9.658 12.5a8.082 8.082 0 01-.58-.342 13.18 13.18 0 00-.533-.334 3.782 3.782 0 01-.984.473 5.42 5.42 0 01-1.55.203c-.906 0-1.58-.189-2.023-.564-.442-.376-.664-.832-.664-1.368 0-.385.131-.748.39-1.09.26-.344.685-.635 1.276-.873-.247-.298-.417-.556-.51-.775a1.738 1.738 0 01-.138-.676c0-.48.182-.874.55-1.185.369-.311.928-.469 1.676-.469zm.078 1.016a.667.667 0 00-.468.168.515.515 0 00-.18.392c0 .191.17.469.51.832.244-.132.433-.275.566-.43.133-.157.2-.306.2-.445a.464.464 0 00-.167-.363c-.11-.102-.266-.154-.46-.154zm-.812 3.037c-.26.181-.431.337-.518.467a.744.744 0 00-.127.41c0 .225.099.426.293.601.195.176.45.264.762.264.337 0 .716-.133 1.137-.395a21.128 21.128 0 01-1.547-1.347z"/></svg>