<svg xmlns="http://www.w3.org/2000/svg" width="14" height="14"><path d="m2,1C1,1,0,2,0,3v1h4l1-1h4l1,1h4V3c0-1-1-2-2-2zM0,4.75v.5S.37,6,1,6h2c.57-.02,1-.75,1-.75v-.5zm10,0v.5s.43.75,1,.75h2c.57,0,1-.75,1-.75v-.5zM1.5,8C.71,8,0,8.57,0,9.5,0,10.48.72,11,1.5,11h1s.5,0,.5.5l-.5.5h-2v1h2c.78,0,1.5-.6,1.5-1.53C4,10.59,3.26,10,2.5,10h-1S1,10,1,9.5l.5-.5h2V8zm5,0C5,8,5,9.5,5,9.5v2S5,13,6.5,13h1C9,13,9,11.5,9,11.5v-2S9,8,7.5,8zm5,0c-.79,0-1.5.57-1.5,1.5,0,.98.72,1.5,1.5,1.5h1s.5,0,.5.5l-.5.5h-2v1h2c.78,0,1.5-.6,1.5-1.53,0-.88-.74-1.47-1.5-1.47h-1s-.5,0-.5-.5l.5-.5h2V8zM6,9.75S6,9,6.75,9h.5C8,9,8,9.75,8,9.75v1.5s0,.75-.75.75h-.5C6,12,6,11.25,6,11.25z" color="#000"/></svg>