<svg xmlns="http://www.w3.org/2000/svg" height="14" width="14"><path d="m7,0c-.88,0-1.59.7-1.59,1.57,0,.64.39,1.19.94,1.43l-.02,1H2v1h4.31l-.12,5.9c0,.13,0,1.39-1.7.52-1.71-.88-.74-1.87-.63-1.9C2.86,9.2,1.95,8.32,1.22,7.42c-.72,1.6.57,3.32.63,3.56.16-.17.39-.14.53-.12C4.11,13.57,6.39,13.24,7,14c.61-.76,2.89-.43,4.62-3.14.14-.02.37-.05.53.12.06-.25,1.35-1.96.63-3.56-.73.9-1.64,1.78-2.64,2.09.11.03,1.08,1.02-.63,1.9-1.7.88-1.7-.39-1.7-.52-.04-1.97-.08-3.93-.12-5.9H12V4H7.67l-.02-1a1.57,1.57,0,00.94-1.43C8.59.7,7.88,0,7,0zm0,.99a.57.57,0,01.56.57A.57.57,0,017,2.14a.57.57,0,01-.56-.57A.57.57,0,017,.99z" color="#000" fill-rule="evenodd"/></svg>