<?xml version="1.0" encoding="UTF-8" standalone="no"?>
<svg
   xmlns:dc="http://purl.org/dc/elements/1.1/"
   xmlns:cc="http://creativecommons.org/ns#"
   xmlns:rdf="http://www.w3.org/1999/02/22-rdf-syntax-ns#"
   xmlns:svg="http://www.w3.org/2000/svg"
   xmlns="http://www.w3.org/2000/svg"
   xmlns:sodipodi="http://sodipodi.sourceforge.net/DTD/sodipodi-0.dtd"
   xmlns:inkscape="http://www.inkscape.org/namespaces/inkscape"
   inkscape:version="1.0beta1 (32d4812, 2019-09-19)"
   sodipodi:docname="fountain.svg"
   id="svg12"
   version="1.1"
   width="14"
   height="14">
  <metadata
     id="metadata18">
    <rdf:RDF>
      <cc:Work
         rdf:about="">
        <dc:format>image/svg+xml</dc:format>
        <dc:type
           rdf:resource="http://purl.org/dc/dcmitype/StillImage" />
      </cc:Work>
    </rdf:RDF>
  </metadata>
  <defs
     id="defs16" />
  <sodipodi:namedview
     inkscape:current-layer="svg12"
     inkscape:window-maximized="0"
     inkscape:window-y="23"
     inkscape:window-x="0"
     inkscape:cy="6.0317235"
     inkscape:cx="11.723536"
     inkscape:zoom="22.4"
     showgrid="false"
     id="namedview14"
     inkscape:window-height="907"
     inkscape:window-width="1600"
     inkscape:pageshadow="2"
     inkscape:pageopacity="0"
     guidetolerance="10"
     gridtolerance="10"
     objecttolerance="10"
     borderopacity="1"
     inkscape:document-rotation="0"
     bordercolor="#666666"
     pagecolor="#ffffff" />
  <path
     sodipodi:nodetypes="scccsssssscccccsssssccccsscss"
     inkscape:connector-curvature="0"
     id="path24"
     d="M 11,2.924 C 11,3.924 10,3.528 10,3 9,1 8,1.814 7.75,4.558 c -0.017,0.089 0,0.179 0,0.269 0.383,-0.189 0.812,-0.31 1.242,-0.31 1.467,0 2.75,1.033 2.75,3 v 1 c 0,1 -1.5,1 -1.5,0 v -1 c 0,-0.966 -0.683,-1.5 -1.25,-1.5 -0.549,0 -1.201,0.536 -1.242,1.416 V 7.558 L 7.727,10 C 7,9.406 7,9.422 6.242,10 V 7.476 C 6.202,6.594 5.55,6.058 5,6.058 c -0.567,0 -1.25,0.534 -1.25,1.5 v 1 c 0,1 -1.5,1 -1.5,0 v -1 c 0,-1.967 1.283,-3 2.75,-3 0.4322108,0.00736 0.8570239,0.1133944 1.242,0.31 V 4.518 C 6,1.357 5,0.97 4,2.97 4,3.615 3,3.94 3,2.94 c 0,-1 0.5,-2.925 2,-2.925 1,0 1.651,1.043 1.988,1.86 C 7.325,1.096 8,0.06 9,0.06 c 1.5,0 2,1.864 2,2.864 z" />
  <path
     sodipodi:nodetypes="cccccc"
     id="path10"
     d="M 3.7990256,13.309616 C 2.5058605,12.87343 1.1730752,12.252847 0.37880721,11.126269 H 13.621193 c -0.400156,0.747663 -1.146726,1.242212 -1.899725,1.619903 C 10.256521,13.440765 8.630526,13.830371 7,13.873731 5.9107762,13.860068 4.8309066,13.638534 3.7990256,13.309616 Z"
     inkscape:connector-curvature="0"
     style="stroke-width:0.930731" />
</svg>
