<svg xmlns="http://www.w3.org/2000/svg" width="14" height="14"><path d="M11 2.924c0 1-1 .604-1 .076-1-2-2-1.186-2.25 1.558-.017.089 0 .179 0 .269.383-.189.812-.31 1.242-.31 1.467 0 2.75 1.033 2.75 3v1c0 1-1.5 1-1.5 0v-1c0-.966-.683-1.5-1.25-1.5-.549 0-1.201.536-1.242 1.416v.125L7.727 10C7 9.406 7 9.422 6.242 10V7.476C6.202 6.594 5.55 6.058 5 6.058c-.567 0-1.25.534-1.25 1.5v1c0 1-1.5 1-1.5 0v-1c0-1.967 1.283-3 2.75-3 .432.007.857.113 1.242.31v-.35C6 1.357 5 .97 4 2.97c0 .645-1 .97-1-.03S3.5.015 5 .015c1 0 1.651 1.043 1.988 1.86C7.325 1.096 8 .06 9 .06c1.5 0 2 1.864 2 2.864zM3.799 13.31c-1.293-.436-2.626-1.057-3.42-2.183H13.62c-.4.747-1.147 1.242-1.9 1.62A11.817 11.817 0 017 13.874c-1.09-.013-2.17-.235-3.201-.564z"/></svg>