<svg xmlns="http://www.w3.org/2000/svg" width="14" height="14"><path d="M4.375.5c-.875 0-1.75.613-1.75 1.75S3.145 4 4.281 4h5.375c1.136 0 1.719-.583 1.719-1.719C11.375 1.144 10.5.5 9.625.5 8.299.5 7.333 1.303 7 2.469 6.666 1.303 5.73.5 4.375.5zm0 .875c1.417 0 1.656 1.12 1.75 1.75h-1.75c-.92 0-.875-.837-.875-.875 0-.038-.045-.875.875-.875zm5.25 0c.875 0 .875.837.875.875 0 .038.045.875-.875.875h-1.75c.094-.63.332-1.75 1.75-1.75zM4 5C3 5 2 6 2 7v1.75h4.25V5H4zm3.75 0v3.75H12V7c0-1-1-2-2-2H7.75zM2 10.25V12c0 1 1 2 2 2h2.25v-3.75H2zm5.75 0V14H10c1 0 2-1 2-2v-1.75H7.75z"/></svg>