<svg xmlns="http://www.w3.org/2000/svg" width="14" height="14"><path d="m4.38.5c-.88,0-1.75.61-1.75,1.75S3.15,4,4.28,4h5.38c1.14,0,1.72-.58,1.72-1.72C11.38,1.14,10.5.5,9.63.5,8.3.5,7.33,1.3,7,2.47,6.67,1.3,5.73.5,4.38.5zm0,.88c1.42,0,1.66,1.12,1.75,1.75h-1.75c-.92,0-.88-.84-.88-.88s-.05-.88.88-.88zm5.25,0c.88,0,.88.84.88.88s.05.88-.88.88h-1.75c.09-.63.33-1.75,1.75-1.75zM4,5C3,5,2,6,2,7v1.75h4.25V5H4zm3.75,0v3.75H12V7c0-1-1-2-2-2H7.75zM2,10.25V12c0,1,1,2,2,2h2.25v-3.75H2zm5.75,0V14H10c1,0,2-1,2-2v-1.75H7.75z"/></svg>