<svg xmlns="http://www.w3.org/2000/svg" width="20" height="20"><path d="m10.26,1.25-.7,1.02c-.17.24-.13.44.12.62.24.15.44.11.62-.12l.4-.6,6.23,4.09-5.09.92a.73.73,0,00-.45.29.52.52,0,00-.09.49l1.1,4.29-3.6,5.36a.76.76,0,00-.1.38c0,.21.08.4.23.55a.75.75,0,00.55.23c.28,0,.51-.13.68-.4l3.75-5.64.2.78-.56,4.23a.78.78,0,00.64.88c.21.04.41-.01.59-.13a.7.7,0,00.31-.51l.58-4.33a1.38,1.38,0,00-.04-.46l-1.28-5.08,3.34-.6a.61.61,0,00.42-.27.66.66,0,00.12-.49.76.76,0,00-.3-.44zm-8.49.4v16.75h1.13V6.4L8.45,4.14,2.89,2.08v-.43zm9.82,2.55c-.36,0-.66.12-.92.37a1.22,1.22,0,00-.38.91c0,.36.13.66.38.91.25.25.56.37.92.37.36,0,.67-.12.93-.37.26-.25.39-.55.39-.91,0-.36-.13-.66-.39-.91a1.31,1.31,0,00-.93-.37z"/></svg>