<?xml version="1.0" encoding="UTF-8" standalone="no"?>
<svg
   xmlns:dc="http://purl.org/dc/elements/1.1/"
   xmlns:cc="http://creativecommons.org/ns#"
   xmlns:rdf="http://www.w3.org/1999/02/22-rdf-syntax-ns#"
   xmlns:svg="http://www.w3.org/2000/svg"
   xmlns="http://www.w3.org/2000/svg"
   xmlns:sodipodi="http://sodipodi.sourceforge.net/DTD/sodipodi-0.dtd"
   xmlns:inkscape="http://www.inkscape.org/namespaces/inkscape"
   inkscape:version="1.0beta1 (32d4812, 2019-09-19)"
   sodipodi:docname="guest_house.svg"
   id="svg837"
   version="1.1"
   width="14"
   height="14">
  <metadata
     id="metadata843">
    <rdf:RDF>
      <cc:Work
         rdf:about="">
        <dc:format>image/svg+xml</dc:format>
        <dc:type
           rdf:resource="http://purl.org/dc/dcmitype/StillImage" />
      </cc:Work>
    </rdf:RDF>
  </metadata>
  <defs
     id="defs841" />
  <sodipodi:namedview
     inkscape:current-layer="svg837"
     inkscape:window-maximized="0"
     inkscape:window-y="23"
     inkscape:window-x="0"
     inkscape:cy="12.162388"
     inkscape:cx="12.645827"
     inkscape:zoom="22.4"
     showgrid="false"
     id="namedview839"
     inkscape:window-height="907"
     inkscape:window-width="1600"
     inkscape:pageshadow="2"
     inkscape:pageopacity="0"
     guidetolerance="10"
     gridtolerance="10"
     objecttolerance="10"
     borderopacity="1"
     inkscape:document-rotation="0"
     bordercolor="#666666"
     pagecolor="#ffffff" />
  <path
     inkscape:connector-curvature="0"
     style="opacity:1;fill:#000000;fill-opacity:1;stroke-width:0.545201"
     id="path833"
     fill-opacity=".3"
     opacity=".9"
     d="M 9.5,0.54049999 6.2232143,2.7976006 H 7.3154762 V 7.1517857 H 8.9538691 V 4.43042 h 1.0922619 v 2.7213657 h 1.638393 V 2.7976006 h 1.092261 z" />
  <path
     id="path835"
     d="M.5 6c-.277 0-.5.223-.5.5V14h1v-2h12v2h1V8.5a.499.499 0 10-1 0V11H1V6.5C1 6.223.777 6 .5 6zm3 1a1.5 1.5 0 100 3 1.5 1.5 0 000-3zM6 8v2h6c0-1-1.036-2-2-2z" />
</svg>
