<svg xmlns="http://www.w3.org/2000/svg" height="14" width="14"><path d="M3.5 1a1.5 1.5 0 100 3 1.5 1.5 0 000-3zM6 2v2h6c0-1-1.036-2-2-2zM3.5 7a1.5 1.5 0 100 3 1.5 1.5 0 000-3zM6 8v2l6 .013C12 9 10.964 8 10 8z"/><path paint-order="markers stroke fill" d="M0 1h1v13H0z"/><rect ry=".5" height="13" width="1" paint-order="markers stroke fill"/><path paint-order="markers stroke fill" d="M13 4h1v10h-1z"/><rect ry=".5" y="2" x="13" height="12" width="1" paint-order="markers stroke fill"/><path paint-order="markers stroke fill" d="M13 5v1H0V5zM13 11v1H0v-1z"/></svg>