<svg xmlns="http://www.w3.org/2000/svg" height="14" width="14"><path d="m7.76,9.68q-.48.55-1.08.88-.59.33-1.19.33-.66,0-1.28-.38-.62-.38-1.01-1.16-.39-.79-.39-1.72,0-1.16.6-2.31.61-1.17,1.5-1.75.9-.58,1.74-.58.64,0,1.23.34.58.33,1,1l.25-1.13h1.32L9.4,8.07q-.22,1.02-.22,1.13,0,.2.15.34.16.14.37.14.39,0,1.03-.44.84-.58,1.33-1.56.5-.98.5-2.02,0-1.22-.64-2.27-.63-1.06-1.89-1.69-1.25-.63-2.76-.63-1.73,0-3.16.8-1.43.79-2.22,2.29-.78,1.48-.78,3.19,0,1.78.78,3.07.79,1.29,2.28,1.9,1.49.62,3.3.62,1.94,0,3.25-.64,1.31-.64,1.96-1.56H14q-.38.76-1.29,1.56-.92.79-2.18,1.25Q9.26,14,7.48,14q-1.64,0-3.03-.42-1.38-.42-2.36-1.25-.98-.83-1.47-1.91Q0,9.05,0,7.45,0,5.68.74,4.07q.9-1.97,2.56-3.02Q4.96,0,7.33,0q1.83,0,3.29.74,1.46.74,2.31,2.2.72,1.26.72,2.74,0,2.11-1.51,3.75-1.35,1.47-2.94,1.47-.51,0-.83-.15-.31-.15-.46-.44-.1-.18-.14-.63zM4.18,7.71q0,1,.48,1.55t1.1.55q.41,0,.87-.24.46-.25.87-.73.42-.48.69-1.22.27-.74.27-1.49,0-.99-.5-1.54-.5-.55-1.21-.55-.47,0-.9.24-.41.23-.81.76-.39.52-.63,1.27-.24.75-.24,1.38z" stroke-width=".38"/></svg>