<svg xmlns="http://www.w3.org/2000/svg" height="14" width="14"><path d="m4.47,1c-.04,0-.07.02-.1.03-.02.01-.05.01-.07.02-.01,0-.01,0-.02.01L.27,3.05v.01A.49.49,0,000,3.5v9c0,.01,0,.01,0,.02,0,.03.01.06.02.09.01.04.01.07.03.1,0,.01,0,.01,0,.02.01.01.02.01.02.02a.49.49,0,00.15.16c.02.01.03.02.05.03A.49.49,0,00.5,13c.01,0,.01,0,.02,0,.01,0,.01,0,.02,0,.03,0,.07-.02.1-.03.03-.01.05-.01.07-.02.01,0,.01,0,.02-.01l3.76-1.88,4.82,1.89a.5.5,0,00.21.05L9.51,13c0,0,.01,0,.01,0h0l.01,0c.01,0,.03-.01.04-.01a.5.5,0,00.15-.04c0,0,.01,0,.01,0l4.01-2v-.01a.49.49,0,00.27-.44v-9c0-.01,0-.01,0-.02,0-.03-.01-.06-.02-.09-.01-.03-.01-.07-.03-.1,0-.01,0-.01,0-.02-.01-.01-.02-.02-.03-.03a.49.49,0,00-.14-.15c-.02-.02-.04-.03-.06-.04a.49.49,0,00-.22-.06l-.01,0c-.01,0-.01,0-.02,0-.04,0-.09.02-.13.04-.01.01-.03.01-.04.01-.01,0-.02,0-.02.01L9.52,2.93,4.75,1.06l0,0-.01,0-.03-.01A.5.5,0,004.5,1l-.02,0s0,0,0,0C4.48,1,4.47,1,4.47,1zM5,2.24l4,1.57v7.97L5,10.2V2.24zm-1,.07v7.89l-3,1.5V3.81l3-1.5zm9,0v7.89l-3,1.5V3.81l3-1.5z" paint-order="markers stroke fill"/></svg>