<svg xmlns="http://www.w3.org/2000/svg" height="14" width="14"><path d="M5.545 1a1.5 1.5 0 00-1.5 1.5 1.5 1.5 0 001.5 1.5 1.5 1.5 0 001.5-1.5 1.5 1.5 0 00-1.5-1.5zM4.33 4.51c-.39.051-.74.319-.873.705L2.158 9h2.069l.947-2.758L6.19 7.29c.016.016.036.024.053.037.017.015.038.025.057.037.03.018.058.036.09.047.016.007.029.019.046.024l1.924.54a.5.5 0 10.272-.96l-1.809-.51-1.658-1.705c-.012-.012-.027-.017-.039-.028a.909.909 0 00-.402-.236 1.025 1.025 0 00-.395-.025zM11.5 8A1.5 1.5 0 0010 9.5a1.5 1.5 0 001.5 1.5A1.5 1.5 0 0013 9.5 1.5 1.5 0 0011.5 8zM1 10c-.554 0-1 .446-1 1s.446 1 1 1h8.195l2.059.95c.067.03.137.042.205.042.014.001.026.008.041.008h2a.499.499 0 100-1h-1.94l-4.216-1.947a.467.467 0 00-.25-.033C7.06 10.016 7.034 10 7 10H1z" stroke-width=".749"/></svg>