<svg xmlns="http://www.w3.org/2000/svg" width="14" height="14"><path d="m7,1c-.6,0-1,.47-1,1v7l-2.89,5h1.16L6,11v3h2v-3l1.73,3h1.16L8,9V2c0-.5-.4-1-1-1zm-4.29.55c-.17.08-.23.38,0,.47l1.88.75c.31.12.49-.35.19-.47l-1.88-.75c-.08-.03-.13-.03-.19,0zm8.29.05-1.88.75c-.31.12-.12.59.19.47l1.87-.75c.31-.12.12-.59-.19-.47zM2.75,3.33c-.33,0-.33.5,0,.5h2c.33,0,.33-.5,0-.5h-2zm6.41.05c-.33,0-.33.5,0,.5h2c.33,0,.33-.5,0-.5h-2zM4.59,4.45l-1.88.75c-.31.12-.12.59.19.47l1.88-.75c.31-.12.12-.59-.19-.47zm4.54.05c-.17.08-.23.38,0,.47L11,5.72c.31.12.49-.35.19-.47l-1.88-.75c-.08-.03-.13-.03-.19,0z"/></svg>