<svg xmlns="http://www.w3.org/2000/svg" height="14" width="14"><path d="M13.82 0l-3.345.242V.25l-.01-.002-.53 4.398h-5.32v1.417h2.337a4.233 4.21 0 00-1.97 2.182h-2.94v.053l-.618 2.054a1.867 1.857 0 00-1.376 1.791A1.867 1.857 0 001.915 14a1.867 1.857 0 001.867-1.858 1.867 1.857 0 00-.928-1.601l.121-.407h1.723A4.233 4.21 0 008.915 14a4.233 4.21 0 004.233-4.211 4.233 4.21 0 00-1.532-3.238l.607-5.016 1.73-.125zM8.942 7.239a2.623 2.616 0 012.622 2.616 2.623 2.616 0 01-2.622 2.616A2.623 2.616 0 016.32 9.855 2.623 2.616 0 018.943 7.24z" stroke-width="9.593" stroke-linecap="round" stroke-linejoin="round"/></svg>