<svg width="20" height="20" version="1.0" xmlns="http://www.w3.org/2000/svg"><defs><style/></defs><path d="M3.097 17.663l1.227-8.076.965-.578.943.594s1.068 8.158.967 8.108c-.1-.048-4.082.026-4.104-.048z" fill-rule="evenodd" stroke-width=".024"/><path d="M2.447 6.13a.228.228 0 00-.143.061L1.185 7.238a.228.228 0 00.009.34l3.297 2.82-3.297 2.821a.228.228 0 00-.009.34l1.12 1.047a.228.228 0 00.338-.033l2.64-3.598 2.638 3.598a.228.228 0 00.337.033l1.12-1.047a.228.228 0 00-.009-.34l-3.3-2.82 3.3-2.821a.228.228 0 00.009-.34l-1.12-1.047a.228.228 0 00-.165-.06.228.228 0 00-.17.094L5.282 9.822l-2.64-3.598a.228.228 0 00-.197-.094zm2.836 4.13l.142.137-.145.14-.142-.137z" fill-rule="evenodd" font-family="sans-serif" font-weight="400" overflow="visible" stroke-linecap="round" stroke-linejoin="round" stroke-width=".319" style="font-feature-settings:normal;font-variant-alternates:normal;font-variant-caps:normal;font-variant-ligatures:normal;font-variant-numeric:normal;font-variant-position:normal;isolation:auto;mix-blend-mode:normal;shape-padding:0;text-decoration-color:#000;text-decoration-line:none;text-decoration-style:solid;text-indent:0;text-orientation:mixed;text-transform:none;white-space:normal"/><path d="M13.578 5.476a1.202 1.202 0 00-.39-.908 1.3 1.3 0 00-.926-.37 1.266 1.266 0 00-.917.37 1.216 1.216 0 00-.378.908c0 .358.126.66.378.906a1.266 1.266 0 00.917.37c.359 0 .669-.124.926-.37a1.2 1.2 0 00.39-.906zM10.15 18.749c.279 0 .504-.132.677-.398l3.747-5.641.199.778-.558 4.224a.774.774 0 00.639.878.747.747 0 00.587-.128.705.705 0 00.309-.51l.579-4.323c.013-.148 0-.3-.04-.46l-1.276-5.083 3.328-.598a.606.606 0 00.419-.27.654.654 0 00.12-.488.752.752 0 00-.3-.438L10.927 1.25l-.697 1.015c-.174.24-.134.446.12.62.238.146.443.104.617-.12l.398-.598 6.218 4.085-5.082.918a.73.73 0 00-.448.288.523.523 0 00-.09.488l1.096 4.286-3.587 5.362a.765.765 0 00.129.926.748.748 0 00.55.23z" font-family="Bitstream Vera Sans" font-size="40" font-weight="400" stroke-width=".024"/></svg>