<svg width="20" height="20" xmlns="http://www.w3.org/2000/svg"><path d="m3.1,17.66,1.23-8.08.97-.58.94.59s1.07,8.16.97,8.11c-.1-.05-4.08.03-4.1-.05z" fill-rule="evenodd" stroke-width=".02"/><path d="m2.45,6.13a.23.23,0,00-.14.06L1.19,7.24a.23.23,0,00.01.34l3.3,2.82-3.3,2.82a.23.23,0,00-.01.34l1.12,1.05a.23.23,0,00.34-.03l2.64-3.6,2.64,3.6a.23.23,0,00.34.03l1.12-1.05a.23.23,0,00-.01-.34l-3.3-2.82,3.3-2.82a.23.23,0,00.01-.34l-1.12-1.05a.23.23,0,00-.17-.06.23.23,0,00-.17.09L5.28,9.82,2.64,6.22a.23.23,0,00-.2-.09zm2.84,4.13.14.14-.14.14-.14-.14z" fill-rule="evenodd" stroke-linecap="round" stroke-linejoin="round" stroke-width=".32"/><path d="m13.58,5.48a1.2,1.2,0,00-.39-.91,1.3,1.3,0,00-.93-.37,1.27,1.27,0,00-.92.37,1.22,1.22,0,00-.38.91c0,.36.13.66.38.91a1.27,1.27,0,00.92.37c.36,0,.67-.12.93-.37a1.2,1.2,0,00.39-.91zM10.15,18.75c.28,0,.5-.13.68-.4l3.75-5.64.2.78-.56,4.22a.77.77,0,00.64.88.75.75,0,00.59-.13.71.71,0,00.31-.51l.58-4.32c.01-.15,0-.3-.04-.46l-1.28-5.08,3.33-.6a.61.61,0,00.42-.27.65.65,0,00.12-.49.75.75,0,00-.3-.44L10.93,1.25,10.23,2.27c-.17.24-.13.45.12.62.24.15.44.1.62-.12l.4-.6,6.22,4.09-5.08.92a.73.73,0,00-.45.29.52.52,0,00-.09.49l1.1,4.29-3.59,5.36a.77.77,0,00.13.93.75.75,0,00.55.23z" stroke-width=".02"/></svg>