<svg xmlns="http://www.w3.org/2000/svg" width="14" height="14"><path d="M12.105 8.593c.23.143.365.301.43.502.022.066.023.08.023.215a.784.784 0 01-.017.226 1.828 1.828 0 01-.164.42l-.031.06-.108.007c-.39.02-.705.09-.978.22-.586.28-.955.803-1.137 1.616l-.016.064-.076.07c-.042.038-.099.084-.127.102-.253.16-.616.256-1.13.3-.232.02-.387.025-1.133.032-.438.004-.799.01-.801.012a.112.112 0 01-.037.003c-.04 0-.036.016-.014-.164a3.04 3.04 0 00-.01-.83c-.117-.667-.53-1.106-1.23-1.306-.308-.088-.58-.12-1.041-.127l-.295-.006-.02-.02a.478.478 0 01-.12-.396.436.436 0 01.097-.182L5 8.567c1.8-.005 2.28.003 4 .018.096.023.53.894.576.967a.644.644 0 01.074.199c.012 0 .172-.064.254-.102.22-.1.494-.496.633-.658.133-1.558-2.037-5.694 1.568-.398zm-.084 1.607a1.83 1.83 0 011.407.512c.51.501.629 1.25.298 1.867-.274.513-.817.86-1.425.91a1.993 1.993 0 01-.717-.078 1.715 1.715 0 01-1.12-1.05 1.56 1.56 0 01.165-1.366 1.789 1.789 0 011.392-.795zm-7.13.004c.214 0 .274.006.43.043.698.166 1.22.708 1.32 1.375.018.123.018.339 0 .455-.09.556-.454 1.016-.993 1.258a1.982 1.982 0 01-.58.154 2.458 2.458 0 01-.468-.015c-.752-.12-1.322-.652-1.456-1.358a1.838 1.838 0 01-.005-.511c.06-.36.231-.671.503-.924.264-.246.576-.398.957-.463.068-.012.126-.014.291-.014zm7.197.565a1.18 1.18 0 00-.871.431 1.283 1.283 0 00-.184.342c-.119.39-.003.795.307 1.076.078.071.195.152.279.192.066.03.201.075.281.091.1.021.326.027.424.012.472-.073.84-.398.95-.836.024-.1.03-.297.011-.4-.1-.552-.605-.935-1.197-.908zm-7.194.004c-.208 0-.359.032-.533.117-.12.058-.21.118-.304.21-.156.152-.25.318-.301.528-.021.087-.025.292-.008.39.043.254.197.504.408.663.163.122.349.2.543.23.096.015.298.015.385 0 .686-.116 1.105-.744.914-1.369a1.126 1.126 0 00-.723-.71 1.094 1.094 0 00-.38-.06zM1 0v10h2V6.5h2.5c1.976 0 3.5-1 3.5-3.25S7.487 0 5.969 0zm2 2h2.5C6.464 2 7 2.526 7 3.25c0 .725-.632 1.25-1.5 1.25H3z" fill="#1a1a1a" fill-rule="evenodd"/></svg>