<svg xmlns="http://www.w3.org/2000/svg" height="14" width="14"><path d="m6.07,0L4.13.31c-.02,3.29-.03,6.58-.04,9.86l-.55-.04c-1.33-.09-2.73.56-3.35,1.56-.23.37-.25.95-.05,1.27.31.5,1.05.91,1.86,1.04,1.85-.05,3.18-.7,4.08-2.03L6.07,0zm.94.02a6.99,6.99,0,00-.02,0v.98a5.99,6.01,0,01-.01,12.01,5.99,6.01,0,01-.49-.03l-.87.86a6.99,6.99,0,001.39.14A6.99,6.99,0,0014,7.01,6.99,6.99,0,007.01.02zM3.03,1.27A6.99,6.99,0,00.02,7.01,6.99,6.99,0,00.67,9.92l.87-.41A5.99,6.01,0,01.99,7.01,5.99,6.01,0,013.03,2.51zM6.99,5v1a1.03,1,0,01.02,0,1.03,1,0,110,2,1.03,1,0,01-.02,0V9a2,2,0,000-4z"/></svg>