<svg xmlns="http://www.w3.org/2000/svg" width="15" height="15"><path d="m9.43,10.43a.27.27,0,01-.07-.18A.25.25,0,019.6,10h1.45a.25.25,0,00.25-.25.26.26,0,00-.08-.18L9.07,7.42a.3.3,0,01-.06-.17A.25.25,0,019.26,7H10.4a.25.25,0,00.25-.25.25.25,0,00-.08-.18l8.42,4.42a.26.26,0,01-.07-.17A.25.25,0,018.6,4h.87a.25.25,0,00.25-.25.25.25,0,00-.07-.16h.01L7.7,1.24a.25.25,0,00-.04-.04.25.25,0,00-.32,0,.25.25,0,00-.04.04L5.35,3.59a.25.25,0,00-.07.16.25.25,0,00.25.25H6.4a.24.24,0,01.18.42L4.43,6.57a.25.25,0,00-.08.18A.25.25,0,004.6,7h1.15a.25.25,0,01.25.25.3.3,0,01-.06.17l-2.15,2.15a.26.26,0,00-.08.18.25.25,0,00.25.25H5.4a.25.25,0,01.25.25.27.27,0,01-.07.18L3.43,12.57a.25.25,0,000,.35.26.26,0,00.18.08H7v1l1-.01V13h3.39a.26.26,0,00.26-.25.25.25,0,00-.07-.18z"/></svg>