<svg xmlns="http://www.w3.org/2000/svg" width="14" height="14"><path d="m9.41,0c-1.24.14-1.95,1.51-2.04,2.69-.15,1.05.31,2.4,1.42,2.64.96.09,1.72-.82,2.03-1.67.37-1.08.38-2.51-.52-3.32a1.34,1.34,0,00-.9-.34zM4.34.06C3.31.13,2.78,1.34,2.85,2.3c.01,1.29.72,2.74,2.01,3.05.96.1,1.61-.92,1.67-1.81C6.65,2.17,6.04.51,4.67.1A1.12,1.12,0,004.34.06zm8.32,4.14c-1.39.1-2.27,1.58-2.33,2.92-.07.87.49,1.97,1.44,1.91,1.42-.15,2.27-1.73,2.24-3.1-.01-.79-.51-1.69-1.35-1.72zM.01,6.01C-.12,7.49.92,9.16,2.42,9.26c.91-.06,1.34-1.12,1.24-1.96-.08-1.24-.91-2.51-1.99-2.67C.6,4.46-.01,5.22.01,6.01zm7.15,1.26c-1.41,0-2.7.93-3.39,2.18-.58.93-1.05,1.99-1.14,3.11.02.86.84,1.58,1.66,1.41,1.17-.15,2.22-.97,3.44-.82,1.01.08,1.85.87,2.88.86.99.04,1.57-1.1,1.19-2-.41-1.28-1.2-2.39-2.05-3.39C9.07,7.88,8.18,7.24,7.16,7.27z"/></svg>