<svg xmlns="http://www.w3.org/2000/svg" width="14" height="14"><path d="M9.413.002c-1.244.144-1.95 1.507-2.04 2.692-.147 1.052.313 2.396 1.419 2.638.958.086 1.72-.815 2.034-1.674.37-1.075.38-2.51-.517-3.315a1.342 1.342 0 00-.896-.34zM4.34.06C3.305.133 2.775 1.336 2.847 2.3c.009 1.291.717 2.743 2.01 3.05.964.103 1.607-.919 1.667-1.813C6.647 2.17 6.04.513 4.668.1A1.123 1.123 0 004.34.059zm8.315 4.145c-1.388.101-2.266 1.581-2.327 2.918-.073.87.49 1.966 1.437 1.906 1.417-.15 2.27-1.73 2.235-3.1-.009-.79-.51-1.691-1.345-1.724zM.011 6.009C-.118 7.49.919 9.165 2.425 9.258c.913-.061 1.343-1.121 1.238-1.96-.083-1.238-.91-2.505-1.985-2.67C.602 4.462-.006 5.222.01 6.008zm7.148 1.263c-1.412.004-2.702.927-3.393 2.176-.578.933-1.05 1.99-1.14 3.105.02.86.84 1.576 1.663 1.405 1.173-.153 2.222-.968 3.443-.815 1.014.081 1.85.868 2.875.856.994.037 1.567-1.102 1.188-1.995-.408-1.277-1.199-2.389-2.048-3.39-.677-.738-1.565-1.374-2.588-1.342z"/></svg>