<?xml version="1.0" encoding="UTF-8" standalone="no"?>
<svg
   xmlns:dc="http://purl.org/dc/elements/1.1/"
   xmlns:cc="http://creativecommons.org/ns#"
   xmlns:rdf="http://www.w3.org/1999/02/22-rdf-syntax-ns#"
   xmlns:svg="http://www.w3.org/2000/svg"
   xmlns="http://www.w3.org/2000/svg"
   xmlns:sodipodi="http://sodipodi.sourceforge.net/DTD/sodipodi-0.dtd"
   xmlns:inkscape="http://www.inkscape.org/namespaces/inkscape"
   width="14"
   height="14"
   version="1.1"
   id="svg132"
   sodipodi:docname="pub.svg"
   inkscape:version="1.0beta1 (32d4812, 2019-09-19)">
  <metadata
     id="metadata138">
    <rdf:RDF>
      <cc:Work
         rdf:about="">
        <dc:format>image/svg+xml</dc:format>
        <dc:type
           rdf:resource="http://purl.org/dc/dcmitype/StillImage" />
      </cc:Work>
    </rdf:RDF>
  </metadata>
  <defs
     id="defs136" />
  <sodipodi:namedview
     pagecolor="#ffffff"
     bordercolor="#666666"
     inkscape:document-rotation="0"
     borderopacity="1"
     objecttolerance="10"
     gridtolerance="10"
     guidetolerance="10"
     inkscape:pageopacity="0"
     inkscape:pageshadow="2"
     inkscape:window-width="1099"
     inkscape:window-height="801"
     id="namedview134"
     showgrid="false"
     inkscape:zoom="19.428571"
     inkscape:cx="7"
     inkscape:cy="7"
     inkscape:window-x="449"
     inkscape:window-y="139"
     inkscape:window-maximized="0"
     inkscape:current-layer="svg132" />
  <path
     id="path130"
     d="M 12,1 C 11.333333,5 10.666667,9 10,13 8,13 6,13 4,13 3.3333333,9 2.6666667,5 2,1 5.3333333,1 8.6666667,1 12,1 Z M 3.56,4 c 2.2866667,0 4.5733333,0 6.86,0 0.11,-0.6666667 0.22,-1.3333333 0.33,-2 -2.5,0 -5,0 -7.5,0 0.1033333,0.6666667 0.2066667,1.3333333 0.31,2 z"
     inkscape:connector-curvature="0" />
  <path
     sodipodi:nodetypes="cccccccccc"
     inkscape:connector-curvature="0"
     d="m 24.042556,1.257353 -1.844027,12 h -6.146755 l -1.844026,-12 z m -7.928354,4.5 h 6.009894 l 0.456204,-3 h -6.922302 z"
     id="path19"
     style="stroke-width:1.35795" />
</svg>
