<svg xmlns="http://www.w3.org/2000/svg" width="14" height="14"><path d="M1.654 11c-.426 0-1.057.362-1.638.651L0 13.678C.61 13.386 1.263 13 1.654 13c.67 0 1.945 1 2.653 1 .63 0 1.98-1 2.653-1 .669 0 2.018 1 2.653 1 .669 0 2.023-1 2.653-1 .394 0 1.072.392 1.688.685L14 11.66c-.6-.3-1.297-.685-1.734-.661-.635 0-1.944 1-2.653 1-.59 0-1.984-1-2.653-1s-2.061 1-2.653 1c-.63 0-1.945-1-2.653-1zM4.75 4C3.944 4 3 5 3 6.5V10h1.25V6c0-.602.232-.7.5-.7V10h4.5V5.3c.27 0 .463.1.5.7v4H11V6.5C11 5 10.056 4 9.25 4zM7 .25a1.75 1.75 0 100 3.5 1.75 1.75 0 000-3.5z"/></svg>