<svg xmlns="http://www.w3.org/2000/svg" width="14" height="14"><path d="m5.11,8.69L3.51,5.81H.3l1.31.78L.8,8.03a.87.87,0,000,.82l1.27,2.3c.06-.17.12-.31.17-.43l1.58-2.81,1.29.78zm-2.39,2.32a.96.96,0,00-.14.5c0,.27.1.51.28.7s.42.28.68.28H6.71V9.83H3.38c-.02.05-.11.2-.26.46l-.4.71zm4.28-6.58h3.2l1.62-2.89-1.31.78L9.7.89a.73.73,0,00-.69-.41H6.47c.1.12.19.24.26.36L8.29,3.65l-.26.16-1.03.62zM5.44.62c-.37,0-.64.17-.83.5L3.02,3.97c.61.37,1.35.81,2.22,1.32.52-.92,1.07-1.91,1.67-2.99l-.64-1.18C6.08.79,5.81.62,5.44.62zm4.11,9.18v-1.55l-1.6,2.89L9.55,14v-1.55h1.6a.77.77,0,00.71-.41l1.27-2.3a1.67,1.67,0,01-.43.07l-3.14-.02zm2.37-4.88c-.06.04-.8.48-2.22,1.32l1.68,3.01h1.29a.9.9,0,00.84-.5c.17-.32.17-.65-.02-.98l-1.58-2.85z"/></svg>