<svg xmlns="http://www.w3.org/2000/svg" width="14" height="14"><path d="M5.111 8.69L3.513 5.805H.3l1.306.784L.8 8.031a.869.869 0 000 .82l1.27 2.298c.058-.166.115-.309.173-.428l1.58-2.814 1.29.784zm-2.388 2.317a.958.958 0 00-.138.498c0 .274.095.505.284.695.189.19.415.285.678.285H6.71V9.831H3.376c-.023.047-.11.202-.258.463l-.395.713zm4.278-6.575h3.197l1.615-2.886-1.306.784L9.699.887a.733.733 0 00-.687-.41H6.469c.103.119.189.238.258.356L8.29 3.648l-.258.16-1.03.624zM5.438.62c-.367 0-.642.166-.825.498L3.015 3.97c.607.368 1.346.808 2.217 1.319.515-.915 1.07-1.913 1.666-2.994l-.635-1.176C6.079.786 5.805.62 5.438.62zm4.107 9.175v-1.55l-1.599 2.886L9.545 14v-1.55h1.597a.77.77 0 00.705-.41l1.271-2.298a1.67 1.67 0 01-.43.07l-3.143-.017zm2.37-4.882c-.056.036-.795.475-2.216 1.319l1.684 3.011h1.289a.9.9 0 00.842-.5c.171-.32.166-.646-.018-.979l-1.58-2.85z"/></svg>