<svg xmlns="http://www.w3.org/2000/svg" width="14" height="14"><path d="M3.5 0a2.5 2.5 0 100 5c.925 0 1.724-.503 2.156-1.25H7l1-1 1 1 1-1 1 1h.5L13 2.5l-1.5-1.25H5.656A2.484 2.484 0 003.5 0zm-1 2a.5.5 0 110 1 .5.5 0 010-1zM8 5.438l.031 1L9 7v1H5V7h.5c1 0 1-1 0-1h-2c-1 0-1 1 0 1H4v1l-.563 1.375c-.041-.002-.082 0-.124 0A2.321 2.321 0 001 11.688 2.321 2.321 0 003.313 14a2.321 2.321 0 002.312-2.313c0-.24-.055-.468-.125-.687H7l2.156-2 .281.719a2.366 2.366 0 00-1.062 1.969A2.321 2.321 0 0010.688 14c1.27 0 2.343-1.042 2.343-2.313 0-1.27-1.073-2.312-2.344-2.312-.042 0-.083-.002-.124 0L10 8V6.625zM4.844 9h3.112L6.65 10.25H5.094c-.154-.188-.328-.398-.532-.531zm-1.532 1.5A1.18 1.18 0 014.5 11.688a1.18 1.18 0 01-1.188 1.187 1.18 1.18 0 01-1.187-1.188A1.18 1.18 0 013.313 10.5zm7.376 0a1.18 1.18 0 011.187 1.188 1.18 1.18 0 01-1.188 1.187c-.662 0-1.156-.525-1.156-1.188 0-.662.494-1.187 1.156-1.187z"/></svg>