<svg viewBox="0 0 14 14" xmlns="http://www.w3.org/2000/svg"><path d="M.83 10.095H4.2L3.755 14H1.209z"/><path d="M1.368.07C-2.63 2.67 4.593 3.095.15 6.18l.878-.011C5.195 2.877-2.067 2.636 2.332.043z" stroke="#030305" stroke-width=".087"/><path d="M4.402.07C.404 2.67 7.627 3.097 3.184 6.181l.878-.011C8.229 2.878.967 2.637 5.366.043z" stroke="#030305" stroke-width=".087"/><circle cx="10.209" cy="2.224" r="1.392" paint-order="stroke fill markers"/><rect transform="matrix(.6376 -.77037 .71155 .70264 0 0)" x="-5.351" y="13.111" width="5.302" height="1.378" ry=".689" paint-order="stroke fill markers"/><rect transform="rotate(-18.883) skewX(.096)" x="3.709" y="9.569" width="3.755" height=".962" ry=".481" paint-order="stroke fill markers"/><rect transform="matrix(-.45288 .89157 -.88823 -.4594 0 0)" x="-1.444" y="-12.573" width="3.709" height=".951" ry=".476" paint-order="stroke fill markers"/><rect transform="skewX(.066)" x="8.722" y="9.498" width="5.285" height="1.286" ry=".643" paint-order="stroke fill markers"/><path paint-order="stroke fill markers" d="M10.591 12.1H14v.729h-3.409z"/><rect transform="rotate(70.232) skewX(.032)" x="7.64" y="-9.782" width="7.086" height="1.325" ry=".663" paint-order="stroke fill markers"/></svg>