<svg viewBox="0,0,14,14" xmlns="http://www.w3.org/2000/svg"><path d="m.83,10.1H4.2L3.76,14H1.21z"/><path d="m1.37.07C-2.63,2.67,4.59,3.1.15,6.18l.88-.01C5.2,2.88-2.07,2.64,2.33.04z" stroke="#030305" stroke-width=".09"/><path d="m4.4.07C.4,2.67,7.63,3.1,3.18,6.18l.88-.01C8.23,2.88.97,2.64,5.37.04z" stroke="#030305" stroke-width=".09"/><circle cx="10.21" cy="2.22" r="1.39" paint-order="stroke fill markers"/><rect transform="matrix(.638-.77.712.703,0,0)" style="x:-5.35;y:13.11;width:5.3;height:1.38;ry:.69;paint-order:stroke fill markers"/><rect transform="rotate(-18.88)skewX(.1)" style="x:3.71;y:9.57;width:3.76;height:.96;ry:.48;paint-order:stroke fill markers"/><rect transform="matrix(-.453.892-.888-.459,0,0)" style="x:-1.44;y:-12.57;width:3.71;height:.95;ry:.48;paint-order:stroke fill markers"/><rect transform="skewX(.07)" style="x:8.72;y:9.5;width:5.29;height:1.29;ry:.64;paint-order:stroke fill markers"/><path paint-order="stroke fill markers" d="m10.59,12.1H14v.73h-3.41z"/><rect transform="rotate(70.23)skewX(.03)" style="x:7.64;y:-9.78;width:7.09;height:1.33;ry:.66;paint-order:stroke fill markers"/></svg>