<svg xmlns="http://www.w3.org/2000/svg" height="14" width="14"><path d="m5,0C4,0,4,0,4,1l.01,3H1v9c0,1,0,1,1,1h10c1,0,1,0,1-1V4h-2.96L10,1c0-1,0-1-1-1H5zm0,1h4v3H5V1zm2.51,4,.2.04a4.05,4.05,0,013.09,2.59c.12.33.2.68.22,1.02.08.95-.23,1.86-.77,2.63h.37a.49.49,0,01.49.49l0,.37a.49.49,0,01-.49.48l-2.34,0a.3.3,0,01-.3-.3l0-2.33a.49.49,0,01.49-.48l.38,0c.27,0,.49.22.49.49v.13c.3-.63.44-1.34.19-2.03A2.71,2.71,0,007.47,6.36l-.2-.04L7.51,5zm-4.13.38,2.34.01c.16,0,.3.14.3.3l-.01,2.33a.49.49,0,01-.49.49l-.38,0a.49.49,0,01-.49-.49l0-.13c-.3.63-.45,1.34-.19,2.03a2.71,2.71,0,002.06,1.73l.21.04L6.49,13l-.21-.04a4.05,4.05,0,01-3.09-2.59c-.46-1.26-.17-2.59.57-3.64h-.4a.49.49,0,01-.49-.49v-.37c0-.27.22-.49.49-.49z"/></svg>