<?xml version="1.0" encoding="UTF-8" standalone="no"?>
<svg
   xmlns:dc="http://purl.org/dc/elements/1.1/"
   xmlns:cc="http://creativecommons.org/ns#"
   xmlns:rdf="http://www.w3.org/1999/02/22-rdf-syntax-ns#"
   xmlns:svg="http://www.w3.org/2000/svg"
   xmlns="http://www.w3.org/2000/svg"
   xmlns:sodipodi="http://sodipodi.sourceforge.net/DTD/sodipodi-0.dtd"
   xmlns:inkscape="http://www.inkscape.org/namespaces/inkscape"
   inkscape:version="1.0beta1 (32d4812, 2019-09-19)"
   sodipodi:docname="shower.svg"
   id="svg40"
   version="1.1"
   viewBox="0 0 14 14">
  <metadata
     id="metadata46">
    <rdf:RDF>
      <cc:Work
         rdf:about="">
        <dc:format>image/svg+xml</dc:format>
        <dc:type
           rdf:resource="http://purl.org/dc/dcmitype/StillImage" />
      </cc:Work>
    </rdf:RDF>
  </metadata>
  <defs
     id="defs44" />
  <sodipodi:namedview
     inkscape:current-layer="svg40"
     inkscape:window-maximized="0"
     inkscape:window-y="23"
     inkscape:window-x="0"
     inkscape:cy="7.0091541"
     inkscape:cx="10.865683"
     inkscape:zoom="31.678384"
     showgrid="false"
     id="namedview42"
     inkscape:window-height="907"
     inkscape:window-width="1600"
     inkscape:pageshadow="2"
     inkscape:pageopacity="0"
     guidetolerance="10"
     gridtolerance="10"
     objecttolerance="10"
     borderopacity="1"
     inkscape:document-rotation="0"
     bordercolor="#666666"
     pagecolor="#ffffff" />
  <g
     style="fill:#000000"
     id="g38"
     paint-order="stroke fill markers"
     fill-rule="evenodd"
     transform="translate(-.058 .35)">
    <path
       style="fill:#000000"
       id="path12"
       d="M3.325 4.06a2.722 2.722 0 015.35 1.005" />
    <path
       d="m 6.861,-1.6289999 h 9.999e-4 c 0.396664,0 0.716,0.319336 0.716,0.71599997 V 1.886 c 0,0.396664 -0.319336,0.716 -0.716,0.716 H 6.861 C 6.464336,2.602 6.145,2.282664 6.145,1.886 v -2.79899993 c 0,-0.39666397 0.319336,-0.71599997 0.716,-0.71599997 z"
       transform="rotate(10.641)"
       style="fill:#000000"
       id="rect14" />
    <path
       d="m 7.5469999,6.3410001 a 0.85500002,0.85500002 0 0 1 -0.855,0.855 0.85500002,0.85500002 0 0 1 -0.855,-0.855 0.85500002,0.85500002 0 0 1 0.855,-0.855 0.85500002,0.85500002 0 0 1 0.855,0.855"
       transform="rotate(10.641)"
       style="fill:#000000"
       id="circle16" />
    <path
       d="m 7.573,8.9910002 a 0.85500002,0.85500002 0 0 1 -0.8550001,0.855 0.85500002,0.85500002 0 0 1 -0.855,-0.855 0.85500002,0.85500002 0 0 1 0.855,-0.855 0.85500002,0.85500002 0 0 1 0.8550001,0.855"
       transform="rotate(10.641)"
       style="fill:#000000"
       id="circle18" />
    <path
       d="M 7.513,11.66 A 0.85500002,0.85500002 0 0 1 6.658,12.515 0.85500002,0.85500002 0 0 1 5.803,11.66 0.85500002,0.85500002 0 0 1 6.658,10.805 0.85500002,0.85500002 0 0 1 7.513,11.66"
       transform="rotate(10.641)"
       style="fill:#000000"
       id="circle20" />
    <path
       d="m 10.112,5.8130002 a 0.85500002,0.85500002 0 0 1 -0.855,0.855 0.85500002,0.85500002 0 0 1 -0.855,-0.855 0.85500002,0.85500002 0 0 1 0.855,-0.855 0.85500002,0.85500002 0 0 1 0.855,0.855"
       transform="rotate(10.641)"
       style="fill:#000000"
       id="circle22" />
    <path
       d="m 10.564,8.4420004 a 0.85500002,0.85500002 0 0 1 -0.8550004,0.855 0.85500002,0.85500002 0 0 1 -0.855,-0.855 0.85500002,0.85500002 0 0 1 0.855,-0.855 0.85500002,0.85500002 0 0 1 0.8550004,0.855"
       transform="rotate(10.641)"
       style="fill:#000000"
       id="circle24" />
    <path
       d="M 11.125,11.088 A 0.85500002,0.85500002 0 0 1 10.27,11.943 0.85500002,0.85500002 0 0 1 9.4150004,11.088 0.85500002,0.85500002 0 0 1 10.27,10.233 a 0.85500002,0.85500002 0 0 1 0.855,0.855"
       transform="rotate(10.641)"
       style="fill:#000000"
       id="circle26" />
    <path
       d="m 5.0539999,5.849 a 0.85500002,0.85500002 0 0 1 -0.855,0.855 0.85500002,0.85500002 0 0 1 -0.855,-0.855 0.85500002,0.85500002 0 0 1 0.855,-0.855 0.85500002,0.85500002 0 0 1 0.855,0.855"
       transform="rotate(10.641)"
       style="fill:#000000"
       id="circle28" />
    <path
       d="m 4.4449999,8.4510002 a 0.85500002,0.85500002 0 0 1 -0.855,0.855 0.85500002,0.85500002 0 0 1 -0.855,-0.855 0.85500002,0.85500002 0 0 1 0.855,-0.855 0.85500002,0.85500002 0 0 1 0.855,0.855"
       transform="rotate(10.641)"
       style="fill:#000000"
       id="circle30" />
    <path
       d="m 3.8629999,11.063 a 0.85500002,0.85500002 0 0 1 -0.855,0.855 0.85500002,0.85500002 0 0 1 -0.855,-0.855 0.85500002,0.85500002 0 0 1 0.855,-0.855 0.85500002,0.85500002 0 0 1 0.855,0.855"
       transform="rotate(10.641)"
       style="fill:#000000"
       id="circle32" />
    <path
       d="m 0.33000001,-14.062 h 9.9993e-4 c 0.39666401,0 0.71600006,0.319336 0.71600006,0.716 v 6.1739997 c 0,0.396664 -0.31933605,0.716 -0.71600006,0.716 h -9.9993e-4 c -0.39666401,0 -0.71600002,-0.319336 -0.71600002,-0.716 V -13.346 c 0,-0.396664 0.31933601,-0.716 0.71600002,-0.716 z"
       transform="matrix(-.012 .99993 -.99999 -.00372 0 0)"
       style="fill:#000000"
       id="rect34" />
    <path
       d="M -0.42500001,-14.056 H 1.008 v 3.864 h -1.43300001 z"
       transform="matrix(-.0061 .99998 -.99997 -.00731 0 0)"
       style="fill:#000000"
       id="rect36" />
  </g>
</svg>
