<svg viewBox="0 0 14 14" xmlns="http://www.w3.org/2000/svg"><path d="M3.267 4.41a2.722 2.722 0 015.35 1.005M6.986.016c.39.073.646.446.572.836l-.517 2.75a.714.714 0 01-.835.572h-.001a.714.714 0 01-.572-.836L6.15.588a.714.714 0 01.836-.572zm-.798 7.96a.855.855 0 01-.998.682.855.855 0 01-.682-.998.855.855 0 01.998-.683.855.855 0 01.682.999m-.463 2.609a.855.855 0 01-.999.682.855.855 0 01-.682-.998.855.855 0 01.998-.682.855.855 0 01.683.998m-.552 2.612a.855.855 0 01-.998.682.855.855 0 01-.683-.998.855.855 0 01.998-.682.855.855 0 01.683.998M8.807 7.93a.855.855 0 01-.998.683.855.855 0 01-.683-.998.855.855 0 01.998-.683.855.855 0 01.683.998m-.042 2.668a.855.855 0 01-.998.682.855.855 0 01-.682-.998.855.855 0 01.998-.683.855.855 0 01.682.999m.063 2.704a.855.855 0 01-.998.682.855.855 0 01-.682-.998.855.855 0 01.998-.683.855.855 0 01.682.999m-4.999-6.27a.855.855 0 01-.998.682.855.855 0 01-.683-.998.855.855 0 01.999-.683.855.855 0 01.682.999M2.75 9.476a.855.855 0 01-.998.683.855.855 0 01-.683-.998.855.855 0 01.999-.683.855.855 0 01.682.998m-1.054 2.46a.855.855 0 01-.998.682.855.855 0 01-.683-.998.855.855 0 01.998-.682.855.855 0 01.683.998"/><path d="M14 .732v.001a.722.722 0 01-.725.714l-6.174-.023a.707.707 0 01-.707-.719V.704a.722.722 0 01.725-.713l6.173.023A.707.707 0 0114 .732z"/><path d="M14 .028l-.009 1.433-3.863-.029L10.136 0z"/></svg>