<svg viewBox="0,0,14,14" xmlns="http://www.w3.org/2000/svg"><path d="m3.27,4.41a2.72,2.72,0,015.35,1M6.99.02c.39.07.65.45.57.84l-.52,2.75a.71.71,0,01-.84.57h0a.71.71,0,01-.57-.84L6.15.59a.71.71,0,01.84-.57zm-.8,7.96a.86.86,0,11-1.68-.32.86.86,0,011.68.32m-.46,2.61a.86.86,0,01-1,.68.86.86,0,111-.68m-.55,2.61a.86.86,0,01-1,.68A.86.86,0,115.17,13.2M8.81,7.93a.86.86,0,01-1,.68.86.86,0,111-.68m-.04,2.67a.86.86,0,01-1,.68.86.86,0,01.32-1.68.86.86,0,01.68,1m.06,2.7A.86.86,0,017.15,12.99a.86.86,0,111.68.32m-5-6.27a.86.86,0,01-1,.68A.86.86,0,113.83,7.03M2.75,9.48a.86.86,0,01-1,.68.86.86,0,111-.68m-1.05,2.46a.86.86,0,01-1,.68.86.86,0,111-.68"/><path d="m14,.73v0a.72.72,0,01-.73.71l-6.17-.02a.71.71,0,01-.71-.72V.7a.72.72,0,01.73-.71l6.17.02A.71.71,0,0114,.73z"/><path d="m14,.03-.01,1.43-3.86-.03L10.14,0z"/></svg>