<svg xmlns="http://www.w3.org/2000/svg" width="14" height="14"><path d="m5.54,1.28a1.27,1.26,0,11-2.54,0,1.27,1.26,0,012.54,0zm6.85,8.56-2.68.69c-.11.03-.35,0-.45-.02-.24-.05-.3-.16-.4-.27L7.61,8.14,6.01,9.86l.65,3.2a.62.62,0,01.03.17.77.77,0,01-.2.53.62.62,0,01-.48.22c-.35,0-.56-.2-.64-.6l-.78-3.89c-.09-.41-.05-.71.12-.91L6.1,7.03,4.58,5.06,3.6,6.16a.46.46,0,01-.35.17c-.17,0-.34-.09-.51-.26L1.15,4.29a.63.63,0,01-.12-.38c0-.17.05-.31.16-.43a.5.5,0,01.38-.17.43.43,0,01.34.14l1.32,1.47,1.6-1.78c.12-.14.28-.25.46-.21l3.47.77c.15.03.26.18.37.31l.77,1.33a.56.56,0,01.18.43c0,.16-.05.3-.15.41a.48.48,0,01-.37.17.5.5,0,01-.4-.21l-.9-1.5L6.8,4.41l3.02,4.69,2.46-.71c.19,0,.37.04.51.18.13.14.27.26.27.48a.77.77,0,01-.22.53.86.86,0,01-.44.27z" fill-rule="evenodd"/></svg>