<svg xmlns="http://www.w3.org/2000/svg" height="14" width="14"><path d="m6.83,1.9a1.21.95,0,00-.37,1.85c-1.38.11-2.57.82-3.27,1.87-.01-.01-.03-.02-.04-.03-.65-.26-1.62-.4-2.25.01C.3,6,.04,6.71,0,7.6c-.07,1.8,1.28,2.16,2.63,2.35.11.02.22.01.32,0,.3.85.74,1.66,1.31,2.06h5.15c.61-.43,1.08-1.33,1.37-2.26.23.05.49,0,.84-.28.61-.49,1.25-1.45,1.45-1.92C13.44,6.74,14,3.83,14,3.83s-.88.24-1.58,0c-.16.53-.35,1.52-.64,2-.25.41-.42.77-.83.83-.48-1.58-1.95-2.76-3.75-2.9a1.21.95,0,00-.36-1.85zm-4.85,4.25c.32-.01.59.09.83.23a3.81,3.81,0,00-.28,1.39c0,.39.07.87.18,1.37-.77-.01-1.69-.11-1.63-1.46.03-.75.23-1.41.61-1.49.1-.02.19-.03.29-.04z" stroke-width="5"/></svg>