<svg xmlns="http://www.w3.org/2000/svg" width="14" height="14"><path d="M0 0v7s0 4 4 4c.488 0 .905-.083 1.281-.188C5.223 10.33 5.25 10 5.25 10v-.219C4.907 9.915 4.49 10 4 10c-3 0-3-3-3-3V1.5c2 .952 4 .952 6 0v1.156c.334.133.677.258 1 .344V0C5 1.373 3 1.305 0 0zm2.5 3a1 1 0 100 2 1 1 0 000-2zM6 3v7s0 4 4 4 4-4 4-4V3c-3 1.373-5 1.305-8 0zm2.5 3a1 1 0 110 2 1 1 0 010-2zm3 0a1 1 0 110 2 1 1 0 010-2zM4 6.5c-1.462 0-2 1.017-2 2h3.25V6.844C4.946 6.622 4.546 6.5 4 6.5zM8 10h4c0 1-1 2-2 2s-2-1-2-2z"/></svg>