<svg xmlns="http://www.w3.org/2000/svg" width="14" height="14"><path d="M6.473 0L5.2 10 2.6 14H4l.666-1h4.668L10 14h1.4L8.857 9.924C9 9.999 7.56 0 7.56 0H6.473zM2.715 1.545c-.167.084-.23.376 0 .469l1.875.75c.306.123.493-.346.187-.47l-1.875-.75c-.076-.03-.131-.027-.187 0zm8.285.05l-1.875.75c-.306.124-.119.593.188.47l1.874-.75c.306-.124.119-.593-.187-.47zM2.746 3.327c-.33 0-.33.5 0 .5h2c.33 0 .33-.5 0-.5h-2zm6.41.051c-.33 0-.33.5 0 .5h2c.33 0 .33-.5 0-.5h-2zM7 4l.75 6h-1.5L7 4zm-2.41.451l-1.875.75c-.306.123-.12.592.187.469l1.875-.75c.306-.123.119-.592-.187-.469zm4.535.051c-.167.084-.23.376 0 .469L11 5.72c.306.123.493-.346.188-.469l-1.876-.75c-.076-.03-.131-.028-.187 0zM6 11h2l.666 1H5.334L6 11z"/></svg>