<svg xmlns="http://www.w3.org/2000/svg" width="14" height="14"><path d="m6.47,0L5.2,10,2.6,14H4l.67-1h4.67L10,14h1.4L8.86,9.92C9,10,7.56,0,7.56,0H6.47zM2.72,1.55c-.17.08-.23.38,0,.47l1.88.75c.31.12.49-.35.19-.47l-1.88-.75c-.08-.03-.13-.03-.19,0zm8.29.05-1.88.75c-.31.12-.12.59.19.47l1.87-.75c.31-.12.12-.59-.19-.47zM2.75,3.33c-.33,0-.33.5,0,.5h2c.33,0,.33-.5,0-.5h-2zm6.41.05c-.33,0-.33.5,0,.5h2c.33,0,.33-.5,0-.5h-2zM7,4l.75,6h-1.5L7,4zm-2.41.45-1.88.75c-.31.12-.12.59.19.47l1.88-.75c.31-.12.12-.59-.19-.47zm4.54.05c-.17.08-.23.38,0,.47L11,5.72c.31.12.49-.35.19-.47l-1.88-.75c-.08-.03-.13-.03-.19,0zM6,11h2l.67,1H5.33L6,11z"/></svg>