<svg xmlns="http://www.w3.org/2000/svg" height="14" width="14"><path d="M7 1c-.598 0-1 .47-1 1v9H5v1H3v2h8v-2H9v-1H8V2c0-.496-.402-1-1-1zm-4.285.545c-.167.084-.23.376 0 .469l1.875.75c.306.123.493-.346.187-.47l-1.875-.75c-.076-.03-.131-.027-.187 0zm8.285.05l-1.875.75c-.306.124-.119.593.188.47l1.874-.75c.306-.124.119-.593-.187-.47zM2.746 3.327c-.33 0-.33.5 0 .5h2c.33 0 .33-.5 0-.5h-2zm6.41.051c-.33 0-.33.5 0 .5h2c.33 0 .33-.5 0-.5h-2zM4.59 4.451l-1.875.75c-.306.123-.12.592.187.469l1.875-.75c.306-.123.119-.592-.187-.469zm4.535.051c-.167.084-.23.376 0 .469L11 5.72c.306.123.493-.346.188-.469l-1.876-.75c-.076-.03-.131-.028-.187 0z"/></svg>