<svg xmlns="http://www.w3.org/2000/svg" height="14" width="14"><path d="M8.069.052a5.331 5.331 0 00-1.64.35l.85.848c1.386-.37 2.902-.039 3.995 1.05 1.093 1.09 1.425 2.601 1.054 3.982l.85.847c.726-1.864.356-4.082-1.149-5.582A5.169 5.169 0 008.627.052a5.382 5.382 0 00-.558 0zm-.022 2.35a3.186 3.186 0 00-1.375.302l.803.8a2.056 2.056 0 011.998.526A2.04 2.04 0 0110 6.022l.803.8c.544-1.153.357-2.575-.596-3.524a3.08 3.08 0 00-2.16-.896zm-5.049.353a5.234 5.234 0 000 7.417 5.272 5.272 0 007.44 0L7.21 6.956 8.57 5.605l-.731-.728-1.355 1.35zm-.637 8.179l-1.898 3.11h7.27v-1.428a6.256 6.256 0 01-5.372-1.682z"/></svg>