<svg xmlns="http://www.w3.org/2000/svg" width="14" height="14"><path d="M4 .406C2.233 1.186.969 2.952.969 5 .969 7.048 2.233 8.814 4 9.594V8.438C2.804 7.747 2 6.487 2 5c0-1.488.804-2.747 2-3.438V.407zm6 0v1.156c1.196.691 2 1.95 2 3.438 0 1.488-.804 2.747-2 3.438v1.156c1.767-.78 3.031-2.546 3.031-4.594 0-2.048-1.264-3.814-3.031-4.594zM5 2.187C3.843 2.604 3 3.704 3 5c0 1.297.843 2.396 2 2.813V6.718C4.403 6.374 4 5.744 4 5c0-.744.403-1.374 1-1.719V2.187zm4 0v1.094c.597.345 1 .975 1 1.719 0 .744-.403 1.374-1 1.719v1.093c1.157-.416 2-1.515 2-2.812s-.843-2.396-2-2.813zM7 3l-1.799 7L2.6 14H4l.666-1h4.668L10 14h1.4l-2.6-4L7 3zm0 4l.75 3h-1.5L7 7zm-1 4h2l.666 1H5.334L6 11z"/></svg>