<svg xmlns="http://www.w3.org/2000/svg" width="14" height="14"><path d="M3 0v2C2.303 2.367.52 3.74.312 4c-.2.249-.218 2.054.126 2 .6-.092 2.634-1.736 3.156-1.375.52.36.371 2.052.406 3.375-.711.916-.951 1.915-1.625 2.656-.331-.3-.683-.589-1.063-.969a.58.58 0 00-.804.008c-.222.305-.251.677.015.922 2.015 2.015 3.93 3.078 6.758 3.078 2.73 0 4.081-1.08 6.102-3.101.219-.148.296-.735.11-.922-.188-.187-.657-.203-.806.015-.349.35-.656.624-.968.907C10.78 9.328 10.903 9.006 10 6c2.132-.547 2.593 1.71 4 2.343V6c0-1-2.297-.971-4-.563C9.672 5 9 4 6.633 4.423 6.337 3 5.844 2.648 4.516 2zm2 8c1 .665 3.305.61 4 0 .84.541 1.549 2.063 2.031 3.188-1.18.926-2.295 1.374-4.031 1.374-1.714 0-2.786-.391-3.875-1.218C3.944 10.073 4.066 9.868 5 8z"/></svg>