<svg xmlns="http://www.w3.org/2000/svg" width="14" height="14"><path d="m3,0v2C2.3,2.37.52,3.74.31,4c-.2.25-.22,2.05.13,2,.6-.09,2.63-1.74,3.16-1.38.52.36.37,2.05.41,3.38-.71.92-.95,1.92-1.63,2.66-.33-.3-.68-.59-1.06-.97a.58.58,0,00-.8.01c-.22.31-.25.68.02.92,2.02,2.02,3.93,3.08,6.76,3.08,2.73,0,4.08-1.08,6.1-3.1.22-.15.3-.74.11-.92-.19-.19-.66-.2-.81.02-.35.35-.66.62-.97.91C10.78,9.33,10.9,9.01,10,6c2.13-.55,2.59,1.71,4,2.34V6c0-1-2.3-.97-4-.56C9.67,5,9,4,6.63,4.42,6.34,3,5.84,2.65,4.52,2zm2,8c1,.67,3.31.61,4,0,.84.54,1.55,2.06,2.03,3.19-1.18.93-2.3,1.37-4.03,1.37-1.71,0-2.79-.39-3.88-1.22C3.94,10.07,4.07,9.87,5,8z"/></svg>