<svg xmlns="http://www.w3.org/2000/svg" viewBox="0 0 13.125 13.125" width="14" height="14"><path d="M8.22.025c2.112 0 3.822 2.933 3.822 6.55 0 3.615-1.71 6.55-3.821 6.55-2.11 0-3.821-2.935-3.821-6.55 0-3.617 1.71-6.55 3.82-6.55zm-1.637 6.55c0 2.074.856 3.74 1.91 3.74 1.092 0 1.911-1.676 1.911-3.742 0-2.068-.855-3.743-1.91-3.743-1.092 0-1.91 1.675-1.91 3.743zM8.493 3.3c-.306 0-.588.253-.816.666.336.675.544 1.593.544 2.61 0 1.09-.209 1.931-.546 2.608.23.415.51.666.819.666.754 0 1.364-1.463 1.364-3.275 0-1.81-.611-3.275-1.364-3.275zM3.855 6.575C3.854 3.125 5.3.298 7.13.025V0H5.492C3.078.025 1.125 2.95 1.125 6.575c0 3.616 1.953 6.55 4.367 6.55h1.616c-1.809-.278-3.254-3.1-3.254-6.55z" stroke-width="1.092"/></svg>