<svg xmlns="http://www.w3.org/2000/svg" viewBox="0,0,13.13,13.13" width="14" height="14"><path d="m8.22.03c2.11,0,3.82,2.93,3.82,6.55,0,3.62-1.71,6.55-3.82,6.55-2.11,0-3.82-2.94-3.82-6.55,0-3.62,1.71-6.55,3.82-6.55zm-1.64,6.55c0,2.07.86,3.74,1.91,3.74,1.09,0,1.91-1.68,1.91-3.74,0-2.07-.86-3.74-1.91-3.74-1.09,0-1.91,1.68-1.91,3.74zM8.49,3.3c-.31,0-.59.25-.82.67.34.68.54,1.59.54,2.61,0,1.09-.21,1.93-.55,2.61.23.42.51.67.82.67.75,0,1.36-1.46,1.36-3.28,0-1.81-.61-3.28-1.36-3.28zM3.86,6.58C3.85,3.13,5.3.3,7.13.03V0H5.49C3.08.03,1.13,2.95,1.13,6.58c0,3.62,1.95,6.55,4.37,6.55h1.62c-1.81-.28-3.25-3.1-3.25-6.55z" stroke-width="1.09"/></svg>