<svg xmlns="http://www.w3.org/2000/svg" width="14" height="14"><path d="m3.22,3.83c-.47.11-.76.28-1.12.64-.41.41-.72.88-.95,1.48-.31.65-.52,1.36-.67,2.02C.13,9.47.05,10.99.13,11.7c.19.84.4,1.32.79,1.71.41.41.7.54,1.3.56.58.03,1.01-.08,1.43-.36.32-.21,1.16-1.09,1.66-1.73l.33-.44,1.47-.01c.81-.01,1.47,0,1.47.02.31.45.69.89,1.04,1.31.74.87,1.41,1.23,2.26,1.23.61,0,.98-.16,1.41-.59.63-.64.78-1.15.78-2.56,0-1.05-.06-1.59-.28-2.68-.29-1.15-.69-2.38-1.35-3.28-.17-.23-.42-.51-.57-.64-.86-.7-2.6-.65-3.5.11-.16.12-.4.25-.55.32a3.52,3.52,0,01-.34.15c-.1.07-.55.08-.71.01-.07-.03-.24-.08-.39-.16-.54-.31-1.11-.69-1.6-.82a3.43,3.43,0,00-1.55-.02zm1.35,2.23c.12.11.13.17.13.67,0,.34.02.65.02.65s.31.03.64.03c.43,0,.54.02.67.12.08.06.14.14.12.16.03.2.02.37-.12.52-.12.11-.21.09-.72.11l-.6.02v.67c-.02.53-.11.64-.21.7-.29.17-.56.14-.7-.16-.07-.14-.1-.33-.1-.69l0-.55s-.76-.01-1.12-.03c-.29-.1-.38-.45-.17-.72.11-.14.15-.15.69-.16l.61-.02.02-.57c.04-.65.02-.66.25-.84a.52.52,0,01.61.1zM10.68,6.23c.55.69-.48,1.52-1.04.86-.61-.65.4-1.6,1.04-.86zM9.52,7.33c.59.7-.38,1.64-1.03.96-.72-.74.41-1.69,1.03-.96zm2.35-.11c.71.67-.25,1.67-.93,1-.73-.71.29-1.61.93-1zM10.98,8.96c.02,1.01-1.38.93-1.4-.01-.02-.92,1.35-.92,1.4.01z"/><path d="m1.33-.06c-.03.53.27.92.62,1.29.36.37.83.7,1.35.95.52.25,1.1.43,1.69.44s1.21-.18,1.66-.65c.65-.67,1.22-.69,1.52-.57.15.06.24.16.27.24.04.09.04.18-.04.34-.28.45-.69.88-1.05,1.36-.37.49-.72,1.06-.72,1.76l1.04-.01c0-.36.18-.7.5-1.12.32-.42.77-.88,1.12-1.46l.01-.01.01-.01c.22-.4.25-.86.1-1.24a1.51,1.51,0,00-.85-.82c-.77-.31-1.8-.08-2.66.82-.23.24-.52.33-.89.33s-.83-.13-1.25-.33A3.94,3.94,0,012.7.5c-.25-.26-.33-.51-.33-.5z"/></svg>