<svg xmlns="http://www.w3.org/2000/svg" width="14" height="14"><path d="M9.656.594c-.302.046-.574.248-.75.5-.414.56-.521 1.254-.719 1.906-.22.842-.435 1.7-.562 2.563-.02.248.168.301.406.062.825-.768 1.638-1.58 2.438-2.375.194-.206.389-.41.531-.656.221-.37.325-.858.094-1.25-.239-.396-.676-.665-1.125-.75a.932.932 0 00-.313 0zM4.22.656C3.756.664 3.299.904 3 1.25c-.276.32-.266.785-.094 1.156.278.64.816 1.097 1.281 1.594a23.662 23.662 0 001.938 1.75c.204.142.338.014.25-.313-.252-1.099-.525-2.19-.813-3.28-.08-.272-.17-.567-.312-.813C5.04.967 4.674.652 4.219.656zM1 5.656c-.327.057-.644.235-.813.532-.224.404-.244.912-.093 1.343.138.4.56.651.969.688.692.08 1.336-.19 2-.344.84-.228 1.689-.462 2.5-.781.225-.106.17-.319-.157-.407-1.077-.332-2.162-.64-3.25-.937a3.678 3.678 0 00-.844-.094c-.107-.002-.203-.019-.312 0zm11.688 0c-.285 0-.568.028-.844.094-1.088.297-2.173.605-3.25.938-.327.087-.382.3-.156.406.81.319 1.66.553 2.5.781.663.154 1.307.424 2 .344.407-.037.83-.289.968-.688.15-.431.13-.94-.094-1.343-.224-.396-.694-.54-1.124-.532zM6.28 8.063a.353.353 0 00-.156.062c-.682.542-1.32 1.168-1.938 1.781-.465.498-1.003.923-1.28 1.563-.173.37-.183.836.093 1.156.298.346.756.617 1.219.625.455.004.822-.342 1.031-.719.142-.246.231-.51.313-.781.287-1.09.56-2.213.812-3.313.066-.244.027-.381-.094-.374zm1.469.062c-.074.014-.135.095-.125.219.127.862.341 1.689.563 2.531.197.652.304 1.377.718 1.938.235.335.648.547 1.063.468.449-.085.886-.354 1.125-.75.231-.392.127-.88-.094-1.25-.142-.246-.337-.45-.531-.656-.8-.795-1.613-1.575-2.438-2.344-.12-.12-.207-.17-.281-.156z"/></svg>