<svg xmlns="http://www.w3.org/2000/svg" width="14" height="14"><path d="m9.66.59c-.3.05-.57.25-.75.5-.41.56-.52,1.25-.72,1.91-.22.84-.44,1.7-.56,2.56-.02.25.17.3.41.06.83-.77,1.64-1.58,2.44-2.38.19-.21.39-.41.53-.66.22-.37.33-.86.09-1.25-.24-.4-.68-.67-1.13-.75a.93.93,0,00-.31,0zM4.22.66C3.76.66,3.3.9,3,1.25c-.28.32-.27.79-.09,1.16.28.64.82,1.1,1.28,1.59a23.66,23.66,0,001.94,1.75c.2.14.34.01.25-.31-.25-1.1-.53-2.19-.81-3.28-.08-.27-.17-.57-.31-.81C5.04.97,4.67.65,4.22.66zm-3.22,5c-.33.06-.64.24-.81.53-.22.4-.24.91-.09,1.34.14.4.56.65.97.69.69.08,1.34-.19,2-.34.84-.23,1.69-.46,2.5-.78.23-.11.17-.32-.16-.41-1.08-.33-2.16-.64-3.25-.94a3.68,3.68,0,00-.84-.09c-.11,0-.2-.02-.31,0zm11.69,0c-.28,0-.57.03-.84.09-1.09.3-2.17.61-3.25.94-.33.09-.38.3-.16.41.81.32,1.66.55,2.5.78.66.15,1.31.42,2,.34.41-.04.83-.29.97-.69.15-.43.13-.94-.09-1.34-.22-.4-.69-.54-1.12-.53zM6.28,8.06a.35.35,0,00-.16.06c-.68.54-1.32,1.17-1.94,1.78-.47.5-1,.92-1.28,1.56-.17.37-.18.84.09,1.16.3.35.76.62,1.22.63.46,0,.82-.34,1.03-.72.14-.25.23-.51.31-.78.29-1.09.56-2.21.81-3.31.07-.24.03-.38-.09-.37zm1.47.06c-.07.01-.14.1-.13.22.13.86.34,1.69.56,2.53.2.65.3,1.38.72,1.94.24.34.65.55,1.06.47.45-.09.89-.35,1.13-.75.23-.39.13-.88-.09-1.25-.14-.25-.34-.45-.53-.66-.8-.8-1.61-1.58-2.44-2.34-.12-.12-.21-.17-.28-.16z"/></svg>