<svg width="14" height="14" version="1.0" xmlns="http://www.w3.org/2000/svg"><path d="M1 11c.641 0 1.829 1 2.4 1 .535 0 1.795-1 2.4-1s1.866 1 2.4 1c.642 0 1.825-1 2.399-1 .641-.029 1.902 1 2.4 1v2c-.604 0-1.83-1-2.4-1-.569 0-1.795 1-2.399 1-.574 0-1.795-1-2.4-1-.609 0-1.829 1-2.4 1-.64 0-1.794-1-2.4-1zm0-8c1.094 0 2.001.3 2.001 1.75L3 7.25c0 2 1.5 3 2.5 3 0 0-.5-1-.5-3v-2.5C5 3.835 4.351 3.442 3.999 3 5.093 3 6 3.3 6 4.75v2.5c0 2 1.5 3 2.5 3 0 0-.5-1-.5-3l.1-2.5C8.137 3.836 7.351 3.442 7 3c1.093 0 2 .3 2 1.75v2.5c0 2 1.5 3 2.5 3 0 0-.5-1-.5-3v-2.5C11 1.75 8 1 7 1H0v2z"/></svg>