<svg xmlns="http://www.w3.org/2000/svg" height="14" width="14"><path d="M8.708.542a.878.878 0 00-.375.125L4.292 2.833c-.513.243-.713 1.003-.375 1.459L5 6 .333 8.667l.042.833S.999 9 1.667 9c.631 0 1.897 1 2.666 1C5.004 10 6.328 9 7 9c.7 0 1.968 1 2.667 1h.458L6.333 4l2.792-1.458c.597-.345.79-.944.542-1.375-.23-.398-.583-.655-.959-.625zM11 4a2 2 0 100 4 2 2 0 000-4zm-9.333 7c-.429 0-1.063.363-1.647.651l-.016 2.027C.617 13.385 1.274 13 1.667 13c.672 0 1.954 1 2.666 1 .634 0 1.99-1 2.667-1 .672 0 2.029 1 2.667 1 .672 0 2.034-1 2.666-1 .396 0 1.078.392 1.697.685l.047-2.024c-.603-.3-1.305-.685-1.744-.661-.637 0-1.953 1-2.666 1-.594 0-1.995-1-2.667-1-.672 0-2.072 1-2.667 1-.634 0-1.954-1-2.666-1z"/></svg>