<svg width="14" height="14" xmlns="http://www.w3.org/2000/svg"><path d="m1,11c.64,0,1.83,1,2.4,1,.54,0,1.8-1,2.4-1s1.87,1,2.4,1c.64,0,1.83-1,2.4-1,.64-.03,1.9,1,2.4,1v2c-.6,0-1.83-1-2.4-1-.57,0-1.8,1-2.4,1-.57,0-1.8-1-2.4-1-.61,0-1.83,1-2.4,1-.64,0-1.79-1-2.4-1zm0-8c1.09,0,2,.3,2,1.75L3,7.25c0,2,1.5,3,2.5,3,0,0-.5-1-.5-3v-2.5C5,3.84,4.35,3.44,4,3,5.09,3,6,3.3,6,4.75v2.5c0,2,1.5,3,2.5,3,0,0-.5-1-.5-3l.1-2.5C8.14,3.84,7.35,3.44,7,3c1.09,0,2,.3,2,1.75v2.5c0,2,1.5,3,2.5,3,0,0-.5-1-.5-3v-2.5C11,1.75,8,1,7,1H0v2z"/></svg>