<svg xmlns="http://www.w3.org/2000/svg" version="1.0" width="14" height="14" id="svg2"><defs id="defs4"><clipPath id="clipoutline2" clipPathUnits="userSpaceOnUse"><path d="M55.8 12l.76.16c8.84-2.94 28.68 8.64 24.26 18.96-1.12 1.62-.93 4.5.42 6.31L56.43 62.25c-1.39-1.39-4.48-1.36-5.9 0L9.5 101.63c-3.74 3.59-.8 6.64.78 8.25l7.36 7.36c1.61 1.6 5.86 3.76 8.88.56l38.72-40.81c1.35-1.42 1.36-4.47 0-5.87 0 0 .01-.02 0-.02l24.91-24.9c2.63 2.37 5.114 2.575 7.47 1.93 4.55-1.245 7.087 3.207 9.81 6.46l-1.23 1.21c-1.82 1.84-1.65 4.94.39 6.98s5.15 2.21 6.97.39l8.14-8.13c1.82-1.84 1.65-4.94-.4-6.97-1.84-1.85-4.51-2.09-6.37-.77-5.58-6.26-2.65-7.2-10.01-15.35L91.13 17.86C81.2 8.12 68.3 8.13 55.8 12z" id="outline2"/></clipPath><clipPath id="clipoutline1" clipPathUnits="userSpaceOnUse"><path d="M22.42 17.2l12.96 12.95-2.5 8.78-8.78 2.5-12.96-12.96-5.86 5.86 14.89 21.46 17.56-3.34 61.63 65.62c9.44 9.51 22.17-4.75 13.34-12.87L46.85 42.92l4.01-17.76-22.14-14.27zm81.06 91.97a4.297 4.297 0 016.08 0 4.297 4.297 0 010 6.08 4.316 4.316 0 01-6.08 0 4.297 4.297 0 010-6.08z" id="outline1"/></clipPath><marker viewBox="0 0 10 10" refY="5" refX="10" orient="auto" markerWidth="4" markerUnits="strokeWidth" markerHeight="3" id="ArrowStart"><path id="path2295" d="M10 0L0 5l10 5z"/></marker><marker viewBox="0 0 10 10" refY="5" refX="0" orient="auto" markerWidth="4" markerUnits="strokeWidth" markerHeight="3" id="ArrowEnd"><path id="path2292" d="M0 0l10 5-10 5z"/></marker><style type="text/css" id="style6"></style></defs><g transform="matrix(.77534 0 0 .77399 1.002 -801.297)" id="layer1" display="inline" fill="#fff" fill-opacity="1" fill-rule="evenodd" stroke="none" stroke-width=".311" stroke-miterlimit="4" stroke-dasharray="none" stroke-opacity="1"><path d="M6.792 1048.037s-1.337-1.567-2.726-3.847c-1.102-1.808-2.122-4.19-2.215-4.443.752-.548 4.593-2.277 5.371-2.447.227.875.581 2.588 1.33 4.252.774 1.72 1.705 3.06 2.052 3.513-.83.782-3.812 2.972-3.812 2.972zm2.617-.959c.096.802 2.796 4.527 3.71 5.203.352.26.598.048 1.197-.375.598-.423.824-.783.605-1.293-.447-1.045-2.405-4.8-3.325-5.4-.884-1.288-1.626-2.262-2.355-4.047-.754-1.847-1.235-3.723-1.524-4.826-1.026.298-2.727 1.019-3.773 1.501-1.165.538-1.999 1.062-2.925 1.56.293.85.994 2.949 2.456 5.215 1.156 1.791 2.128 3.217 3.223 4.302zm-4.06-7.452c0-.415.354-.75.791-.75.438 0 .793.335.793.75 0 .414-.355.75-.793.75-.437 0-.792-.336-.792-.75z" id="path3670"/><path id="path4008" d="M6.792 1048.037s-1.337-1.567-2.726-3.847c-1.102-1.808-2.122-4.19-2.215-4.443.752-.548 4.593-2.277 5.371-2.447.227.875.581 2.588 1.33 4.252.774 1.72 1.705 3.06 2.052 3.513-.83.782-3.812 2.972-3.812 2.972zm2.617-.959c.096.802 2.796 4.527 3.71 5.203.352.26.598.048 1.197-.375.598-.423.824-.783.605-1.293-.447-1.045-2.405-4.8-3.325-5.4-.884-1.288-1.626-2.262-2.355-4.047-.754-1.847-1.235-3.723-1.524-4.826-1.026.298-2.727 1.019-3.773 1.501-1.165.538-1.999 1.062-2.925 1.56.293.85.994 2.949 2.456 5.215 1.156 1.791 2.128 3.217 3.223 4.302zm-4.06-7.452c0-.415.354-.75.791-.75.438 0 .793.335.793.75 0 .414-.355.75-.793.75-.437 0-.792-.336-.792-.75z"/></g><path d="M6.268 9.868S5.232 8.655 4.154 6.891c-.854-1.4-1.645-3.243-1.717-3.44.583-.423 3.561-1.761 4.165-1.893.175.677.45 2.003 1.03 3.291.6 1.33 1.323 2.368 1.592 2.719-.644.606-2.956 2.3-2.956 2.3zm2.029-.742c.075.62 2.168 3.504 2.876 4.027.273.202.464.037.928-.29.464-.327.64-.606.47-1-.347-.81-1.865-3.715-2.578-4.18-.686-.997-1.26-1.75-1.826-3.133C7.582 3.12 7.21 1.67 6.985.815c-.796.231-2.114.789-2.925 1.162-.903.416-1.55.822-2.268 1.207.227.659.77 2.283 1.904 4.037.897 1.386 1.65 2.49 2.5 3.33zM5.149 3.358c0-.32.275-.58.614-.58.34 0 .614.26.614.58 0 .321-.275.581-.614.581-.34 0-.614-.26-.614-.58z" id="path4036" fill-opacity="1" fill-rule="evenodd" stroke="none" stroke-width=".241" stroke-miterlimit="4" stroke-dasharray="none" stroke-opacity="1"/></svg>