<svg xmlns="http://www.w3.org/2000/svg" viewBox="0 0 14 14" height="14.933" width="14.933"><path d="M8.537 1.276a1.268 1.26 0 001.268 1.26 1.268 1.26 0 001.268-1.26A1.268 1.26 0 009.805.016a1.268 1.26 0 00-1.268 1.26zM1.685 9.835l2.681.689c.11.028.352.003.444-.02.235-.045.303-.155.395-.269l1.27-2.091L8.07 9.857l-.644 3.202a.62.62 0 00-.031.172c0 .205.066.382.2.53a.618.618 0 00.475.223c.348 0 .563-.2.645-.6l.782-3.887c.092-.411.052-.714-.122-.908L7.978 7.03l1.52-1.97.981 1.097c.103.114.22.17.353.17.174 0 .343-.085.506-.256l1.596-1.781a.634.634 0 00.123-.377.601.601 0 00-.161-.428.5.5 0 00-.376-.172.43.43 0 00-.338.137l-1.32 1.474-1.595-1.782c-.123-.137-.28-.246-.46-.205l-3.474.773c-.15.033-.26.175-.373.312l-.771 1.33a.56.56 0 00-.184.428c0 .16.05.297.153.411a.478.478 0 00.368.171.504.504 0 00.4-.205l.895-1.5 1.456-.247-3.02 4.687-2.46-.706c-.195 0-.372.04-.505.176-.133.137-.268.259-.268.476 0 .205.084.384.217.526.133.143.265.22.444.266z" fill-rule="evenodd"/></svg>