<svg xmlns="http://www.w3.org/2000/svg" height="14" width="14"><path d="M0 11h14c-1 2-5 3-7 3s-5.699-1-7-3zM9 .06c-1 0-1.675 1.036-2.012 1.815C6.651 1.058 6 .015 5 .015 3.5.015 3 1.94 3 2.94s1 .675 1 .03c1-2 2-1.613 2.242 1.548v.35A2.837 2.837 0 005 4.558c-1.467 0-2.75 1.033-2.75 3v1c0 1 1.5 1 1.5 0v-1c0-.966.683-1.5 1.25-1.5.55 0 1.202.536 1.242 1.418V10C7 9.422 7 9.406 7.727 10l.023-2.442v-.125c.041-.88.693-1.416 1.242-1.416.567 0 1.25.534 1.25 1.5v1c0 1 1.5 1 1.5 0v-1c0-1.967-1.283-3-2.75-3-.43 0-.859.121-1.242.31 0-.09-.017-.18 0-.269C8 1.814 9 1 10 3c0 .528 1 .924 1-.076S10.5.06 9 .06z" fill-rule="evenodd"/></svg>