<svg xmlns="http://www.w3.org/2000/svg" height="14" width="14"><path d="M7.761 9.678q-.48.545-1.079.88-.591.328-1.19.328-.658 0-1.279-.379-.62-.378-1.012-1.164-.385-.786-.385-1.724 0-1.157.599-2.314.606-1.165 1.5-1.747.895-.582 1.738-.582.643 0 1.227.335.584.327 1.005 1.004l.251-1.128h1.323L9.395 8.07q-.222 1.018-.222 1.128 0 .196.148.342.155.138.37.138.391 0 1.027-.444.843-.582 1.33-1.557.496-.983.496-2.023 0-1.215-.636-2.27-.628-1.056-1.885-1.689-1.249-.633-2.764-.633-1.73 0-3.164.8-1.427.794-2.217 2.286-.784 1.484-.784 3.187 0 1.782.784 3.07.79 1.288 2.276 1.9 1.493.618 3.304.618 1.937 0 3.245-.64 1.309-.64 1.96-1.557H14q-.377.764-1.294 1.557-.916.793-2.18 1.251Q9.262 14 7.48 14q-1.64 0-3.03-.415-1.382-.415-2.358-1.251-.976-.83-1.471-1.914Q0 9.045 0 7.451q0-1.775.74-3.383.901-1.972 2.557-3.02Q4.96 0 7.325 0q1.833 0 3.29.742 1.463.735 2.306 2.198.717 1.259.717 2.736 0 2.11-1.508 3.747-1.345 1.47-2.942 1.47-.51 0-.828-.153-.31-.153-.458-.436-.096-.182-.14-.626zM4.184 7.706q0 .997.48 1.55t1.102.553q.414 0 .872-.24.458-.248.872-.728.421-.48.687-1.215.267-.742.267-1.485 0-.99-.503-1.535-.495-.546-1.212-.546-.473 0-.895.24-.414.233-.805.757-.392.524-.629 1.274-.236.749-.236 1.375z" aria-label="@" stroke-width=".375"/></svg>