<svg xmlns="http://www.w3.org/2000/svg" height="14" width="14"><path d="M6.07 0L4.126.307c-.015 3.287-.028 6.575-.04 9.863l-.549-.04c-1.328-.093-2.733.561-3.35 1.56-.227.367-.25.95-.05 1.267.311.495 1.051.91 1.856 1.043 1.85-.053 3.176-.7 4.075-2.033L6.07 0zm.94.02a6.99 6.985 0 00-.02 0v.983a5.989 6.006 0 015.978 6.006 5.989 6.006 0 01-5.99 6.006 5.989 6.006 0 01-.491-.026l-.868.856a6.99 6.985 0 001.392.144A6.99 6.985 0 0014 7.006 6.99 6.985 0 007.01.02zM3.026 1.268A6.99 6.985 0 00.021 7.006a6.99 6.985 0 00.646 2.916l.873-.414A5.989 6.006 0 01.99 7.01a5.989 6.006 0 012.037-4.504zM6.99 5v1a1.033 1 0 01.017 0A1.033 1 0 018.04 7a1.033 1 0 01-1.034 1 1.033 1 0 01-.017-.002V9a2 2 0 001.987-2 2 2 0 00-1.987-2z"/></svg>