<svg viewBox="0 0 14 14" xmlns="http://www.w3.org/2000/svg"><path fill="#fff" fill-rule="evenodd" paint-order="stroke fill markers" d="M2.988 9.718l.289.054-.721 3.839-.29-.054z"/><g transform="translate(-.058 .35)" fill-rule="evenodd" paint-order="stroke fill markers"><path d="M3.325 4.06a2.722 2.722 0 015.35 1.005"/><rect transform="rotate(10.641)" x="6.145" y="-1.629" width="1.433" height="4.231" ry=".716"/><circle transform="rotate(10.641)" cx="6.692" cy="6.341" r=".855"/><circle transform="rotate(10.641)" cx="6.718" cy="8.991" r=".855"/><circle transform="rotate(10.641)" cx="6.658" cy="11.66" r=".855"/><circle transform="rotate(10.641)" cx="9.257" cy="5.813" r=".855"/><circle transform="rotate(10.641)" cx="9.709" cy="8.442" r=".855"/><circle transform="rotate(10.641)" cx="10.27" cy="11.088" r=".855"/><circle transform="rotate(10.641)" cx="4.199" cy="5.849" r=".855"/><circle transform="rotate(10.641)" cx="3.59" cy="8.451" r=".855"/><circle transform="rotate(10.641)" cx="3.008" cy="11.063" r=".855"/><rect transform="matrix(-.012 .99993 -.99999 -.00372 0 0)" x="-.386" y="-14.062" width="1.433" height="7.606" ry=".716"/><rect transform="matrix(-.0061 .99998 -.99997 -.00731 0 0)" x="-.425" y="-14.056" width="1.433" height="3.864" ry="0"/></g></svg>