<svg xmlns="http://www.w3.org/2000/svg" width="12" height="12"><path d="M10 6.429V7l-3-.5v2l1 1.056V10H5v-.444L6 8.5v-2L3 7v-.571L6 5V3c0-.444.056-1 .5-1s.5.556.5 1v2z" style="marker:none" opacity=".3" color="#000" fill="none" stroke="#fff" stroke-width="2" stroke-linecap="round" stroke-linejoin="round" overflow="visible"/><path d="M10 6.429V7l-3-.5v2l1 1.056V10H5v-.444L6 8.5v-2L3 7v-.571L6 5V3c0-.444.056-1 .5-1s.5.556.5 1v2z" fill="#444"/><path style="marker:none" opacity=".5" color="#000" fill="none" overflow="visible" d="M0 0h12v12H0z"/></svg>